<?xml version="1.0" encoding="utf-8"?>
<!-- Generator: Adobe Illustrator 20.0.0, SVG Export Plug-In . SVG Version: 6.00 Build 0)  -->
<svg version="1.1" id="图层_1" xmlns="http://www.w3.org/2000/svg" xmlns:xlink="http://www.w3.org/1999/xlink" x="0px" y="0px"
	 viewBox="0 0 824 45" style="enable-background:new 0 0 824 45;" xml:space="preserve">
<style type="text/css">
	.st0{fill:#FFFFFF;}
</style>
<title>Pasted28</title>
<g>
	<path class="st0" d="M185.3,26.9h19.8V11.4h-15.3l2.3-9.7l1.5,0.3l-1.9,7.9h13.3V1.1h1.5v8.9h17.5v1.5h-17.5v15.5h19.8v1.5h-19.8
		V44h-1.5V28.4h-19.8V26.9z"/>
	<path class="st0" d="M252.8,2.8c-0.6,3.2-1.2,6.3-2,9.3l21.8,30.1l-1.2,0.9L250.3,14c-3.3,11.1-8.9,20.9-18.2,29.2l-0.9-1.1
		c12-10.7,17.6-24.1,20.1-39.6L252.8,2.8z"/>
	<path class="st0" d="M293.4,2c-0.5,1.8-1,3.4-1.6,5.1H319v1.5h-27.8c-1.7,3.9-3.9,7.2-6.6,10.1V44h-1.5v-24c-1.6,1.5-3.3,2.8-5.1,4
		l-0.7-1.2c5.5-3.5,9.6-8.3,12.3-14.3h-13V7h13.7c0.6-1.7,1.2-3.5,1.7-5.4L293.4,2z M318.2,23h-13.4v18.2H319v1.5h-30.8v-1.5h15.1
		V23H289v-1.5h14.3v-8.1h1.5v8.1h13.4V23z"/>
	<path class="st0" d="M336.2,41.6h-13.6v-1.5h13.6V41.6z M334.6,13.5l-8.4,18.3h9.1v1.5H324l5.8-12.8h-6.1l7.8-18.9l1.4,0.6L326,19
		h4.5l2.8-6.1L334.6,13.5z M347,1.4c0.8,3.1,1.6,6.2,2.6,9.2l13.7-1.1l0.1,1.5L350.1,12c0.9,2.7,1.8,5.4,2.9,8l12.5-1l0.1,1.5l-12,1
		c1.3,3.2,2.7,6.3,4.1,9.3c2.3-1.7,4.2-3.4,6-5.3l1,1c-1.8,2-4,3.9-6.3,5.6c1.8,3.7,3.9,7.2,6.1,10.7l-1.2,0.8
		c-2.2-3.4-4.2-7-6.1-10.7c-4.6,3.1-10.1,5.9-16.8,8l-0.4-1.4c6.7-2.2,12.1-4.9,16.6-8c-1.6-3.3-3.1-6.7-4.5-10.1l-14.2,1.1
		l-0.1-1.5l13.7-1.1c-1-2.7-1.9-5.3-2.8-8.1l-10.4,0.8l-0.1-1.5l10.1-0.8c-0.9-2.9-1.7-5.9-2.5-8.9L347,1.4z M360,1.5v5.6h-1.5V1.5
		H360z"/>
	<path class="st0" d="M375.6,34.4l-3.1,9.4l-1.4-0.4l3.1-9.4L375.6,34.4z"/>
	<path class="st0" d="M454.1,31.9l-3.4-5.4c-0.9-1.5-2.3-2.4-4.3-2.4h-21.2c-2.1,0-3.5,0.9-4.4,2.4l-3.4,5.4l-1.2-0.8l3.4-5.4
		c1.2-1.8,3-3.1,5.6-3.1h21.2c2.6,0,4.3,1.3,5.6,3.1l3.4,5.4L454.1,31.9z M416.4,2.1h38.7v1.4h-18.6v3.8h15c1.9,0,3.3,1.4,3.3,3.3
		v10.2h-1.5V10.7c0-1.1-0.8-1.8-1.8-1.8h-15v12.2H435V8.8h-15c-1.1,0-1.9,0.8-1.9,1.8v10.2h-1.5V10.7c0-1.9,1.5-3.3,3.4-3.3h15V3.5
		h-18.6V2.1z M420.3,31.4H435v-5.1h1.5v5.1h13.9c-0.1,3.1-6.7,6.3-13.7,8l10.2,2.3l-0.4,1.4L421,37.3l0.3-1.5l12,2.8
		c6.5-1.1,12.7-3.5,14.3-5.7h-27.4V31.4z M421.2,12.3h10.7v1.5h-10.7V12.3z M421.2,17.2h10.7v1.4h-10.7V17.2z M439.7,12.3h10.7v1.5
		h-10.7V12.3z M439.7,17.2h10.7v1.4h-10.7V17.2z"/>
	<path class="st0" d="M464.5,22.8v17.8l5.3-1.3V18.7h-4c-1.8,0-3.3-1.5-3.3-3.4V6c0-1.8,1.5-3.3,3.3-3.3h7c1.8,0,3.4,1.5,3.4,3.3
		v9.4c0,1.8-1.5,3.4-3.4,3.4h-1.6v7.2h6.4v1.5h-6.4V39l5.7-1.4l0.3,1.5l-16.6,4l-0.3-1.5l2.7-0.6V22.8H464.5z M465.8,4.1
		c-1.1,0-1.8,0.8-1.8,1.8v9.4c0,1.1,0.8,1.9,1.8,1.9h7c1.1,0,1.9-0.8,1.9-1.9V6c0-1.1-0.8-1.8-1.9-1.8H465.8z M503.2,43.2h-17.5
		c-2.8,0-5.1-2.3-5.1-5.1V8c0-2.7,2.3-5.1,5.1-5.1h17.5v1.5h-17.5c-2,0-3.6,1.6-3.6,3.6v6.3h15.4c2.3,0,4.2,1.8,4.2,4.1v8.1
		c0,2.3-1.8,4.2-4.2,4.2h-15.4v7.4c0,2,1.6,3.6,3.6,3.6h17.5V43.2z M482.1,15.8v13.5h15.4c1.5,0,2.7-1.2,2.7-2.7v-8.1
		c0-1.5-1.2-2.7-2.7-2.7H482.1z"/>
	<path class="st0" d="M507,5H527V1h1.5v4h20.1v1.5H507V5z M544.6,9.4v8.6c0,2.3-1.8,4.2-4.2,4.2h-14.5l-1.6,4.2h16.8
		c2.8,0,5,2.3,5,5.1v7.2c0,2.8-2.3,5.1-5,5.1H538v-1.5h3.1c2,0,3.6-1.6,3.6-3.6v-7.2c0-2-1.6-3.6-3.6-3.6h-17.4l-3.7,9.9h12.9
		c1.5,0,2.7-1.2,2.7-2.8v-2.9h1.5v2.9c0,2.4-1.8,4.2-4.2,4.2h-15l4.3-11.4h-7.7c-2,0-3.6,1.6-3.6,3.6V44h-1.5V31.6
		c0-2.7,2.3-5.1,5.1-5.1h8.3l1.6-4.2h-9.2c-2.2,0-4.2-1.8-4.2-4.2V9.4h1.5v8.6c0,1.5,1.2,2.7,2.7,2.7h25.2c1.5,0,2.8-1.2,2.8-2.7
		V9.4H544.6z M517.4,8.9l11.4,4c3.5-1.2,6.8-2.6,9.8-4.1l0.7,1.3c-2.7,1.3-5.4,2.5-8.3,3.6l9.2,3.2l-0.6,1.4l-10.9-3.8
		c-3.9,1.4-8,2.5-12.4,3.5l-0.4-1.5c3.8-0.9,7.3-1.8,10.6-2.9l-9.7-3.4L517.4,8.9z"/>
	<path class="st0" d="M561.8,28.7l-7.5,14.9L553,43l7.5-14.9L561.8,28.7z M557.6,2v8.8h-1.5V2H557.6z M557.6,15.1V24h-1.5v-8.9
		H557.6z M582.8,41.6h6.6c2,0,3.6-1.6,3.6-3.6V12c0-2-1.6-3.6-3.6-3.6h-24.5l3.3-6.9l1.3,0.6l-2.3,4.9h22.3c2.7,0,5.1,2.3,5.1,5.1
		V38c0,2.8-2.3,5.1-5.1,5.1h-6.6V41.6z M585.4,24v6.8c0,2.8-2.3,5.1-5.1,5.1h-14.5L573,12l1.4,0.4l-6.7,21.9h12.6
		c2,0,3.6-1.6,3.6-3.6V24H585.4z"/>
	<path class="st0" d="M602.2,1.8v8.1h-1.5V1.8H602.2z M638.7,43h-33c-2.8,0-5.1-2.3-5.1-5.1V12.9h1.5v25.1c0,2,1.6,3.6,3.6,3.6h33
		V43z M613.7,6.9l3,5.8H629l3.4-8.3h-22.9V2.9h25l-4,9.8h1.1c2.8,0,5.1,2.2,5.1,5v15.7c0,2.8-2.3,5.1-5.1,5.1h-1.9V37h1.9
		c2,0,3.6-1.6,3.6-3.6v-2.5h-11.9v7.8h-1.5v-7.8h-11.8v7.5h-1.5V17.7c0-2.8,2.3-5,5.1-5h1.4l-2.6-5.1L613.7,6.9z M610.1,21.2h11.8
		v-7h-8.2c-2,0-3.6,1.6-3.6,3.6V21.2z M610.1,29.4h11.8v-6.8h-11.8V29.4z M623.3,14.1v7h11.9v-3.4c0-2-1.6-3.6-3.6-3.6H623.3z
		 M623.3,29.4h11.9v-6.8h-11.9V29.4z"/>
</g>
</svg>
