<?xml version="1.0" encoding="utf-8"?>
<!-- Generator: Adobe Illustrator 20.0.0, SVG Export Plug-In . SVG Version: 6.00 Build 0)  -->
<svg version="1.1" id="图层_1" xmlns="http://www.w3.org/2000/svg" xmlns:xlink="http://www.w3.org/1999/xlink" x="0px" y="0px"
	 viewBox="0 0 680.5 62.7" style="enable-background:new 0 0 680.5 62.7;" xml:space="preserve">
<style type="text/css">
	.st0{fill:#FFFFFF;}
</style>
<g>
	<path class="st0" d="M142.6,9.3v4h20.5v1.5h-42.6v-1.5h20.5v-4H142.6z M122.8,53.5v-16c0-2.8,2.3-5.2,5.2-5.2h28.4
		c2.8,0,5.2,2.4,5.2,5.2v10.7c0,2.9-2.4,5.2-5.2,5.2h-2.2v-1.5h2.2c2.1,0,3.7-1.6,3.7-3.7V37.5c0-2.1-1.6-3.7-3.7-3.7h-28.4
		c-2,0-3.7,1.6-3.7,3.7v16H122.8z M157.8,25c0,1.8-1.6,3.4-3.5,3.4h-24.9c-1.9,0-3.5-1.6-3.5-3.4v-2.9c0-1.9,1.6-3.4,3.5-3.4h24.9
		c2,0,3.5,1.6,3.5,3.4V25z M156.3,22.1c0-1.1-0.8-1.9-2-1.9h-24.9c-1.1,0-2,0.8-2,1.9V25c0,1.1,0.8,1.9,2,1.9h24.9
		c1.1,0,2-0.8,2-1.9V22.1z M154.4,45.1c0,1.9-1.6,3.4-3.5,3.4h-17.5c-1.9,0-3.5-1.6-3.5-3.4v-3.7c0-1.9,1.6-3.4,3.5-3.4h17.5
		c1.9,0,3.5,1.6,3.5,3.4V45.1z M152.9,41.4c0-1.1-0.9-1.9-2-1.9h-17.5c-1.1,0-2,0.8-2,1.9v3.7c0,1.1,0.9,1.9,2,1.9h17.5
		c1.1,0,2-0.8,2-1.9V41.4z"/>
	<path class="st0" d="M178.2,50.8h7.8c2,0,3.6-1.6,3.6-3.6v-8.1h-22v-1.5h22V27.3H169v-1.5h20.6V14.1L171,14.8l-0.1-1.5l37-1.5
		l0.1,1.5L191.1,14v11.8h18.2v1.5h-18.2v10.3h19.2v1.5h-19.2v8.1c0,2.8-2.3,5.1-5.1,5.1h-7.8V50.8z"/>
	<path class="st0" d="M235.7,52.9v-9.3h-16.2l-0.4,9.6l-1.5,0l1.1-25.9c0.1-2.8,2.4-5.1,5.2-5.1h22.4l3.2-6.3h-29.1l2.9-6.2l1.3,0.6
		l-1.9,4h29.1l-4,7.8h1.4c2.8,0,5.2,2.3,5.2,5.1v20.5c0,2.9-2.4,5.2-5.2,5.2h-3.6v-1.5h3.6c2,0,3.7-1.6,3.7-3.7v-4.2h-15.9v9.3
		H235.7z M219.6,42.1h16.1v-8.9h-15.7L219.6,42.1z M220,31.8h15.7v-8.1h-11.8c-2,0-3.5,1.6-3.7,3.7L220,31.8z M237.1,23.6v8.1H253
		v-4.5c0-2.1-1.6-3.6-3.7-3.6H237.1z M237.1,42.1H253v-8.9h-15.9V42.1z"/>
	<path class="st0" d="M265.1,10.2v8.3h-1.5v-8.3H265.1z M302.5,52.3h-33.8c-2.8,0-5.1-2.3-5.1-5.2V21.5h1.5v25.7
		c0,2.1,1.6,3.7,3.6,3.7h33.8V52.3z M269.9,11.7h32.8v1.5h-15.1c-0.9,1.6-2.2,3.1-3.8,4.6c1.7,1.8,3.2,4.1,4.3,6.5l1,1.6l11.8-6.7
		l0.7,1.4L290,27.2l11.3,17.3l-1.2,0.8l-10.2-15.7c0.2,1.3,0.4,2.6,0.4,3.9c0,5.2-2.1,10.5-7.3,14.6L282,47
		c4.5-3.6,6.5-8.1,6.7-12.4c-5.5,4.3-11.6,7.6-18.5,10.6l-0.6-1.4c7.2-3.1,13.7-6.5,19.1-11.1c-0.1-2.6-0.8-5.1-1.8-7.4
		c-4.6,3.7-10.2,6.8-16.1,9.5l-0.6-1.3c5.8-2.7,11.5-5.7,16.1-9.5c-1-1.9-2.3-3.7-3.6-5.1c-3,2.4-7,4.4-12.1,6.5l-0.5-1.4
		c7.8-3.1,13-6.6,15.7-10.6h-15.9V11.7z"/>
	<path class="st0" d="M315.7,43.5l-3.2,9.7l-1.4-0.4l3.2-9.7L315.7,43.5z"/>
	<path class="st0" d="M359.1,20.8v1.9c0,11.3-0.7,21.4-1.6,29.7l-1.5-0.1c0.9-8.3,1.6-18.4,1.6-29.6v-1.9H359.1z M364.9,9.2v7h7.2
		v1.5h-7.2v35.6h-1.5V17.7h-7.2v-1.5h7.2v-7H364.9z M370.3,20.8v31.9h-1.5V20.8H370.3z M373.3,13.4h11.9V9.3h1.5v4.1h11.9v1.5h-25.3
		V13.4z M373.3,33.2h11.9v-4.6h1.5v4.6h11.9v1.5h-18.3c0,2.1-0.2,4-0.5,5.8h13.2c2.2,0,3.9,1.9,3.9,4.3v3.7c0,2.4-1.7,4.3-3.9,4.3
		h-2.8v-1.5h2.8c1.4,0,2.4-1.3,2.4-2.8v-3.7c0-1.6-1-2.8-2.4-2.8h-13.4c-0.7,4-2,7.3-4,10.8l-1.3-0.8c3-5.1,4.2-9.8,4.5-17.3h-5.5
		V33.2z M394.8,17.6v5.4c1.8,0.4,3.2,2.1,3.2,4.1v2.2h-1.5v-2.2c0-1.5-1.1-2.7-2.5-2.7H378c-1.4,0-2.5,1.2-2.5,2.7v2.2h-1.5v-2.2
		c0-2,1.3-3.8,3.2-4.1v-5.4h1.5V23h14.6v-5.3H394.8z"/>
	<path class="st0" d="M421,10.5v10.8h22.9v1.5H421v26.4h24.6v1.5h-42.4v-1.5h16.3V10.5H421z"/>
	<path class="st0" d="M468.1,10.6c-0.7,1.6-1.3,3.1-2,4.5h26.6v1.5h-27.4c-1.5,2.9-3,5.5-4.6,7.8c0.7-0.4,1.6-0.7,2.5-0.7h20.7
		c2.8,0,5.2,2.3,5.2,5.1v19c0,2.9-2.4,5.2-5.2,5.2h-3.2v-1.5h3.2c2,0,3.7-1.6,3.7-3.7v-3.7h-28l0,9.2h-1.5l0-24.5c0-0.3,0-0.7,0.1-1
		c-2.2,2.7-4.6,5.2-7,7.4l-1-1.1c4.9-4.5,9.5-10.1,13.4-17.6h-12.4v-1.5h13.2c0.8-1.6,1.6-3.3,2.3-5.1L468.1,10.6z M459.5,28.9v4.4
		h28v-4.4c0-2-1.6-3.6-3.7-3.6h-20.7C461.2,25.3,459.5,26.9,459.5,28.9z M459.5,42.7h28v-7.9h-28V42.7z"/>
	<path class="st0" d="M506.1,10.4l-2.4,4.7h34.4c-1.5,10.4-3.6,18.1-35,18.1c-1.5,0-3,0-4.5,0v-1.5c1.6,0,3.1,0,4.5,0
		c29.1,0,31.8-6.5,33.3-15.1h-35l3.4-6.8L506.1,10.4z M500.9,41.2c0-2.8,2.3-5.2,5.2-5.2h27.3c2.8,0,5.2,2.4,5.2,5.2v6.5
		c0,2.9-2.4,5.2-5.2,5.2h-27.3c-2.9,0-5.2-2.3-5.2-5.2V41.2z M528.4,25h-26.6v-1.5h26.6V25z M502.4,47.6c0,2,1.6,3.7,3.7,3.7h27.3
		c2,0,3.7-1.6,3.7-3.7v-6.5c0-2-1.6-3.7-3.7-3.7h-27.3c-2,0-3.7,1.6-3.7,3.7V47.6z"/>
</g>
</svg>
