<svg id="图层_1" data-name="图层 1" xmlns="http://www.w3.org/2000/svg" viewBox="0 0 6439 370.31"><defs><style>.cls-1{fill:#fff;}</style></defs><path class="cls-1" d="M5853.45,665.69c-292.76,0-293,120-585.72,120s-292.72-120-585.72-120h-.79c-292.76,0-292.66,120-585.42,120s-292.71-119.84-585.46-119.84l0,.16h-.09c-292.69,0-292.76,119.94-585.3,120s-292.62-120-585.3-120H2339v-.31c-292,.11-292.35,119.67-583.78,120-291.57-.32-291.9-120-584.26-120h-2c-291,.65-291.36,120-583.32,120-292.76,0-292.92-120-585.68-120V1036H6439V785.69C6146,785.69,6146.2,665.69,5853.45,665.69Z" transform="translate(0 -665.69)"/></svg>