<?xml version="1.0" encoding="utf-8"?>
<!-- Generator: Adobe Illustrator 20.0.0, SVG Export Plug-In . SVG Version: 6.00 Build 0)  -->
<svg version="1.1" id="图层_1" xmlns="http://www.w3.org/2000/svg" xmlns:xlink="http://www.w3.org/1999/xlink" x="0px" y="0px"
	 viewBox="0 0 489.3 61.5" style="enable-background:new 0 0 489.3 61.5;" xml:space="preserve">
<style type="text/css">
	.st0{fill:#FFFFFF;}
</style>
<g>
	<path class="st0" d="M76.8,12.2l-7.8,1v11h8.3v1.5H69v6.9c0,1,0,2-0.1,2.9h8.7v1.5h-8.8c-0.7,7.2-3.4,11.2-10.4,15l-0.7-1.3
		c6.4-3.5,8.9-7.1,9.6-13.7h-9v-1.5h9.1c0-0.9,0.1-1.9,0.1-2.9v-6.9h-8.9v-1.5h8.9V13.4l-8.2,1l-0.2-1.5l17.4-2.3L76.8,12.2z
		 M100.5,32.2h-9.8v8.1h10.5v1.5H90.7v11.1h-1.5V41.7H78.7v-1.5h10.6v-8.1h-9.9v-1.5h9.9v-8.3h-9.9v-1.5h9.9v-8.3h-9.9V11h21.2v1.5
		h-9.8v8.3h9.8v1.5h-9.8v8.3h9.8V32.2z"/>
	<path class="st0" d="M118,8.8v20.9c0,11.1-2.6,17-12.2,22.1l-0.7-1.4c8.9-4.7,11.4-10.4,11.4-20.7V8.8H118z M109.2,13.4V40h-1.5
		V13.4H109.2z M122.6,10.2h25.5v1.5h-12.1v7.1h6c2.9,0,5.2,2.3,5.2,5.2v19.7c0,2.9-2.4,5.2-5.2,5.2h-0.9v-1.5h0.9
		c2,0,3.7-1.7,3.7-3.7V24c0-2.1-1.6-3.7-3.7-3.7h-6v32.4h-1.5V20.3h-6c-2,0-3.7,1.6-3.7,3.7v24.8h-1.5V24c0-2.9,2.3-5.2,5.2-5.2h6
		v-7.1h-12V10.2z"/>
	<path class="st0" d="M174.5,8.7v4h20.6v1.5h-42.6v-1.5H173v-4H174.5z M154.6,52.9v-16c0-2.8,2.3-5.2,5.2-5.2h28.5
		c2.8,0,5.2,2.4,5.2,5.2v10.7c0,2.9-2.4,5.2-5.2,5.2h-2.2v-1.5h2.2c2.1,0,3.7-1.6,3.7-3.7V36.9c0-2.1-1.6-3.7-3.7-3.7h-28.5
		c-2,0-3.7,1.6-3.7,3.7v16H154.6z M189.7,24.4c0,1.8-1.6,3.4-3.5,3.4h-24.9c-1.9,0-3.5-1.6-3.5-3.4v-2.9c0-1.9,1.6-3.4,3.5-3.4h24.9
		c2,0,3.5,1.6,3.5,3.4V24.4z M188.2,21.5c0-1.1-0.8-1.9-2-1.9h-24.9c-1.1,0-2,0.8-2,1.9v2.9c0,1.1,0.8,1.9,2,1.9h24.9
		c1.1,0,2-0.8,2-1.9V21.5z M186.3,44.5c0,1.9-1.6,3.4-3.5,3.4h-17.5c-1.9,0-3.5-1.6-3.5-3.4v-3.7c0-1.9,1.6-3.4,3.5-3.4h17.5
		c1.9,0,3.5,1.6,3.5,3.4V44.5z M184.8,40.8c0-1.1-0.9-1.9-2-1.9h-17.5c-1.1,0-2,0.8-2,1.9v3.7c0,1.1,0.9,1.9,2,1.9h17.5
		c1.1,0,2-0.8,2-1.9V40.8z"/>
	<path class="st0" d="M210.2,50.3h7.8c2,0,3.6-1.6,3.6-3.6v-8.1h-22.1v-1.5h22.1V26.7h-20.6v-1.5h20.6V13.5l-18.6,0.7l-0.1-1.5
		l37-1.5l0.1,1.5l-16.9,0.7v11.8h18.2v1.5h-18.2v10.3h19.2v1.5h-19.2v8.1c0,2.8-2.3,5.1-5.1,5.1h-7.8V50.3z"/>
	<path class="st0" d="M253.5,42.9l-3.2,9.7l-1.4-0.4l3.2-9.7L253.5,42.9z"/>
	<path class="st0" d="M335,22.8l-12.3,9.7l13.2,16.8l-1.1,0.9l-18.2-23.2v20.3c0,2.9-2.4,5.2-5.2,5.2h-3.7v-1.5h3.7
		c2,0,3.7-1.6,3.7-3.7V16.5h-20.5V15H315V8.6h1.5V15h13.7c1.5,0,2.7-1.3,2.7-2.8l0-2.2h1.5l0,2.2c0,2.3-1.9,4.3-4.2,4.3h-13.7v8.1
		l5.3,6.8l12.3-9.7L335,22.8z M311.6,33.7L296,50l-1.1-1l15.6-16.3L311.6,33.7z M296.6,21.5l9.9,9.1l-1.1,1.1l-9.9-9.1L296.6,21.5z"
		/>
	<path class="st0" d="M355.8,51h-15.4v-1.5h15.4V51z M353.9,22.1l-9.5,18.9h10.4v1.5H342l6.6-13.2h-6.8l8.9-19.4l1.3,0.6l-7.9,17.3
		h5.3l3.2-6.3L353.9,22.1z M359,10.3h21.3c-2,3.9-4.2,7.1-6.8,9.9l10.3,9.6l-1.1,1l-10.3-9.6c-4,3.9-8.7,6.7-14.3,9.1l-0.6-1.4
		c9.1-3.6,15.6-8.8,20.2-17.1H359V10.3z M358.6,33.7h24.7v1.5h-11.6v15.3h12.5V52h-26.4v-1.5h12.4V35.2h-11.5V33.7z"/>
	<path class="st0" d="M387.3,40.3h12.6v1.5h-12.6V40.3z M391.5,15l-0.9,14.8h8.7c2.4,0,4.3,1.9,4.3,4.3v13.5c0,2.4-1.9,4.3-4.3,4.3
		h-6.1v-1.5h6.1c1.6,0,2.8-1.2,2.8-2.8V34.1c0-1.6-1.2-2.8-2.8-2.8H389l1-16.4L391.5,15z M401.5,27.6V14c0-1.6-1.2-2.8-2.8-2.8H389
		V9.7h9.7c2.4,0,4.3,1.9,4.3,4.3v13.7H401.5z M405.3,26.6l5-12.4c1-2.5,2.5-3.7,5.4-3.7h4.6c2.8,0,4.3,1.3,5.4,3.7l5,12.4l-1.4,0.5
		l-1.2-2.9h-20.3l-1.1,2.9L405.3,26.6z M405.5,50.4h26v1.5h-26V50.4z M409.3,28.9l1.9,17.9l-1.5,0.2L407.8,29L409.3,28.9z
		 M408.5,22.7h19l-3.2-8.1v0c-0.8-1.9-2-2.8-4-2.8h-4.6c-2,0-3.2,0.9-4,2.7L408.5,22.7z M418.1,28.9l1.9,17.9l-1.5,0.2L416.6,29
		L418.1,28.9z M429.2,29c-0.7,7-2,13-3.9,18.1l-1.4-0.5c1.8-5.1,3.1-10.7,3.8-17.7L429.2,29z"/>
</g>
</svg>
