<!-- Generator: Adobe Illustrator 20.1.0, SVG Export Plug-In  -->
<svg version="1.1"
	 xmlns="http://www.w3.org/2000/svg" xmlns:xlink="http://www.w3.org/1999/xlink" xmlns:a="http://ns.adobe.com/AdobeSVGViewerExtensions/3.0/"
	 x="0px" y="0px" width="619.8px" height="619.8px" viewBox="0 0 619.8 619.8" style="enable-background:new 0 0 619.8 619.8;"
	 xml:space="preserve">
<style type="text/css">
	.st0{opacity:0.4;fill:#FFFFFF;}
</style>
<defs>
</defs>
<g>
	<circle class="st0" cx="24.4" cy="309.8" r="24.4"/>
	
		<ellipse transform="matrix(0.7074 -0.7069 0.7069 0.7074 -44.6692 107.9851)" class="st0" cx="108.1" cy="107.9" rx="24.4" ry="24.4"/>
	<circle class="st0" cx="310" cy="24.4" r="24.4"/>
	
		<ellipse transform="matrix(0.7074 -0.7069 0.7069 0.7074 73.4119 393.4756)" class="st0" cx="511.9" cy="108.1" rx="24.4" ry="24.4"/>
	<circle class="st0" cx="595.5" cy="310" r="24.4"/>
	
		<ellipse transform="matrix(0.7074 -0.7069 0.7069 0.7074 -212.0786 511.5567)" class="st0" cx="511.8" cy="511.9" rx="24.4" ry="24.4"/>
	<circle class="st0" cx="309.8" cy="595.5" r="24.4"/>
	
		<ellipse transform="matrix(0.7074 -0.7069 0.7069 0.7074 -330.1597 226.0662)" class="st0" cx="107.9" cy="511.8" rx="24.4" ry="24.4"/>
</g>
<g>
	
		<ellipse transform="matrix(0.3875 -0.9219 0.9219 0.3875 -155.119 165.0979)" class="st0" cx="46.7" cy="199.3" rx="24.4" ry="24.4"/>
	<ellipse transform="matrix(0.9259 -0.3779 0.3779 0.9259 -2.2322 79.7163)" class="st0" cx="202" cy="45.5" rx="24.4" ry="24.4"/>
	
		<ellipse transform="matrix(0.3875 -0.9219 0.9219 0.3875 214.5729 416.3033)" class="st0" cx="420.6" cy="46.7" rx="24.4" ry="24.4"/>
	
		<ellipse transform="matrix(0.9259 -0.3779 0.3779 0.9259 -33.757 231.9963)" class="st0" cx="574.3" cy="202" rx="24.4" ry="24.4"/>
	
		<ellipse transform="matrix(0.3875 -0.9219 0.9219 0.3875 -36.6325 785.9952)" class="st0" cx="573.2" cy="420.6" rx="24.4" ry="24.4"/>
	
		<ellipse transform="matrix(0.9259 -0.3779 0.3779 0.9259 -186.037 200.4715)" class="st0" cx="417.8" cy="574.3" rx="24.4" ry="24.4"/>
	
		<ellipse transform="matrix(0.3875 -0.9219 0.9219 0.3875 -406.3244 534.7898)" class="st0" cx="199.3" cy="573.2" rx="24.4" ry="24.4"/>
	
		<ellipse transform="matrix(0.9259 -0.3779 0.3779 0.9259 -154.5122 48.1915)" class="st0" cx="45.5" cy="417.8" rx="24.4" ry="24.4"/>
</g>
</svg>
