<svg xmlns="http://www.w3.org/2000/svg" viewBox="0 0 187.11 45.03"><defs><style>.cls-1{fill:#aaaaaa;}</style></defs><title>tt1</title><g id="图层_2" data-name="图层 2"><g id="图层_1-2" data-name="图层 1"><path class="cls-1" d="M2.06,1.82H39.56V3.36H21.84A109.56,109.56,0,0,1,20.59,18h21v1.54H21.84l19.63,24.1-1.2,1L20.21,19.87C18,30.15,13,36.92.72,43.88L0,42.53c11.71-6.62,16.51-13.15,18.67-23H0V18H19A100.92,100.92,0,0,0,20.31,3.36H2.06Z"/><path class="cls-1" d="M47.38,27.17H68.07V11H52.13L54.58.86l1.54.34-2,8.26H68.07V.19H69.6V9.46H87.89V11H69.6V27.17H90.24v1.54H69.6V45H68.07V28.71H47.38Z"/><path class="cls-1" d="M104.54,9.41v7.92a70.64,70.64,0,0,1-.72,11.28L114,41.81l-1.2.91-9.36-12.15c-1.15,4.94-3.36,9.07-7.54,13.83l-1.2-1c7-8,8.3-14.11,8.3-26.11V9.41ZM95.66,31.25V6.38A4.32,4.32,0,0,1,100,2h7.78a4.32,4.32,0,0,1,4.37,4.37V31.25h-1.54V6.38a2.81,2.81,0,0,0-2.83-2.83H100A2.81,2.81,0,0,0,97.2,6.38V31.25Zm20.5-24.19h16.37V0h1.54V7.06h4.85V8.59h-4.85V38.88a5.33,5.33,0,0,1-5.28,5.28h-3.46V42.63h3.46a3.75,3.75,0,0,0,3.74-3.74V8.59h-7.15c-1.2,13.73-4,25.49-8.5,35.62l-1.44-.62c4.51-10,7.2-21.46,8.4-35h-7.68Z"/><path class="cls-1" d="M158.21,43.2h-15.7V41.67h15.7Zm-2-29.47-9.65,19.2H157.2v1.54H144.14L150.91,21h-7L153,1.2l1.34.62-8,17.62h5.38L154.9,13Zm5.23-12h21.7a42.55,42.55,0,0,1-6.91,10l10.51,9.79-1.1,1.06L175.2,12.91a44.28,44.28,0,0,1-14.54,9.22l-.58-1.44C169.3,17,176,11.76,180.63,3.31H161.47Zm-.38,23.81h25.15v1.54H174.39V42.68h12.72v1.54H160.18V42.68h12.67V27.12H161.09Z"/></g></g></svg>