<svg xmlns="http://www.w3.org/2000/svg" viewBox="0 0 375.75 87.38"><defs><style>.cls-1{fill:#444444;}</style></defs><title>tt2</title><g id="图层_2" data-name="图层 2"><g id="图层_1-2" data-name="图层 1"><path class="cls-1" d="M1.88,15.38H18V0h1.88V15.38h15v1.88h-15V54.38H18v-33A87,87,0,0,1,1.13,48L0,46.5A81.18,81.18,0,0,0,17.63,17.25H1.88ZM0,79.88a120.93,120.93,0,0,0,11.63-19.5l1.88.75A126.21,126.21,0,0,1,1.5,81Zm21.75-51,1.13-1.5,12,10.13L33.75,39ZM23.63,60H25.5V74.25q-.38,7.88,9,7.88H54q10.13.37,10.88-6a62.26,62.26,0,0,0,.75-8.25H67.5a63.66,63.66,0,0,1-.75,8.63Q65.25,84,54,84H34.5q-10.88,0-10.87-9.75Zm15-2.25,1.5-1.12L51.38,69l-1.12,1.13Zm1.5-51H81.38v45H40.13ZM79.5,8.25H41.63V21H79.5ZM41.63,22.88V35.63H79.5V22.88Zm0,27.38H79.5V37.13H41.63ZM72.75,61.13,74.25,60q1.13,1.88,4.5,6.38,6.37,8.63,9,12l-1.5.75Q76.87,66.75,72.75,61.13Z"/><path class="cls-1" d="M102.75,47.25H120V79.13q.37,6.75-6.75,6.38h-5.62V83.63h5.63q5.25.37,4.88-4.5v-7.5H104.25a26.75,26.75,0,0,1-7.12,15.75l-1.5-1.5q8.24-6.38,7.13-22.5ZM136.5.75,138,0l4.88,9.75h39.75v1.88H108.75v8.63H174v1.88H106.88V11.63H96V9.75h45ZM104.63,63.38a24,24,0,0,1-.37,3.75v3h13.88V60.75h-13.5Zm0-14.25v9.75h13.5V49.13Zm2.25-20.25H172.5V41.25H106.88Zm63.75,1.88H108.75v8.63h61.88ZM137.25,53.63h1.88v9.75a27,27,0,0,1-.75,7.13l10.13,9.38-1.5,1.5-9-8.62q-2.25,7.13-12.75,13.88l-1.12-1.5q14.25-7.87,13.13-21.75Zm-9-6h19.88v24h-1.87V49.13h-16.5v22.5h-1.5ZM156,64.13V48h17.63V79.5c0,2.5,1,3.75,3,3.75h1.13q3.74.37,3.75-3.75l.38-6.37h1.88V76.5a31.33,31.33,0,0,0-.37,3.38q-.38,5.63-5.62,5.25h-1.12q-4.5,0-4.5-5.62V49.88H157.88V64.13A32,32,0,0,1,149.63,87l-1.5-1.12A30.48,30.48,0,0,0,156,64.13Zm4.13-5.25,1.5-1.12,8.25,13.5-1.5.75Z"/><path class="cls-1" d="M194.25,14.25H223.5Q227.24,7.5,230.63,0l1.5.75a84.23,84.23,0,0,1-6.75,13.5h54.38v1.88H224.63a121,121,0,0,1-10.12,15H267V75.75q.75,10.87-11.62,10.13H244.5l.38-1.87h10.5q10.87.75,9.75-8.25V66.38H213.38V86.63H211.5V34.88a166.09,166.09,0,0,1-18.75,18.75l-1.12-1.5a131,131,0,0,0,30.75-36H194.25Zm19.13,18.38v15h51.75v-15Zm0,16.88v15h51.75v-15Z"/><path class="cls-1" d="M287.63,29.25h22.13v-18q-9.76,1.13-18.37,1.88V11.25a336.73,336.73,0,0,0,36-4.5l.38,1.5q-3,.76-10.87,2.25-3.37.38-5.25.75v18h28.5q-.38-6.37-.75-19.12Q339,3,339,0h1.88q.37,4.5.38,14.63.37,9.76.38,14.63h34.13v1.88H342q1.13,18,4.5,30.38,13.5-11.25,19.88-21l1.5,1.13a106.55,106.55,0,0,1-21,21.75q3.38,10.13,8.63,16.13,4.12,4.5,8.25,4.5,5.25.37,7.13-6.37,1.13-2.25,2.63-10.87a6.27,6.27,0,0,0,.38-1.87l1.5.38a112.79,112.79,0,0,1-2.62,12.38q-2.63,8.62-9,8.25-5.26,0-9.37-5.25-5.62-6-9-16.12Q332.62,74.63,321,79.13l-.75-1.5q11.25-4.87,24.75-15-3.75-12.37-4.87-31.5h-28.5V51.75l19.5-4.12.38,1.88-19.87,4.13V75q.37,10.13-10.5,9.75l-9-.37.38-1.87,8.63.38q9,.37,8.63-7.87V54l-21.37,4.13-.75-1.87,22.13-4.12v-21H287.63Zm64.5-21,1.13-1.5q2.62,2.25,9,7.88,4.12,3.75,5.63,4.88l-1.12,1.13q-1.88-1.49-7.87-6.75Q354,9.75,352.13,8.25Z"/></g></g></svg>