<svg id="隔离模式" xmlns="http://www.w3.org/2000/svg" viewBox="0 0 389.87 385.3"><defs><style>.cls-1{fill:#036eb8;}.cls-2{fill:#004986;}.cls-13,.cls-2{opacity:0.5;}.cls-3{fill:#e60012;}.cls-4{fill:#c30d23;}.cls-5{fill:#c9a063;}.cls-6{fill:#b28247;}.cls-7{fill:#f8b62d;}.cls-8{fill:#dcdddd;}.cls-9{fill:#fff;}.cls-10{fill:#f1cd77;}.cls-11{fill:#fdd695;}.cls-12{fill:#653c08;}.cls-13{fill:#ff935e;}.cls-14{fill:#ef7067;}.cls-15{fill:#facb7b;}.cls-16{fill:#643a00;}.cls-17{fill:#ea5514;}.cls-18{fill:#db6b5d;}.cls-19{fill:#231815;}.cls-20{fill:#f25c5b;}.cls-21{fill:#ec940e;}.cls-22{fill:#ffde94;}.cls-23{fill:#e8a135;}</style></defs><path class="cls-1" d="M84.14-181.81S84.89-70,167.09-7.9c0,0,16-35.59,57.14-26.06,0,0,23.56,5.51,41.6-15.54s29.07-46.38,107.76-39.73c0,0-60.09-84.41-142.72-109.62Z" transform="translate(16.29 393.19)"/><path class="cls-2" d="M93.44-143.12s-6.61-3.58,7.46,43.29c0,0-15.25-37.58-16.76-82Z" transform="translate(16.29 393.19)"/><path class="cls-2" d="M303.25-82.78s-23.51-40.9-93.06-73.15c0,0,63,33.36,81.48,79.42C291.67-76.51,298.39-81.13,303.25-82.78Z" transform="translate(16.29 393.19)"/><path class="cls-2" d="M230.86-198.85s30.68,9.6,56,26.89c0,0-31-21-47.46-17.7,0,0-7.64,1.5,1.08,15.59L223.6-196.7Z" transform="translate(16.29 393.19)"/><path class="cls-2" d="M214.68-35.43s-54.49-41.64-78.92-88.25c0,0,20,57.14,61.32,90A43.25,43.25,0,0,1,214.68-35.43Z" transform="translate(16.29 393.19)"/><path class="cls-3" d="M220.09-304.17S248-291,240.26-242.8c0,0-3.52,27.41-9.4,43.94,0,0,20.68,27.82,3.39,60.64,0,0,21.3,27.82-.75,37.84,0,0-21.8,9.27-35.08-14.53,0,0-16.29,3.76-22.05,3.26,0,0,9.52,17.54-8.52,21.55s-27.77-6.52-29.92-19c0,0-52.27-9-53.78-72.67,0,0-37.14-2.26-57.91-13.28s-29-20.62-29-20.62l.14-55.49s21.12,1.93,32.4,14.46l77.56-14.66s70.29,10.65,71.8-7.39Z" transform="translate(16.29 393.19)"/><path class="cls-4" d="M2.48-270.4s17.78,2.85,27.28,13.65a48.11,48.11,0,0,1-2.21,7.7S32.72-262.34,2.48-270.4Z" transform="translate(16.29 393.19)"/><path class="cls-5" d="M47.55-294.08s-1.88,9.7,3.41,17.63l129.41-2.35s13.28-17.79,2.51-41.35c0,0,15.17-6.05,8.52-25.56,0,0-7.77-25.06-35.33-11.78,0,0-5.76-9.52-21.3-14S80.13-375.28,59.08-359c0,0-18.79,16.42-18,32.64,0,0-16.54,2.82-14.79,23.74C27.49-287.85,39.78-284.81,47.55-294.08Z" transform="translate(16.29 393.19)"/><path class="cls-6" d="M114-369.65s-1.75-16.16,12.46-22.92c0,0,9.34,5.25,9.34,28.85C135.76-363.71,121.46-357.45,114-369.65Z" transform="translate(16.29 393.19)"/><path class="cls-7" d="M114-369.65s-1.69-17,12-23.55c0,0,9,5.12,9,28.15C135-365,124.23-358.39,114-369.65Z" transform="translate(16.29 393.19)"/><path class="cls-8" d="M61.68-323.82s-17.29,7.38-8,27.41c12.8,19,25.52-9,25.52-9s3-6.67-1.65-14.49C71.84-329.62,61.68-323.82,61.68-323.82Z" transform="translate(16.29 393.19)"/><path class="cls-9" d="M62.84-323.9s-15.79,7-7.27,26.06c11.68,18.07,23.31-8.52,23.31-8.52a16.39,16.39,0,0,0-1.5-13.78C72.11-329.42,62.84-323.9,62.84-323.9Z" transform="translate(16.29 393.19)"/><path class="cls-8" d="M105.72-332.89s9.48-14,27.48-2.94c15.56,9.57,15.26,26.21,11.28,30.84-4.21,4.91-21.18,4.51-31-5.61C104.46-319.95,102.28-326.41,105.72-332.89Z" transform="translate(16.29 393.19)"/><path class="cls-9" d="M105.33-332.42S113.15-346,131-335.18c14.61,8.86,14.45,24.77,10.54,28.94-3.34,3.56-19,3.28-28.93-5.27C105.2-317.87,101-325,105.33-332.42Z" transform="translate(16.29 393.19)"/><path class="cls-10" d="M29.76-256.74s16.29-35.08,77.69-40.1c0,0,52.63-3.76,71.67,18,0,0-2.26,14.53,13.28,54.63,0,0-13.28,32.08-70.42,35.84,0,0-66.91,12-92.22-40.85C29.76-229.18,23.74-242.46,29.76-256.74Z" transform="translate(16.29 393.19)"/><path class="cls-11" d="M29.87-255S46.15-289.15,107.5-294c0,0,52.59-3.66,71.62,17.58,0,0-2.25,14.16,13.27,53.23,0,0-13.26,31.94-70.36,35.6,0,0-66.88,11-92.17-40.48C29.87-228.1,23.86-241,29.87-255Z" transform="translate(16.29 393.19)"/><path class="cls-12" d="M60.33-216.4s41.1,33.83,94-21.8c0,0-26.81,39.59-56.89,39.34A54.17,54.17,0,0,1,60.33-216.4Z" transform="translate(16.29 393.19)"/><path class="cls-13" d="M132.08-206.56s18,4.44,22.23-4.39-10.46-17.24-10.46-17.24-18.38,14.16-19.39,20Z" transform="translate(16.29 393.19)"/><path class="cls-14" d="M131.75-207.38s14,3.26,18.54-5-6.46-15.8-6.46-15.8-18.43,14.38-19.39,20Z" transform="translate(16.29 393.19)"/><circle class="cls-15" cx="82.33" cy="140.02" r="11.34"/><circle class="cls-16" cx="82.97" cy="138.39" r="9.71"/><ellipse class="cls-15" cx="140.28" cy="130" rx="11.4" ry="12.09"/><circle class="cls-16" cx="140.5" cy="128.15" r="10.24"/><path class="cls-17" d="M173.81-353.8s8.17-3.21,9.43,11.69c1.18,14-6.55,15.75-6.55,15.75s-11,2.85-13.36-10.17C161.16-348.74,173.81-353.8,173.81-353.8Z" transform="translate(16.29 393.19)"/><path class="cls-18" d="M173.35-352.22s7.82-3,9,11c1.13,13.22-6.26,14.85-6.26,14.85s-10.56,2.69-12.78-9.59C161.24-347.45,173.35-352.22,173.35-352.22Z" transform="translate(16.29 393.19)"/><path class="cls-17" d="M39.93-315.38s10.28,5.73,3.32,18.3c0,0-8.17,10-11.45-2.55C31.81-299.64,27.13-320,39.93-315.38Z" transform="translate(16.29 393.19)"/><path class="cls-18" d="M40.53-315.38s9.22,5.73,3,18.3c0,0-7.33,10-10.26-2.55C33.24-299.64,29-320,40.53-315.38Z" transform="translate(16.29 393.19)"/><circle class="cls-19" cx="82.83" cy="80.25" r="6.2"/><circle class="cls-9" cx="79.51" cy="78.66" r="2.88"/><circle class="cls-9" cx="84.25" cy="81.63" r="1.5"/><circle class="cls-19" cx="133.94" cy="67.79" r="7.84"/><circle class="cls-9" cx="129.75" cy="65.79" r="3.64"/><circle class="cls-9" cx="135.74" cy="69.53" r="1.9"/><path class="cls-6" d="M38.28-367.51s-1.1,19.66,8.77,28.07c0,0,19.52-2.22,16.26-16.18C63.31-355.62,54.06-367.93,38.28-367.51Z" transform="translate(16.29 393.19)"/><path class="cls-7" d="M38.28-367.51S37-348.46,47-339.44c0,0,17.29-3,14.28-16.54C61.33-356,52.81-367.92,38.28-367.51Z" transform="translate(16.29 393.19)"/><path class="cls-4" d="M143.47-110.71a64.44,64.44,0,0,1-36.15-14.49,73.54,73.54,0,0,0,30.6,16.05s.85,5.85,3.33,9.31C141.25-99.83,134.63-110.33,143.47-110.71Z" transform="translate(16.29 393.19)"/><path class="cls-4" d="M171.85-113.34s15.6,3.2,29.51-5.45a9.19,9.19,0,0,0,1.47,10.31,18.91,18.91,0,0,1-4.41-6.43s-13,3.26-22.05,3.26c0,0,3.11,6.62,2.5,10.15C178.86-101.5,178-110.33,171.85-113.34Z" transform="translate(16.29 393.19)"/><path class="cls-4" d="M240.47-156.75s-4,15.22-11.11,20.86c0,0,4.46-2.71,9.47,5a37.23,37.23,0,0,0-4.58-7.36S238.79-145.07,240.47-156.75Z" transform="translate(16.29 393.19)"/><path class="cls-4" d="M84.14-181.81s10.22.83,16.54,1.19c0,0-17.67-1.92-15.35,12.48A109.56,109.56,0,0,1,84.14-181.81Z" transform="translate(16.29 393.19)"/><path class="cls-6" d="M182.87-320.15s-6.61,1.48-11.31-.69c0,0,12.54,2.5,15,12.48A37.6,37.6,0,0,0,182.87-320.15Z" transform="translate(16.29 393.19)"/><path class="cls-20" d="M143.75-213.42s-5.29,1-10.59-5.62l2-1.81S136.89-214.31,143.75-213.42Z" transform="translate(16.29 393.19)"/><path class="cls-4" d="M230.86-198.85s-3.75,10.4-10.14,17a56,56,0,0,0,10.14-9.71s2.52-4.06,7.66,8.87A55,55,0,0,0,230.86-198.85Z" transform="translate(16.29 393.19)"/><path class="cls-4" d="M192.4-224.17S176.61-178.35,83.9-189c0,0,9.56,7.23,41.49,5,36.68-2.62,53-20.67,56.91-24.07,10.09-8.7,14.42-3.44,17.36,1.33Z" transform="translate(16.29 393.19)"/><polygon class="cls-9" points="131.72 241.59 145.2 218.43 185.56 211.04 201.41 222.12 187.41 263.5 131.72 241.59"/><path class="cls-21" d="M172-127.67a1.77,1.77,0,0,1-1.49.09l-56.51-22a1.72,1.72,0,0,1-.94-2.66l14.52-23.24a2.24,2.24,0,0,1,1.54-.92l38.17-6.7a6.48,6.48,0,0,1,3.58.66l17.64,10.05a1.54,1.54,0,0,1,.75,1.66l-16.05,41.24A4.06,4.06,0,0,1,172-127.67Zm-52.9-25.14,52,20.81,15-39.16-15.22-10-40.52,7.69Z" transform="translate(16.29 393.19)"/><path class="cls-7" d="M172-127.67a1.77,1.77,0,0,1-1.49.09l-56.55-22a1.75,1.75,0,0,1-.92-2.66l13.91-23.16a2.13,2.13,0,0,1,1.48-.91l40.25-7A1.91,1.91,0,0,1,170-183l15.69,11a1.58,1.58,0,0,1,.73,1.66L173-128.89A2.09,2.09,0,0,1,172-127.67Zm-53.13-25.11L170-132.47l13.49-38.34-14.27-10-38.71,7.41Z" transform="translate(16.29 393.19)"/><path class="cls-3" d="M156.23-177.63l3.09,7L169.2-173a1.69,1.69,0,0,0,1.17-.89l.5-.92,2.69,1.82-.61,1.07a2.23,2.23,0,0,1-1.5,1.06l-11,2.82,4.11,9.27,13-4.14a1.72,1.72,0,0,0,1.15-1l.44-1,2.75,1.85-.54,1.2a2.29,2.29,0,0,1-1.42,1.23L165.82-156,172-142.06l-8.26,3.63-6-14.79-23.49,8-1.09-3.52,23.35-7.44-4-9.8-9.3,2.39c-1.21,5.34-5.24,9.33-11.1,11.21A33.49,33.49,0,0,0,133.41-171l9.44-.72a19.93,19.93,0,0,1,.64,4.89l7.87-1.89-3-7.34Z" transform="translate(16.29 393.19)"/><path class="cls-20" d="M143.84-228.18s6.21,4.22,7.31,9.66c0,0-2.05-6.28-7.31-8.1,0,0-.62-.59-5.39,2.86A45.49,45.49,0,0,1,143.84-228.18Z" transform="translate(16.29 393.19)"/><path class="cls-4" d="M233.11-280.86s-.24-9,4.27,0c0,0,5.63,15,2.88,38.07,0,0,9-45-20.17-61.37C220.09-304.17,230-296.39,233.11-280.86Z" transform="translate(16.29 393.19)"/><ellipse class="cls-22" cx="206.05" cy="-275.95" rx="32.17" ry="27.11" transform="translate(468.01 358.6) rotate(-82.26)"/><ellipse class="cls-7" cx="204.68" cy="-274.79" rx="30.84" ry="25.9" transform="translate(465.67 358.24) rotate(-82.26)"/><path class="cls-23" d="M179.11-278.8s-3.48,34,31.15,33.71C210.27-245.09,176.35-237.63,179.11-278.8Z" transform="translate(16.29 393.19)"/><path class="cls-4" d="M-9.58-221.49s5.31,11.6,40.2,28.5c0,0-23.47-13.18-28-18.44,0,0-1.87-1.69,2.84-2.79A10.47,10.47,0,0,0,11.89-220Z" transform="translate(16.29 393.19)"/><ellipse class="cls-22" cx="0.39" cy="-242.8" rx="16.49" ry="28.57" transform="translate(42.04 391.87) rotate(-6.09)"/><ellipse class="cls-7" cx="-0.28" cy="-241.39" rx="15.68" ry="27.24" transform="translate(41.88 391.8) rotate(-6.09)"/><path class="cls-23" d="M-14.61-232.82s9.13,24.44,24.87,13.76c0,0-6.31,9.2-15.48,2.25C-5.21-216.81-11.27-220.67-14.61-232.82Z" transform="translate(16.29 393.19)"/></svg>