<svg id="图层_1" data-name="图层 1" xmlns="http://www.w3.org/2000/svg" viewBox="0 0 83.36 55.24"><defs><style>.cls-1{fill:#78716c;}.cls-2{fill:#f7605e;}.cls-3{fill:#ffd78a;}.cls-4{fill:#448d99;}.cls-5{fill:#347382;}.cls-6{fill:#ee3d44;}.cls-7{opacity:0.15;}</style></defs><rect class="cls-1" x="2.9" y="14.25" width="77.09" height="3.77"/><polygon class="cls-2" points="0 9.14 0 14.25 83.36 14.25 83.36 0 0 9.14"/><rect class="cls-3" y="30.76" width="82.89" height="24.48"/><rect class="cls-3" y="18.01" width="82.89" height="12.74"/><rect class="cls-4" x="9.08" y="36.57" width="43.59" height="12.86"/><rect class="cls-4" x="61.92" y="36.57" width="13.95" height="12.86"/><rect class="cls-5" x="61.71" y="21.21" width="13.95" height="6.36"/><rect class="cls-4" x="29.72" y="21.21" width="13.95" height="6.36"/><rect class="cls-4" x="9.08" y="21.21" width="13.95" height="6.36"/><polygon class="cls-6" points="83.36 14.25 83.36 6.08 8.89 14.25 83.36 14.25"/><polygon class="cls-7" points="36.52 30.76 82.89 30.76 82.89 18.02 49.27 18.02 36.52 30.76"/><polygon class="cls-7" points="30.18 55.24 82.89 55.24 82.89 30.76 54.66 30.76 30.18 55.24"/></svg>