<svg id="图层_1" data-name="图层 1" xmlns="http://www.w3.org/2000/svg" viewBox="0 0 25.08 21.64"><defs><style>.cls-1{fill:#c69b73;}.cls-2{fill:#784f27;}.cls-3{fill:#fff;}.cls-4{fill:#f7dfb8;}.cls-5{fill:#ad8463;}.cls-6{fill:#58595b;}</style></defs><rect class="cls-1" x="189.99" y="359.89" width="1.09" height="3.41" transform="translate(-205.63 -326.34) rotate(-4.38)"/><rect class="cls-2" x="190.1" y="362.7" width="1.09" height="0.61" transform="translate(-205.74 -326.32) rotate(-4.38)"/><rect class="cls-1" x="186.92" y="359.41" width="1.09" height="4.13" transform="translate(-205.6 -326.59) rotate(-4.37)"/><rect class="cls-2" x="187.06" y="362.93" width="1.09" height="0.61" transform="translate(-205.77 -326.55) rotate(-4.38)"/><rect class="cls-1" x="199.54" y="355.3" width="1.09" height="7.27" transform="translate(-205.4 -325.61) rotate(-4.38)"/><rect class="cls-2" x="199.8" y="361.96" width="1.09" height="0.61" transform="translate(-205.65 -325.59) rotate(-4.38)"/><rect class="cls-1" x="196.93" y="355.5" width="1.09" height="7.27" transform="translate(-205.42 -325.81) rotate(-4.38)"/><rect class="cls-2" x="197.19" y="362.16" width="1.09" height="0.61" transform="translate(-205.68 -325.78) rotate(-4.38)"/><path class="cls-3" d="M203.66,351.33a2.28,2.28,0,0,0-1.33-1.88,3.26,3.26,0,0,0,.56-2.08,3.26,3.26,0,0,0-4.6-2.75,4.27,4.27,0,0,0-4.26-2.68,4.2,4.2,0,0,0-2.29.9,6,6,0,0,0-2.83-.49,6.06,6.06,0,0,0-.8,12s0,0,0,0a3.2,3.2,0,1,0,3.31,5.18,2.55,2.55,0,0,0,4.66-1.24,4.06,4.06,0,0,0,5.89-4.64A2.27,2.27,0,0,0,203.66,351.33Z" transform="translate(-178.59 -341.93)"/><path class="cls-4" d="M184.64,349a7.4,7.4,0,0,1-2.65,3.82,3.15,3.15,0,0,1-3.41.5,7.4,7.4,0,0,1,2.65-3.82A3.15,3.15,0,0,1,184.64,349Z" transform="translate(-178.59 -341.93)"/><path class="cls-1" d="M182,352.81a7.4,7.4,0,0,0,2.65-3.82l-6.06,4.31A3.15,3.15,0,0,0,182,352.81Z" transform="translate(-178.59 -341.93)"/><path class="cls-1" d="M189.06,348.65a7.4,7.4,0,0,0,3.2,3.37,3.15,3.15,0,0,0,3.44,0,7.4,7.4,0,0,0-3.2-3.37A3.15,3.15,0,0,0,189.06,348.65Z" transform="translate(-178.59 -341.93)"/><path class="cls-5" d="M192.25,352a7.4,7.4,0,0,1-3.2-3.37L195.7,352A3.15,3.15,0,0,1,192.25,352Z" transform="translate(-178.59 -341.93)"/><ellipse class="cls-4" cx="187.11" cy="352.25" rx="5.4" ry="6.33" transform="translate(-204.91 -326.63) rotate(-4.38)"/><path class="cls-1" d="M192.49,351.84c-.27-3.49-2.89-6.13-5.86-5.9l1,12.63C190.57,358.34,192.76,355.33,192.49,351.84Z" transform="translate(-178.59 -341.93)"/><circle class="cls-6" cx="185.66" cy="353.71" r="0.66" transform="translate(-205.03 -326.74) rotate(-4.38)"/><circle class="cls-6" cx="188.76" cy="353.47" r="0.66" transform="translate(-205 -326.5) rotate(-4.38)"/></svg>