<svg id="图层_1" data-name="图层 1" xmlns="http://www.w3.org/2000/svg" viewBox="0 0 237.53 158.4"><defs><style>.cls-1{fill:#97a1a4;}.cls-2{fill:#667d74;}.cls-3{fill:#fff;}.cls-4{fill:#c7cfce;}</style></defs><polygon class="cls-1" points="237.53 158.4 118.76 0 0 158.4 237.53 158.4"/><polygon class="cls-2" points="0 158.4 118.76 0 118.76 158.4 0 158.4"/><path class="cls-3" d="M170.76,271.86c-2.46,2.87-8.11,8-10.82,6s-2.46-5.45-6.88-4c-2.71.88-5.14,3.14-7.74,3.56l29.63-39.52,28.19,37.6a19.58,19.58,0,0,0-6.56,1.79c-6.39,3.16-12.29,1.74-17,0S173.22,269,170.76,271.86Z" transform="translate(-56.17 -237.92)"/><path class="cls-4" d="M159.94,277.89c-2.7-2-2.46-5.45-6.88-4-2.71.88-5.14,3.14-7.74,3.56l29.63-39.52v35.61c-1.61-1.86-2.78-3.31-4.18-1.67C168.3,274.73,162.64,279.89,159.94,277.89Z" transform="translate(-56.17 -237.92)"/></svg>