<svg id="图层_1" data-name="图层 1" xmlns="http://www.w3.org/2000/svg" viewBox="0 0 202.14 105.2"><defs><style>.cls-1{fill:#97a1a4;}.cls-2{fill:#667d74;}.cls-3{fill:#fff;}.cls-4{fill:#c7cfce;}</style></defs><polygon class="cls-1" points="0 105.2 101.07 0 202.14 105.2 0 105.2"/><polygon class="cls-2" points="0 105.2 101.07 0 101.07 105.2 0 105.2"/><path class="cls-3" d="M305,317.54c-1.19,1.19-12.22,5.16-18.84,1.85s-9.5-2.83-11.88-1.55c-1.25.67-3.72.65-5.64.06l25.07-26.09L317.86,317c-1.64,1-3.77,1.6-5.57.85C309.74,316.75,306.18,316.35,305,317.54Z" transform="translate(-192.63 -291.81)"/><path class="cls-4" d="M274.27,317.85c-1.25.67-3.72.65-5.64.06l25.07-26.09v28.83a15.26,15.26,0,0,1-7.55-1.25C279.53,316.09,276.64,316.57,274.27,317.85Z" transform="translate(-192.63 -291.81)"/></svg>