<svg id="图层_1" data-name="图层 1" xmlns="http://www.w3.org/2000/svg" viewBox="0 0 90.38 54.71"><defs><style>.cls-1{fill:#a7dae9;}.cls-2{fill:#8ec3d7;}</style></defs><path class="cls-1" d="M568.29,137.35c4.68.06,17.77-1.42,18-18.69.25-18.92-17.88-19.94-17.88-19.94S562,82.83,547.35,82.64s-19.06,10.67-19.06,10.67-7.42-2.89-13.68,2c-8.21,6.37-6.6,12.59-6.6,12.59s-11.93,2-12.09,14.67,10.94,14,10.94,14Z" transform="translate(-495.91 -82.64)"/><path class="cls-2" d="M568.41,98.72S562,82.83,547.35,82.64a24.85,24.85,0,0,0-6.25.69V137l27.19.36c4.68.06,17.77-1.43,18-18.69C586.54,99.74,568.41,98.72,568.41,98.72Z" transform="translate(-495.91 -82.64)"/></svg>