<svg id="图层_1" data-name="图层 1" xmlns="http://www.w3.org/2000/svg" viewBox="0 0 61.21 33.16"><defs><style>.cls-1{fill:#a7dae9;}.cls-2{fill:#8ec3d7;}</style></defs><path class="cls-1" d="M794.73,237.29h47.15c3.83,0,8.65-3.13,8.65-7.11a10,10,0,0,0-8.34-10.3,7.1,7.1,0,0,0-4.29-7c-4.9-2.45-10.42-.86-10.42-.86s-.83-7.91-10.17-7.91c-9.58,0-10.06,8.27-10.06,8.27s-4.78-1.84-9.44,2.7-2.35,8.53-2.35,8.53-6.15,2.05-6.15,8.2C789.32,234,791.37,237.29,794.73,237.29Z" transform="translate(-789.32 -204.12)"/><path class="cls-2" d="M842.2,219.88a7.1,7.1,0,0,0-4.29-7c-4.9-2.45-10.42-.86-10.42-.86a9.16,9.16,0,0,0-7.56-7.65v32.91h22c3.83,0,8.65-3.13,8.65-7.11A10,10,0,0,0,842.2,219.88Z" transform="translate(-789.32 -204.12)"/></svg>