<svg id="图层_1" data-name="图层 1" xmlns="http://www.w3.org/2000/svg" xmlns:xlink="http://www.w3.org/1999/xlink" viewBox="0 0 148.19 169.89"><defs><style>.cls-1{fill:none;}.cls-2{clip-path:url(#clip-path);}.cls-3{fill:#448797;}.cls-4{fill:#336f7e;}.cls-5{fill:#fff;}</style><clipPath id="clip-path" transform="translate(224.8 -479.75)"><circle class="cls-1" cx="-175.08" cy="564.26" r="101.92"/></clipPath></defs><g class="cls-2"><ellipse class="cls-3" cx="-199.57" cy="521.96" rx="4.56" ry="48.96" transform="matrix(0.86, -0.51, 0.51, 0.86, -68.57, -508.68)"/><path class="cls-4" d="M-195.65,519.64c-13.76-23.28-26.67-41.11-28.84-39.83l49.83,84.3C-172.49,562.83-181.89,542.92-195.65,519.64Z" transform="translate(224.8 -479.75)"/><ellipse class="cls-3" cx="-198.68" cy="606.93" rx="48.96" ry="4.56" transform="translate(-405 -343.96) rotate(-60.59)"/><path class="cls-4" d="M-202.65,604.69c-13.28,23.56-22.27,43.65-20.07,44.89l48.09-85.3C-176.83,563-189.37,581.14-202.65,604.69Z" transform="translate(224.8 -479.75)"/><ellipse class="cls-3" cx="-125.57" cy="563.72" rx="48.96" ry="4.56" transform="translate(219.03 -481) rotate(-0.59)"/><path class="cls-4" d="M-125.61,559.16c27-.28,49,1.54,49,4.06l-97.92,1C-174.55,561.7-152.65,559.43-125.61,559.16Z" transform="translate(224.8 -479.75)"/><circle class="cls-5" cx="49.72" cy="84.51" r="8.65"/><circle class="cls-4" cx="49.72" cy="84.51" r="4.82"/></g></svg>