<!-- Generator: Adobe Illustrator 20.1.0, SVG Export Plug-In  -->
<svg version="1.1"
	 xmlns="http://www.w3.org/2000/svg" xmlns:xlink="http://www.w3.org/1999/xlink" xmlns:a="http://ns.adobe.com/AdobeSVGViewerExtensions/3.0/"
	 x="0px" y="0px" width="34.3px" height="41.4px" viewBox="0 0 34.3 41.4" style="enable-background:new 0 0 34.3 41.4;"
	 xml:space="preserve">
<style type="text/css">
	.st0{fill:#FFFFFF;}
</style>
<defs>
</defs>
<path class="st0" d="M1.9,0.2L1.9,0.2c1.5-0.6,3.3,0.1,3.9,1.7l14.1,35.4c0.6,1.5-0.1,3.3-1.7,3.9h0c-1.5,0.6-3.3-0.1-3.9-1.7
	L0.2,4.1C-0.4,2.6,0.4,0.8,1.9,0.2z"/>
<path class="st0" d="M32.4,0.2L32.4,0.2c-1.5-0.6-3.3,0.1-3.9,1.7L14.4,37.3c-0.6,1.5,0.1,3.3,1.7,3.9h0c1.5,0.6,3.3-0.1,3.9-1.7
	L34.1,4.1C34.7,2.6,33.9,0.8,32.4,0.2z"/>
</svg>
