<!-- Generator: Adobe Illustrator 20.1.0, SVG Export Plug-In  -->
<svg version="1.1"
	 xmlns="http://www.w3.org/2000/svg" xmlns:xlink="http://www.w3.org/1999/xlink" xmlns:a="http://ns.adobe.com/AdobeSVGViewerExtensions/3.0/"
	 x="0px" y="0px" width="88.7px" height="84.4px" viewBox="0 0 88.7 84.4" style="enable-background:new 0 0 88.7 84.4;"
	 xml:space="preserve">
<style type="text/css">
	.st0{opacity:0.15;}
	.st1{fill:#FF9933;}
</style>
<defs>
</defs>
<path class="st0" d="M52.1,6.6L52.1,6.6C61.4-0.2,74.3,7.2,73,18.6l0,0c-0.6,5.7,2.5,11.2,7.8,13.5l0,0c10.5,4.6,10.5,19.5,0,24.1
	l0,0c-5.3,2.3-8.4,7.8-7.8,13.5l0,0c1.2,11.4-11.6,18.8-20.9,12.1l0,0c-4.6-3.4-10.9-3.4-15.6,0l0,0c-9.2,6.8-22.1-0.7-20.9-12.1
	l0,0c0.6-5.7-2.5-11.2-7.8-13.5l0,0c-10.5-4.6-10.5-19.5,0-24.1l0,0c5.3-2.3,8.4-7.8,7.8-13.5l0,0C14.4,7.2,27.3-0.2,36.5,6.6l0,0
	C41.2,10,47.5,10,52.1,6.6z"/>
<path class="st1" d="M52.1,2.6L52.1,2.6C61.4-4.2,74.3,3.2,73,14.6l0,0c-0.6,5.7,2.5,11.2,7.8,13.5l0,0c10.5,4.6,10.5,19.5,0,24.1
	l0,0c-5.3,2.3-8.4,7.8-7.8,13.5l0,0c1.2,11.4-11.6,18.8-20.9,12.1l0,0c-4.6-3.4-10.9-3.4-15.6,0l0,0c-9.2,6.8-22.1-0.7-20.9-12.1
	l0,0c0.6-5.7-2.5-11.2-7.8-13.5l0,0c-10.5-4.6-10.5-19.5,0-24.1l0,0c5.3-2.3,8.4-7.8,7.8-13.5l0,0C14.4,3.2,27.3-4.2,36.5,2.6l0,0
	C41.2,6,47.5,6,52.1,2.6z"/>
</svg>
