<svg id="图层_1" data-name="图层 1" xmlns="http://www.w3.org/2000/svg" viewBox="0 0 100 30"><defs><style>.cls-1{fill:#A8A8B7;}.cls-2{fill:#fff;}</style></defs><rect class="cls-1" width="100" height="30" rx="15" ry="15"/><path class="cls-2" d="M328.53,268.31a8.76,8.76,0,0,1-2,1.83l-.84-1.41a14.28,14.28,0,0,0,4.78-6.4h-4.29V261h2.25a8.43,8.43,0,0,0-.77-1.76l1.41-.49a9.7,9.7,0,0,1,1,2.25h2v1.34a30.24,30.24,0,0,1-1.83,3.52,18.46,18.46,0,0,1,2,1.69l-.91,1.27a8.44,8.44,0,0,0-1.41-1.48v7.73h-1.41ZM341.68,262v9.42h-1.41v-1.2H338v4.85h-1.41v-4.85h-2.39v1.2h-1.41V262h3.8v-3.09H338V262Zm-7.52,3.45h2.39v-2.11h-2.39Zm0,3.45h2.39v-2.11h-2.39Zm3.8-5.55v2.11h2.32v-2.11Zm0,3.45v2.11h2.32v-2.11Z" transform="translate(-301.88 -251.91)"/><path class="cls-2" d="M347,258.75l1.41.42-.42.77H352v1.2h-2.25q.56.56,1.05,1.13l-1.27.7a15.32,15.32,0,0,0-1.34-1.83H347.1a9.79,9.79,0,0,1-2,2l-1.12-.84A9.26,9.26,0,0,0,347,258.75Zm-1,4.36h12.38v6.82H355.6V271h4.57v1.27H355.6V275H354.2v-2.74H350q-.42,1.69-3.8,2.81l-1-1.34q2.74-.63,3.23-1.48H344V271h4.64v-1.05H346Zm1.34,2H357v-.77h-9.7Zm0,1.83H357v-.77h-9.7Zm0,1.83H357V268h-9.7ZM354.2,271v-1.05H350V271Zm.07-12.23,1.34.42c-.09.24-.21.49-.35.77h4.85v1.2h-2.81l.63.77-1.27.7q-.42-.7-1-1.48h-1.2a9.58,9.58,0,0,1-1.62,1.76l-1.2-.84A9.56,9.56,0,0,0,354.27,258.75Z" transform="translate(-301.88 -251.91)"/><path class="cls-2" d="M363.9,259.52h12.59v1.55a42.58,42.58,0,0,1-5.62,3.94v1.2H378v1.34h-7.17v6.19a1.14,1.14,0,0,1-.49,1,2.54,2.54,0,0,1-1.48.35,10.76,10.76,0,0,1-2.46-.28l-.21-1.34a8.54,8.54,0,0,0,2.32.28c.56,0,.84-.09.84-.28v-5.91h-7.24V266.2h7.24v-1.9q2.88-1.76,5.2-3.37H363.9Z" transform="translate(-301.88 -251.91)"/></svg>