<svg id="图层_1" data-name="图层 1" xmlns="http://www.w3.org/2000/svg" viewBox="0 0 80 74.99"><defs><style>.cls-1{fill:#fff;}</style></defs><g id="_4" data-name="4"><path class="cls-1" d="M374.18,196a10,10,0,0,0-10-10H334.26a10,10,0,0,0-10,10c-17.09,0-15,0-15,10a15,15,0,0,0,15,15,12.43,12.43,0,0,0,1.74-.18c3.35,9.81,11.24,18.64,20.71,20V256h-7.48a2.5,2.5,0,0,0,0,5h20a2.5,2.5,0,0,0,0-5h-7.48V240.82c9.47-1.35,17.36-10.18,20.71-20a12.39,12.39,0,0,0,1.74.18,15,15,0,0,0,15-15C389.15,196,391.27,196,374.18,196Zm-49.9,20a10,10,0,0,1-10-10c0-5.52.1-5,10-5Zm44.91-5c0,11-8.94,25-20,25s-20-14-20-25V196a5.48,5.48,0,0,1,5-5H364.2a5.41,5.41,0,0,1,5,5Zm5,5V201c9.88,0,10-.52,10,5A10,10,0,0,1,374.18,216Z" transform="translate(-309.23 -186.01)"/></g></svg>