<svg id="图层_1" data-name="图层 1" xmlns="http://www.w3.org/2000/svg" viewBox="0 0 160 160"><defs><style>.cls-1{fill:#868695;}.cls-2{opacity:0.2;}.cls-3{fill:#231f20;}.cls-4{fill:#fff;}</style></defs><circle class="cls-1" cx="80" cy="80" r="80"/><g class="cls-2"><path class="cls-3" d="M-108.69,1591.5c-9.55-4.15-13-10.61-14.11-16.17,6.88-5.54,12.36-14.39,15.37-23.93,3.1-3.95,4.9-8.06,4.9-11.55a6.65,6.65,0,0,0-2.39-5.4c-.51-20.26-14.85-36.53-32.6-36.78l-.41,0h-.16c-17.63.1-32,16-32.81,36a6.69,6.69,0,0,0-3.48,6.17c0,4.1,2.48,9.07,6.66,13.62,3,8.32,7.8,16,13.75,21.1-.89,5.73-4.25,12.6-14.24,16.94-5.4,2.34-15.26,4.45-19.52,6.62,10.91,11.92,31.56,19.42,49,19.51h.31c17.54,0,38.31-7.53,49.28-19.52C-93.42,1595.95-103.29,1593.84-108.69,1591.5Z" transform="translate(218.45 -1471.14)"/></g><path class="cls-4" d="M-108.69,1586.5c-9.55-4.15-13-10.61-14.11-16.17,6.88-5.54,12.36-14.39,15.37-23.93,3.1-3.95,4.9-8.06,4.9-11.55a6.65,6.65,0,0,0-2.39-5.4c-.51-20.26-14.85-36.53-32.6-36.78l-.41,0h-.16c-17.63.1-32,16-32.81,36a6.69,6.69,0,0,0-3.48,6.17c0,4.1,2.48,9.07,6.66,13.62,3,8.32,7.8,16,13.75,21.1-.89,5.73-4.25,12.6-14.24,16.94-5.4,2.34-15.26,4.45-19.52,6.62,10.91,11.92,31.56,19.42,49,19.51h.31c17.54,0,38.31-7.53,49.28-19.52C-93.42,1590.95-103.29,1588.84-108.69,1586.5Z" transform="translate(218.45 -1471.14)"/></svg>