<!-- Generator: Adobe Illustrator 20.1.0, SVG Export Plug-In  -->
<svg version="1.1"
	 xmlns="http://www.w3.org/2000/svg" xmlns:xlink="http://www.w3.org/1999/xlink" xmlns:a="http://ns.adobe.com/AdobeSVGViewerExtensions/3.0/"
	 x="0px" y="0px" width="88px" height="92px" viewBox="0 0 88 92" style="enable-background:new 0 0 88 92;" xml:space="preserve">
<style type="text/css">
	.st0{opacity:0.2;}
	.st1{fill:#231F20;}
	.st2{fill:#FFFFFF;}
</style>
<defs>
</defs>
<g class="st0">
	<path class="st1" d="M44,12c19.9,0,36,16.1,36,36S63.9,84,44,84S8,67.9,8,48S24.1,12,44,12z M44,4C19.7,4,0,23.7,0,48
		s19.7,44,44,44s44-19.7,44-44S68.3,4,44,4L44,4z"/>
</g>
<g>
	<path class="st2" d="M44,8c19.9,0,36,16.1,36,36S63.9,80,44,80S8,63.9,8,44S24.1,8,44,8 M44,0C19.7,0,0,19.7,0,44s19.7,44,44,44
		s44-19.7,44-44S68.3,0,44,0L44,0z"/>
</g>
</svg>
