<!-- Generator: Adobe Illustrator 20.1.0, SVG Export Plug-In  -->
<svg version="1.1"
	 xmlns="http://www.w3.org/2000/svg" xmlns:xlink="http://www.w3.org/1999/xlink" xmlns:a="http://ns.adobe.com/AdobeSVGViewerExtensions/3.0/"
	 x="0px" y="0px" width="132.8px" height="132.8px" viewBox="0 0 132.8 132.8" style="enable-background:new 0 0 132.8 132.8;"
	 xml:space="preserve">
<style type="text/css">
	.st0{fill:#FF9326;}
	.st1{opacity:0.2;}
	.st2{fill:url(#SVGID_1_);}
	.st3{fill:url(#SVGID_2_);}
	.st4{fill:#FFF171;}
	.st5{fill:url(#SVGID_3_);}
	.st6{fill:#FAC900;}
	.st7{fill:url(#SVGID_4_);}
	.st8{fill:url(#SVGID_5_);}
	.st9{fill:url(#SVGID_6_);}
	.st10{fill:url(#SVGID_7_);}
	.st11{fill:#FCEE21;}
	.st12{fill:url(#SVGID_8_);}
	.st13{fill:url(#SVGID_9_);}
	.st14{fill:url(#SVGID_10_);}
	.st15{fill:url(#SVGID_11_);}
	.st16{fill:url(#SVGID_12_);}
	.st17{fill:url(#SVGID_13_);}
	.st18{fill:url(#SVGID_14_);}
</style>
<defs>
</defs>
<g>
	<circle class="st0" cx="66.4" cy="66.4" r="66.4"/>
	<g>
		<g class="st1">
			<circle cx="66.4" cy="67.2" r="44.2"/>
			<circle cx="66.4" cy="67.2" r="42.9"/>
			<circle cx="66.4" cy="67.2" r="38.6"/>
			<path d="M69.1,108c-22.5,0-40.8-18.3-40.8-40.8c0-22.5,18.3-40.8,40.8-40.8c4.9,0,9.6,0.9,14,2.5c-5.1-2.2-10.8-3.5-16.7-3.5
				c-23.1,0-41.8,18.7-41.8,41.8c0,23.1,18.7,41.8,41.8,41.8c5.9,0,11.6-1.2,16.7-3.5C78.7,107.1,74,108,69.1,108z"/>
			<circle cx="66.4" cy="67.2" r="37.4"/>
			<circle cx="66.4" cy="67.2" r="37.4"/>
			<path d="M86.1,82.9c-14.6-1.9-35.2-41.3-57-18.8c-0.1,1-0.1,2-0.1,3.1c0,20.6,16.7,37.4,37.4,37.4c19.7,0,35.9-15.3,37.3-34.7
				C102,74.8,97.3,84.4,86.1,82.9z"/>
			<path d="M66.4,29.8C45.7,29.8,29,46.5,29,67.2c0,20.5,16.5,37.1,36.9,37.4c-20-0.3-36.2-16.6-36.2-36.7
				c0-20.3,16.4-36.7,36.7-36.7S103,47.6,103,67.8c0,20.1-16.2,36.4-36.2,36.7c20.4-0.3,36.9-16.9,36.9-37.4
				C103.7,46.5,87,29.8,66.4,29.8z"/>
			<path d="M48.4,44.5h4.5l0.5,1.6h26.8l0.6-1.6h4.5l5.9,16.6l-6.3,2.2c-1.4-2.8-2.4-4.6-3-5.4c-1.2-1.7-2.6-3-4.2-3.9
				c-1.2-0.7-2.3-1.1-3.5-1.1c-0.5,0-0.9,0.1-1.1,0.4c-0.2,0.3-0.3,0.9-0.3,1.8v27.3c0,1.6,0.1,2.6,0.2,3c0.1,0.4,0.3,0.7,0.6,1
				c0.3,0.2,0.7,0.4,1.1,0.5C75,87,76.3,87,78.4,87v6.6H55.2V87h1.4c1.6,0,2.5-0.1,3-0.3c0.4-0.2,0.8-0.5,1-1c0.2-0.5,0.3-1.5,0.3-3
				V54.7c0-0.8-0.1-1.3-0.3-1.5c-0.2-0.2-0.6-0.3-1.2-0.3c-1.2,0-2.5,0.4-3.9,1.3c-1.5,0.9-2.7,2.1-3.9,3.7
				c-0.5,0.6-1.4,2.4-2.9,5.3l-6.2-2.2L48.4,44.5z"/>
			<path d="M47.2,43.1h4.5l0.5,1.6h26.8l0.6-1.6H84l5.9,16.6l-6.3,2.2c-1.4-2.8-2.4-4.6-3-5.4c-1.2-1.7-2.6-3-4.2-3.9
				c-1.2-0.7-2.3-1.1-3.5-1.1c-0.5,0-0.9,0.1-1.1,0.4c-0.2,0.3-0.3,0.9-0.3,1.8V81c0,1.6,0.1,2.6,0.2,3c0.1,0.4,0.3,0.7,0.6,1
				c0.3,0.2,0.7,0.4,1.1,0.5c0.5,0.1,1.8,0.1,3.8,0.1v6.6H54v-6.6h1.4c1.6,0,2.5-0.1,3-0.3c0.4-0.2,0.8-0.5,1-1
				c0.2-0.5,0.3-1.5,0.3-3V53.3c0-0.8-0.1-1.3-0.3-1.5c-0.2-0.2-0.6-0.3-1.2-0.3c-1.2,0-2.5,0.4-3.9,1.3c-1.5,0.9-2.7,2.1-3.9,3.7
				c-0.5,0.6-1.4,2.4-2.9,5.3l-6.2-2.2L47.2,43.1z"/>
		</g>
		<g>
			<g>
				<g>
					<linearGradient id="SVGID_1_" gradientUnits="userSpaceOnUse" x1="66.3502" y1="93.0973" x2="66.3502" y2="29.4926">
						<stop  offset="0" style="stop-color:#FAC900"/>
						<stop  offset="1" style="stop-color:#FFCC00"/>
					</linearGradient>
					<circle class="st2" cx="66.4" cy="64.2" r="44.2"/>
					<linearGradient id="SVGID_2_" gradientUnits="userSpaceOnUse" x1="23.448" y1="64.1586" x2="109.2521" y2="64.1586">
						<stop  offset="0" style="stop-color:#F7DD00"/>
						<stop  offset="1" style="stop-color:#FFF8B8"/>
					</linearGradient>
					<circle class="st3" cx="66.4" cy="64.2" r="42.9"/>
					<circle class="st4" cx="66.4" cy="64.2" r="38.6"/>
					<linearGradient id="SVGID_3_" gradientUnits="userSpaceOnUse" x1="66.319" y1="64.1594" x2="8.9669" y2="65.8844">
						<stop  offset="0" style="stop-color:#F7DD00"/>
						<stop  offset="1" style="stop-color:#FFF8B8"/>
					</linearGradient>
					<path class="st5" d="M69.1,105c-22.5,0-40.8-18.3-40.8-40.8c0-22.5,18.3-40.8,40.8-40.8c4.9,0,9.6,0.9,14,2.5
						c-5.1-2.2-10.8-3.5-16.7-3.5c-23.1,0-41.8,18.7-41.8,41.8c0,23.1,18.7,41.8,41.8,41.8c5.9,0,11.6-1.2,16.7-3.5
						C78.7,104.1,74,105,69.1,105z"/>
					<circle class="st6" cx="66.4" cy="64.2" r="37.4"/>
					<linearGradient id="SVGID_4_" gradientUnits="userSpaceOnUse" x1="95.1266" y1="61.5994" x2="-4.2692" y2="70.4395">
						<stop  offset="0" style="stop-color:#FAC900"/>
						<stop  offset="1" style="stop-color:#F7931E"/>
					</linearGradient>
					<circle class="st7" cx="66.4" cy="64.2" r="37.4"/>
					<linearGradient id="SVGID_5_" gradientUnits="userSpaceOnUse" x1="75.2889" y1="96.352" x2="61.4765" y2="53.4539">
						<stop  offset="0" style="stop-color:#FAC900"/>
						<stop  offset="1" style="stop-color:#FBB03B"/>
					</linearGradient>
					<path class="st8" d="M86.1,79.9c-14.6-1.9-35.2-41.3-57-18.8c-0.1,1-0.1,2-0.1,3.1c0,20.6,16.7,37.4,37.4,37.4
						c19.7,0,35.9-15.3,37.3-34.7C102,71.8,97.3,81.4,86.1,79.9z"/>
					<linearGradient id="SVGID_6_" gradientUnits="userSpaceOnUse" x1="73.77" y1="68.3883" x2="29.139" y2="42.9465">
						<stop  offset="0" style="stop-color:#DEB000"/>
						<stop  offset="1" style="stop-color:#A88236"/>
					</linearGradient>
					<path class="st9" d="M66.4,26.8C45.7,26.8,29,43.5,29,64.2c0,20.5,16.5,37.1,36.9,37.4c-20-0.3-36.2-16.6-36.2-36.7
						c0-20.3,16.4-36.7,36.7-36.7S103,44.6,103,64.8c0,20.1-16.2,36.4-36.2,36.7c20.4-0.3,36.9-16.9,36.9-37.4
						C103.7,43.5,87,26.8,66.4,26.8z"/>
				</g>
				<g>
					<linearGradient id="SVGID_7_" gradientUnits="userSpaceOnUse" x1="42.527" y1="66.0431" x2="91.115" y2="66.0431">
						<stop  offset="0" style="stop-color:#DEB000"/>
						<stop  offset="1" style="stop-color:#A88236"/>
					</linearGradient>
					<path class="st10" d="M48.4,41.5h4.5l0.5,1.6h26.8l0.6-1.6h4.5l5.9,16.6l-6.3,2.2c-1.4-2.8-2.4-4.6-3-5.4
						c-1.2-1.7-2.6-3-4.2-3.9c-1.2-0.7-2.3-1.1-3.5-1.1c-0.5,0-0.9,0.1-1.1,0.4c-0.2,0.3-0.3,0.9-0.3,1.8v27.3c0,1.6,0.1,2.6,0.2,3
						c0.1,0.4,0.3,0.7,0.6,1c0.3,0.2,0.7,0.4,1.1,0.5C75,84,76.3,84,78.4,84v6.6H55.2V84h1.4c1.6,0,2.5-0.1,3-0.3
						c0.4-0.2,0.8-0.5,1-1c0.2-0.5,0.3-1.5,0.3-3V51.7c0-0.8-0.1-1.3-0.3-1.5c-0.2-0.2-0.6-0.3-1.2-0.3c-1.2,0-2.5,0.4-3.9,1.3
						c-1.5,0.9-2.7,2.1-3.9,3.7c-0.5,0.6-1.4,2.4-2.9,5.3l-6.2-2.2L48.4,41.5z"/>
				</g>
				<g>
					<path class="st11" d="M47.2,40.1h4.5l0.5,1.6h26.8l0.6-1.6H84l5.9,16.6l-6.3,2.2c-1.4-2.8-2.4-4.6-3-5.4
						c-1.2-1.7-2.6-3-4.2-3.9c-1.2-0.7-2.3-1.1-3.5-1.1c-0.5,0-0.9,0.1-1.1,0.4c-0.2,0.3-0.3,0.9-0.3,1.8V78c0,1.6,0.1,2.6,0.2,3
						c0.1,0.4,0.3,0.7,0.6,1c0.3,0.2,0.7,0.4,1.1,0.5c0.5,0.1,1.8,0.1,3.8,0.1v6.6H54v-6.6h1.4c1.6,0,2.5-0.1,3-0.3
						c0.4-0.2,0.8-0.5,1-1c0.2-0.5,0.3-1.5,0.3-3V50.3c0-0.8-0.1-1.3-0.3-1.5c-0.2-0.2-0.6-0.3-1.2-0.3c-1.2,0-2.5,0.4-3.9,1.3
						c-1.5,0.9-2.7,2.1-3.9,3.7c-0.5,0.6-1.4,2.4-2.9,5.3l-6.2-2.2L47.2,40.1z"/>
				</g>
			</g>
		</g>
	</g>
</g>
</svg>
