<!-- Generator: Adobe Illustrator 20.1.0, SVG Export Plug-In  -->
<svg version="1.1"
	 xmlns="http://www.w3.org/2000/svg" xmlns:xlink="http://www.w3.org/1999/xlink" xmlns:a="http://ns.adobe.com/AdobeSVGViewerExtensions/3.0/"
	 x="0px" y="0px" width="132.8px" height="132.8px" viewBox="0 0 132.8 132.8" style="enable-background:new 0 0 132.8 132.8;"
	 xml:space="preserve">
<style type="text/css">
	.st0{fill:#4F5D73;}
	.st1{opacity:0.2;}
	.st2{fill:#231F20;}
	.st3{fill:#76C2AF;}
	.st4{fill:#E0E0D1;}
</style>
<defs>
</defs>
<g>
	<g>
		<circle class="st0" cx="66.4" cy="66.4" r="66.4"/>
	</g>
	<g>
		<g class="st1">
			<g>
				<path class="st2" d="M103.7,68.6c-4.6,0-8.4-3.7-8.4-8.4c0-0.7,0.1-1.5,0.3-2.1H45.4c0.2,0.7,0.3,1.4,0.3,2.1
					c0,4.6-3.7,8.4-8.4,8.4c-0.7,0-1.4-0.1-2.1-0.3v17c0.7-0.2,1.4-0.3,2.1-0.3c4.6,0,8.4,3.7,8.4,8.4c0,0.7-0.1,1.4-0.3,2.1h50.2
					c-0.2-0.7-0.3-1.4-0.3-2.1c0-4.6,3.7-8.4,8.4-8.4c0.7,0,1.5,0.1,2.1,0.3v-17C105.1,68.5,104.4,68.6,103.7,68.6z M70.5,89.2
					c-6.9,0-12.4-5.6-12.4-12.4c0-6.9,5.6-12.4,12.4-12.4c6.9,0,12.4,5.6,12.4,12.4C83,83.6,77.4,89.2,70.5,89.2z"/>
			</g>
			<g>
				<path class="st2" d="M103.7,51.9H37.3c-0.6,0-1.1,0.1-1.7,0.2c-3.8,0.8-6.7,4.1-6.7,8.2c0,0.2,0,0.4,0.1,0.6v31.8
					c0,0.2-0.1,0.4-0.1,0.6c0,4.6,3.7,8.4,8.4,8.4c0.2,0,0.4,0,0.6-0.1h65c0.2,0,0.4,0.1,0.6,0.1c4,0,7.4-2.9,8.2-6.7
					c0.1-0.5,0.2-1.1,0.2-1.7V60.2C112,55.6,108.3,51.9,103.7,51.9z M103.7,85c-4.6,0-8.4,3.7-8.4,8.4c0,0.7,0.1,1.4,0.3,2.1H45.4
					c0.2-0.7,0.3-1.4,0.3-2.1c0-4.6-3.7-8.4-8.4-8.4c-0.7,0-1.4,0.1-2.1,0.3v-17c0.7,0.2,1.4,0.3,2.1,0.3c4.6,0,8.4-3.7,8.4-8.4
					c0-0.7-0.1-1.5-0.3-2.1h50.2c-0.2,0.7-0.3,1.4-0.3,2.1c0,4.6,3.7,8.4,8.4,8.4c0.7,0,1.5-0.1,2.1-0.3v17
					C105.1,85.1,104.4,85,103.7,85z"/>
			</g>
			<g>
				<circle class="st2" cx="70.5" cy="76.8" r="12.4"/>
			</g>
		</g>
		<g>
			<g>
				<path class="st3" d="M37.3,95.4c-3.4,0-6.2-2.8-6.2-6.2V56c0-3.4,2.8-6.2,6.2-6.2h66.4c3.4,0,6.2,2.8,6.2,6.2v33.2
					c0,3.4-2.8,6.2-6.2,6.2H37.3z"/>
			</g>
			<g>
				<path class="st4" d="M103.7,51.9c2.3,0,4.1,1.9,4.1,4.1v33.2c0,2.3-1.9,4.1-4.1,4.1H37.3c-2.3,0-4.1-1.9-4.1-4.1V56
					c0-2.3,1.9-4.1,4.1-4.1H103.7 M103.7,47.7H37.3c-4.6,0-8.3,3.7-8.3,8.3v33.2c0,4.6,3.7,8.3,8.3,8.3h66.4c4.6,0,8.3-3.7,8.3-8.3
					V56C112,51.4,108.3,47.7,103.7,47.7L103.7,47.7z"/>
			</g>
		</g>
		<g>
			<circle class="st0" cx="70.5" cy="72.6" r="12.4"/>
		</g>
		<g>
			<circle class="st4" cx="103.7" cy="56.1" r="8.4"/>
		</g>
		<g>
			<circle class="st4" cx="37.3" cy="56.1" r="8.4"/>
		</g>
		<g>
			<circle class="st4" cx="103.7" cy="89.2" r="8.4"/>
		</g>
		<g>
			<circle class="st4" cx="37.3" cy="89.2" r="8.4"/>
		</g>
	</g>
	<g>
		<g class="st1">
			<g>
				<path class="st2" d="M99.5,60.3c-4.6,0-8.4-3.7-8.4-8.4c0-0.7,0.1-1.5,0.3-2.1H41.2c0.2,0.7,0.3,1.4,0.3,2.1
					c0,4.6-3.7,8.4-8.4,8.4c-0.7,0-1.4-0.1-2.1-0.3v17c0.7-0.2,1.4-0.3,2.1-0.3c4.6,0,8.4,3.7,8.4,8.4c0,0.7-0.1,1.4-0.3,2.1h50.2
					c-0.2-0.7-0.3-1.4-0.3-2.1c0-4.6,3.7-8.4,8.4-8.4c0.7,0,1.5,0.1,2.1,0.3V60C101,60.2,100.2,60.3,99.5,60.3z M66.4,80.9
					c-6.9,0-12.4-5.6-12.4-12.4c0-6.9,5.6-12.4,12.4-12.4s12.4,5.6,12.4,12.4C78.8,75.3,73.3,80.9,66.4,80.9z"/>
			</g>
			<g>
				<path class="st2" d="M99.6,43.6H33.2c-0.6,0-1.1,0.1-1.7,0.2c-3.8,0.8-6.7,4.1-6.7,8.2c0,0.2,0,0.4,0.1,0.6v31.8
					c0,0.2-0.1,0.4-0.1,0.6c0,4.6,3.7,8.4,8.4,8.4c0.2,0,0.4,0,0.6-0.1h65c0.2,0,0.4,0.1,0.6,0.1c4,0,7.4-2.9,8.2-6.7
					c0.1-0.5,0.2-1.1,0.2-1.7V51.9C107.9,47.3,104.2,43.6,99.6,43.6z M99.5,76.7c-4.6,0-8.4,3.7-8.4,8.4c0,0.7,0.1,1.4,0.3,2.1H41.3
					c0.2-0.7,0.3-1.4,0.3-2.1c0-4.6-3.7-8.4-8.4-8.4c-0.7,0-1.4,0.1-2.1,0.3V60c0.7,0.2,1.4,0.3,2.1,0.3c4.6,0,8.4-3.7,8.4-8.4
					c0-0.7-0.1-1.5-0.3-2.1h50.2c-0.2,0.7-0.3,1.4-0.3,2.1c0,4.6,3.7,8.4,8.4,8.4c0.7,0,1.5-0.1,2.1-0.3v17
					C101,76.8,100.2,76.7,99.5,76.7z"/>
			</g>
			<g>
				<circle class="st2" cx="66.4" cy="68.5" r="12.4"/>
			</g>
		</g>
		<g>
			<g>
				<path class="st3" d="M29,87.1c-3.4,0-6.2-2.8-6.2-6.2V47.7c0-3.4,2.8-6.2,6.2-6.2h66.4c3.4,0,6.2,2.8,6.2,6.2v33.2
					c0,3.4-2.8,6.2-6.2,6.2H29z"/>
			</g>
			<g>
				<path class="st4" d="M95.4,43.6c2.3,0,4.1,1.9,4.1,4.1v33.2c0,2.3-1.9,4.1-4.1,4.1H29c-2.3,0-4.1-1.9-4.1-4.1V47.7
					c0-2.3,1.9-4.1,4.1-4.1H95.4 M95.4,39.4H29c-4.6,0-8.3,3.7-8.3,8.3v33.2c0,4.6,3.7,8.3,8.3,8.3h66.4c4.6,0,8.3-3.7,8.3-8.3V47.7
					C103.7,43.1,100,39.4,95.4,39.4L95.4,39.4z"/>
			</g>
		</g>
		<g>
			<circle class="st0" cx="62.2" cy="64.3" r="12.4"/>
		</g>
		<g>
			<circle class="st4" cx="95.4" cy="47.8" r="8.4"/>
		</g>
		<g>
			<circle class="st4" cx="29" cy="47.8" r="8.4"/>
		</g>
		<g>
			<circle class="st4" cx="95.4" cy="80.9" r="8.4"/>
		</g>
		<g>
			<circle class="st4" cx="29" cy="80.9" r="8.4"/>
		</g>
	</g>
</g>
</svg>
