<svg id="图层_1" data-name="图层 1" xmlns="http://www.w3.org/2000/svg" viewBox="0 0 523.73 45.03"><defs><style>.cls-1{fill:#fff;}</style></defs><path class="cls-1" d="M421.51,1253.89h-10.8l10.42,7.06-.91,1.3L408,1253.89H391.89a45.64,45.64,0,0,1-12.58,8.21l-.62-1.44a44.25,44.25,0,0,0,10.94-6.77H378.45v-1.54h5.14V1232a4.32,4.32,0,0,1,4.37-4.37h11.23v-4.85H379.55v-1.54h19.63V1218h1.54v3.17H420.4v1.54H400.72v4.85H412a4.32,4.32,0,0,1,4.37,4.37v20.4h5.14Zm-36.39-20.31h29.71V1232a2.81,2.81,0,0,0-2.83-2.83H388a2.81,2.81,0,0,0-2.83,2.83Zm0,6.24h29.71v-4.7H385.12Zm0,6.24h29.71v-4.7H385.12Zm0,6.29h29.71v-4.75H385.12Z" transform="translate(-378.45 -1218.03)"/><path class="cls-1" d="M427.84,1221.73H469.6v1.54H449.06v15.89h18.87v1.54H449.06v19.87H469.6v1.54H426.35v-1.54h6.91v-29.38h1.54v29.38h12.72v-37.3H427.84Z" transform="translate(-378.45 -1218.03)"/><path class="cls-1" d="M474.83,1229.22a4.33,4.33,0,0,1,4.37-4.42h3.07v-6.24h1.54v6.24H489a4.33,4.33,0,0,1,4.37,4.42v28.08a4.32,4.32,0,0,1-4.37,4.37H479.2a4.32,4.32,0,0,1-4.37-4.37Zm1.54,12.91h15.51v-12.91a2.85,2.85,0,0,0-2.83-2.88H479.2a2.85,2.85,0,0,0-2.83,2.88Zm15.51,15.17v-13.63H476.37v13.63a2.81,2.81,0,0,0,2.83,2.83H489A2.81,2.81,0,0,0,491.87,1257.3Zm9.31-38.21-2.26,5h13a5.39,5.39,0,0,1,5.28,5.28v27.31a5.33,5.33,0,0,1-5.28,5.28h-7.44v-1.54h7.44a3.75,3.75,0,0,0,3.74-3.74v-27.31a3.75,3.75,0,0,0-3.74-3.74H496.48l3.26-7.2Zm-.1,14.45,6.14,18.53-1.44.48L499.65,1234Z" transform="translate(-378.45 -1218.03)"/><path class="cls-1" d="M556.24,1218v4.13h10v1.54h-10v4.13h-1.54v-4.13H533.25v4.13h-1.54v-4.13h-10v-1.54h10V1218h1.54v4.13h21.46V1218Zm-34.18,35.71h21.17v-5.18h-10.8a5.26,5.26,0,0,1-5.28-5.28v-8a5.25,5.25,0,0,1,5.28-5.23h23.09a5.32,5.32,0,0,1,5.28,5.23v8a5.33,5.33,0,0,1-5.28,5.28H544.77v5.18h21.12v1.54H544.77v7.54h-1.54v-7.54H522.06Zm6.63-15.17h30.58v-3.31a3.71,3.71,0,0,0-3.74-3.7H532.43a3.71,3.71,0,0,0-3.74,3.7Zm26.83,8.45a3.75,3.75,0,0,0,3.74-3.74v-3.17H528.69v3.17a3.75,3.75,0,0,0,3.74,3.74Z" transform="translate(-378.45 -1218.03)"/><path class="cls-1" d="M573.57,1229.7v2a285.35,285.35,0,0,1-1.63,30.34l-1.54-.19a282.56,282.56,0,0,0,1.68-30.15v-2Zm6.48-11.62v7.1h8v1.54h-8V1263h-1.54v-36.29h-8v-1.54h8v-7.1Zm6,11.71v32.55h-1.54v-32.55Zm14.79,32.31h-4.9a5.2,5.2,0,0,1-5.09-5.28v-32.26a5.26,5.26,0,0,1,5.09-5.28h11.19a5.25,5.25,0,0,1,5,5.28v11.23a5.19,5.19,0,0,1-5,5.28h-4l3.74,7.54,5.9-3.84.82,1.3-6,3.89,5.86,11.71-1.39.72-10.56-21.31h-9.07v15.75a3.62,3.62,0,0,0,3.55,3.74h4.9Zm-8.45-32.69h18.24v-4.85a3.64,3.64,0,0,0-3.5-3.74H595.94a3.65,3.65,0,0,0-3.55,3.74Zm18.24,6.38v-4.85H592.39v8.59h14.74A3.61,3.61,0,0,0,610.63,1235.79Z" transform="translate(-378.45 -1218.03)"/><path class="cls-1" d="M640.77,1218v4H661.7v1.54H618.3v-1.54h20.93v-4Zm-20.26,45v-16.27a5.33,5.33,0,0,1,5.28-5.28h29a5.39,5.39,0,0,1,5.28,5.28v10.9a5.33,5.33,0,0,1-5.28,5.28h-2.21v-1.54h2.21a3.69,3.69,0,0,0,3.74-3.74v-10.9a3.69,3.69,0,0,0-3.74-3.74h-29a3.72,3.72,0,0,0-3.74,3.74v16.27Zm35.72-29a3.52,3.52,0,0,1-3.55,3.46H627.28a3.53,3.53,0,0,1-3.55-3.46v-3a3.53,3.53,0,0,1,3.55-3.5h25.39a3.47,3.47,0,0,1,3.55,3.5Zm-1.54-3a2,2,0,0,0-2-2H627.28a2,2,0,0,0-2,2v3a1.92,1.92,0,0,0,2,1.92h25.39a1.92,1.92,0,0,0,2-1.92Zm-1.92,23.47a3.57,3.57,0,0,1-3.55,3.5H631.36a3.57,3.57,0,0,1-3.55-3.5v-3.79a3.57,3.57,0,0,1,3.55-3.5h17.86a3.57,3.57,0,0,1,3.55,3.5Zm-1.54-3.79a2,2,0,0,0-2-2H631.36a2,2,0,0,0-2,2v3.79a2,2,0,0,0,2,2h17.86a2,2,0,0,0,2-2Z" transform="translate(-378.45 -1218.03)"/><path class="cls-1" d="M677.06,1260.37H685a3.67,3.67,0,0,0,3.7-3.7v-8.26H666.21v-1.49h22.47v-10.51h-21v-1.54h21v-12l-19,.72-.1-1.54,37.68-1.49.1,1.54-17.19.67v12h18.53v1.54H690.21v10.51h19.54v1.49H690.21v8.26a5.24,5.24,0,0,1-5.23,5.23h-7.92Z" transform="translate(-378.45 -1218.03)"/><path class="cls-1" d="M716.37,1251l7.68,5.52a37.92,37.92,0,0,0,7.83-16.08H713.68v-1.54h20.11a40.47,40.47,0,0,1-8.5,18.53l4.75,3.41-.91,1.25-13.68-9.84Zm-2.06-19,2.21-9c.72-2.88,2.83-4.08,5.9-4.08h4.27c3.07,0,5.14,1.2,5.9,4.08l2.26,9-1.54.38-2.26-9c-.53-2.06-2.11-2.93-4.37-2.93h-4.27c-2.26,0-3.84.86-4.37,2.93l-2.21,9Zm10.37-3.94v7.73h-1.54v-7.73Zm32,34.13L746.8,1248c-1.78,6.29-5.14,10.32-10.18,14.11l-.91-1.15c7.34-5.66,10.9-11.62,11.14-25.54h1.54a54.06,54.06,0,0,1-1.1,10.56l10.61,15.31Zm-20.45-42.63h22.08v1.54H749.2l-2.11,7.78h5.23a4.32,4.32,0,0,1,4.37,4.37v18.19h-1.54v-18.19a2.81,2.81,0,0,0-2.83-2.83H742.15a2.81,2.81,0,0,0-2.83,2.83v18.19h-1.54v-18.19a4.32,4.32,0,0,1,4.37-4.37h3.36l2.11-7.78H736.19Z" transform="translate(-378.45 -1218.03)"/><path class="cls-1" d="M762.93,1228.45l8.64-8.16v42.48h-1.49v-39l-6,5.76Zm19.39,7.68a124.74,124.74,0,0,1-4.46,25.59l-1.44-.48a115.88,115.88,0,0,0,4.37-25.2Zm.91-17-2.16,5.81h24l-3.7,8.06-1.34-.62,2.74-5.9H778.91l2.88-7.92Zm1.25,42h2.16a3.68,3.68,0,0,0,3.74-3.7V1230.8h1.54v26.59a5.25,5.25,0,0,1-5.28,5.23h-2.16Zm15.7-25.44,4.8,25.78-1.54.29-4.8-25.83Z" transform="translate(-378.45 -1218.03)"/><path class="cls-1" d="M810.93,1260.42h2.64a3.72,3.72,0,0,0,3.74-3.74v-11l-6.82,3.74-.72-1.39,7.54-4.08v-16.85h-7.25v-1.54h7.25v-7.39h1.54v7.39h4.85v1.54h-4.85v16l5.52-3,.72,1.34-6.24,3.46v11.81a5.26,5.26,0,0,1-5.28,5.28h-2.64Zm16.27-20.64h11.33v-8.11h-11v-1.54h17.62l2.69-5.9H828.45l2.93-5.62,1.34.72-1.78,3.36H850.2l-3.31,7.44h.1a4.37,4.37,0,0,1,4.32,4.37v5.28h2.93v1.49H851.3v6.1a4.28,4.28,0,0,1-4.32,4.37h-6.91v5.14a5.32,5.32,0,0,1-5.28,5.23h-3.41v-1.54h3.41a3.68,3.68,0,0,0,3.74-3.7v-5.14h-11v-1.54h11v-8.93H827.2Zm12.87-8.11v8.11h9.7v-5.28a2.8,2.8,0,0,0-2.78-2.83Zm9.7,15.7v-6.1h-9.7v8.93H847A2.77,2.77,0,0,0,849.76,1247.36Z" transform="translate(-378.45 -1218.03)"/><path class="cls-1" d="M872.23,1262.15h-4.08a5.25,5.25,0,0,1-5.23-5.23v-10.75h-5.09v-1.54h5.09v-8.79h-5.09v-1.54h14.4v1.54h-7.78v8.79h7.78v1.54h-7.78v10.75a3.67,3.67,0,0,0,3.7,3.7h4.08Zm-9.17-42.63-2.11,6.53h11.28v1.49h-13.3l2.69-8.45Zm25.25-1v1.87c0,2.64,0,5.09.19,7.44h13.2v1.54H888.64a72.44,72.44,0,0,0,1.2,9.12h12.34V1240h-12a54.45,54.45,0,0,0,3.22,10.13,46.83,46.83,0,0,0,7.06-6.1l1.06,1.06a49.38,49.38,0,0,1-7.44,6.48A47,47,0,0,0,901,1262l-1.15,1a48.21,48.21,0,0,1-7.06-10.46,67.42,67.42,0,0,1-16.47,7.73l-.43-1.44a65.83,65.83,0,0,0,16.27-7.68,53.16,53.16,0,0,1-3.55-11H874.67v-1.54h13.58a82.47,82.47,0,0,1-1.2-9.12H875.15v-1.54H887c-.14-2.35-.19-4.85-.19-7.44v-1.87Zm11,.24v6h-1.54v-6Z" transform="translate(-378.45 -1218.03)"/></svg>