<!-- Generator: Adobe Illustrator 20.1.0, SVG Export Plug-In  -->
<svg version="1.1"
	 xmlns="http://www.w3.org/2000/svg" xmlns:xlink="http://www.w3.org/1999/xlink" xmlns:a="http://ns.adobe.com/AdobeSVGViewerExtensions/3.0/"
	 x="0px" y="0px" width="132.8px" height="132.8px" viewBox="0 0 132.8 132.8" style="enable-background:new 0 0 132.8 132.8;"
	 xml:space="preserve">
<style type="text/css">
	.st0{fill:#C75C5C;}
	.st1{opacity:0.2;}
	.st2{fill:#231F20;}
	.st3{fill:#F5CF87;}
	.st4{fill:#4F5D73;}
</style>
<defs>
</defs>
<g>
	<g>
		<circle class="st0" cx="66.4" cy="66.4" r="66.4"/>
	</g>
	<g class="st1">
		<path class="st2" d="M35.2,103.7c-9.1,0-12.9-6.5-8.3-14.4l31.2-54.1c4.6-7.9,12-7.9,16.6,0l31.2,54.1c4.6,7.9,0.8,14.4-8.3,14.4
			H35.2z"/>
	</g>
	<g>
		<path class="st3" d="M35.2,99.6c-9.1,0-12.9-6.5-8.3-14.4l31.2-54.1c4.6-7.9,12-7.9,16.6,0l31.2,54.1c4.6,7.9,0.8,14.4-8.3,14.4
			H35.2z"/>
	</g>
	<g>
		<path class="st4" d="M70.5,66.4c0,2.3-1.9,4.1-4.1,4.1l0,0c-2.3,0-4.1-1.9-4.1-4.1V49.8c0-2.3,1.9-4.1,4.1-4.1l0,0
			c2.3,0,4.1,1.9,4.1,4.1V66.4z"/>
	</g>
	<g>
		<path class="st4" d="M70.5,83c0,2.3-1.9,4.1-4.1,4.1l0,0c-2.3,0-4.1-1.9-4.1-4.1l0,0c0-2.3,1.9-4.1,4.1-4.1l0,0
			C68.7,78.8,70.5,80.7,70.5,83L70.5,83z"/>
	</g>
</g>
</svg>
