<!-- Generator: Adobe Illustrator 20.1.0, SVG Export Plug-In  -->

<svg version="1.1"

	 xmlns="http://www.w3.org/2000/svg" xmlns:xlink="http://www.w3.org/1999/xlink" xmlns:a="http://ns.adobe.com/AdobeSVGViewerExtensions/3.0/"

	 x="0px" y="0px" width="619.4px" height="45px" viewBox="0 0 619.4 45" style="enable-background:new 0 0 619.4 45;"

	 xml:space="preserve">

<style type="text/css">

	.st0{fill:#999999;}

</style>

<defs>

</defs>

<g>

	<path class="st0" d="M43.1,35.9H32.3l10.4,7.1l-0.9,1.3l-12.2-8.4H13.4c-4,3.6-8.2,6.3-12.6,8.2l-0.6-1.4c3.8-1.7,7.4-3.8,10.9-6.8

		H0v-1.5h5.1V13.9c0-2.4,1.9-4.4,4.4-4.4h11.2V4.7H1.1V3.2h19.6V0h1.5v3.2H42v1.5H22.3v4.8h11.3c2.4,0,4.4,1.9,4.4,4.4v20.4h5.1

		V35.9z M6.7,15.6h29.7v-1.6c0-1.6-1.2-2.8-2.8-2.8h-24c-1.6,0-2.8,1.2-2.8,2.8V15.6z M6.7,21.8h29.7v-4.7H6.7V21.8z M6.7,28h29.7

		v-4.7H6.7V28z M6.7,34.3h29.7v-4.8H6.7V34.3z"/>

	<path class="st0" d="M49.4,3.7h41.8v1.5H70.6v15.9h18.9v1.5H70.6v19.9h20.5v1.5H47.9v-1.5h6.9V13.2h1.5v29.4h12.7V5.2H49.4V3.7z"/>

	<path class="st0" d="M129.8,0v4.1h10v1.5h-10v4.1h-1.5V5.7h-21.5v4.1h-1.5V5.7h-10V4.1h10V0h1.5v4.1h21.5V0H129.8z M95.6,35.7h21.2

		v-5.2H106c-2.9,0-5.3-2.4-5.3-5.3v-8c0-2.9,2.4-5.2,5.3-5.2h23.1c2.8,0,5.3,2.4,5.3,5.2v8c0,2.9-2.4,5.3-5.3,5.3h-10.8v5.2h21.1

		v1.5h-21.1v7.5h-1.5v-7.5H95.6V35.7z M102.2,20.5h30.6v-3.3c0-2.1-1.7-3.7-3.7-3.7H106c-2.1,0-3.7,1.6-3.7,3.7V20.5z M129.1,29

		c2.1,0,3.7-1.7,3.7-3.7v-3.2h-30.6v3.2c0,2.1,1.7,3.7,3.7,3.7H129.1z"/>

	<path class="st0" d="M147.1,11.7v2c0,11.5-0.7,21.8-1.6,30.3l-1.5-0.2c0.9-8.5,1.7-18.8,1.7-30.1v-2H147.1z M153.6,0v7.1h8v1.5h-8

		V45h-1.5V8.7h-8V7.2h8V0H153.6z M159.6,11.8v32.5h-1.5V11.8H159.6z M174.4,44.1h-4.9c-2.8,0-5.1-2.4-5.1-5.3V6.5

		c0-2.8,2.3-5.3,5.1-5.3h11.2c2.7,0,5,2.4,5,5.3v11.2c0,2.9-2.3,5.3-5,5.3h-4l3.7,7.5l5.9-3.8l0.8,1.3l-6,3.9l5.9,11.7l-1.4,0.7

		L175,23h-9.1v15.7c0,2.1,1.6,3.7,3.6,3.7h4.9V44.1z M165.9,11.4h18.2V6.5c0-2.1-1.6-3.7-3.5-3.7h-11.2c-2,0-3.6,1.7-3.6,3.7V11.4z

		 M184.2,17.8v-4.8h-18.2v8.6h14.7C182.6,21.5,184.2,19.9,184.2,17.8z"/>

	<path class="st0" d="M214.3,0v4h20.9v1.5h-43.4V4h20.9V0H214.3z M194.1,45V28.8c0-2.8,2.4-5.3,5.3-5.3h29c2.8,0,5.3,2.4,5.3,5.3

		v10.9c0,2.9-2.4,5.3-5.3,5.3h-2.2v-1.5h2.2c2.1,0,3.7-1.6,3.7-3.7V28.8c0-2.1-1.6-3.7-3.7-3.7h-29c-2.1,0-3.7,1.6-3.7,3.7V45H194.1

		z M229.8,16c0,1.9-1.6,3.5-3.6,3.5h-25.4c-2,0-3.6-1.6-3.6-3.5v-3c0-1.9,1.6-3.5,3.6-3.5h25.4c2.1,0,3.6,1.6,3.6,3.5V16z M228.2,13

		c0-1.1-0.9-2-2-2h-25.4c-1.2,0-2,0.9-2,2v3c0,1.1,0.9,1.9,2,1.9h25.4c1.2,0,2-0.8,2-1.9V13z M226.3,36.5c0,1.9-1.6,3.5-3.6,3.5

		h-17.9c-1.9,0-3.6-1.6-3.6-3.5v-3.8c0-1.9,1.6-3.5,3.6-3.5h17.9c1.9,0,3.6,1.6,3.6,3.5V36.5z M224.8,32.7c0-1.1-0.9-2-2-2h-17.9

		c-1.1,0-2,0.9-2,2v3.8c0,1.1,0.9,2,2,2h17.9c1.1,0,2-0.9,2-2V32.7z"/>

	<path class="st0" d="M250.6,42.3h7.9c2.1,0,3.7-1.6,3.7-3.7v-8.3h-22.5v-1.5h22.5V18.4h-21v-1.5h21v-12l-19,0.7l-0.1-1.5l37.7-1.5

		l0.1,1.5l-17.2,0.7v12h18.5v1.5h-18.5v10.5h19.5v1.5h-19.5v8.3c0,2.9-2.4,5.2-5.2,5.2h-7.9V42.3z"/>

	<path class="st0" d="M323.1,32.1h-34.3v-1.5h34.3V32.1z M330.2,7.6h-34.8l-1.6,12h30c2.8,0,5.3,2.4,5.3,5.3v13.1

		c0,2.9-2.4,5.3-5.3,5.3h-20.4v-1.5h20.4c2.1,0,3.7-1.7,3.7-3.7V24.8c0-2.1-1.7-3.7-3.7-3.7h-31.8l2.7-20.3l1.5,0.2l-0.7,5h34.6V7.6

		z"/>

	<path class="st0" d="M336.5,10.4l8.6-8.2v42.5h-1.5v-39l-6,5.8L336.5,10.4z M355.9,18.1c-0.7,10-2.4,18-4.5,25.6l-1.4-0.5

		c2.1-7.3,3.7-15.2,4.4-25.2L355.9,18.1z M356.8,1.1l-2.2,5.8h24l-3.7,8.1l-1.3-0.6l2.7-5.9h-23.9l2.9-7.9L356.8,1.1z M358,43.1h2.2

		c2.1,0,3.7-1.6,3.7-3.7V12.8h1.5v26.6c0,2.9-2.4,5.2-5.3,5.2H358V43.1z M373.7,17.6l4.8,25.8l-1.5,0.3l-4.8-25.8L373.7,17.6z"/>

	<path class="st0" d="M424.7,32.3l-3.6-5.6c-1-1.5-2.4-2.5-4.5-2.5h-22.1c-2.2,0-3.6,1-4.6,2.5l-3.6,5.6l-1.2-0.8l3.5-5.6

		c1.3-1.9,3.1-3.2,5.9-3.2h22.1c2.7,0,4.5,1.3,5.8,3.2l3.5,5.6L424.7,32.3z M385.3,1.2h40.4v1.5h-19.4v4H422c2,0,3.5,1.5,3.5,3.5

		v10.6h-1.5V10.1c0-1.1-0.8-1.9-1.9-1.9h-15.7V21h-1.5V8.2h-15.6c-1.1,0-2,0.8-2,1.9v10.6h-1.5V10.1c0-2,1.6-3.5,3.5-3.5h15.6v-4

		h-19.4V1.2z M389.4,31.8h15.4v-5.3h1.5v5.3h14.5c-0.1,3.2-7,6.6-14.3,8.4l10.6,2.4l-0.4,1.5l-26.6-6.1l0.3-1.5l12.5,2.9

		c6.8-1.2,13.3-3.7,15-6h-28.6V31.8z M390.3,11.9h11.1v1.5h-11.1V11.9z M390.3,17h11.1v1.5h-11.1V17z M409.7,11.9h11.1v1.5h-11.1

		V11.9z M409.7,17h11.1v1.5h-11.1V17z"/>

	<path class="st0" d="M435.5,22.8v18.5L441,40V18.5h-4.1c-1.9,0-3.5-1.6-3.5-3.5V5.2c0-1.9,1.6-3.5,3.5-3.5h7.3

		c1.9,0,3.5,1.6,3.5,3.5V15c0,1.9-1.6,3.5-3.5,3.5h-1.7V26h6.7v1.5h-6.7v12.1l6-1.5l0.3,1.5l-17.4,4.2l-0.3-1.5l2.8-0.7V22.8H435.5z

		 M436.9,3.3c-1.1,0-1.9,0.8-1.9,1.9V15c0,1.1,0.8,2,1.9,2h7.3c1.1,0,2-0.9,2-2V5.2c0-1.1-0.9-1.9-2-1.9H436.9z M475.9,44.1h-18.2

		c-2.9,0-5.3-2.4-5.3-5.3V7.3c0-2.8,2.4-5.3,5.3-5.3h18.2v1.5h-18.2c-2.1,0-3.7,1.7-3.7,3.7v6.6H470c2.4,0,4.4,1.9,4.4,4.3v8.4

		c0,2.4-1.9,4.4-4.4,4.4h-16.1v7.7c0,2.1,1.7,3.7,3.7,3.7h18.2V44.1z M453.9,15.5v14.1H470c1.6,0,2.8-1.2,2.8-2.8v-8.4

		c0-1.6-1.2-2.8-2.8-2.8H453.9z"/>

	<path class="st0" d="M479.9,4.2h20.9V0h1.5v4.1h20.9v1.5h-43.4V4.2z M519.1,8.8v9c0,2.4-1.9,4.4-4.4,4.4h-15.1l-1.7,4.4h17.6

		c2.9,0,5.2,2.4,5.2,5.3v7.5c0,2.9-2.4,5.3-5.2,5.3h-3.3v-1.5h3.3c2.1,0,3.7-1.6,3.7-3.7v-7.5c0-2.1-1.7-3.7-3.7-3.7h-18.1

		l-3.9,10.4h13.4c1.6,0,2.8-1.3,2.8-2.9v-3.1h1.5v3.1c0,2.5-1.9,4.4-4.4,4.4h-15.6l4.5-11.9h-8.1c-2.1,0-3.7,1.7-3.7,3.7v13h-1.5

		v-13c0-2.8,2.4-5.3,5.3-5.3h8.6l1.7-4.4h-9.6c-2.3,0-4.4-1.9-4.4-4.4v-9h1.5v9c0,1.6,1.3,2.8,2.8,2.8h26.3c1.6,0,2.9-1.2,2.9-2.8

		v-9H519.1z M490.7,8.3l11.9,4.1c3.7-1.2,7.1-2.7,10.3-4.3l0.7,1.3c-2.8,1.4-5.7,2.6-8.7,3.8l9.6,3.3l-0.6,1.4L502.6,14

		c-4,1.4-8.3,2.6-13,3.7l-0.4-1.5c3.9-0.9,7.6-1.9,11-3l-10.1-3.5L490.7,8.3z"/>

	<path class="st0" d="M532.2,11.9v10.3c0,9.6-0.9,15.5-2.6,21.8l-1.4-0.4c1.7-6.1,2.5-11.8,2.5-21.4V11.9H532.2z M537.9,0.1v7.1h7.9

		v1.5h-7.9V45h-1.5V8.8h-7.9V7.2h7.9V0.1H537.9z M543.8,11.8v32.5h-1.5V11.8H543.8z M554.3,43.9c-2.9,0-5.2-2.4-5.2-5.3V7.9

		c0-2.8,2.4-5.3,5.2-5.3h11.5c2.9,0,5.2,2.4,5.2,5.3v30.7c0,2.9-2.3,5.3-5.2,5.3H554.3z M550.6,16.6h18.9V7.9c0-2.1-1.6-3.7-3.7-3.7

		h-11.5c-2.1,0-3.7,1.7-3.7,3.7V16.6z M550.6,29.8h18.9V18.1h-18.9V29.8z M565.8,42.4c2.1,0,3.7-1.7,3.7-3.7v-7.3h-18.9v7.3

		c0,2.1,1.6,3.7,3.7,3.7H565.8z"/>

	<path class="st0" d="M593.8,42.9h-18.1v-1.5h18.1V42.9z M591.5,13.4l-11.1,19.2h12.3v1.5h-15l7.8-13.5h-8l10.4-19.9l1.3,0.7

		l-9.3,17.6h6.4l3.8-6.5L591.5,13.4z M607.7,42.3h6.5c2.1,0,3.7-1.7,3.7-3.7v-27c0-2.1-1.7-3.7-3.7-3.7h-18l3.4-7.4L601,1l-2.4,5.3

		h15.6c2.8,0,5.3,2.4,5.3,5.3v27c0,2.9-2.4,5.3-5.3,5.3h-6.5V42.3z M600.3,15.7l5.8,16.8l-1.4,0.4l-5.8-16.8L600.3,15.7z"/>

</g>

</svg>

