<!-- Generator: Adobe Illustrator 20.1.0, SVG Export Plug-In  -->
<svg version="1.1"
	 xmlns="http://www.w3.org/2000/svg" xmlns:xlink="http://www.w3.org/1999/xlink" xmlns:a="http://ns.adobe.com/AdobeSVGViewerExtensions/3.0/"
	 x="0px" y="0px" width="132.8px" height="132.8px" viewBox="0 0 132.8 132.8" style="enable-background:new 0 0 132.8 132.8;"
	 xml:space="preserve">
<style type="text/css">
	.st0{fill:#E0E0D1;}
	.st1{opacity:0.2;}
	.st2{fill:#231F20;}
	.st3{fill:#E0995E;}
	.st4{fill:#4F5D73;}
</style>
<defs>
</defs>
<g>
	<g>
		<circle class="st0" cx="66.4" cy="66.4" r="66.4"/>
	</g>
	<g class="st1">
		<path class="st2" d="M101.6,53.9H31.1c-3.4,0-6.2,2.8-6.2,6.2l8.3,37.3c0,3.4,2.8,6.2,6.2,6.2h53.9c3.4,0,6.2-2.8,6.2-6.2
			l8.3-37.3C107.9,56.7,105.1,53.9,101.6,53.9z M49.8,93.3c0,2.3-1.9,4.1-4.1,4.1c-2.3,0-4.1-1.9-4.1-4.1V80.9
			c0-2.3,1.9-4.1,4.1-4.1c2.3,0,4.1,1.9,4.1,4.1V93.3z M70.5,93.3c0,2.3-1.9,4.1-4.1,4.1s-4.1-1.9-4.1-4.1V80.9
			c0-2.3,1.9-4.1,4.1-4.1s4.1,1.9,4.1,4.1V93.3z M91.3,93.3c0,2.3-1.9,4.1-4.1,4.1S83,95.6,83,93.3V80.9c0-2.3,1.9-4.1,4.1-4.1
			s4.1,1.9,4.1,4.1V93.3z"/>
	</g>
	<g>
		<path class="st3" d="M101.6,49.8H31.1c-3.4,0-6.2,2.8-6.2,6.2l8.3,37.3c0,3.4,2.8,6.2,6.2,6.2h53.9c3.4,0,6.2-2.8,6.2-6.2
			l8.3-37.3C107.9,52.6,105.1,49.8,101.6,49.8z M49.8,89.2c0,2.3-1.9,4.1-4.1,4.1c-2.3,0-4.1-1.9-4.1-4.1V76.8
			c0-2.3,1.9-4.1,4.1-4.1c2.3,0,4.1,1.9,4.1,4.1V89.2z M70.5,89.2c0,2.3-1.9,4.1-4.1,4.1s-4.1-1.9-4.1-4.1V76.8
			c0-2.3,1.9-4.1,4.1-4.1s4.1,1.9,4.1,4.1V89.2z M91.3,89.2c0,2.3-1.9,4.1-4.1,4.1S83,91.5,83,89.2V76.8c0-2.3,1.9-4.1,4.1-4.1
			s4.1,1.9,4.1,4.1V89.2z"/>
	</g>
	<g class="st1">
		<path class="st2" d="M116.2,58.1c0,2.3-1.9,4.1-4.1,4.1H20.7c-2.3,0-4.1-1.9-4.1-4.1l0,0c0-2.3,1.9-4.1,4.1-4.1H112
			C114.3,53.9,116.2,55.8,116.2,58.1L116.2,58.1z"/>
	</g>
	<g>
		<path class="st3" d="M116.2,53.9c0,2.3-1.9,4.1-4.1,4.1H20.7c-2.3,0-4.1-1.9-4.1-4.1l0,0c0-2.3,1.9-4.1,4.1-4.1H112
			C114.3,49.8,116.2,51.6,116.2,53.9L116.2,53.9z"/>
	</g>
	<g class="st1">
		<path class="st2" d="M88.8,31.5c1.6,1.6,1.6,4.2,0,5.9l-23.7,32c-1.6,1.6-4.2,1.6-5.9,0l0,0c-1.6-1.6-1.6-4.2,0-5.9l23.7-32
			C84.6,29.9,87.2,29.9,88.8,31.5L88.8,31.5z"/>
	</g>
	<g>
		<path class="st4" d="M88.8,27.3c1.6,1.6,1.6,4.2,0,5.9l-23.7,32c-1.6,1.6-4.2,1.6-5.9,0l0,0c-1.6-1.6-1.6-4.2,0-5.9l23.7-32
			C84.6,25.7,87.2,25.7,88.8,27.3L88.8,27.3z"/>
	</g>
</g>
</svg>
