<!-- Generator: Adobe Illustrator 20.1.0, SVG Export Plug-In  -->
<svg version="1.1"
	 xmlns="http://www.w3.org/2000/svg" xmlns:xlink="http://www.w3.org/1999/xlink" xmlns:a="http://ns.adobe.com/AdobeSVGViewerExtensions/3.0/"
	 x="0px" y="0px" width="132.8px" height="132.8px" viewBox="0 0 132.8 132.8" style="enable-background:new 0 0 132.8 132.8;"
	 xml:space="preserve">
<style type="text/css">
	.st0{fill:#76C2AF;}
	.st1{opacity:0.2;}
	.st2{fill:#231F20;}
	.st3{fill:#E0E0D1;}
	.st4{fill:#FFFFFF;}
	.st5{fill:#4F5D73;}
</style>
<defs>
</defs>
<g>
	<g>
		<circle class="st0" cx="66.4" cy="66.4" r="66.4"/>
	</g>
	<g class="st1">
		<path class="st2" d="M102.5,40.8L74.1,24.3C70,22,62.8,22,58.7,24.3L30.2,40.8c-4.2,2.5-7.7,8.4-7.7,13.3v32.8
			c0,4.9,3.5,10.9,7.7,13.3l28.4,16.4c2.1,1.2,4.8,1.9,7.7,1.9s5.6-0.7,7.7-1.9l28.4-16.4c4.2-2.5,7.7-8.4,7.7-13.3V54.1
			C110.2,49.2,106.8,43.2,102.5,40.8z"/>
	</g>
	<g>
		<g>
			<path class="st3" d="M73.6,21.1c-4-2.3-10.4-2.3-14.4,0L30.8,37.5c-4,2.3-7.2,7.9-7.2,12.4v32.8c0,4.6,3.2,10.2,7.2,12.4
				l28.4,16.4c4,2.3,10.4,2.3,14.4,0L102,95.2c4-2.3,7.2-7.9,7.2-12.4V50c0-4.6-3.2-10.2-7.2-12.4L73.6,21.1z"/>
			<path class="st3" d="M66.4,114.4c-2.9,0-5.6-0.7-7.7-1.9L30.2,96.1c-4.2-2.5-7.7-8.4-7.7-13.3V50c0-4.9,3.5-10.9,7.7-13.3
				l28.4-16.4c4.1-2.4,11.3-2.4,15.4,0l28.4,16.4c4.2,2.5,7.7,8.4,7.7,13.3v32.8c0,4.9-3.5,10.9-7.7,13.3l-28.4,16.4
				C72,113.8,69.3,114.4,66.4,114.4z M66.4,20.4c-2.5,0-4.9,0.6-6.7,1.6L31.3,38.4c-3.6,2.1-6.7,7.4-6.7,11.5v32.8
				c0,4.2,3.1,9.5,6.7,11.5l28.4,16.4c3.5,2,9.8,2,13.3,0l28.4-16.4c3.6-2.1,6.7-7.4,6.7-11.5V50c0-4.2-3.1-9.5-6.7-11.5L73,22
				C71.3,21,68.9,20.4,66.4,20.4z"/>
		</g>
		<g>
			<path class="st4" d="M66.4,61.9c-2.3,0-4.6-0.5-6.1-1.4L31.8,44c-1.2-0.7-1.9-1.6-1.9-2.4c0-0.8,0.7-1.6,1.9-2.4l28.4-16.4
				c1.6-0.9,3.8-1.4,6.1-1.4s4.6,0.5,6.1,1.4L101,39.3c1.2,0.7,1.9,1.6,1.9,2.4c0,0.8-0.7,1.6-1.9,2.4L72.5,60.4
				C70.9,61.3,68.7,61.9,66.4,61.9z"/>
		</g>
		<g>
			<path class="st4" d="M62,110.6c-0.6,0-1.4-0.2-2.2-0.7L31.4,93.4c-3.3-1.9-6.1-6.8-6.1-10.6V50c0-0.9,0.2-3,1.9-3
				c0.6,0,1.4,0.2,2.2,0.7L57.8,64C61.1,66,64,70.8,64,74.7v32.8c0,1.1-0.2,2-0.7,2.5C63,110.4,62.6,110.6,62,110.6L62,110.6z"/>
		</g>
		<g>
			<path class="st4" d="M70.4,110.6c-1.7,0-1.9-2.1-1.9-3V74.7c0-3.8,2.8-8.7,6.1-10.7L103,47.6c0.8-0.5,1.5-0.7,2.2-0.7
				c1.7,0,1.9,2.1,1.9,3v32.8c0,3.8-2.8,8.7-6.1,10.6l-28.4,16.4C71.7,110.3,71,110.6,70.4,110.6L70.4,110.6z"/>
		</g>
		<g>
			<path class="st5" d="M66.4,44.6c-2.6,0-4.8-1.3-4.8-2.9s2.2-2.9,4.8-2.9c2.6,0,4.8,1.3,4.8,2.9S69,44.6,66.4,44.6z"/>
		</g>
		<g>
			<path class="st5" d="M31.4,87.9c-1.6,0-2.9-2-2.9-4.3s1.3-4.3,2.9-4.3c1.6,0,2.9,2,2.9,4.3S33,87.9,31.4,87.9z"/>
		</g>
		<g>
			<path class="st5" d="M100.3,87.9c-1.6,0-2.9-2-2.9-4.3s1.3-4.3,2.9-4.3c1.6,0,2.9,2,2.9,4.3S101.9,87.9,100.3,87.9z"/>
		</g>
		<g>
			<path class="st5" d="M31.4,63.1c-1.6,0-2.9-2-2.9-4.3c0-2.3,1.3-4.3,2.9-4.3c1.6,0,2.9,2,2.9,4.3C34.4,61.2,33,63.1,31.4,63.1z"
				/>
		</g>
		<g>
			<path class="st5" d="M55.8,79.1c-1.6,0-2.9-2-2.9-4.3s1.3-4.3,2.9-4.3c1.6,0,2.9,2,2.9,4.3S57.4,79.1,55.8,79.1z"/>
		</g>
		<g>
			<path class="st5" d="M76.7,79.1c-1.6,0-2.9-2-2.9-4.3s1.3-4.3,2.9-4.3c1.6,0,2.9,2,2.9,4.3S78.3,79.1,76.7,79.1z"/>
		</g>
		<g>
			<path class="st5" d="M55.8,101.9c-1.6,0-2.9-2-2.9-4.3s1.3-4.3,2.9-4.3c1.6,0,2.9,2,2.9,4.3S57.4,101.9,55.8,101.9z"/>
		</g>
	</g>
</g>
</svg>
