<!-- Generator: Adobe Illustrator 20.1.0, SVG Export Plug-In  -->
<svg version="1.1"
	 xmlns="http://www.w3.org/2000/svg" xmlns:xlink="http://www.w3.org/1999/xlink" xmlns:a="http://ns.adobe.com/AdobeSVGViewerExtensions/3.0/"
	 x="0px" y="0px" width="824px" height="45px" viewBox="0 0 824 45" style="enable-background:new 0 0 824 45;"
	 xml:space="preserve">
<style type="text/css">
	.st0{fill:#999999;}
</style>
<defs>
</defs>
<g>
	<path class="st0" d="M43.1,35.9H32.3l10.4,7.1l-0.9,1.3l-12.2-8.4H13.4c-4,3.6-8.2,6.3-12.6,8.2l-0.6-1.4c3.8-1.7,7.4-3.8,10.9-6.8
		H0v-1.5h5.1V13.9c0-2.4,1.9-4.4,4.4-4.4h11.2V4.7H1.1V3.2h19.6V0h1.5v3.2H42v1.5H22.3v4.8h11.3c2.4,0,4.4,1.9,4.4,4.4v20.4h5.1
		V35.9z M6.7,15.6h29.7v-1.6c0-1.6-1.2-2.8-2.8-2.8h-24c-1.6,0-2.8,1.2-2.8,2.8V15.6z M6.7,21.8h29.7v-4.7H6.7V21.8z M6.7,28h29.7
		v-4.7H6.7V28z M6.7,34.3h29.7v-4.8H6.7V34.3z"/>
	<path class="st0" d="M49.4,3.7h41.8v1.5H70.6v15.9h18.9v1.5H70.6v19.9h20.5v1.5H47.9v-1.5h6.9V13.2h1.5v29.4h12.7V5.2H49.4V3.7z"/>
	<path class="st0" d="M118.3,0v4h20.9v1.5H95.9V4h20.9V0H118.3z M98.1,45V28.8c0-2.8,2.4-5.3,5.3-5.3h29c2.8,0,5.3,2.4,5.3,5.3v10.9
		c0,2.9-2.4,5.3-5.3,5.3h-2.2v-1.5h2.2c2.1,0,3.7-1.6,3.7-3.7V28.8c0-2.1-1.6-3.7-3.7-3.7h-29c-2.1,0-3.7,1.6-3.7,3.7V45H98.1z
		 M133.8,16c0,1.9-1.6,3.5-3.6,3.5h-25.4c-2,0-3.6-1.6-3.6-3.5v-3c0-1.9,1.6-3.5,3.6-3.5h25.4c2.1,0,3.6,1.6,3.6,3.5V16z M132.2,13
		c0-1.1-0.9-2-2-2h-25.4c-1.2,0-2,0.9-2,2v3c0,1.1,0.9,1.9,2,1.9h25.4c1.2,0,2-0.8,2-1.9V13z M130.3,36.5c0,1.9-1.6,3.5-3.6,3.5
		h-17.9c-1.9,0-3.6-1.6-3.6-3.5v-3.8c0-1.9,1.6-3.5,3.6-3.5h17.9c1.9,0,3.6,1.6,3.6,3.5V36.5z M128.8,32.7c0-1.1-0.9-2-2-2h-17.9
		c-1.1,0-2,0.9-2,2v3.8c0,1.1,0.9,2,2,2h17.9c1.1,0,2-0.9,2-2V32.7z"/>
	<path class="st0" d="M154.6,42.3h7.9c2.1,0,3.7-1.6,3.7-3.7v-8.3h-22.5v-1.5h22.5V18.4h-21v-1.5h21v-12l-19,0.7l-0.1-1.5l37.7-1.5
		l0.1,1.5l-17.2,0.7v12h18.5v1.5h-18.5v10.5h19.5v1.5h-19.5v8.3c0,2.9-2.4,5.2-5.2,5.2h-7.9V42.3z"/>
	<path class="st0" d="M227.1,32.1h-34.3v-1.5h34.3V32.1z M234.2,7.6h-34.8l-1.6,12h30c2.8,0,5.3,2.4,5.3,5.3v13.1
		c0,2.9-2.4,5.3-5.3,5.3h-20.4v-1.5h20.4c2.1,0,3.7-1.7,3.7-3.7V24.8c0-2.1-1.7-3.7-3.7-3.7h-31.8l2.7-20.3l1.5,0.2l-0.7,5h34.6V7.6
		z"/>
	<path class="st0" d="M240.5,10.4l8.6-8.2v42.5h-1.5v-39l-6,5.8L240.5,10.4z M259.9,18.1c-0.7,10-2.4,18-4.5,25.6l-1.4-0.5
		c2.1-7.3,3.7-15.2,4.4-25.2L259.9,18.1z M260.8,1.1l-2.2,5.8h24l-3.7,8.1l-1.3-0.6l2.7-5.9h-23.9l2.9-7.9L260.8,1.1z M262,43.1h2.2
		c2.1,0,3.7-1.6,3.7-3.7V12.8h1.5v26.6c0,2.9-2.4,5.2-5.3,5.2H262V43.1z M277.7,17.6l4.8,25.8l-1.5,0.3l-4.8-25.8L277.7,17.6z"/>
	<path class="st0" d="M328.7,32.3l-3.6-5.6c-1-1.5-2.4-2.5-4.5-2.5h-22.1c-2.2,0-3.6,1-4.6,2.5l-3.6,5.6l-1.2-0.8l3.5-5.6
		c1.3-1.9,3.1-3.2,5.9-3.2h22.1c2.7,0,4.5,1.3,5.8,3.2l3.5,5.6L328.7,32.3z M289.3,1.2h40.4v1.5h-19.4v4H326c2,0,3.5,1.5,3.5,3.5
		v10.6h-1.5V10.1c0-1.1-0.8-1.9-1.9-1.9h-15.7V21h-1.5V8.2h-15.6c-1.1,0-2,0.8-2,1.9v10.6h-1.5V10.1c0-2,1.6-3.5,3.5-3.5h15.6v-4
		h-19.4V1.2z M293.4,31.8h15.4v-5.3h1.5v5.3h14.5c-0.1,3.2-7,6.6-14.3,8.4l10.6,2.4l-0.4,1.5l-26.6-6.1l0.3-1.5l12.5,2.9
		c6.8-1.2,13.3-3.7,15-6h-28.6V31.8z M294.3,11.9h11.1v1.5h-11.1V11.9z M294.3,17h11.1v1.5h-11.1V17z M313.7,11.9h11.1v1.5h-11.1
		V11.9z M313.7,17h11.1v1.5h-11.1V17z"/>
	<path class="st0" d="M339.5,22.8v18.5L345,40V18.5h-4.1c-1.9,0-3.5-1.6-3.5-3.5V5.2c0-1.9,1.6-3.5,3.5-3.5h7.3
		c1.9,0,3.5,1.6,3.5,3.5V15c0,1.9-1.6,3.5-3.5,3.5h-1.7V26h6.7v1.5h-6.7v12.1l6-1.5l0.3,1.5l-17.4,4.2l-0.3-1.5l2.8-0.7V22.8H339.5z
		 M340.9,3.3c-1.1,0-1.9,0.8-1.9,1.9V15c0,1.1,0.8,2,1.9,2h7.3c1.1,0,2-0.9,2-2V5.2c0-1.1-0.9-1.9-2-1.9H340.9z M379.9,44.1h-18.2
		c-2.9,0-5.3-2.4-5.3-5.3V7.3c0-2.8,2.4-5.3,5.3-5.3h18.2v1.5h-18.2c-2.1,0-3.7,1.7-3.7,3.7v6.6H374c2.4,0,4.4,1.9,4.4,4.3v8.4
		c0,2.4-1.9,4.4-4.4,4.4h-16.1v7.7c0,2.1,1.7,3.7,3.7,3.7h18.2V44.1z M357.9,15.5v14.1H374c1.6,0,2.8-1.2,2.8-2.8v-8.4
		c0-1.6-1.2-2.8-2.8-2.8H357.9z"/>
	<path class="st0" d="M383.9,4.2h20.9V0h1.5v4.1h20.9v1.5h-43.4V4.2z M423.1,8.8v9c0,2.4-1.9,4.4-4.4,4.4h-15.1l-1.7,4.4h17.6
		c2.9,0,5.2,2.4,5.2,5.3v7.5c0,2.9-2.4,5.3-5.2,5.3h-3.3v-1.5h3.3c2.1,0,3.7-1.6,3.7-3.7v-7.5c0-2.1-1.7-3.7-3.7-3.7h-18.1
		l-3.9,10.4h13.4c1.6,0,2.8-1.3,2.8-2.9v-3.1h1.5v3.1c0,2.5-1.9,4.4-4.4,4.4h-15.6l4.5-11.9h-8.1c-2.1,0-3.7,1.7-3.7,3.7v13h-1.5
		v-13c0-2.8,2.4-5.3,5.3-5.3h8.6l1.7-4.4h-9.6c-2.3,0-4.4-1.9-4.4-4.4v-9h1.5v9c0,1.6,1.3,2.8,2.8,2.8h26.3c1.6,0,2.9-1.2,2.9-2.8
		v-9H423.1z M394.7,8.3l11.9,4.1c3.7-1.2,7.1-2.7,10.3-4.3l0.7,1.3c-2.8,1.4-5.7,2.6-8.7,3.8l9.6,3.3l-0.6,1.4L406.6,14
		c-4,1.4-8.3,2.6-13,3.7l-0.4-1.5c3.9-0.9,7.6-1.9,11-3l-10.1-3.5L394.7,8.3z"/>
	<path class="st0" d="M441.1,29l-7.9,15.6l-1.3-0.7l7.9-15.6L441.1,29z M436.7,1.1v9.2h-1.5V1.1H436.7z M436.7,14.7V24h-1.5v-9.3
		H436.7z M463,42.4h6.9c2.1,0,3.7-1.6,3.7-3.7V11.5c0-2.1-1.7-3.7-3.7-3.7h-25.6l3.4-7.2l1.3,0.6l-2.4,5.1h23.2
		c2.8,0,5.3,2.4,5.3,5.3v27.2c0,2.9-2.4,5.3-5.3,5.3H463V42.4z M465.7,24v7.1c0,2.9-2.4,5.3-5.3,5.3h-15.2l7.6-24.9l1.4,0.4l-7,22.9
		h13.1c2.1,0,3.7-1.7,3.7-3.7V24H465.7z"/>
	<path class="st0" d="M483.2,0.9v8.4h-1.5V0.9H483.2z M521.4,43.9H487c-2.9,0-5.3-2.4-5.3-5.3V12.4h1.5v26.2c0,2.1,1.7,3.7,3.7,3.7
		h34.4V43.9z M495.3,6.2l3.1,6h12.8l3.6-8.7h-23.9V2H517l-4.2,10.2h1.1c2.9,0,5.3,2.3,5.3,5.2v16.4c0,2.9-2.4,5.3-5.3,5.3h-2v-1.5h2
		c2.1,0,3.7-1.7,3.7-3.7v-2.6h-12.4v8.2h-1.5v-8.2h-12.3v7.9h-1.5V17.5c0-2.9,2.4-5.2,5.3-5.2h1.4L493.9,7L495.3,6.2z M491.5,21.1
		h12.3v-7.3h-8.5c-2.1,0-3.7,1.6-3.7,3.7V21.1z M491.5,29.7h12.3v-7.1h-12.3V29.7z M505.3,13.7v7.3h12.4v-3.6c0-2.1-1.6-3.7-3.7-3.7
		H505.3z M505.3,29.7h12.4v-7.1h-12.4V29.7z"/>
	<path class="st0" d="M554.5,42.9h-14.8v-1.5h14.8V42.9z M552.8,13.3l-9.2,19.3h10v1.5h-12.3l6.3-13.5H541l8.5-19.9l1.4,0.6
		l-7.6,17.7h5l3.1-6.4L552.8,13.3z M556.5,6h13.2V0h1.5v6h13.2v1.5h-13.2v10.8h12.4v1.5h-26.5v-1.5h12.5V7.5h-13.2V6z M562.7,44
		c-2.4,0-4.4-2.1-4.4-4.4V28.2c0-2.3,1.9-4.4,4.4-4.4h15.6c2.3,0,4.4,2.1,4.4,4.4v11.4c0,2.3-2.1,4.4-4.4,4.4H562.7z M578.2,42.5
		c1.5,0,2.8-1.2,2.8-2.8V28.2c0-1.6-1.3-2.8-2.8-2.8h-15.6c-1.6,0-2.8,1.2-2.8,2.8v11.4c0,1.6,1.2,2.8,2.8,2.8H578.2z"/>
	<path class="st0" d="M610.8,0.1V5h21.4v1.5h-44.4V5h21.4V0.1H610.8z M622.5,9.6l8.3,13.6l-1.3,0.8l-4.8-7.8
		c-3.7,4.4-7.6,8.5-11.7,12.2l18.2,14.2l-0.9,1.2l-18.5-14.3c-7,6.2-14.7,11.2-23.1,14.4l-0.5-1.5c8.2-3.1,15.6-8,22.4-13.9
		l-15.1-11.7c-1.8,2.6-3.7,5-5.9,7.1l-1.1-1.1c3.6-3.6,6.7-8,9.6-13.4l1.3,0.7c-1,1.9-2.1,3.7-3.2,5.4l15.4,12
		c4.3-3.9,8.3-8.2,12.1-12.7l-2.6-4.4L622.5,9.6z"/>
	<path class="st0" d="M636.7,2.3h42.1v1.5h-19.7v4.9h11.7c2.8,0,5.3,2.4,5.3,5.3v9.8c0,2.9-2.4,5.3-5.3,5.3h-12.2
		c-0.6,2.9-1.7,5.2-3.4,7.1l24.8,6.1l-0.4,1.4L654,37.5c-3.8,3.4-9.7,5.3-17.8,6.5l-0.2-1.5c7.1-1,12.4-2.6,16-5.4l-15-3.7l0.3-1.5
		l16,4c1.7-1.8,3-3.9,3.6-6.6H646c-2.9,0-5.2-2.4-5.2-5.3V14c0-2.8,2.4-5.3,5.2-5.3h11.7V3.8h-20.9V2.3z M642.3,18.3h15.4v-8H646
		c-2.1,0-3.7,1.7-3.7,3.7V18.3z M657.4,27.6c0.2-1.2,0.3-2.4,0.3-3.8v-4h-15.4v4c0,2.1,1.6,3.7,3.7,3.7H657.4z M674.6,23.9v-4h-15.4
		v4c0,1.3-0.1,2.6-0.2,3.8h11.9C672.9,27.6,674.6,25.9,674.6,23.9z M659.2,10.3v8h15.4V14c0-2.1-1.7-3.7-3.7-3.7H659.2z"/>
	<path class="st0" d="M685.7,19.5c2.7,0,5.2,0,7.5,0c21.7,0,28.9-2.4,31.2-13h-34.8l2.2-6.1l1.4,0.5L691.8,5h34.5
		c-2.5,13-9.6,16-33.1,16c-2.4,0-4.8,0-7.5,0V19.5z M685.7,42.2c2.5,0,4.8,0.1,7.1,0.1c22.4,0,29.4-2.4,31.6-14.5h-34.8l2.2-6.6
		l1.4,0.5l-1.5,4.6h34.5c-2.3,14.4-9.7,17.6-33.5,17.6c-2.3,0-4.6,0-7.1-0.1V42.2z M689.1,12h28.3v1.5h-28.3V12z M689.1,34h28.3v1.5
		h-28.3V34z"/>
	<path class="st0" d="M732.1,44.8l1.6-39.2c0.1-2.3,2-4.3,4.4-4.3h5.7c2.3,0,4.4,1.9,4.4,4.4v34.5c0,1.2-0.5,2.3-1.2,3.1
		c-0.9,0.9-1.9,1.3-3.1,1.3l-2.2,0V43l2.2,0c0.8,0,1.5-0.3,2-0.9c0.5-0.5,0.8-1.2,0.8-2v-9.8h-12.4l-0.6,14.5L732.1,44.8z
		 M734.3,28.9h12.3v-12h-11.8L734.3,28.9z M734.9,15.3h11.7V5.7c0-1.6-1.2-2.8-2.8-2.8h-5.7c-1.6,0-2.8,1.3-2.8,2.9L734.9,15.3z
		 M753.4,24.9l10.9,9.1c3.3-3.4,5.7-7.1,7.5-11.3h-19.3v-1.5h21.6c-2.2,5.4-4.8,9.8-8.6,13.8l10,8.3l-1,1.2l-10.1-8.4
		c-3.2,3.1-7.1,5.8-12.1,8.4l-0.7-1.3c4.8-2.6,8.6-5.2,11.6-8.1l-10.8-9L753.4,24.9z M776,16.8h-0.9c-2.7,0-4.9-2.4-4.9-5.3V6.4
		c0-2.1-1.5-3.7-3.5-3.7h-7.4c-1.9,0-3.1,1.8-3.4,3.9l-1.9,11l-1.5-0.2l1.9-11c0.4-2.7,2.3-5.1,4.9-5.1h7.4c2.7,0,5,2.4,5,5.3v5.1
		c0,2.1,1.5,3.7,3.4,3.7h0.9V16.8z"/>
	<path class="st0" d="M789.2,44.8V11.5H780V10h19v1.5h-8.4v33.3H789.2z M781.8,44.5c1.2-7,1.8-14.9,1.8-25.2c0-1.3,0-2.7,0-4.2h1.5
		c0,1.5,0,2.8,0,4.2c0,10.4-0.6,18.4-1.8,25.4L781.8,44.5z M798.4,3.6h-16.5V2.1h16.5V3.6z M795.8,44.9l-0.9-29.7l1.5-0.1l1,29.7
		L795.8,44.9z M812,44.9v-7.6h-5.6c-2.7,0-4.9-2.4-4.9-5.3V11.9c0-2.8,2.2-5.3,4.9-5.3h5.6V0h1.5v6.6h5.6c2.7,0,4.9,2.4,4.9,5.3
		v20.2c0,2.9-2.2,5.3-4.9,5.3h-5.6v7.6H812z M803,21.4h9V8.2h-5.6c-1.9,0-3.4,1.7-3.4,3.7V21.4z M806.4,35.8h5.6V22.9h-9v9.2
		C803,34.2,804.5,35.8,806.4,35.8z M813.5,8.2v13.2h9v-9.5c0-2.1-1.5-3.7-3.4-3.7H813.5z M822.5,32.1v-9.2h-9v12.9h5.6
		C821,35.8,822.5,34.2,822.5,32.1z"/>
</g>
</svg>
