<svg id="Objects" xmlns="http://www.w3.org/2000/svg" viewBox="0 0 132 132"><defs><style>.cls-1{fill:#2e9bb4;}.cls-2{fill:#ff7543;}.cls-3{fill:#88cce1;}.cls-4{fill:#ffbb61;}</style></defs><path class="cls-1" d="M-459,384.83a66.07,66.07,0,0,1-66-66,66.07,66.07,0,0,1,66-66,66.07,66.07,0,0,1,66,66,65.77,65.77,0,0,1-10.44,35.64l-5-3.24a59.78,59.78,0,0,0,9.49-32.4,60.07,60.07,0,0,0-60-60,60.07,60.07,0,0,0-60,60,60.07,60.07,0,0,0,60,60Z" transform="translate(525 -252.83)"/><path class="cls-2" d="M-490.65,361.34A53.27,53.27,0,0,1-512,318.83a53.06,53.06,0,0,1,53-53,53.06,53.06,0,0,1,53,53A52.51,52.51,0,0,1-416.87,351l-4.77-3.64A46.56,46.56,0,0,0-412,318.83a47.05,47.05,0,0,0-47-47,47.05,47.05,0,0,0-47,47,46.63,46.63,0,0,0,18.94,37.71Z" transform="translate(525 -252.83)"/><path class="cls-3" d="M-459,357.91A39.3,39.3,0,0,1-498,319h6a33.09,33.09,0,0,0,33,32.91,33.07,33.07,0,0,0,33-33,33.07,33.07,0,0,0-33-33v-6a39.08,39.08,0,0,1,39,39A39.08,39.08,0,0,1-459,357.91Z" transform="translate(525 -252.83)"/><path class="cls-4" d="M-459,345.41a26.61,26.61,0,0,1-26.58-26.58A26.61,26.61,0,0,1-459,292.25a26.61,26.61,0,0,1,26.58,26.58,26.32,26.32,0,0,1-5.72,16.47l-4.71-3.72a20.37,20.37,0,0,0,4.42-12.75A20.6,20.6,0,0,0-459,298.25a20.6,20.6,0,0,0-20.58,20.58A20.6,20.6,0,0,0-459,339.41Z" transform="translate(525 -252.83)"/></svg>