<!-- Generator: Adobe Illustrator 20.1.0, SVG Export Plug-In  -->
<svg version="1.1"
	 xmlns="http://www.w3.org/2000/svg" xmlns:xlink="http://www.w3.org/1999/xlink" xmlns:a="http://ns.adobe.com/AdobeSVGViewerExtensions/3.0/"
	 x="0px" y="0px" width="796.2px" height="796.2px" viewBox="0 0 796.2 796.2" style="enable-background:new 0 0 796.2 796.2;"
	 xml:space="preserve">
<style type="text/css">
	.st0{opacity:0.5;}
	.st1{opacity:0.4;fill:#FFFFFF;}
</style>
<defs>
</defs>
<g class="st0">
	<circle class="st1" cx="10.5" cy="398" r="10.5"/>
	
		<ellipse transform="matrix(0.7074 -0.7069 0.7069 0.7074 -51.2851 124.0198)" class="st1" cx="124.1" cy="123.9" rx="10.5" ry="10.5"/>
	<circle class="st1" cx="398.2" cy="10.5" r="10.5"/>
	
		<ellipse transform="matrix(0.7074 -0.7069 0.7069 0.7074 108.9951 511.5373)" class="st1" cx="672.3" cy="124.1" rx="10.5" ry="10.5"/>
	<circle class="st1" cx="785.7" cy="398.2" r="10.5"/>
	
		<ellipse transform="matrix(0.7074 -0.7069 0.7069 0.7074 -278.5223 671.8175)" class="st1" cx="672.1" cy="672.3" rx="10.5" ry="10.5"/>
	<circle class="st1" cx="398" cy="785.7" r="10.5"/>
	
		<ellipse transform="matrix(0.7074 -0.7069 0.7069 0.7074 -438.8025 284.3001)" class="st1" cx="123.9" cy="672.1" rx="10.5" ry="10.5"/>
	
		<ellipse transform="matrix(0.3875 -0.9219 0.9219 0.3875 -203.5732 189.4722)" class="st1" cx="40.8" cy="247.9" rx="10.5" ry="10.5"/>
	<ellipse transform="matrix(0.9259 -0.3779 0.3779 0.9259 3.8246 98.0038)" class="st1" cx="251.6" cy="39.3" rx="10.5" ry="10.5"/>
	
		<ellipse transform="matrix(0.3875 -0.9219 0.9219 0.3875 298.237 530.4519)" class="st1" cx="548.3" cy="40.8" rx="10.5" ry="10.5"/>
	
		<ellipse transform="matrix(0.9259 -0.3779 0.3779 0.9259 -38.9663 304.7047)" class="st1" cx="757" cy="251.6" rx="10.5" ry="10.5"/>
	
		<ellipse transform="matrix(0.3875 -0.9219 0.9219 0.3875 -42.7427 1032.262)" class="st1" cx="755.4" cy="548.3" rx="10.5" ry="10.5"/>
	
		<ellipse transform="matrix(0.9259 -0.3779 0.3779 0.9259 -245.6673 261.9137)" class="st1" cx="544.6" cy="757" rx="10.5" ry="10.5"/>
	
		<ellipse transform="matrix(0.3875 -0.9219 0.9219 0.3875 -544.5529 691.2823)" class="st1" cx="247.9" cy="755.4" rx="10.5" ry="10.5"/>
	
		<ellipse transform="matrix(0.9259 -0.3779 0.3779 0.9259 -202.8763 55.2128)" class="st1" cx="39.3" cy="544.6" rx="10.5" ry="10.5"/>
</g>
</svg>
