<svg id="图层_1" data-name="图层 1" xmlns="http://www.w3.org/2000/svg" viewBox="0 0 48.28 48.28"><defs><style>.cls-1{fill:#c9caca;fill-rule:evenodd;}</style></defs><path class="cls-1" d="M996.3-269a19.13,19.13,0,0,0-3.92,3.37l-4.08-2.79-2.74,4,4.09,2.78a18.93,18.93,0,0,0-1.71,4.88l-4.92-.36-.37,4.85,4.94.37a18.75,18.75,0,0,0,1,5.08l-4.46,2.15,2.11,4.39,4.45-2.15a19.85,19.85,0,0,0,3.38,3.92l-2.79,4.08,4,2.74,2.77-4.08A18.73,18.73,0,0,0,1003-234l-.37,4.92,4.86.37.37-4.94a18.73,18.73,0,0,0,5.08-1l2.15,4.45,4.39-2.11-2.15-4.46a19.39,19.39,0,0,0,3.91-3.38l4.1,2.79,2.74-4-4.08-2.77a19.22,19.22,0,0,0,1.7-4.89l4.93.37.36-4.86-4.93-.37a18.81,18.81,0,0,0-1-5.08l4.45-2.15-2.12-4.39-4.46,2.15a18.77,18.77,0,0,0-3.37-3.91l2.78-4.1-4-2.73-2.78,4.08a19,19,0,0,0-4.87-1.7l.36-4.93-4.86-.36-.36,4.92a18.61,18.61,0,0,0-5.08,1l-2.15-4.45-4.39,2.12Zm11.35,4.51A11.63,11.63,0,0,1,1018.4-252a11.65,11.65,0,0,1-12.47,10.77,11.67,11.67,0,0,1-10.76-12.48A11.64,11.64,0,0,1,1007.65-264.5Z" transform="translate(-982.65 277.03)"/></svg>