<svg id="图层_1" data-name="图层 1" xmlns="http://www.w3.org/2000/svg" viewBox="0 0 38.17 38.18"><defs><style>.cls-1{fill:#f99;fill-rule:evenodd;}.cls-2{fill:#fff;}</style></defs><path class="cls-1" d="M1075.44,190.39a19.09,19.09,0,1,0-19.09-19.09,19.13,19.13,0,0,0,19.09,19.09Z" transform="translate(-1056.35 -152.21)"/><path class="cls-2" d="M1075.28,163.35a.3.3,0,0,0-.28,0l-5,3.31a.28.28,0,0,0-.11.23v8.81a.26.26,0,0,0,.11.23l5,3.31a.31.31,0,0,0,.15.05.24.24,0,0,0,.13,0,.27.27,0,0,0,.14-.24V163.59A.27.27,0,0,0,1075.28,163.35Zm-.4,15.16-4.4-2.94V167l4.4-2.94Z" transform="translate(-1056.35 -152.21)"/><path class="cls-2" d="M1080.5,171.3l3.11-3.1a.27.27,0,0,0-.38-.4l-3.12,3.11L1077,167.8a.28.28,0,1,0-.39.4l3.11,3.1-3.11,3.11a.29.29,0,0,0,0,.39.32.32,0,0,0,.2.08.28.28,0,0,0,.19-.08l3.11-3.11,3.12,3.11a.26.26,0,0,0,.19.08.29.29,0,0,0,.19-.08.27.27,0,0,0,0-.39Z" transform="translate(-1056.35 -152.21)"/></svg>