<svg id="图层_1" data-name="图层 1" xmlns="http://www.w3.org/2000/svg" viewBox="0 0 66.6 66.97"><defs><style>.cls-1{fill:#c9caca;fill-rule:evenodd;}</style></defs><path class="cls-1" d="M1193.35-284.8a26.74,26.74,0,0,0,26.72-26.72,26.73,26.73,0,0,0-26.72-26.72,26.72,26.72,0,0,0-26.72,26.72A26.73,26.73,0,0,0,1193.35-284.8Zm11-41.08a6.93,6.93,0,0,1,9.47,2.55,6.93,6.93,0,0,1-2.53,9.47,6.93,6.93,0,0,1-9.47-2.54A6.92,6.92,0,0,1,1204.33-325.88Zm-2.53,19.23a6.93,6.93,0,0,1,9.47-2.55,7,7,0,0,1,2.53,9.48,6.93,6.93,0,0,1-9.47,2.53A6.91,6.91,0,0,1,1201.8-306.65Zm-8.45-28.5a6.93,6.93,0,0,1,6.94,6.94,6.93,6.93,0,0,1-6.94,6.93,6.94,6.94,0,0,1-6.94-6.93A6.94,6.94,0,0,1,1193.35-335.15Zm3.88,25.87a4.47,4.47,0,0,1-6.12,1.63,4.46,4.46,0,0,1-1.64-6.11,4.48,4.48,0,0,1,6.12-1.64A4.48,4.48,0,0,1,1197.23-309.28Zm-3.88,7.51a6.93,6.93,0,0,1,6.94,6.93,6.93,6.93,0,0,1-6.94,6.94,6.94,6.94,0,0,1-6.94-6.94A6.94,6.94,0,0,1,1193.35-301.78Zm-20.46-21.56a7,7,0,0,1,9.48-2.55,6.94,6.94,0,0,1,2.54,9.47,6.94,6.94,0,0,1-9.47,2.54A6.94,6.94,0,0,1,1172.89-323.33Zm0,23.62a7,7,0,0,1,2.55-9.48,6.93,6.93,0,0,1,9.47,2.55,6.94,6.94,0,0,1-2.54,9.47A6.94,6.94,0,0,1,1172.89-299.72Z" transform="translate(-1160.05 345.02)"/><path class="cls-1" d="M1164-305.3l-2.53,4.12,4.47,1.84-1.62,4.55,4.75.88c-.22,1.6-.42,3.19-.64,4.8l4.84-.14c.11,1.61.24,3.22.37,4.82l4.7-1.13c.46,1.54.92,3.08,1.36,4.63l4.37-2.08,2.3,4.25c1.27-1,2.54-2,3.83-3l3.13,3.67,3.13-3.67,3.83,3c.76-1.43,1.53-2.84,2.3-4.25l4.35,2.08c.46-1.55.91-3.09,1.36-4.63,1.58.37,3.14.75,4.71,1.13.12-1.61.24-3.22.37-4.82l4.82.14c-.21-1.6-.42-3.19-.64-4.8l4.76-.88c-.55-1.51-1.08-3-1.61-4.55l4.46-1.84c-.85-1.37-1.69-2.75-2.53-4.12l4-2.72-3.33-3.5,3.33-3.5c-1.32-.92-2.66-1.82-4-2.74.84-1.37,1.68-2.75,2.53-4.12l-4.46-1.83c.53-1.53,1.07-3,1.61-4.56l-4.76-.88c.22-1.59.43-3.2.64-4.79l-4.82.13c-.13-1.6-.25-3.21-.37-4.81l-4.71,1.13c-.44-1.55-.9-3.09-1.36-4.63l-4.35,2.09c-.78-1.43-1.54-2.84-2.3-4.25l-3.83,2.94-3.13-3.68-3.13,3.68-3.83-2.94c-.78,1.41-1.54,2.83-2.3,4.25-1.45-.7-2.9-1.4-4.37-2.09-.44,1.54-.9,3.08-1.36,4.63l-4.7-1.13c-.13,1.6-.25,3.21-.37,4.81l-4.84-.13c.22,1.59.42,3.19.64,4.79l-4.75.88c.54,1.51,1.08,3,1.62,4.56l-4.47,1.83,2.53,4.12-4,2.74,3.32,3.5L1160-308C1161.37-307.12,1162.69-306.2,1164-305.3Zm29.32-34.13a27.91,27.91,0,0,1,27.91,27.91,27.91,27.91,0,0,1-27.91,27.91,27.91,27.91,0,0,1-27.91-27.91A27.91,27.91,0,0,1,1193.35-339.43Z" transform="translate(-1160.05 345.02)"/></svg>