<svg id="图层_1" data-name="图层 1" xmlns="http://www.w3.org/2000/svg" viewBox="0 0 48.28 48.28"><defs><style>.cls-1{fill:#c9caca;fill-rule:evenodd;}</style></defs><path class="cls-1" d="M1221.62-146.77a19.74,19.74,0,0,0,3.92-3.38l4.08,2.78,2.75-4-4.09-2.78a19.16,19.16,0,0,0,1.69-4.89l4.94.37.36-4.86-4.92-.37a19.88,19.88,0,0,0-1-5.08l4.44-2.15-2.11-4.39-4.45,2.15a19.42,19.42,0,0,0-3.37-3.91l2.77-4.1-4-2.74-2.79,4.09a19.19,19.19,0,0,0-4.89-1.71l.37-4.92-4.86-.36-.36,4.93a18.81,18.81,0,0,0-5.09,1l-2.15-4.45-4.38,2.12,2.15,4.46a19,19,0,0,0-3.92,3.37l-4.08-2.77-2.75,4,4.09,2.78a19.19,19.19,0,0,0-1.69,4.87l-4.94-.35-.36,4.86,4.92.36a19.58,19.58,0,0,0,1,5.08l-4.44,2.15,2.11,4.39,4.45-2.15a19.44,19.44,0,0,0,3.37,3.92l-2.78,4.09,4,2.73,2.79-4.08a18.8,18.8,0,0,0,4.89,1.7l-.37,4.92,4.86.37.35-4.93a18.8,18.8,0,0,0,5.09-1l2.15,4.45,4.38-2.11Zm-11.34-4.51a11.65,11.65,0,0,1-10.77-12.48A11.64,11.64,0,0,1,1212-174.51,11.65,11.65,0,0,1,1222.76-162,11.65,11.65,0,0,1,1210.29-151.28Z" transform="translate(-1187 187.04)"/></svg>