<svg id="图层_1" data-name="图层 1" xmlns="http://www.w3.org/2000/svg" viewBox="0 0 71.06 71.05"><defs><style>.cls-1{fill:#c9caca;fill-rule:evenodd;}</style></defs><path class="cls-1" d="M1097.64-293.44l-6.54,3.16,3.12,6.45,6.55-3.17a28.06,28.06,0,0,0,5,5.76l-4.1,6,5.93,4,4.09-6a27.93,27.93,0,0,0,7.19,2.49l-.54,7.27,7.15.52.53-7.25a28.2,28.2,0,0,0,7.48-1.43l3.17,6.55,6.45-3.12-3.17-6.55a28.34,28.34,0,0,0,5.76-5l6,4.09,4-5.93-6-4.08a28.13,28.13,0,0,0,2.5-7.19l7.26.54.52-7.15-7.25-.54a28.29,28.29,0,0,0-1.42-7.48l6.55-3.17-3.12-6.45-6.55,3.17a28.35,28.35,0,0,0-5-5.77l4.1-6-5.93-4-4.1,6a28,28,0,0,0-7.19-2.49l.55-7.27-7.15-.52-.55,7.25a28,28,0,0,0-7.47,1.43l-3.17-6.55-6.45,3.12,3.16,6.55a28.24,28.24,0,0,0-5.75,5l-6-4.1-4,5.93,6,4.08a28.57,28.57,0,0,0-2.51,7.19l-7.25-.53-.52,7.15,7.25.53A28.67,28.67,0,0,0,1097.64-293.44Zm9.76-10.25a17.16,17.16,0,0,1,18.36-15.84,17.15,17.15,0,0,1,15.84,18.36,17.15,17.15,0,0,1-18.36,15.84A17.14,17.14,0,0,1,1107.4-303.69Z" transform="translate(-1088.98 337.95)"/></svg>