<svg id="图层_1" data-name="图层 1" xmlns="http://www.w3.org/2000/svg" viewBox="0 0 76.35 76.35"><defs><style>.cls-1{fill:#c9c;fill-rule:evenodd;}.cls-2{fill:#fff;}</style></defs><path class="cls-1" d="M891.35,206.22A38.17,38.17,0,1,0,853.17,168a38.25,38.25,0,0,0,38.17,38.18Z" transform="translate(-853.17 -129.87)"/><path class="cls-2" d="M875.87,172.46a2.21,2.21,0,1,0,2.2,2.21A2.22,2.22,0,0,0,875.87,172.46Zm0,3.32a1.11,1.11,0,1,1,1.1-1.11A1.11,1.11,0,0,1,875.87,175.78Z" transform="translate(-853.17 -129.87)"/><path class="cls-2" d="M875.87,178a1.11,1.11,0,1,0,1.1,1.11A1.11,1.11,0,0,0,875.87,178Z" transform="translate(-853.17 -129.87)"/><path class="cls-2" d="M912.89,157H886.37a.57.57,0,0,0-.56.56v21a.55.55,0,0,0,.56.55h10.38l-.89,4.43h-6.18a.54.54,0,0,0-.55.55.55.55,0,0,0,.55.56h19.9a.55.55,0,0,0,.55-.56.54.54,0,0,0-.55-.55H903.4l-.89-4.43h10.38a.56.56,0,0,0,.56-.55v-21A.57.57,0,0,0,912.89,157Zm-10.61,26.53H897l.89-4.43h3.51ZM912.34,178H886.92V158.09h25.43Z" transform="translate(-853.17 -129.87)"/><path class="cls-2" d="M881.94,151.46H869.79a.56.56,0,0,0-.56.55v32.05a.56.56,0,0,0,.56.56h12.16a.56.56,0,0,0,.56-.56V152A.55.55,0,0,0,881.94,151.46Zm-.55,32.06H870.34V152.57h11.06Z" transform="translate(-853.17 -129.87)"/><path class="cls-2" d="M888.57,175.78h22.12a.55.55,0,0,0,.55-.56V160.86a.54.54,0,0,0-.55-.55H888.57a.54.54,0,0,0-.55.55v14.36A.55.55,0,0,0,888.57,175.78Zm.56-14.38h21v13.27h-21Z" transform="translate(-853.17 -129.87)"/><path class="cls-2" d="M891.89,168a.56.56,0,0,0,.24-.06l6.64-3.32a.54.54,0,0,0,.24-.74.55.55,0,0,0-.74-.24L891.65,167a.55.55,0,0,0-.25.75A.57.57,0,0,0,891.89,168Z" transform="translate(-853.17 -129.87)"/><path class="cls-2" d="M904.91,163.68l-13.26,6.63a.54.54,0,0,0-.25.74.57.57,0,0,0,.5.31.48.48,0,0,0,.24-.05l13.27-6.64a.54.54,0,0,0,.24-.74A.55.55,0,0,0,904.91,163.68Z" transform="translate(-853.17 -129.87)"/><path class="cls-2" d="M872,159.2h7.75a.56.56,0,0,0,.55-.56.54.54,0,0,0-.55-.55H872a.55.55,0,0,0-.55.55A.56.56,0,0,0,872,159.2Z" transform="translate(-853.17 -129.87)"/><path class="cls-2" d="M872,162.51h7.75a.54.54,0,0,0,.55-.54.56.56,0,0,0-.55-.56H872a.56.56,0,0,0-.55.56A.55.55,0,0,0,872,162.51Z" transform="translate(-853.17 -129.87)"/></svg>