<svg id="图层_1" data-name="图层 1" xmlns="http://www.w3.org/2000/svg" viewBox="0 0 36.47 36.47"><defs><style>.cls-1{fill:#c9caca;fill-rule:evenodd;}</style></defs><path class="cls-1" d="M994.15-123.27l3.21-1.84-1.89-3.25a14.58,14.58,0,0,0,2.78-2.78l3.26,1.87,1.84-3.2-3.25-1.87a15.14,15.14,0,0,0,1-3.79h3.74v-3.7h-3.74a15.11,15.11,0,0,0-1-3.79l3.25-1.87-1.84-3.21-3.26,1.88a14.26,14.26,0,0,0-2.78-2.77l1.89-3.26-3.21-1.84-1.87,3.24a14.8,14.8,0,0,0-3.79-1v-3.75h-3.7v3.75a14.82,14.82,0,0,0-3.79,1l-1.87-3.24-3.21,1.84,1.88,3.26a14.37,14.37,0,0,0-2.77,2.77l-3.26-1.88-1.84,3.21,3.25,1.88a14.93,14.93,0,0,0-1,3.78H968.4v3.7h3.75a14.75,14.75,0,0,0,1,3.79l-3.25,1.87,1.84,3.2,3.26-1.87a14.69,14.69,0,0,0,2.77,2.78l-1.88,3.25,3.21,1.84,1.87-3.25a14.06,14.06,0,0,0,3.79,1v3.75h3.7v-3.75a14,14,0,0,0,3.79-1Zm-7.52-7.87A8.84,8.84,0,0,1,977.8-140a8.84,8.84,0,0,1,8.83-8.85,8.84,8.84,0,0,1,8.84,8.85A8.84,8.84,0,0,1,986.63-131.14Z" transform="translate(-968.4 158.21)"/></svg>