<svg id="图层_1" data-name="图层 1" xmlns="http://www.w3.org/2000/svg" viewBox="0 0 88.02 88.02"><defs><style>.cls-1{fill:#c9caca;fill-rule:evenodd;}</style></defs><path class="cls-1" d="M1170.39-125.93a19,19,0,0,0-15.08,22.19,19,19,0,0,0,22.19,15.08,19,19,0,0,0,15.08-22.19A19,19,0,0,0,1170.39-125.93Z" transform="translate(-1129.94 151.3)"/><path class="cls-1" d="M1216.28-119.92l-8.88,1.69a34.81,34.81,0,0,0-4.11-8.51l6.83-5.91-5.83-6.74-6.84,5.9a35.08,35.08,0,0,0-7.83-5.3l3-8.55-8.42-2.92-3,8.54a34.86,34.86,0,0,0-9.44-.69l-1.69-8.88-8.75,1.68,1.69,8.88a34.83,34.83,0,0,0-8.51,4.11l-5.9-6.83-6.75,5.83,5.91,6.85a35.14,35.14,0,0,0-5.31,7.83l-8.55-3-2.93,8.42,8.54,3a34.78,34.78,0,0,0-.69,9.44l-8.88,1.69,1.68,8.75,8.88-1.7a34.94,34.94,0,0,0,4.11,8.51l-6.83,5.9,5.83,6.76,6.85-5.92a35.15,35.15,0,0,0,7.82,5.31l-3,8.55,8.43,2.93,3-8.54a34.83,34.83,0,0,0,9.44.69l1.69,8.88,8.75-1.68-1.69-8.88A34.83,34.83,0,0,0,1193.4-78l5.9,6.83,6.76-5.83-5.92-6.85a35.2,35.2,0,0,0,5.31-7.83l8.55,3,2.93-8.42-8.54-3a34.81,34.81,0,0,0,.69-9.44l8.88-1.69Zm-37.48,38a25.85,25.85,0,0,1-30.23-20.53,25.85,25.85,0,0,1,20.52-30.23,25.85,25.85,0,0,1,30.23,20.52A25.85,25.85,0,0,1,1178.8-81.91Z" transform="translate(-1129.94 151.3)"/></svg>