<svg id="图层_1" data-name="图层 1" xmlns="http://www.w3.org/2000/svg" viewBox="0 0 38.17 38.17"><defs><style>.cls-1{fill:#9cc;fill-rule:evenodd;}.cls-2{fill:#fff;}</style></defs><path class="cls-1" d="M901.45,275.24a19.09,19.09,0,1,0-19.09-19.09,19.13,19.13,0,0,0,19.09,19.09Z" transform="translate(-882.36 -237.06)"/><path class="cls-2" d="M893.46,248.87h6.62a.27.27,0,0,0,.27-.28v-1.41a1.22,1.22,0,0,0-1.22-1.22h-4.71a1.22,1.22,0,0,0-1.22,1.22v1.41A.27.27,0,0,0,893.46,248.87Zm.28-1.69a.67.67,0,0,1,.67-.66h4.71a.67.67,0,0,1,.67.66v1.15h-6.05Z" transform="translate(-882.36 -237.06)"/><path class="cls-2" d="M900.34,261.35h0V250a.27.27,0,0,0-.27-.28h-6.62a.27.27,0,0,0-.27.28v11.32a.32.32,0,0,0,0,.05.27.27,0,0,0,0,.1h0l0,0,3.27,4.68a.28.28,0,0,0,.46,0l3.27-4.68,0,0h0a.29.29,0,0,0,0-.12Zm-.55-.28h-1.34V250.28h1.34Zm-4.17,0V250.28h2.29v10.78Zm-1.88-10.78h1.33v10.78h-1.33Zm3.74,14.28h-1.42l-2.06-3h5.55Z" transform="translate(-882.36 -237.06)"/><path class="cls-2" d="M909.43,246h-6.6a.28.28,0,0,0-.28.28v19.83a.27.27,0,0,0,.28.27h6.6a.27.27,0,0,0,.28-.27V246.24A.28.28,0,0,0,909.43,246Zm-6.32,19.82V246.52h6v2.2h-3a.27.27,0,0,0-.28.27.28.28,0,0,0,.28.28h3v2.2h-1.38a.27.27,0,0,0-.27.28.26.26,0,0,0,.27.27h1.38v2.2h-3a.28.28,0,1,0,0,.56h3V257h-1.38a.26.26,0,0,0-.27.27.27.27,0,0,0,.27.28h1.38v2.2h-3a.28.28,0,0,0-.28.28.27.27,0,0,0,.28.27h3v2.2h-1.38a.28.28,0,0,0,0,.56h1.38v2.75Z" transform="translate(-882.36 -237.06)"/></svg>