<svg id="图层_1" data-name="图层 1" xmlns="http://www.w3.org/2000/svg" viewBox="0 0 29.98 30.13"><defs><style>.cls-1{fill:#c9caca;fill-rule:evenodd;}</style></defs><path class="cls-1" d="M1234.54-136.28a12,12,0,0,0-12,12,12,12,0,0,0,12,12,12,12,0,0,0,12-12A12,12,0,0,0,1234.54-136.28Zm-4.94,18.48a3.11,3.11,0,0,1-4.26-1.14,3.12,3.12,0,0,1,1.13-4.26,3.12,3.12,0,0,1,4.26,1.14A3.12,3.12,0,0,1,1229.6-117.8Zm1.13-8.65a3.11,3.11,0,0,1-4.26,1.14,3.12,3.12,0,0,1-1.13-4.26,3.13,3.13,0,0,1,4.26-1.15A3.12,3.12,0,0,1,1230.73-126.45Zm3.81,12.83a3.12,3.12,0,0,1-3.12-3.12,3.11,3.11,0,0,1,3.12-3.12,3.1,3.1,0,0,1,3.11,3.12A3.11,3.11,0,0,1,1234.54-113.63Zm-1.75-11.63a2,2,0,0,1,2.75-.74,2,2,0,0,1,.74,2.75,2,2,0,0,1-2.75.74A2,2,0,0,1,1232.79-125.26Zm1.75-3.38a3.12,3.12,0,0,1-3.12-3.12,3.12,3.12,0,0,1,3.12-3.13,3.12,3.12,0,0,1,3.11,3.13A3.11,3.11,0,0,1,1234.54-128.64Zm9.21,9.7a3.11,3.11,0,0,1-4.26,1.14,3.11,3.11,0,0,1-1.14-4.26,3.13,3.13,0,0,1,4.26-1.14A3.13,3.13,0,0,1,1243.75-118.94Zm0-10.63a3.13,3.13,0,0,1-1.14,4.26,3.11,3.11,0,0,1-4.26-1.14,3.12,3.12,0,0,1,1.14-4.27A3.13,3.13,0,0,1,1243.75-129.57Z" transform="translate(-1219.55 139.32)"/><path class="cls-1" d="M1247.73-127.06c.38-.61.76-1.24,1.13-1.84l-2-.83c.25-.68.5-1.37.74-2-.71-.14-1.43-.27-2.14-.39.09-.73.19-1.44.28-2.16l-2.18.06c-.05-.72-.1-1.44-.16-2.16-.7.16-1.41.33-2.11.51l-.61-2.09-2,.94c-.34-.63-.7-1.27-1-1.92l-1.72,1.34-1.41-1.66c-.47.55-.95,1.09-1.42,1.66l-1.72-1.34-1,1.92-2-.94-.61,2.09c-.7-.18-1.41-.35-2.11-.51-.05.73-.11,1.44-.17,2.16l-2.17-.06c.1.73.19,1.44.29,2.16-.71.13-1.43.25-2.14.39.24.68.49,1.36.73,2-.68.27-1.34.55-2,.83.38.61.75,1.23,1.13,1.84l-1.8,1.23c.51.52,1,1.05,1.5,1.58l-1.5,1.58,1.8,1.22-1.13,1.86c.68.27,1.34.55,2,.82l-.73,2,2.14.4c-.1.71-.19,1.44-.29,2.15l2.17-.07c.05.73.12,1.45.17,2.18.7-.18,1.41-.35,2.11-.51.2.68.41,1.39.61,2.08.66-.32,1.31-.63,2-.94l1,1.91,1.72-1.32,1.42,1.65,1.41-1.65,1.72,1.32c.34-.64.7-1.27,1-1.91l2,.94c.21-.7.41-1.4.61-2.08.7.16,1.41.33,2.11.51.06-.72.11-1.45.16-2.18l2.18.07c-.09-.71-.19-1.44-.28-2.15l2.14-.4c-.24-.69-.48-1.36-.74-2l2-.82c-.37-.62-.75-1.24-1.13-1.86l1.79-1.22c-.49-.53-1-1.06-1.5-1.58l1.5-1.58Zm-13.19,15.37A12.56,12.56,0,0,1,1222-124.25a12.56,12.56,0,0,1,12.56-12.56,12.56,12.56,0,0,1,12.56,12.56A12.56,12.56,0,0,1,1234.54-111.69Z" transform="translate(-1219.55 139.32)"/></svg>