<svg id="图层_1" data-name="图层 1" xmlns="http://www.w3.org/2000/svg" viewBox="0 0 88.02 88.02"><defs><style>.cls-1{fill:#c9caca;fill-rule:evenodd;}</style></defs><path class="cls-1" d="M1001.65-295.87l8.88-1.69a34.4,34.4,0,0,0,4.12,8.51l-6.85,5.92,5.83,6.75,6.84-5.92a35.32,35.32,0,0,0,7.83,5.31l-3,8.55,8.42,2.93,3-8.54a35,35,0,0,0,9.44.69l1.69,8.88,8.75-1.68-1.69-8.88a34.85,34.85,0,0,0,8.51-4.11l5.92,6.83,6.74-5.82-5.91-6.86a36.07,36.07,0,0,0,5.32-7.81l8.54,3,2.93-8.41-8.54-3a34.72,34.72,0,0,0,.69-9.43l8.88-1.7-1.67-8.75-8.88,1.7a35.33,35.33,0,0,0-4.12-8.52l6.83-5.9-5.82-6.75-6.84,5.92a35.69,35.69,0,0,0-7.83-5.32l3-8.55-8.41-2.93-3,8.54a35.34,35.34,0,0,0-9.43-.69l-1.7-8.88-8.75,1.68,1.7,8.88a34.7,34.7,0,0,0-8.53,4.12l-5.9-6.85-6.74,5.83,5.92,6.84a35.33,35.33,0,0,0-5.32,7.83l-8.54-3-2.94,8.42,8.54,3a35.93,35.93,0,0,0-.69,9.44l-8.88,1.69Zm37.49-38a25.83,25.83,0,0,1,30.22,20.51,25.85,25.85,0,0,1-20.52,30.23,25.83,25.83,0,0,1-30.22-20.52A25.82,25.82,0,0,1,1039.13-333.87Z" transform="translate(-999.96 352.51)"/><path class="cls-1" d="M1047.54-289.86a19,19,0,0,0,15.07-22.19,19,19,0,0,0-22.19-15.07,19,19,0,0,0-15.07,22.19A19,19,0,0,0,1047.54-289.86Z" transform="translate(-999.96 352.51)"/></svg>