<svg id="图层_1" data-name="图层 1" xmlns="http://www.w3.org/2000/svg" viewBox="0 0 50.9 50.9"><defs><style>.cls-1{fill:#69c;fill-rule:evenodd;}.cls-2{fill:#fff;}</style></defs><path class="cls-1" d="M1114.74,262.23a25.45,25.45,0,1,0-25.45-25.45,25.5,25.5,0,0,0,25.45,25.45Z" transform="translate(-1089.3 -211.33)"/><path class="cls-2" d="M1126.49,233.12h-9.21a2.53,2.53,0,0,0-.49-1.17l7.75-7.75a.37.37,0,1,0-.52-.52l-7.75,7.76a2.52,2.52,0,0,0-3.07,0l-7.75-7.76a.37.37,0,1,0-.52.52l7.76,7.75a2.56,2.56,0,0,0-.48,1.17H1103a.37.37,0,0,0-.37.37v16.15a.37.37,0,0,0,.37.37h23.49a.37.37,0,0,0,.37-.37V233.49A.37.37,0,0,0,1126.49,233.12Zm-11.75-1.47a1.84,1.84,0,0,1,1.8,1.47h-3.6A1.85,1.85,0,0,1,1114.74,231.64Zm11.38,17.62h-22.75V233.84h22.75Z" transform="translate(-1089.3 -211.33)"/><path class="cls-2" d="M1105.57,236.41V246.7a.37.37,0,0,0,.37.37h17.61a.37.37,0,0,0,.37-.37V236.41a.37.37,0,0,0-.37-.37h-17.61A.37.37,0,0,0,1105.57,236.41Zm.72.37h16.89v9.55H1106.3Z" transform="translate(-1089.3 -211.33)"/><path class="cls-2" d="M1113.6,238.45a.36.36,0,0,0-.5-.15l-4.4,2.2a.36.36,0,0,0-.17.48.4.4,0,0,0,.33.2.34.34,0,0,0,.17,0l4.4-2.2A.36.36,0,0,0,1113.6,238.45Z" transform="translate(-1089.3 -211.33)"/><path class="cls-2" d="M1118.24,239l-8.81,4.4a.38.38,0,0,0-.17.5.37.37,0,0,0,.33.2.41.41,0,0,0,.17,0l8.81-4.4a.38.38,0,0,0,.17-.5A.37.37,0,0,0,1118.24,239Z" transform="translate(-1089.3 -211.33)"/></svg>