<svg xmlns="http://www.w3.org/2000/svg" viewBox="0 0 100 100"><defs><style>.cls-1{fill:#fff;}.cls-2{fill:#aacc03;fill-rule:evenodd;}</style></defs><title>a</title><g id="图层_2" data-name="图层 2"><g id="图层_1-2" data-name="图层 1"><circle class="cls-1" cx="50" cy="50" r="50"/><path class="cls-2" d="M36.92,11.34l4.11,6a23.51,23.51,0,0,1,18.08.18l4.3-6.24a.57.57,0,0,1,.79-.15l.1.07a.57.57,0,0,1,.15.79L60.27,18a20.27,20.27,0,0,1,11.24,15.2H28.19a20.33,20.33,0,0,1,11.66-15.4l-4-5.76a.57.57,0,0,1,.15-.8l.1-.07a.57.57,0,0,1,.79.15ZM59.36,22.4a2.16,2.16,0,1,1-2.16,2.16,2.16,2.16,0,0,1,2.16-2.16Zm-18.63,0a2.16,2.16,0,1,1-2.16,2.16,2.16,2.16,0,0,1,2.16-2.16Z"/><path class="cls-2" d="M19.91,36.37h1c2.37,0,4.31,2.48,4.31,5.51V59.57c0,3-1.94,5.51-4.31,5.51h-1c-2.37,0-4.31-2.48-4.31-5.51V41.88c0-3,1.94-5.51,4.31-5.51Z"/><path class="cls-2" d="M79.13,36.48h1c2.37,0,4.31,2.48,4.31,5.51V59.67c0,3-1.94,5.51-4.31,5.51h-1c-2.37,0-4.31-2.48-4.31-5.51V42c0-3,1.94-5.51,4.31-5.51Z"/><path class="cls-2" d="M46.14,75.4v10c0,3-1.94,5.51-4.31,5.51h-1c-2.37,0-4.31-2.48-4.31-5.51v-10h-4A4.42,4.42,0,0,1,28.21,71V36.1H71.84V71a4.42,4.42,0,0,1-4.4,4.41H63.8V85.49c0,3-1.94,5.51-4.31,5.51h-1c-2.37,0-4.31-2.48-4.31-5.51V75.4Z"/></g></g></svg>