<!-- Generator: Adobe Illustrator 20.1.0, SVG Export Plug-In  -->
<svg version="1.1"
	 xmlns="http://www.w3.org/2000/svg" xmlns:xlink="http://www.w3.org/1999/xlink" xmlns:a="http://ns.adobe.com/AdobeSVGViewerExtensions/3.0/"
	 x="0px" y="0px" width="29.7px" height="33.7px" viewBox="0 0 29.7 33.7" style="enable-background:new 0 0 29.7 33.7;"
	 xml:space="preserve">
<style type="text/css">
	.st0{opacity:0.2;}
	.st1{fill:#76C2AF;}
</style>
<defs>
</defs>
<g class="st0">
	<path d="M28.5,5.2c-1.6-1.6-4.1-1.6-5.7,0l-8,8l-8-8c-1.6-1.6-4.1-1.6-5.7,0c-1.6,1.6-1.6,4.1,0,5.7l8,8l-8,8
		c-1.6,1.6-1.6,4.1,0,5.7s4.1,1.6,5.7,0l8-8l8,8c1.6,1.6,4.1,1.6,5.7,0s1.6-4.1,0-5.7l-8-8l8-8C30,9.3,30,6.7,28.5,5.2z"/>
</g>
<path class="st1" d="M20.5,14.8l8-8c1.6-1.6,1.6-4.1,0-5.7c-1.6-1.6-4.1-1.6-5.7,0l-8,8l-8-8c-1.6-1.6-4.1-1.6-5.7,0
	c-1.6,1.6-1.6,4.1,0,5.7l8,8l-8,8c-1.6,1.6-1.6,4.1,0,5.7c1.6,1.6,4.1,1.6,5.7,0l8-8l8,8c1.6,1.6,4.1,1.6,5.7,0
	c1.6-1.6,1.6-4.1,0-5.7L20.5,14.8z"/>
</svg>
