<!-- Generator: Adobe Illustrator 20.1.0, SVG Export Plug-In  -->
<svg version="1.1"
	 xmlns="http://www.w3.org/2000/svg" xmlns:xlink="http://www.w3.org/1999/xlink" xmlns:a="http://ns.adobe.com/AdobeSVGViewerExtensions/3.0/"
	 x="0px" y="0px" width="32px" height="29.6px" viewBox="0 0 32 29.6" style="enable-background:new 0 0 32 29.6;"
	 xml:space="preserve">
<style type="text/css">
	.st0{opacity:0.2;}
	.st1{fill:#231F20;}
	.st2{fill:#E0E0D1;}
</style>
<defs>
</defs>
<g class="st0">
	<g>
		<path class="st1" d="M0,12.1v6.6c0,1.1,1.3,3,2.2,3.5l12,6.9c1,0.6,2.5,0.6,3.5,0l12-6.9c1-0.6,2.2-2.4,2.2-3.5v-6.6
			c-4.8,2.4-10.2,3.8-16,3.8S4.8,14.5,0,12.1z"/>
	</g>
</g>
<g>
	<g>
		<path class="st2" d="M0,0v14.7c0,1.1,1.3,3,2.2,3.5l12,6.9c1,0.6,2.5,0.6,3.5,0l12-6.9c1-0.6,2.2-2.4,2.2-3.5V0
			c-4.8,2.4-10.2,3.8-16,3.8S4.8,2.4,0,0z"/>
	</g>
</g>
</svg>
