<svg id="图层_1" data-name="图层 1" xmlns="http://www.w3.org/2000/svg" viewBox="0 0 100 30"><defs><style>.cls-1{fill:#A8A8B7;}.cls-2{fill:#fff;}</style></defs><rect class="cls-1" width="100" height="30" rx="15" ry="15"/><path class="cls-2" d="M186.73,8.57V21H185.4V20H182.3v1.55H181v-13Zm-4.43,5.06h3.09V9.84H182.3Zm0,5.13h3.09V14.9H182.3Zm5.06-7.88h5.77V7.24h1.41v3.66h2.11v1.34h-2.11v9.21a2.19,2.19,0,0,1-.39,1.48,1.81,1.81,0,0,1-1.37.42,8.46,8.46,0,0,1-2.18-.28l-.28-1.48a7.52,7.52,0,0,0,2.25.35.58.58,0,0,0,.42-.14,1.11,1.11,0,0,0,.14-.7V12.23h-5.77Zm2,2.53a25.78,25.78,0,0,1,2.25,4.71l-1.41.63A22.34,22.34,0,0,0,188.14,14Z" transform="translate(-156.63 -0.29)"/><path class="cls-2" d="M204.73,8.57V21H203.4V20H200.3v1.55H199v-13Zm-4.43,5.06h3.09V9.84H200.3Zm0,5.13h3.09V14.9H200.3Zm5.06-7.88h5.77V7.24h1.41v3.66h2.11v1.34h-2.11v9.21a2.19,2.19,0,0,1-.39,1.48,1.81,1.81,0,0,1-1.37.42,8.46,8.46,0,0,1-2.18-.28l-.28-1.48a7.52,7.52,0,0,0,2.25.35.58.58,0,0,0,.42-.14,1.11,1.11,0,0,0,.14-.7V12.23h-5.77Zm2,2.53a25.78,25.78,0,0,1,2.25,4.71l-1.41.63A22.34,22.34,0,0,0,206.14,14Z" transform="translate(-156.63 -0.29)"/><path class="cls-2" d="M220.48,16.73l1.34.7a24.33,24.33,0,0,1-3.73,4.92L217,21.3A27.78,27.78,0,0,0,220.48,16.73Zm3.8-6.19h1.41V14.2h5.7v1.27h-5.7v6A2,2,0,0,1,225.3,23a2,2,0,0,1-1.44.39,8.4,8.4,0,0,1-1.9-.21l-.28-1.34a9.36,9.36,0,0,0,2,.21c.42,0,.63-.26.63-.77V15.46H218.8l-.7-.91a58.28,58.28,0,0,0,.63-6A61.27,61.27,0,0,0,229.9,7.24l.56,1.27a83,83,0,0,1-10.41,1.27q-.21,2.39-.49,4.43h4.71Zm4.5,6.26a37.86,37.86,0,0,1,3.52,4.5l-1.34,1a37.56,37.56,0,0,0-3.3-4.71Z" transform="translate(-156.63 -0.29)"/></svg>