<svg id="图层_1" data-name="图层 1" xmlns="http://www.w3.org/2000/svg" viewBox="0 0 100 30"><defs><style>.cls-1{fill:#A8A8B7;}.cls-2{fill:#fff;}</style></defs><rect class="cls-1" width="100" height="30" rx="15" ry="15"/><path class="cls-2" d="M23.26,262.13h2.25v-3.23h1.34v3.23H29v1.34H26.84v.84a32.36,32.36,0,0,1,2.32,3.16l-.91,1.34a26.52,26.52,0,0,0-1.41-2.6v8.86H25.51V267.4a15.66,15.66,0,0,1-1.83,3.87l-1-1a17.05,17.05,0,0,0,2.67-6.82H23.26Zm5.84-1.9h2.46v-1.34h1.34v1.34h2.46v-1.34h1.34v1.34h2.46v1.27H36.69v1.34H38.3v5.77H34.72a12.13,12.13,0,0,1-.21,1.27h4.64v1.27H35.28a6.42,6.42,0,0,0,4.08,2.53l-.77,1.41A7.43,7.43,0,0,1,34,271.41,6.09,6.09,0,0,1,29.09,275l-.56-1.2q3.3-.84,4.15-2.67H29v-1.27H33.1a5,5,0,0,0,.28-1.27H29.94v-5.77h1.62v-1.34H29.09Zm2.18,4.92H37V264h-5.7Zm0,2.25H37v-1.2h-5.7Zm1.62-4.57h2.46v-1.34H32.89Z" transform="translate(-7.96 -251.91)"/><path class="cls-2" d="M41,261.84h2.18v-3h1.41v3H46v1.34H44.63v3.45l1.62-.77.28,1.27q-.91.56-1.9,1.05v4.92a2.5,2.5,0,0,1-.35,1.55,1.8,1.8,0,0,1-1.41.42,4.14,4.14,0,0,1-1.55-.28L41,273.38a4.72,4.72,0,0,0,1.62.28.51.51,0,0,0,.42-.18,1.13,1.13,0,0,0,.14-.67v-4l-1.76.7L40.91,268l2.32-.84v-4H41Zm6.12-2.25h1.41v10.55a16.12,16.12,0,0,0,2-1.62l.56,1.13a33.77,33.77,0,0,1-3,2.39l-1-.91Zm3.3.7a25.75,25.75,0,0,1,2.32,5.27l-1.27.56a26,26,0,0,0-2.25-5.27ZM54,258.89h1.34q0,7.8-.91,10.41a30.18,30.18,0,0,1,2.67,4.5l-1,1.13a27.56,27.56,0,0,0-2.25-4.08A10.22,10.22,0,0,1,50.26,275l-.7-1.27a9.41,9.41,0,0,0,3.59-5Q54,266.07,54,258.89Z" transform="translate(-7.96 -251.91)"/><path class="cls-2" d="M59.61,263h6.54V259h1.55V263h6.89v1.41H68q1.9,6.68,7.38,9.07l-.77,1.55q-5-2.32-7.31-8.44-1.55,5.13-7.66,8.44l-.77-1.34q6.82-3.87,7.24-9.28H59.61Z" transform="translate(-7.96 -251.91)"/><path class="cls-2" d="M88.93,267.19a17.71,17.71,0,0,0,4.29,1.48l-.77,1.41a14.33,14.33,0,0,1-2.6-1.05v3.09H88.51v-2.6H81.62v2.74H80.28v-3a24,24,0,0,1-2.46,1.05l-.84-1.2a20,20,0,0,0,4.36-1.9H77.75V266h4.36v-.77H79.23V264h2.88v-.77H79.79v-1.12h2.32v-1.55h1.41v1.55h3.09v-1.55h1.34v1.55h2.46v1.13H87.94V264H91v1.2H87.94V266h4.5v1.2Zm-3.8-8.44a6.2,6.2,0,0,1,.7,1.2h6.82v3.16H91.32v-1.9H78.73v1.9H77.47v-3.16h6.82a4.43,4.43,0,0,0-.49-.77ZM84.36,270l1.34.28a5,5,0,0,1-2,3.13,12.39,12.39,0,0,1-5.41,1.65l-.7-1.27a11.83,11.83,0,0,0,5-1.3A4,4,0,0,0,84.36,270Zm4.29-1.62a15.21,15.21,0,0,1-1.69-1.2H83.23a13.44,13.44,0,0,1-1.55,1.2ZM83.51,264h3.09v-.77H83.51Zm0,2h3.09v-.77H83.51Zm2.74,5.84a57.84,57.84,0,0,1,6.26,2L92,275a48.61,48.61,0,0,0-6.26-2Z" transform="translate(-7.96 -251.91)"/></svg>