<svg id="图层_1" data-name="图层 1" xmlns="http://www.w3.org/2000/svg" viewBox="0 0 100 30"><defs><style>.cls-1{fill:#A8A8B7;}.cls-2{fill:#fff;}</style></defs><rect class="cls-1" width="100" height="30" rx="15" ry="15"/><path class="cls-2" d="M23.22,94.74h2.25V91.51h1.34v3.23h2.11v1.34H26.81v.84a32.36,32.36,0,0,1,2.32,3.16l-.91,1.34a26.47,26.47,0,0,0-1.41-2.6v8.86H25.47V100a15.66,15.66,0,0,1-1.83,3.87l-1-1a17.05,17.05,0,0,0,2.67-6.82H23.22Zm5.84-1.9h2.46V91.51h1.34v1.34h2.46V91.51h1.34v1.34h2.46v1.27H36.65v1.34h1.62v5.77H34.68a12.13,12.13,0,0,1-.21,1.27h4.64v1.27H35.25a6.42,6.42,0,0,0,4.08,2.53l-.77,1.41A7.44,7.44,0,0,1,34,104q-1.2,2.88-4.92,3.59l-.56-1.2q3.3-.84,4.15-2.67H29v-1.27h4.08a5,5,0,0,0,.28-1.27H29.9V95.44h1.62V94.11H29.06Zm2.18,4.92h5.7V96.64h-5.7Zm0,2.25h5.7v-1.2h-5.7Zm1.62-4.57h2.46V94.11H32.85Z" transform="translate(-7.96 -84.63)"/><path class="cls-2" d="M41,94.46h2.18v-3H44.6v3H46v1.34H44.6v3.45l1.62-.77.28,1.27q-.91.56-1.9,1.05v4.92a2.5,2.5,0,0,1-.35,1.55,1.8,1.8,0,0,1-1.41.42,4.14,4.14,0,0,1-1.55-.28L41,106a4.72,4.72,0,0,0,1.62.28.51.51,0,0,0,.42-.18,1.13,1.13,0,0,0,.14-.67v-4l-1.76.7-.56-1.48,2.32-.84v-4H41Zm6.12-2.25h1.41v10.55a16.17,16.17,0,0,0,2-1.62l.56,1.13a33.85,33.85,0,0,1-3,2.39l-1-.91Zm3.3.7a25.73,25.73,0,0,1,2.32,5.27l-1.27.56a26,26,0,0,0-2.25-5.27Zm3.52-1.41h1.34q0,7.8-.91,10.41a30.15,30.15,0,0,1,2.67,4.5l-1,1.13a27.53,27.53,0,0,0-2.25-4.08,10.22,10.22,0,0,1-3.59,4.15l-.7-1.27a9.41,9.41,0,0,0,3.59-5Q53.95,98.68,53.95,91.51Z" transform="translate(-7.96 -84.63)"/><path class="cls-2" d="M59.57,94.6l1.34.35a21.91,21.91,0,0,1-1,5.41l-1.27-.77A21.58,21.58,0,0,0,59.57,94.6Zm1.9-3.09h1.27v3.59A8.15,8.15,0,0,0,64.28,93l1.13.91a11.93,11.93,0,0,1-2.67,2.88v1.9a24.32,24.32,0,0,1-.14,2.67A32.82,32.82,0,0,1,65,104.72L64,106a23.68,23.68,0,0,0-1.76-3.09,12.68,12.68,0,0,1-2.32,4.78l-1.2-.91a12.24,12.24,0,0,0,2.74-8.09Zm11.46,8,1.41.49a13.41,13.41,0,0,1-3.66,4.85,16.55,16.55,0,0,1-6,2.88l-.63-1.34a14.53,14.53,0,0,0,5.45-2.53A13.28,13.28,0,0,0,72.93,99.52Zm-6.12-6,1.34.49a30.22,30.22,0,0,1-1.83,6.33L65,99.45A27.07,27.07,0,0,0,66.82,93.47Zm2.46-2h1.48v10.62H69.28Zm3.45,1.83a27.34,27.34,0,0,1,2.46,5.13l-1.27.7A24,24,0,0,0,71.6,94Z" transform="translate(-7.96 -84.63)"/><path class="cls-2" d="M82.92,91.93v13.71A2,2,0,0,1,82.5,107a1.55,1.55,0,0,1-1.2.46c-.38,0-.82,0-1.34-.07l-.35-1.34a8.89,8.89,0,0,0,1.41.14c.33,0,.49-.33.49-1v-4H79.19a24,24,0,0,1-1.12,6.47l-1.34-.77a28.88,28.88,0,0,0,1.13-8.23V91.93ZM79.26,96h2.25V93.19H79.26Zm0,4h2.25V97.2H79.26V100Zm5.2-.91h7.59a8.39,8.39,0,0,1-2.39,5.41,13.07,13.07,0,0,0,3.59,1.83l-.77,1.41a15.86,15.86,0,0,1-3.94-2.25,17.38,17.38,0,0,1-4.78,2.25l-.7-1.34a13.2,13.2,0,0,0,4.43-1.9,10.14,10.14,0,0,1-2.25-4.15h-.77Zm6.54-7v4.22c0,.52.19.77.56.77h1.27v1.2H91.21A1.79,1.79,0,0,1,90,97.9a1.45,1.45,0,0,1-.39-1.12V93.4H87A11.17,11.17,0,0,1,86.5,97a4.68,4.68,0,0,1-1.34,1.79l-.91-1.05A3.82,3.82,0,0,0,85.34,96a16.91,16.91,0,0,0,.39-3.94Zm-4.36,8.3a7.87,7.87,0,0,0,2,3.23,6.37,6.37,0,0,0,1.69-3.23Z" transform="translate(-7.96 -84.63)"/></svg>