<svg id="图层_1" data-name="图层 1" xmlns="http://www.w3.org/2000/svg" viewBox="0 0 69.02 80"><defs><style>.cls-1{fill:#fff;}</style></defs><path class="cls-1" d="M109.69,252.76l-9.25-16a31.44,31.44,0,1,0-49.84,0l-9.27,16a1.92,1.92,0,0,0-.27,1.55,1.88,1.88,0,0,0,2.28,1.35l12.53-3.35,3.33,12.46a1.76,1.76,0,0,0,.89,1.15,1.86,1.86,0,0,0,2.53-.69l9.45-16.41a25.22,25.22,0,0,0,3.46.2,24.07,24.07,0,0,0,3.39-.2l9.51,16.41a1.85,1.85,0,0,0,2.53.69,2,2,0,0,0,.87-1.15l3.35-12.46,12.49,3.35a1.83,1.83,0,0,0,2.26-1.35,1.76,1.76,0,0,0-.24-1.55Zm-48,6.7h0L59,249.52a1.92,1.92,0,0,0-2.31-1.33l0,0-9.85,2.64,6.39-11.13.13.11a31.19,31.19,0,0,0,14.86,8.36l-6.52,11.27Zm13.89-16.68h0a25.16,25.16,0,0,1-17.81-43,25.17,25.17,0,1,1,17.81,43Zm18.83,5.44h0l0,0A1.91,1.91,0,0,0,92,249.52l-2.62,9.94-6.57-11.27a31.26,31.26,0,0,0,14.88-8.36l.11-.11,6.43,11.13-9.91-2.64Zm-5.61-43.85h0a18.69,18.69,0,0,0-26.44,0,18.71,18.71,0,1,0,26.44,26.48,18.69,18.69,0,0,0,0-26.48ZM86.09,228.2h0a15,15,0,1,1,4.39-10.58,15,15,0,0,1-4.39,10.58Z" transform="translate(-41 -186.17)"/></svg>