<svg id="图层_1" data-name="图层 1" xmlns="http://www.w3.org/2000/svg" viewBox="0 0 77.99 80"><defs><style>.cls-1{fill:#717071;}</style></defs><path class="cls-1" d="M88.25,77.39H74.92V54.78a2.83,2.83,0,0,0-5.65,0V80.26a2.83,2.83,0,0,0,2.83,2.85H88.25a2.86,2.86,0,0,0,0-5.71Zm10-23.28h0a37,37,0,0,0-52.29,0l0,0a37,37,0,0,0,0,52.27h0a36.92,36.92,0,0,0,52.21.06l0-.06h0a36.92,36.92,0,0,0,.12-52.11l-.12-.18ZM94.2,102.39h0a31.29,31.29,0,0,1-44.23,0v0a31.29,31.29,0,0,1,0-44.25h0a31.26,31.26,0,0,1,44.23,0l.14.14a31.29,31.29,0,0,1-.14,44.11ZM110.6,54.3h0c-.79-1.19-1.72-2.38-2.69-3.57s-2-2.28-3-3.33-2.14-2-3.31-3h0a37.4,37.4,0,0,0-3.55-2.64,30.81,30.81,0,0,0-3.86-2.36c-1.23-.67-2.6-1.33-4-1.94A2.85,2.85,0,0,0,86.45,39a2.88,2.88,0,0,0,1.49,3.74c1.19.48,2.34,1.05,3.57,1.7s2.3,1.33,3.35,2.06S97,48,98,48.79v0a32.57,32.57,0,0,1,2.91,2.66,34.36,34.36,0,0,1,2.64,2.87c.79,1,1.58,2,2.32,3.13a2.84,2.84,0,1,0,4.72-3.17ZM38.3,57.49h0a29.42,29.42,0,0,1,2.34-3.15,33.42,33.42,0,0,1,2.63-2.87c1-1,1.94-1.88,2.87-2.66s2-1.59,3.19-2.34,2.2-1.41,3.35-2.06l.16-.08a36.78,36.78,0,0,1,3.39-1.61A2.84,2.84,0,0,0,54,37.48a42.88,42.88,0,0,0-3.88,1.88l-.14,0a41.33,41.33,0,0,0-3.88,2.38,40.47,40.47,0,0,0-3.57,2.64,44.07,44.07,0,0,0-3.27,3c-1,1-2,2.14-3,3.35s-1.86,2.36-2.66,3.55a2.85,2.85,0,0,0,4.72,3.19Z" transform="translate(-33.09 -37.25)"/></svg>