<!-- Generator: Adobe Illustrator 20.1.0, SVG Export Plug-In  -->

<svg version="1.1"

	 xmlns="http://www.w3.org/2000/svg" xmlns:xlink="http://www.w3.org/1999/xlink" xmlns:a="http://ns.adobe.com/AdobeSVGViewerExtensions/3.0/"

	 x="0px" y="0px" width="763.8px" height="45px" viewBox="0 0 763.8 45" style="enable-background:new 0 0 763.8 45;"

	 xml:space="preserve">

<style type="text/css">

	.st0{fill:#fff;}

</style>

<defs>

</defs>

<g>

	<path class="st0" d="M15.1,41.4L8.4,25.7C7.3,32.8,5,38.5,1.2,44.5L0,43.7c5.3-8.5,7.6-16.5,7.6-29V0.8h1.5v13.9

		c0,2.9-0.1,5.5-0.4,8h0l7.8,18.1L15.1,41.4z M2.5,5.1v19.1H1V5.1H2.5z M14.9,4.5v18.2h-1.5V4.5H14.9z M43.3,29.7

		c-6.8,8-13.7,12.1-25,14.3L18,42.4c10.8-2.1,17.5-6.1,24.1-13.7L43.3,29.7z M24.4,3c-0.4,9.4-1.7,17-4.2,23.8l-1.4-0.5

		c2.4-6.6,3.7-14.1,4.1-23.3L24.4,3z M30.3,33.1v-33h1.5v33H30.3z M39.1,2.8l4.3,23.5l-1.5,0.2L37.6,3.1L39.1,2.8z"/>

	<path class="st0" d="M47.8,44.9l1.6-39.2c0.1-2.3,2-4.3,4.4-4.3h5.7c2.3,0,4.4,1.9,4.4,4.4v34.5c0,1.2-0.5,2.3-1.2,3.1

		c-0.9,0.9-1.9,1.3-3.1,1.3l-2.2,0v-1.5l2.2,0c0.8,0,1.5-0.3,2-0.9c0.5-0.5,0.8-1.2,0.8-2v-9.8H49.9L49.3,45L47.8,44.9z M50,28.9

		h12.3v-12H50.4L50,28.9z M50.5,15.4h11.7V5.8c0-1.6-1.2-2.8-2.8-2.8h-5.7c-1.6,0-2.8,1.3-2.8,2.9L50.5,15.4z M69,25L80,34.1

		c3.3-3.4,5.7-7.1,7.5-11.3H68.2v-1.5h21.6c-2.2,5.4-4.8,9.8-8.6,13.8l10,8.3l-1,1.2l-10.1-8.4C76.9,39.3,73,42,68,44.6l-0.7-1.3

		c4.8-2.6,8.6-5.2,11.6-8.1l-10.8-9L69,25z M91.6,16.9h-0.9c-2.7,0-4.9-2.4-4.9-5.3V6.5c0-2.1-1.5-3.7-3.5-3.7H75

		c-1.9,0-3.1,1.8-3.4,3.9l-1.9,11l-1.5-0.2l1.9-11c0.4-2.7,2.3-5.1,4.9-5.1h7.4c2.7,0,5,2.4,5,5.3v5.1c0,2.1,1.5,3.7,3.4,3.7h0.9

		V16.9z"/>

	<path class="st0" d="M96.2,11.3h20.1c0.5-3.3,0.8-6.9,1.1-10.8l1.5,0.1c-0.2,3.9-0.6,7.4-1,10.8h21.4v1.5h-20.8l20.5,30.9l-1.2,0.8

		l-20.2-30.5C115.2,27.7,110,36.9,97.1,44l-0.7-1.3c12.6-6.9,17.5-16,19.6-29.8H96.2V11.3z"/>

	<path class="st0" d="M176.3,8.7v3.2h8.9v1.5h-8.9v3.9h8.4v1.5h-8.4v3.6h10.8v1.5h-11.8l12.1,7.3l-0.8,1.3l-14.4-8.7h-13.5

		c-2.5,3.7-7.1,6.7-14.3,8.7l-0.4-1.4c6.3-1.8,10.4-4.3,12.9-7.3h-12v-1.5h10.8v-3.6h-8.4v-1.5h8.4v-3.9h-8.9v-1.5h8.9V8.7h1.5v3.2

		h17.6V8.7H176.3z M185,10.4V8.5c0-1.6-1.2-2.8-2.8-2.8h-32.5c-1.5,0-2.8,1.2-2.8,2.8v1.9h-1.5V8.5c0-2.4,2-4.4,4.3-4.4h15.6v-4h1.5

		v4h15.5c2.4,0,4.3,1.9,4.3,4.4v1.9H185z M167.5,32.1c-0.5,1.2-1.2,2.4-1.8,3.4l17.9,7.3l-0.5,1.4l-18.3-7.5

		c-3.1,3.6-7.8,5.9-16,7.3l-0.3-1.5c10.7-1.9,15.1-5.1,17.7-11L167.5,32.1z M177.7,37.9v-6c0-1.1-0.8-1.9-1.9-1.9h-19.3

		c-1.1,0-1.9,0.8-1.9,1.9v6H153v-6c0-1.9,1.6-3.5,3.5-3.5h19.3c1.9,0,3.5,1.6,3.5,3.5v6H177.7z M157.2,17.4h17.6v-3.9h-17.6V17.4z

		 M157.2,22.6h17.6v-3.6h-17.6V22.6z"/>

	<path class="st0" d="M195.2,34.9l7.2,7.4l-1.1,1.1l-7.2-7.4L195.2,34.9z"/>

	<path class="st0" d="M244.1,42.3c-2.4,0-4.4-1.9-4.4-4.4V8.3c0-2.4,1.9-4.4,4.4-4.4h6.7c2.5,0,4.4,1.9,4.4,4.4v29.6

		c0,2.4-1.9,4.4-4.4,4.4H244.1z M241.3,22.4h12.4V8.3c0-1.6-1.3-2.8-2.9-2.8h-6.7c-1.6,0-2.8,1.2-2.8,2.8V22.4z M250.8,40.8

		c1.6,0,2.9-1.2,2.9-2.8V23.9h-12.4v14.1c0,1.6,1.2,2.8,2.8,2.8H250.8z M258.1,6.2H278V0h1.5v6.2h4v1.5h-4v31c0,2.9-2.4,5.2-5.3,5.2

		h-5.6v-1.5h5.6c2.1,0,3.7-1.6,3.7-3.7v-31h-19.9V6.2z M263.4,15.6l6,18.9l-1.4,0.5l-6-18.9L263.4,15.6z"/>

	<path class="st0" d="M292.1,42.3c-2.4,0-4.4-1.9-4.4-4.4V8.3c0-2.4,1.9-4.4,4.4-4.4h6.7c2.5,0,4.4,1.9,4.4,4.4v29.6

		c0,2.4-1.9,4.4-4.4,4.4H292.1z M289.3,22.4h12.4V8.3c0-1.6-1.3-2.8-2.9-2.8h-6.7c-1.6,0-2.8,1.2-2.8,2.8V22.4z M298.8,40.8

		c1.6,0,2.9-1.2,2.9-2.8V23.9h-12.4v14.1c0,1.6,1.2,2.8,2.8,2.8H298.8z M306.1,6.2H326V0h1.5v6.2h4v1.5h-4v31c0,2.9-2.4,5.2-5.3,5.2

		h-5.6v-1.5h5.6c2.1,0,3.7-1.6,3.7-3.7v-31h-19.9V6.2z M311.4,15.6l6,18.9l-1.4,0.5l-6-18.9L311.4,15.6z"/>

	<path class="st0" d="M344.5,28.5c-1.7,6.2-3.8,11.4-6.9,15.2l-1.2-1c2.9-3.8,5-8.6,6.6-14.5L344.5,28.5z M359.5,9.3v12.2h19.4v1.5

		h-19.4v15.6c0,2.9-2.4,5.3-5.3,5.3h-3.7v-1.5h3.7c2.1,0,3.7-1.7,3.7-3.7V23.1H343c-2.3,0-4.4-1.9-4.4-4.4V8.1

		c0-2.4,2.1-4.4,4.4-4.4c11.7-0.3,22.9-0.6,34.6-0.9v1.5L343,5.3c-1.5,0-2.8,1.2-2.8,2.8v10.6c0,1.6,1.3,2.8,2.8,2.8h14.9V9.3H359.5

		z M372.4,28l6.5,14.9l-1.4,0.6l-6.5-14.9L372.4,28z"/>

	<path class="st0" d="M387.2,34.9l7.2,7.4l-1.1,1.1l-7.2-7.4L387.2,34.9z"/>

	<path class="st0" d="M440.3,29.2L433,44.6l-1.4-0.6l7.4-15.5L440.3,29.2z M436.2,1.2v9.3h-1.5V1.2H436.2z M436.2,15v9.3h-1.5V15

		H436.2z M442.3,2h7.7c2.4,0,4.4,2.1,4.4,4.4v5.9c0,2.5-1.9,4.4-4.4,4.4h-3.3c-1.6,0-2.8,1.2-2.8,2.8V25c0,1.6,1.2,2.9,2.8,2.9h2.9

		c2.5,0,4.4,1.9,4.4,4.4v7.2c0,2.5-1.9,4.4-4.4,4.4h-6.8v-1.5h6.8c1.6,0,2.9-1.3,2.9-2.9v-7.2c0-1.6-1.3-2.8-2.9-2.8h-2.9

		c-2.4,0-4.4-1.9-4.4-4.4v-5.5c0-2.4,1.9-4.4,4.4-4.4h3.3c1.6,0,2.8-1.3,2.8-2.9V6.3c0-1.6-1.2-2.8-2.8-2.8h-7.7V2z M475.2,3.1

		c-4.1,4-9,7.3-14.6,10v7.1h15.3v1.5h-9.4l8.7,22.2l-1.4,0.5l-8.9-22.7h-4.3v17c0,2.1,1.7,3.7,3.7,3.7h2.4V44h-2.4

		c-2.9,0-5.3-2.4-5.3-5.3v-17h-5v-1.5h5v-20h1.5v11.3c5.1-2.4,9.6-5.5,13.5-9.5L475.2,3.1z"/>

	<path class="st0" d="M483.9,23v18.5l5.5-1.3V18.7h-4c-1.9,0-3.5-1.5-3.5-3.4V5.5c0-1.9,1.6-3.5,3.5-3.5h7.3c1.9,0,3.5,1.6,3.5,3.5

		v9.8c0,1.8-1.6,3.4-3.5,3.4h-1.7v7.4h6.7v1.5h-6.7v12.1l6-1.5l0.4,1.5L480,44.1l-0.4-1.5l2.8-0.7V23H483.9z M485.4,3.6

		c-1.1,0-2,0.8-2,1.9v9.8c0,1,0.9,1.9,2,1.9h7.3c1.1,0,1.9-0.9,1.9-1.9V5.5c0-1.1-0.8-1.9-1.9-1.9H485.4z M499.7,23.1H510

		c0.8-3.6,1.1-7.6,1.2-12.1h-10.3l2.7-8.7l1.4,0.4l-2.1,6.8h8.3c0-1,0-2,0-3.1c0-1.9,0-3.7,0-5.8h1.5c0,2.1,0,3.9,0,5.8

		c0,1.1,0,2.1,0,3.1h11V11h-11c-0.1,4.5-0.5,8.5-1.2,12.1h12.2v1.5h-11.2L523.4,44l-1.3,0.7l-11-19.5c-1.7,7-5.1,12.8-11.5,19.4

		l-1.1-1.1c6.2-6.4,9.5-12.1,11.2-18.9h-9.9V23.1z"/>

	<path class="st0" d="M536.5,28.5c-1.7,6.2-3.8,11.4-6.9,15.2l-1.2-1c2.9-3.8,5-8.6,6.6-14.5L536.5,28.5z M551.5,9.3v12.2h19.4v1.5

		h-19.4v15.6c0,2.9-2.4,5.3-5.3,5.3h-3.7v-1.5h3.7c2.1,0,3.7-1.7,3.7-3.7V23.1H535c-2.3,0-4.4-1.9-4.4-4.4V8.1

		c0-2.4,2.1-4.4,4.4-4.4c11.7-0.3,22.9-0.6,34.6-0.9v1.5L535,5.3c-1.5,0-2.8,1.2-2.8,2.8v10.6c0,1.6,1.3,2.8,2.8,2.8h14.9V9.3H551.5

		z M564.4,28l6.5,14.9l-1.4,0.6l-6.5-14.9L564.4,28z"/>

	<path class="st0" d="M598,12.4v4h18.8v1.5H598v5.5h20.5v1.5h-7.3v6.3h7.2v1.5h-7.2v6.2c0,2.9-2.4,5.3-5.3,5.3h-6.9v-1.5h6.9

		c2.1,0,3.7-1.7,3.7-3.7v-6.2h-33.3v-1.5h33.3v-6.3h-33.8v-1.5h20.6v-5.5h-18.9v-1.5h18.9v-4H598z M581.8,1.7l-2,3.4h16.8v1.5h-10.8

		v5.8h-1.5V6.6H577l3.5-5.7L581.8,1.7z M579.3,38.5h15.8V40h-15.8V38.5z M605.7,1.7l-2,3.4h15.7v1.5h-10.2v5.8h-1.5V6.6h-6.8

		l3.5-5.7L605.7,1.7z"/>

	<path class="st0" d="M628.1,10.7l19.7,6.3c5.8-2.5,10.5-5.8,13.3-9.7h-32.4l3.5-6.6l1.3,0.7l-2.3,4.3h32.7

		c-3,4.8-8.1,8.8-14.4,11.9l18.2,5.8l-0.5,1.4l-19.8-6.3c-7,3-15.4,5-24,5.7l-0.1-1.5c8-0.7,15.6-2.3,22.1-4.8l-18-5.8L628.1,10.7z

		 M633.8,45c-2.9,0-5.2-2.4-5.2-5.3V32c0-2.9,2.4-5.3,5.2-5.3h24.9c2.9,0,5.3,2.4,5.3,5.3v7.7c0,2.9-2.4,5.3-5.3,5.3H633.8z

		 M658.7,43.4c2.1,0,3.7-1.7,3.7-3.7V32c0-2.1-1.6-3.8-3.7-3.8h-24.9c-2.1,0-3.7,1.7-3.7,3.8v7.7c0,2.1,1.6,3.7,3.7,3.7H658.7z"/>

	<path class="st0" d="M680.7,44.4V11.9h-8.8v-1.5h8.8V4.1l-8.1,0.6l-0.1-1.5L690,1.9l0.1,1.5L682.2,4v6.3h8.4v1.5h-8.4v32.5H680.7z

		 M672.3,43.9c1.4-5.5,2.3-14.9,2.3-25.5v-2.9h1.5v2.9c0,11-0.9,20.2-2.3,25.8L672.3,43.9z M687.7,43.9V15.5h1.5v28.4H687.7z

		 M705.7,0v8.4h4.9c2.6,0,4.8,2.4,4.8,5.3v15.7c0,2.9-2.2,5.3-4.8,5.3h-4.9V45h-1.5V34.7h-4.9c-2.7,0-4.9-2.4-4.9-5.3V13.7

		c0-2.8,2.2-5.3,4.9-5.3h4.9V0H705.7z M704.1,33.2V9.9h-4.9c-1.9,0-3.4,1.7-3.4,3.7v15.7c0,2.1,1.5,3.7,3.4,3.7H704.1z M705.7,9.9

		v23.2h4.9c1.9,0,3.3-1.7,3.3-3.7V13.7c0-2.1-1.4-3.7-3.3-3.7H705.7z"/>

	<path class="st0" d="M724,42.8c-2.5,0-4.4-1.9-4.4-4.4V7.2c0-2.4,1.9-4.4,4.4-4.4h2.3c2.5,0,4.4,1.9,4.4,4.4v31.1

		c0,2.5-1.9,4.4-4.4,4.4H724z M726.3,41.2c1.6,0,2.9-1.3,2.9-2.9V7.2c0-1.6-1.3-2.8-2.9-2.8H724c-1.6,0-2.9,1.2-2.9,2.8v31.1

		c0,1.6,1.3,2.9,2.9,2.9H726.3z M733.2,42.6l4.1-11.7l1.4,0.6l-4.1,11.7L733.2,42.6z M736.3,10.3V2.2h1.5v8.1H736.3z M736.3,24.6

		v-8.1h1.5v8.1H736.3z M741.1,26.8h2.7V16.1c0-2.8,2.4-5.3,5.3-5.3h6.6c2.8,0,5.3,2.4,5.3,5.3v10.7h2.8v1.5H761V39

		c0,2.9-2.4,5.3-5.3,5.3h-6.6c-2.9,0-5.3-2.4-5.3-5.3V28.4h-2.7V26.8z M747,1.1l-1.5,4.3h17.8V7h-20l2.3-6.4L747,1.1z M745.4,26.8

		h6.3v-8.4h1.5v8.4h6.2V16.1c0-2.1-1.6-3.7-3.7-3.7h-6.6c-2.1,0-3.7,1.7-3.7,3.7V26.8z M751.7,37v-8.6h-6.3V39

		c0,2.1,1.7,3.7,3.7,3.7h6.6c2.1,0,3.7-1.7,3.7-3.7V28.4h-6.2V37H751.7z"/>

</g>

</svg>

