<!-- Generator: Adobe Illustrator 20.1.0, SVG Export Plug-In  -->

<svg version="1.1"

	 xmlns="http://www.w3.org/2000/svg" xmlns:xlink="http://www.w3.org/1999/xlink" xmlns:a="http://ns.adobe.com/AdobeSVGViewerExtensions/3.0/"

	 x="0px" y="0px" width="375.8px" height="86.6px" viewBox="0 0 375.8 86.6" style="enable-background:new 0 0 375.8 86.6;"

	 xml:space="preserve">

<style type="text/css">

	.st0{fill:#fff;}

</style>

<defs>

</defs>

<g>

	<path class="st0" d="M1.9,15.4H18V0h1.9v15.4h15v1.9h-15v37.1H18v-33C14.3,30.9,8.6,39.8,1.1,48L0,46.5c8.3-9,14.1-18.8,17.6-29.3

		H1.9V15.4z M0,79.9c5-7,8.9-13.5,11.6-19.5l1.9,0.8c-4,8-8,14.6-12,19.9L0,79.9z M21.8,28.9l1.1-1.5l12,10.1L33.8,39L21.8,28.9z

		 M23.6,60h1.9v14.3c-0.3,5.3,2.7,7.9,9,7.9H54c6.8,0.2,10.4-1.8,10.9-6c0.5-3.5,0.8-6.2,0.8-8.3h1.9c0,2.3-0.3,5.1-0.8,8.6

		c-1,5-5.3,7.5-12.8,7.5H34.5c-7.3,0-10.9-3.3-10.9-9.8V60z M38.6,57.8l1.5-1.1L51.4,69l-1.1,1.1L38.6,57.8z M40.1,6.8h41.3v45H40.1

		V6.8z M79.5,8.3H41.6V21h37.9V8.3z M41.6,22.9v12.8h37.9V22.9H41.6z M41.6,50.3h37.9V37.1H41.6V50.3z M72.8,61.1l1.5-1.1

		c0.8,1.3,2.3,3.4,4.5,6.4c4.2,5.8,7.2,9.8,9,12l-1.5,0.8C80,70.9,75.5,64.9,72.8,61.1z"/>

	<path class="st0" d="M97.1,10.5H126V12h-13.9v27.4h12.4v1.9h-12.4v28.5l15.4-4.5l0.4,1.9l-31.5,9.4l-0.8-1.9l14.6-4.5V41.3H97.9

		v-1.9h12.4V12H97.1V10.5z M141.8,49.1V36.8h-13.5v-1.5H183v1.5h-20.3v38.6c0,4.2,2.4,6.4,7.1,6.4h2.3c5.3,0.2,8.3-1.8,9-6

		c0.2-1,0.5-2.9,0.8-5.6c0.2-2.7,0.4-4.5,0.4-5.3h1.9c0,0.5-0.1,1.5-0.4,3c-0.3,4.3-0.6,7-1.1,8.3c-0.5,5.3-4,7.7-10.5,7.5h-2.3

		c-6,0-9-2.8-9-8.3V36.8h-17.3v12.8c0.8,15.8-5.4,28.1-18.4,37.1l-1.1-1.5c6.8-5.3,11.4-10.2,13.9-15

		C140.3,65.6,141.5,58.6,141.8,49.1z M133.1,9h44.6v1.9h-44.6V9z"/>

	<path class="st0" d="M194.3,14.3h29.3C226,9.8,228.4,5,230.6,0l1.5,0.8c-2.3,5.5-4.5,10-6.8,13.5h54.4v1.9h-55.1

		c-3,5.3-6.4,10.3-10.1,15H267v44.6c0.5,7.2-3.4,10.6-11.6,10.1c-3,0-6.6,0-10.9,0l0.4-1.9c4,0,7.5,0,10.5,0

		c7.2,0.5,10.5-2.3,9.8-8.3v-9.4h-51.8v20.3h-1.9V34.9c-5.5,6.5-11.8,12.8-18.8,18.8l-1.1-1.5c12.8-10.5,23-22.5,30.8-36h-28.1V14.3

		z M213.4,32.6v15h51.8v-15H213.4z M213.4,49.5v15h51.8v-15H213.4z"/>

	<path class="st0" d="M287.6,29.3h22.1v-18c-6.5,0.8-12.6,1.4-18.4,1.9v-1.9c11.3-0.8,23.3-2.3,36-4.5l0.4,1.5

		c-2,0.5-5.6,1.3-10.9,2.3c-2.3,0.3-4,0.5-5.3,0.8v18h28.5c-0.3-4.2-0.5-10.6-0.8-19.1C339.1,5.4,339,2,339,0h1.9

		c0.2,3,0.4,7.9,0.4,14.6c0.2,6.5,0.4,11.4,0.4,14.6h34.1v1.9H342c0.8,12,2.3,22.1,4.5,30.4c9-7.5,15.6-14.5,19.9-21l1.5,1.1

		c-5.3,7.5-12.3,14.8-21,21.8c2.3,6.8,5.1,12.1,8.6,16.1c2.7,3,5.5,4.5,8.3,4.5c3.5,0.2,5.9-1.9,7.1-6.4c0.8-1.5,1.6-5.1,2.6-10.9

		c0.2-0.8,0.4-1.4,0.4-1.9l1.5,0.4c-0.5,3.5-1.4,7.6-2.6,12.4c-1.8,5.7-4.8,8.5-9,8.3c-3.5,0-6.6-1.8-9.4-5.3c-3.8-4-6.8-9.4-9-16.1

		c-8.5,6.8-16.6,11.6-24.4,14.6l-0.8-1.5c7.5-3.2,15.8-8.3,24.8-15c-2.5-8.3-4.1-18.8-4.9-31.5h-28.5v20.6l19.5-4.1l0.4,1.9

		l-19.9,4.1V75c0.2,6.8-3.3,10-10.5,9.8l-9-0.4l0.4-1.9l8.6,0.4c6,0.2,8.9-2.4,8.6-7.9V54l-21.4,4.1l-0.8-1.9l22.1-4.1v-21h-22.1

		V29.3z M352.1,8.3l1.1-1.5c1.7,1.5,4.7,4.1,9,7.9c2.7,2.5,4.6,4.1,5.6,4.9l-1.1,1.1c-1.3-1-3.9-3.2-7.9-6.8

		C355.6,11.1,353.4,9.3,352.1,8.3z"/>

</g>

</svg>

