<!-- Generator: Adobe Illustrator 20.1.0, SVG Export Plug-In  -->
<svg version="1.1"
	 xmlns="http://www.w3.org/2000/svg" xmlns:xlink="http://www.w3.org/1999/xlink" xmlns:a="http://ns.adobe.com/AdobeSVGViewerExtensions/3.0/"
	 x="0px" y="0px" width="64px" height="12px" viewBox="0 0 64 12" style="enable-background:new 0 0 64 12;" xml:space="preserve">
<style type="text/css">
	.st0{opacity:0.2;}
	.st1{fill:#4F5D73;}
</style>
<defs>
</defs>
<g class="st0">
	<path d="M64,8c0,2.2-1.8,4-4,4H4c-2.2,0-4-1.8-4-4l0,0c0-2.2,1.8-4,4-4h56C62.2,4,64,5.8,64,8L64,8z"/>
</g>
<g>
	<path class="st1" d="M64,4c0,2.2-1.8,4-4,4H4C1.8,8,0,6.2,0,4l0,0c0-2.2,1.8-4,4-4h56C62.2,0,64,1.8,64,4L64,4z"/>
</g>
</svg>
