<!-- Generator: Adobe Illustrator 20.1.0, SVG Export Plug-In  -->
<svg version="1.1"
	 xmlns="http://www.w3.org/2000/svg" xmlns:xlink="http://www.w3.org/1999/xlink" xmlns:a="http://ns.adobe.com/AdobeSVGViewerExtensions/3.0/"
	 x="0px" y="0px" width="32px" height="12px" viewBox="0 0 32 12" style="enable-background:new 0 0 32 12;" xml:space="preserve">
<style type="text/css">
	.st0{opacity:0.2;}
	.st1{fill:#E0995E;}
</style>
<defs>
</defs>
<g class="st0">
	<path d="M4,12h24c2.2,0,4-1.8,4-4c0-2.2-1.8-4-4-4H4C1.8,4,0,5.8,0,8C0,10.2,1.8,12,4,12z"/>
</g>
<g>
	<path class="st1" d="M32,4c0,2.2-1.8,4-4,4H4C1.8,8,0,6.2,0,4l0,0c0-2.2,1.8-4,4-4h24C30.2,0,32,1.8,32,4L32,4z"/>
</g>
</svg>
