<svg id="图层_1" data-name="图层 1" xmlns="http://www.w3.org/2000/svg" viewBox="0 0 80 69.31"><defs><style>.cls-1{fill:#fff;}</style></defs><path class="cls-1" d="M226.61,243.37l12.47,12.51a2.88,2.88,0,1,1-4,4.1l-12.56-12.54a31.76,31.76,0,0,1-20.23,7.33,31.56,31.56,0,0,1-24.06-11.2c-3-3.54,1.56-6.85,5-3a25.83,25.83,0,0,0,37.28.91l0,0h0a26.28,26.28,0,0,0,5.62-8.4,26,26,0,0,0,0-19.6l0-.12a25.63,25.63,0,0,0-5.48-8.25l-.14-.14a26,26,0,0,0-8.4-5.58,24.9,24.9,0,0,0-9.88-2,25.9,25.9,0,0,0-23.57,15.42,2.86,2.86,0,0,1-2.66,1.71h0a2.89,2.89,0,0,1-2.63-4.1,31.91,31.91,0,0,1,28.88-18.83,31.56,31.56,0,0,1,12.12,2.43h0a31.4,31.4,0,0,1,10.25,6.83l.16.15A32.17,32.17,0,0,1,231.49,211l.06.16a31.47,31.47,0,0,1-.06,24,31.89,31.89,0,0,1-4.88,8.17Zm-64.93-12.15h0a1.72,1.72,0,0,1-1.73-1.75,1.74,1.74,0,0,1,1.73-1.75h12.8l7.66-12.89a1.73,1.73,0,0,1,2.39-.62,1.71,1.71,0,0,1,.58.58l7.45,12,3.71-3.91a1.75,1.75,0,0,1,2.47,0,1.92,1.92,0,0,1,.37.54l4.32,8.71,5.33-22.58a1.74,1.74,0,0,1,2.12-1.28,1.72,1.72,0,0,1,.8.45l7.89,8a1.74,1.74,0,1,1-2.49,2.43l-5.66-5.72-5.74,24.19a1.57,1.57,0,0,1-.93,1.13,1.65,1.65,0,0,1-2.3-.74l-5.35-10.85-3.5,3.66a1.06,1.06,0,0,1-.41.33,1.73,1.73,0,0,1-2.39-.54l-7.12-11.42L177,230.3a1.67,1.67,0,0,1-1.52.93Z" transform="translate(-159.96 -191.52)"/></svg>