<?xml version="1.0" encoding="utf-8"?>
<!-- Generator: Adobe Illustrator 20.0.0, SVG Export Plug-In . SVG Version: 6.00 Build 0)  -->
<svg version="1.1" id="图层_1" xmlns="http://www.w3.org/2000/svg" xmlns:xlink="http://www.w3.org/1999/xlink" x="0px" y="0px"
	 viewBox="0 0 763.8 45" style="enable-background:new 0 0 763.8 45;" xml:space="preserve">
<style type="text/css">
	.st0{fill:#FFFFFF;}
</style>
<g>
	<path class="st0" d="M53.4,4.3c-1.5,2.3-3.2,4.4-5.1,6.3c1.9,5,3.1,10,3.1,15.2c0,6.1-1.7,12.1-5.6,17.7l-1.2-0.9
		c3.7-5.4,5.3-11.1,5.3-16.8v-0.5c-3,3.6-6.3,6.1-10.1,8.3l-0.7-1.3c4.2-2.3,7.5-5,10.6-9c-0.3-3.9-1.2-7.8-2.6-11.6
		c-2.2,2-4.5,3.8-7.2,5.4l-0.7-1.3c2.7-1.7,5.1-3.4,7.3-5.5c-1.1-2.6-2.3-5.1-3.8-7.6l1.3-0.8c1.4,2.4,2.6,4.8,3.6,7.3
		c1.7-1.7,3.2-3.5,4.5-5.6L53.4,4.3z M68.9,1.1v3.8h12.4v1.5H68.9v4.9h12.3v1.5H68.9v5.2h12.8v1.5H54.6v-1.5h12.8v-5.2H55.1v-1.5
		h12.3V6.4H55V4.9h12.4V1.1H68.9z M56.4,43.7V26.8c0-2.3,1.8-4.2,4.2-4.2h15.1c2.3,0,4.2,1.8,4.2,4.2v12.6c0,2.3-1.8,4.2-4.2,4.2
		h-2.3v-1.5h2.3c1.5,0,2.7-1.2,2.7-2.7V37H57.9v6.7H56.4z M57.9,29.1h20.6v-2.3c0-1.5-1.2-2.7-2.7-2.7H60.6c-1.5,0-2.7,1.2-2.7,2.7
		V29.1z M57.9,35.6h20.6v-5H57.9V35.6z"/>
	<path class="st0" d="M93.6,28.8l-7,14.8L85.2,43l7.1-14.8L93.6,28.8z M89.6,2.1V11h-1.5V2.1H89.6z M89.6,15.2v8.9h-1.5v-8.9H89.6z
		 M95.5,2.8h7.3c2.3,0,4.2,2,4.2,4.2v5.6c0,2.4-1.8,4.2-4.2,4.2h-3.2c-1.5,0-2.7,1.2-2.7,2.7v5.3c0,1.5,1.2,2.8,2.7,2.8h2.8
		c2.4,0,4.2,1.8,4.2,4.2v6.8c0,2.4-1.8,4.2-4.2,4.2H96v-1.5h6.5c1.5,0,2.8-1.2,2.8-2.8v-6.8c0-1.5-1.2-2.7-2.8-2.7h-2.8
		c-2.3,0-4.2-1.8-4.2-4.2v-5.3c0-2.3,1.8-4.2,4.2-4.2h3.2c1.5,0,2.7-1.2,2.7-2.8V7c0-1.5-1.2-2.7-2.7-2.7h-7.3V2.8z M126.9,3.8
		c-3.9,3.9-8.6,7-14,9.5v6.7h14.6v1.5h-8.9l8.4,21.2l-1.4,0.5L117,21.6H113v16.3c0,2,1.6,3.6,3.6,3.6h2.3v1.5h-2.3c-2.8,0-5-2.2-5-5
		V21.6h-4.8v-1.5h4.8V1h1.5v10.8c4.9-2.3,9.2-5.3,12.9-9L126.9,3.8z"/>
	<path class="st0" d="M135.3,22.9v17.7l5.2-1.2V18.8h-3.9c-1.8,0-3.4-1.5-3.4-3.3V6.1c0-1.8,1.5-3.3,3.4-3.3h7
		c1.8,0,3.3,1.5,3.3,3.3v9.4c0,1.7-1.5,3.3-3.3,3.3H142v7.1h6.4v1.5H142V39l5.7-1.4l0.4,1.5l-16.6,4l-0.4-1.4l2.7-0.7v-18H135.3z
		 M136.7,4.3c-1.1,0-1.9,0.8-1.9,1.8v9.4c0,1,0.8,1.8,1.9,1.8h7c1.1,0,1.8-0.8,1.8-1.8V6.1c0-1.1-0.8-1.8-1.8-1.8H136.7z M150.4,23
		h9.8c0.7-3.4,1.1-7.3,1.2-11.6h-9.9l2.6-8.4l1.4,0.4l-2,6.5h7.9c0-1,0-1.9,0-3c0-1.8,0-3.5,0-5.5h1.5c0,2,0,3.7,0,5.5
		c0,1.1,0,2,0,3h10.5v1.5h-10.5c-0.1,4.3-0.5,8.1-1.1,11.6h11.7v1.5h-10.7L173,42.9l-1.3,0.7L161.2,25c-1.7,6.7-4.9,12.3-11,18.6
		l-1.1-1.1c5.9-6.1,9.1-11.6,10.7-18h-9.5V23z"/>
	<path class="st0" d="M180.5,34.3l6.9,7.1l-1.1,1l-6.9-7.1L180.5,34.3z"/>
	<path class="st0" d="M237,4.3c-1.5,2.3-3.2,4.4-5.1,6.3c1.9,5,3.1,10,3.1,15.2c0,6.1-1.7,12.1-5.6,17.7l-1.2-0.9
		c3.7-5.4,5.3-11.1,5.3-16.8v-0.5c-3,3.6-6.3,6.1-10.1,8.3l-0.7-1.3c4.2-2.3,7.5-5,10.6-9c-0.3-3.9-1.2-7.8-2.6-11.6
		c-2.2,2-4.5,3.8-7.2,5.4l-0.7-1.3c2.7-1.7,5.1-3.4,7.3-5.5c-1.1-2.6-2.3-5.1-3.8-7.6l1.3-0.8c1.4,2.4,2.6,4.8,3.6,7.3
		c1.7-1.7,3.2-3.5,4.5-5.6L237,4.3z M252.5,1.1v3.8h12.4v1.5h-12.4v4.9h12.3v1.5h-12.3v5.2h12.8v1.5h-27.2v-1.5H251v-5.2h-12.3v-1.5
		H251V6.4h-12.4V4.9H251V1.1H252.5z M240,43.7V26.8c0-2.3,1.8-4.2,4.2-4.2h15.1c2.3,0,4.2,1.8,4.2,4.2v12.6c0,2.3-1.8,4.2-4.2,4.2
		H257v-1.5h2.3c1.5,0,2.7-1.2,2.7-2.7V37h-20.6v6.7H240z M241.5,29.1H262v-2.3c0-1.5-1.2-2.7-2.7-2.7h-15.1c-1.5,0-2.7,1.2-2.7,2.7
		V29.1z M241.5,35.6H262v-5h-20.6V35.6z"/>
	<path class="st0" d="M270,41.7h2.5c2,0,3.6-1.6,3.6-3.6V27.5l-6.5,3.6l-0.7-1.3l7.2-3.9V9.8h-6.9V8.3h6.9V1.2h1.5v7.1h4.7v1.5h-4.7
		v15.3l5.3-2.9l0.7,1.3l-6,3.3v11.3c0,2.8-2.3,5-5,5H270V41.7z M288.9,1.1v5.6c7.6-0.4,14.5-1.5,21.2-3.6l0.4,1.4
		c-7,2.1-13.9,3.3-21.6,3.7V13c0,2,1.6,3.6,3.6,3.6H311v1.5h-18.5c-2.8,0-5-2.2-5-5V1.1H288.9z M291.7,42.9c-2.4,0-4.2-1.8-4.2-4.2
		V26.2c0-2.3,1.8-4.2,4.2-4.2h14.1c2.3,0,4.2,1.8,4.2,4.2v12.6c0,2.3-1.8,4.2-4.2,4.2H291.7z M288.9,31.3h19.6v-5.1
		c0-1.5-1.2-2.7-2.7-2.7h-14.1c-1.5,0-2.8,1.2-2.8,2.7V31.3z M305.8,41.5c1.5,0,2.7-1.2,2.7-2.7v-6h-19.6v6c0,1.5,1.2,2.7,2.8,2.7
		H305.8z"/>
	<path class="st0" d="M326.4,1V11h10.1v1.5h-10.1v10.9h-1.5V12.4h-10.1V11h10.1V1H326.4z M323.5,23.9l-1.3,3.4H337v1.5h-3.3
		c-0.7,4.2-3,7.3-6.3,9.6l8.1,3.3l-0.6,1.4l-9-3.8c-2.9,1.7-6.6,2.9-10.7,3.6l-0.3-1.5c3.5-0.6,6.7-1.6,9.3-2.9l-2.5-1.1h0
		c-2-0.8-2.8-2.2-2.8-4.1c0-0.8,0.1-1.6,0.5-2.4l0.8-2.3h-5.4v-1.5h5.9l1.5-4L323.5,23.9z M317.5,1.9l2.8,6.7L319,9.1l-2.8-6.7
		L317.5,1.9z M316.1,22.2l2.8-8.4l1.4,0.4l-2.8,8.4L316.1,22.2z M322.2,36.2l3.6,1.5c3.4-2.1,5.6-5,6.4-8.9h-10.6l-1,2.8v0
		c-0.2,0.8-0.4,1.5-0.4,2C320.3,34.7,321,35.6,322.2,36.2z M335.1,2.4l-2.8,6.7L331,8.6l2.8-6.7L335.1,2.4z M333.8,22.6l-2.8-8.4
		l1.4-0.4l2.8,8.4L333.8,22.6z M340.9,14l6.9,12.6c2.1-5,3.8-11.1,5.1-18.5h-13.3l1-6.9l1.5,0.3l-0.8,5.1H357v1.5h-2.5
		c-1.4,8.3-3.4,14.9-5.7,20.2l7.9,14.3l-1.3,0.7L348,30c-2.6,5.6-5.6,9.8-8.9,13.3l-1-1.1c3.4-3.6,6.4-8,9-13.9l-7.5-13.6L340.9,14z
		"/>
	<path class="st0" d="M367.6,34.3l-3.1,9.4l-1.4-0.4l3.1-9.4L367.6,34.3z"/>
	<path class="st0" d="M407.1,4.1h12.9v1.5h-5.7v15.2h5.5v1.5h-5.5v15.3l6.4-1.6l0.3,1.5l-14.5,3.5l-0.3-1.5l6.6-1.6V22.2h-5.5v-1.5
		h5.5V5.5h-5.7V4.1z M449,42.9h-4.1c-2.8,0-5-2.2-5-5V18.4H430v1c0,13.5-2.5,18-7.8,23.9l-1.1-1c5-5.6,7.5-9.9,7.5-22.9v-1h-6.7
		v-1.5h26.5v1.5h-7v19.5c0,2,1.6,3.6,3.6,3.6h4.1V42.9z M423.6,3.1h23.1v1.5h-23.1V3.1z"/>
	<path class="st0" d="M467.4,1v4.8h12.9v1.5h-12.9v5.3h5.8c2.8,0,5,2.3,5,5v9.6h-1.5v-9.6c0-2-1.6-3.6-3.6-3.6h-5.8v12l12.3,16.2
		l-1.2,0.8l-11.2-14.5V44H466V19.6c-2.7,8.4-6.5,16.1-11.2,23.4l-1.2-0.8c5.4-8.6,9.7-17.5,12.3-28V14h-5.9c-2,0-3.6,1.6-3.6,3.6
		v9.6h-1.5v-9.6c0-2.7,2.2-5,5-5h5.9V7.2h-13V5.8h13V1H467.4z M484.2,42h5c2,0,3.3-1.6,3.3-3.6V1h1.5v37.4c0,2.8-2.1,5-4.8,5h-5V42z
		 M485.9,3.8v32.9h-1.5V3.8H485.9z"/>
	<path class="st0" d="M505.5,28.7l-5.7,14.8l-1.4-0.6l5.7-14.7L505.5,28.7z M503.2,2.1v8.9h-1.4V2.1H503.2z M503.2,15.1V24h-1.4
		v-8.9H503.2z M506.9,24.5h7.3v-3.4h1.5v3.4h8.2v1.5h-11.6V27c0,1.1,0,2.1-0.1,3.2h5.9c2.3,0,4.1,1.8,4.1,4.2v4.3
		c0,2.3-1.8,4.2-4.1,4.2h-2.6v-1.5h2.6c1.5,0,2.7-1.2,2.7-2.7v-4.3c0-1.5-1.1-2.7-2.7-2.7H512c-0.4,3.4-1.5,7.2-4.3,11.6l-1.2-0.8
		c3.9-6.2,4.2-11.2,4.2-15.5v-1.1h-3.9V24.5z M515.6,1.2v3.9h3.2c1.8,0,3.3,1.6,3.3,3.3v9.3c0,1.8-1.5,3.3-3.3,3.3h-6.9
		c-1.8,0-3.3-1.5-3.3-3.3V8.3c0-1.7,1.5-3.3,3.3-3.3h2.2V1.2H515.6z M511.9,6.6c-1.1,0-1.8,0.8-1.8,1.8v3.9h10.6V8.3
		c0-1-0.8-1.8-1.8-1.8H511.9z M520.6,17.7v-3.9h-10.6v3.9c0,1.1,0.8,1.8,1.8,1.8h6.9C519.9,19.5,520.6,18.7,520.6,17.7z M527.2,12.6
		l5.7,14c1.7-5,2.7-10.5,3.4-16.7H526l2.2-8.6l1.4,0.4l-1.8,6.7h12.7v1.5h-2.7c-0.7,7.1-2,13.2-4,18.7l5.8,14.2l-1.4,0.6L533,30.7
		c-1.9,4.7-4.5,8.9-7.7,12.8l-1.1-1c3.5-4.1,6.1-8.7,8-13.8l-6.4-15.6L527.2,12.6z"/>
	<path class="st0" d="M551.2,34.3l-3.1,9.4l-1.4-0.4l3.1-9.4L551.2,34.3z"/>
	<path class="st0" d="M590.7,4.1h12.9v1.5h-5.7v15.2h5.5v1.5h-5.5v15.3l6.4-1.6l0.3,1.5l-14.5,3.5l-0.3-1.5l6.6-1.6V22.2h-5.5v-1.5
		h5.5V5.5h-5.7V4.1z M632.6,42.9h-4.1c-2.8,0-5-2.2-5-5V18.4h-9.9v1c0,13.5-2.5,18-7.8,23.9l-1.1-1c5-5.6,7.5-9.9,7.5-22.9v-1h-6.7
		v-1.5h26.5v1.5h-7v19.5c0,2,1.6,3.6,3.6,3.6h4.1V42.9z M607.1,3.1h23.1v1.5h-23.1V3.1z"/>
	<path class="st0" d="M643.3,6.9c-0.6,15.9-2.2,26.7-4.2,35.5l-1.5-0.4c2-8.8,3.6-19.5,4.2-35.2L643.3,6.9z M670.6,42.2h-16.9
		c-2.8,0-5-2.2-5-5V1.8h1.5v35.3c0,2,1.6,3.6,3.6,3.6h16.9V42.2z M660.7,3.8l4,27.6l-1.5,0.2l-4-27.6L660.7,3.8z M674.2,6.8
		l2.4,35.9l-1.5,0.1l-2.4-35.9L674.2,6.8z"/>
	<path class="st0" d="M685.5,22.8v17.8l5.3-1.3V18.8h-3.9c-1.8,0-3.3-1.5-3.3-3.3V6c0-1.8,1.5-3.3,3.3-3.3h7.1
		c1.8,0,3.3,1.4,3.3,3.3v9.4c0,1.8-1.4,3.3-3.3,3.3h-1.7v7.1h6.4v1.5h-6.4V39l5.7-1.4l0.3,1.5l-16.6,4l-0.4-1.5l2.6-0.6V22.8H685.5z
		 M686.9,4.2c-1.1,0-1.8,0.8-1.8,1.8v9.4c0,1.1,0.8,1.9,1.8,1.9h7.1c1,0,1.8-0.8,1.8-1.9V6c0-1.1-0.8-1.8-1.8-1.8H686.9z M709.5,1
		v25.1c0,9.5-2.2,13.7-10,17.1l-0.6-1.4c7.2-3.1,9.1-7,9.1-15.7V1H709.5z M703.5,3.9V17h-1.5V3.9H703.5z M703.5,21.1v13.1h-1.5V21.1
		H703.5z M724.6,43h-3.5c-3,0-5.5-2.2-5.5-5V1h1.5V38c0,2,1.8,3.6,4,3.6h3.5V43z M723.1,3.9V17h-1.5V3.9H723.1z M723.1,21.1v13.1
		h-1.5V21.1H723.1z"/>
</g>
</svg>
