<!-- Generator: Adobe Illustrator 20.1.0, SVG Export Plug-In  -->
<svg version="1.1"
	 xmlns="http://www.w3.org/2000/svg" xmlns:xlink="http://www.w3.org/1999/xlink" xmlns:a="http://ns.adobe.com/AdobeSVGViewerExtensions/3.0/"
	 x="0px" y="0px" width="80px" height="44px" viewBox="0 0 80 44" style="enable-background:new 0 0 80 44;" xml:space="preserve">
<style type="text/css">
	.st0{opacity:0.2;}
	.st1{fill:#E0995E;}
</style>
<defs>
</defs>
<g class="st0">
	<g>
		<path d="M58,44c-2.2,0-4-1.8-4-4s1.8-4,4-4c6.4,0,14-11,14-17.9c0-5.4,0-6.1-8-6.1H16c-8,0-8,0.7-8,6.1C8,25,15.6,36,22,36
			c2.2,0,4,1.8,4,4s-1.8,4-4,4C10.9,44,0,29.2,0,18.1C0,5.1,7.6,4,16,4h48c8.4,0,16,1.1,16,14.1C80,29.2,69.1,44,58,44z"/>
	</g>
</g>
<g>
	<path class="st1" d="M58,40c-2.2,0-4-1.8-4-4s1.8-4,4-4c6.4,0,14-11,14-17.9C72,8.7,72,8,64,8H16c-8,0-8,0.7-8,6.1
		C8,21,15.6,32,22,32c2.2,0,4,1.8,4,4s-1.8,4-4,4C10.9,40,0,25.2,0,14.1C0,1.1,7.6,0,16,0h48c8.4,0,16,1.1,16,14.1
		C80,25.2,69.1,40,58,40z"/>
</g>
</svg>
