<svg xmlns="http://www.w3.org/2000/svg" viewBox="0 0 100 100"><defs><style>.cls-1{fill:#fff;}.cls-2{fill:#7d7d7d;}</style></defs><title>i</title><g id="图层_2" data-name="图层 2"><g id="图层_1-2" data-name="图层 1"><circle class="cls-1" cx="50" cy="50" r="50"/><path class="cls-2" d="M73.64,58.66A18.91,18.91,0,0,1,72.4,48,16.4,16.4,0,0,1,81,36.08a19.18,19.18,0,0,0-14.43-8.6C61.45,27,54.24,31,50.32,31h-.1C46.3,31,39.1,27,34,27.49a21.7,21.7,0,0,0-15.6,9.77A25.72,25.72,0,0,0,14.78,48a38.77,38.77,0,0,0-.27,5.21,42.26,42.26,0,0,0,.43,5.49,45.92,45.92,0,0,0,2.92,10.7,48.64,48.64,0,0,0,5.31,9.73c4.37,6.18,9.31,9.75,12.1,9.82C41,89,46,85.17,50.09,85.27h.36c4.11-.11,9.09,3.77,14.82,3.64,2.78-.06,7.73-3.64,12.1-9.82a48.78,48.78,0,0,0,5.31-9.73q.33-.82.64-1.66A16,16,0,0,1,73.64,58.66Z"/><path class="cls-2" d="M60.33,22c4.4-5.21,4.23-12.71,3.83-13S56.49,10,52,15s-4.23,12.71-3.83,13S55.94,27.24,60.33,22Z"/></g></g></svg>