<svg id="图层_1" data-name="图层 1" xmlns="http://www.w3.org/2000/svg" viewBox="0 0 474.48 34.69"><defs><style>.cls-1{fill:#bce534;}.cls-2{fill:#99be2a;}.cls-3{fill:#78716c;}</style></defs><path class="cls-1" d="M629.93,362c93,0,86.9,34.69,237.24,34.69H392.69C543,396.7,536.95,362,629.93,362Z" transform="translate(-392.69 -362.01)"/><path class="cls-2" d="M392.69,396.7C543,396.7,536.95,362,629.93,362V396.7Z" transform="translate(-392.69 -362.01)"/><path class="cls-3" d="M568.38,388.54a7.72,7.72,0,0,0-7.72,7.72H576.1A7.72,7.72,0,0,0,568.38,388.54Z" transform="translate(-392.69 -362.01)"/><path class="cls-3" d="M706.49,390.36a5.9,5.9,0,0,0-5.9,5.9h11.79A5.9,5.9,0,0,0,706.49,390.36Z" transform="translate(-392.69 -362.01)"/><path class="cls-3" d="M719.43,390.36a5.9,5.9,0,0,0-5.9,5.9h11.79A5.9,5.9,0,0,0,719.43,390.36Z" transform="translate(-392.69 -362.01)"/></svg>