<svg id="图层_1" data-name="图层 1" xmlns="http://www.w3.org/2000/svg" viewBox="0 0 38.28 29.86"><defs><style>.cls-1{fill:#af6e43;}.cls-2{fill:#c69b73;}.cls-3{fill:#784f27;}.cls-4{fill:#ad8463;}.cls-5{fill:#f7dfb8;}.cls-6{fill:#58595b;}.cls-7{fill:#fff;}</style></defs><path class="cls-1" d="M673.73,375.32a5.83,5.83,0,0,1,2.84-.87c1.57,0,4,1.57,4.1,5.61l.09,5.28-3.72.06a35.2,35.2,0,0,0,.43-5.9c-.1-2.67-.71-4.42-3.72-3.29S673.73,375.32,673.73,375.32Z" transform="translate(-642.48 -366.67)"/><path class="cls-1" d="M648.72,373.24l-.11-6.57s13.14-.21,13.3,9.55S648.79,377.46,648.72,373.24Z" transform="translate(-642.48 -366.67)"/><rect class="cls-2" x="658.23" y="384.89" width="1.77" height="11.54" transform="translate(-648.75 -355.88) rotate(-0.93)"/><rect class="cls-2" x="653.24" y="382.55" width="1.77" height="13.96" transform="translate(-648.71 -356) rotate(-0.93)"/><rect class="cls-3" x="653.34" y="395.52" width="1.77" height="0.99" transform="translate(-648.82 -355.99) rotate(-0.93)"/><rect class="cls-3" x="658.31" y="395.44" width="1.77" height="0.99" transform="translate(-648.86 -355.83) rotate(-0.94)"/><rect class="cls-2" x="673.22" y="383.38" width="1.77" height="12.81" transform="translate(-648.71 -355.68) rotate(-0.93)"/><rect class="cls-3" x="673.32" y="395.12" width="1.77" height="1.07" transform="translate(-648.82 -355.65) rotate(-0.93)"/><rect class="cls-2" x="668.95" y="383.45" width="1.77" height="12.81" transform="matrix(1, -0.02, 0.02, 1, -648.74, -355.7)"/><rect class="cls-3" x="669.05" y="395.19" width="1.77" height="1.07" transform="translate(-648.83 -355.72) rotate(-0.93)"/><path class="cls-4" d="M675.72,382.05a3.32,3.32,0,0,1-3.48,3.1l-16.83,2.28a3.32,3.32,0,0,1-3.58-3l-.13-7.87a3.32,3.32,0,0,1,3.48-3.1l16.86-.27a3.32,3.32,0,0,1,3.58,3Z" transform="translate(-642.48 -366.67)"/><path class="cls-5" d="M649.44,375.53a8,8,0,0,0-3.24-3.85,3.41,3.41,0,0,0-3.72-.19,8,8,0,0,0,3.24,3.85A3.41,3.41,0,0,0,649.44,375.53Z" transform="translate(-642.48 -366.67)"/><path class="cls-2" d="M646.2,371.68a8,8,0,0,1,3.24,3.85l-7-4A3.41,3.41,0,0,1,646.2,371.68Z" transform="translate(-642.48 -366.67)"/><path class="cls-2" d="M654.23,375.45a8,8,0,0,1,3.11-4,3.41,3.41,0,0,1,3.71-.31,8,8,0,0,1-3.11,4A3.41,3.41,0,0,1,654.23,375.45Z" transform="translate(-642.48 -366.67)"/><path class="cls-4" d="M657.34,371.49a8,8,0,0,0-3.11,4l6.82-4.27A3.41,3.41,0,0,0,657.34,371.49Z" transform="translate(-642.48 -366.67)"/><path class="cls-5" d="M651.77,371.73l-1.91,0a4.19,4.19,0,0,0-4.12,4.25l1.63,7.36c.48,2.66,1.94,4.16,4.25,4.12h.4Z" transform="translate(-642.48 -366.67)"/><path class="cls-2" d="M651.77,371.73l1.91,0a4.19,4.19,0,0,1,4.25,4.12l-1.39,7.41c-.39,2.68-1.81,4.22-4.12,4.25H652Z" transform="translate(-642.48 -366.67)"/><circle class="cls-6" cx="649.78" cy="376.58" r="0.88" transform="translate(-648.53 -356.02) rotate(-0.93)"/><circle class="cls-6" cx="653.92" cy="376.52" r="0.88" transform="matrix(1, -0.02, 0.02, 1, -648.51, -356)"/><path class="cls-7" d="M647.61,384.36a4,4,0,0,0,4,3.14h.4l-.08-4.72A6,6,0,0,0,647.61,384.36Z" transform="translate(-642.48 -366.67)"/><path class="cls-5" d="M652.05,382.76H652l.08,4.72h.4c2.06,0,3.41-1.27,4-3.43A6.4,6.4,0,0,0,652.05,382.76Z" transform="translate(-642.48 -366.67)"/><circle class="cls-6" cx="650.48" cy="385.15" r="0.67" transform="translate(-648.64 -356.06) rotate(-0.93)"/><circle class="cls-6" cx="653.62" cy="385.1" r="0.67" transform="translate(-648.67 -355.96) rotate(-0.93)"/></svg>