<svg id="图层_1" data-name="图层 1" xmlns="http://www.w3.org/2000/svg" viewBox="0 0 19.33 17.17"><defs><style>.cls-1{fill:#c69b73;}.cls-2{fill:#784f27;}.cls-3{fill:#fff;}.cls-4{fill:#f7dfb8;}.cls-5{fill:#ad8463;}.cls-6{fill:#58595b;}</style></defs><rect class="cls-1" x="219.91" y="361.13" width="2.64" height="0.84" transform="translate(-378.76 188.83) rotate(-82.77)"/><rect class="cls-2" x="220.86" y="362.2" width="0.47" height="0.84" transform="translate(-379.95 189.64) rotate(-82.77)"/><rect class="cls-1" x="217.33" y="360.56" width="3.19" height="0.84" transform="translate(-380.21 186.05) rotate(-82.77)"/><rect class="cls-2" x="218.52" y="361.91" width="0.47" height="0.84" transform="matrix(0.13, -0.99, 0.99, 0.13, -381.69, 187.08)"/><rect class="cls-1" x="226.06" y="360.6" width="5.62" height="0.84" transform="translate(-371.56 195.94) rotate(-82.77)"/><rect class="cls-2" x="228.31" y="363.15" width="0.47" height="0.84" transform="translate(-374.41 197.78) rotate(-82.76)"/><rect class="cls-1" x="224.06" y="360.34" width="5.62" height="0.84" transform="matrix(0.13, -0.99, 0.99, 0.13, -373.06, 193.73)"/><rect class="cls-2" x="226.31" y="362.9" width="0.47" height="0.84" transform="matrix(0.13, -0.99, 0.99, 0.13, -375.86, 195.67)"/><path class="cls-3" d="M232.76,355.81a1.76,1.76,0,0,0-.72-1.63,2.52,2.52,0,0,0,.75-1.48,2.52,2.52,0,0,0-3.06-2.8,3.3,3.3,0,0,0-2.81-2.69,3.25,3.25,0,0,0-1.87.32,4.64,4.64,0,0,0-2.07-.81,4.68,4.68,0,0,0-2.46,8.94v0a2.47,2.47,0,1,0,1.7,4.43,2,2,0,0,0,3.72-.21,3.14,3.14,0,0,0,5.18-2.59A1.76,1.76,0,0,0,232.76,355.81Z" transform="translate(-213.48 -346.69)"/><path class="cls-4" d="M218.73,351.09a5.72,5.72,0,0,1-2.6,2.48,2.44,2.44,0,0,1-2.66-.15,5.72,5.72,0,0,1,2.6-2.48A2.44,2.44,0,0,1,218.73,351.09Z" transform="translate(-213.48 -346.69)"/><path class="cls-1" d="M216.13,353.57a5.72,5.72,0,0,0,2.6-2.48l-5.25,2.32A2.44,2.44,0,0,0,216.13,353.57Z" transform="translate(-213.48 -346.69)"/><path class="cls-1" d="M222.12,351.52a5.72,5.72,0,0,0,1.9,3,2.44,2.44,0,0,0,2.61.51,5.72,5.72,0,0,0-1.9-3A2.44,2.44,0,0,0,222.12,351.52Z" transform="translate(-213.48 -346.69)"/><path class="cls-5" d="M224,354.57a5.72,5.72,0,0,1-1.9-3l4.51,3.56A2.44,2.44,0,0,1,224,354.57Z" transform="translate(-213.48 -346.69)"/><ellipse class="cls-4" cx="220.09" cy="353.94" rx="4.89" ry="4.17" transform="matrix(0.13, -0.99, 0.99, 0.13, -372.22, 181.05)"/><path class="cls-1" d="M224.23,354.47c.34-2.68-1.24-5.09-3.52-5.38l-1.23,9.7C221.76,359.08,223.89,357.15,224.23,354.47Z" transform="translate(-213.48 -346.69)"/><circle class="cls-6" cx="218.77" cy="354.82" r="0.51" transform="translate(-374.25 180.47) rotate(-82.76)"/><circle class="cls-6" cx="221.15" cy="355.12" r="0.51" transform="translate(-372.45 183.14) rotate(-82.77)"/></svg>