<svg id="图层_1" data-name="图层 1" xmlns="http://www.w3.org/2000/svg" viewBox="0 0 237.53 134.89"><defs><style>.cls-1{fill:#97a1a4;}.cls-2{fill:#667d74;}.cls-3{fill:#fff;}.cls-4{fill:#c7cfce;}</style></defs><polygon class="cls-1" points="237.53 134.89 118.76 0 0 134.89 237.53 134.89"/><polygon class="cls-2" points="0 134.89 118.76 0 118.76 134.89 0 134.89"/><path class="cls-3" d="M744.6,287.46c-2.46,2.44-8.11,6.84-10.82,5.13s-2.46-4.64-6.88-3.42c-2.71.75-5.14,2.68-7.74,3l29.63-33.65,28.19,32a22.29,22.29,0,0,0-6.56,1.53c-6.39,2.69-12.29,1.48-17,0S747.06,285,744.6,287.46Z" transform="translate(-630.02 -258.55)"/><path class="cls-4" d="M733.79,292.59c-2.7-1.71-2.46-4.64-6.88-3.42-2.71.75-5.14,2.68-7.74,3l29.63-33.65v30.33c-1.61-1.59-2.78-2.82-4.18-1.42C742.15,289.9,736.49,294.3,733.79,292.59Z" transform="translate(-630.02 -258.55)"/></svg>