<svg id="图层_1" data-name="图层 1" xmlns="http://www.w3.org/2000/svg" viewBox="0 0 67.57 36.61"><defs><style>.cls-1{fill:#a7dae9;}.cls-2{fill:#8ec3d7;}</style></defs><path class="cls-1" d="M222.56,197.14h52.05c4.23,0,9.55-3.46,9.55-7.85a11.09,11.09,0,0,0-9.2-11.37s.68-5-4.74-7.71-11.5-.95-11.5-.95-.92-8.73-11.23-8.73c-10.57,0-11.1,9.13-11.1,9.13s-5.28-2-10.42,3-2.59,9.42-2.59,9.42-6.78,2.27-6.78,9.05C216.59,193.48,218.86,197.14,222.56,197.14Z" transform="translate(-216.59 -160.53)"/><path class="cls-2" d="M275,177.92s.68-5-4.74-7.71-11.5-.95-11.5-.95a10.11,10.11,0,0,0-8.34-8.45v36.33h24.23c4.23,0,9.55-3.46,9.55-7.85A11.09,11.09,0,0,0,275,177.92Z" transform="translate(-216.59 -160.53)"/></svg>