<svg xmlns="http://www.w3.org/2000/svg" viewBox="0 0 824.02 45.03"><defs><style>.cls-1{fill:#fff;}</style></defs><title>Pasted28</title><g id="图层_2" data-name="图层 2"><g id="图层_1-2" data-name="图层 1"><path class="cls-1" d="M43.06,35.86H32.26l10.42,7.06-.91,1.3L29.57,35.86H13.44A45.64,45.64,0,0,1,.86,44.07L.24,42.63a44.25,44.25,0,0,0,10.94-6.77H0V34.32H5.14V13.92A4.32,4.32,0,0,1,9.5,9.55H20.74V4.7H1.1V3.17H20.74V0h1.54V3.17H42V4.7H22.27V9.55H33.55a4.32,4.32,0,0,1,4.37,4.37v20.4h5.14ZM6.67,15.55H36.39V13.92a2.81,2.81,0,0,0-2.83-2.83H9.5a2.81,2.81,0,0,0-2.83,2.83Zm0,6.24H36.39v-4.7H6.67Zm0,6.24H36.39v-4.7H6.67Zm0,6.29H36.39V29.57H6.67Z"/><path class="cls-1" d="M49.39,3.7H91.16V5.23H70.61V21.12H89.48v1.54H70.61V42.53H91.16v1.54H47.9V42.53h6.91V13.15h1.54V42.53H69.07V5.23H49.39Z"/><path class="cls-1" d="M118.32,0V4h20.93V5.57H95.86V4h20.93V0ZM98.06,45V28.75a5.33,5.33,0,0,1,5.28-5.28h29a5.39,5.39,0,0,1,5.28,5.28v10.9a5.33,5.33,0,0,1-5.28,5.28h-2.21V43.4h2.21a3.69,3.69,0,0,0,3.74-3.74V28.75A3.69,3.69,0,0,0,132.34,25h-29a3.72,3.72,0,0,0-3.74,3.74V45Zm35.72-29a3.52,3.52,0,0,1-3.55,3.46H104.83A3.53,3.53,0,0,1,101.28,16V13a3.53,3.53,0,0,1,3.55-3.5h25.39a3.47,3.47,0,0,1,3.55,3.5Zm-1.54-3a2,2,0,0,0-2-2H104.83a2,2,0,0,0-2,2v3a1.92,1.92,0,0,0,2,1.92h25.39a1.92,1.92,0,0,0,2-1.92Zm-1.92,23.47a3.57,3.57,0,0,1-3.55,3.5H108.91a3.57,3.57,0,0,1-3.55-3.5V32.69a3.57,3.57,0,0,1,3.55-3.5h17.86a3.57,3.57,0,0,1,3.55,3.5Zm-1.54-3.79a2,2,0,0,0-2-2H108.91a2,2,0,0,0-2,2v3.79a2,2,0,0,0,2,2h17.86a2,2,0,0,0,2-2Z"/><path class="cls-1" d="M154.61,42.34h7.92a3.67,3.67,0,0,0,3.7-3.7V30.39H143.76V28.9h22.47V18.39h-21V16.85h21V4.9l-19,.72-.1-1.54,37.68-1.49.1,1.54-17.19.67v12h18.53v1.54H167.76V28.9H187.3v1.49H167.76v8.26a5.24,5.24,0,0,1-5.23,5.23h-7.92Z"/><path class="cls-1" d="M227.14,32.11H192.82V30.58h34.32Zm7.1-24.53H199.49l-1.58,12h30a5.33,5.33,0,0,1,5.28,5.28V37.88a5.33,5.33,0,0,1-5.28,5.28h-20.4V41.62h20.4a3.75,3.75,0,0,0,3.74-3.74V24.82a3.72,3.72,0,0,0-3.74-3.74H196.08L198.82.82l1.54.19-.67,5h34.56Z"/><path class="cls-1" d="M240.48,10.42l8.64-8.16V44.74h-1.49v-39l-6,5.76Zm19.39,7.68a124.68,124.68,0,0,1-4.46,25.59L254,43.2A115.91,115.91,0,0,0,258.34,18Zm.91-17-2.16,5.81h24L278.93,15l-1.34-.62,2.74-5.9H256.47L259.35.53Zm1.25,42h2.16a3.68,3.68,0,0,0,3.74-3.7V12.77h1.54V39.36a5.26,5.26,0,0,1-5.28,5.23H262Zm15.7-25.44,4.8,25.78-1.54.29-4.8-25.83Z"/><path class="cls-1" d="M328.71,32.26l-3.55-5.62a5,5,0,0,0-4.51-2.5H298.51a5,5,0,0,0-4.56,2.5l-3.55,5.62-1.25-.82,3.5-5.62a6.8,6.8,0,0,1,5.86-3.22h22.13a6.72,6.72,0,0,1,5.81,3.22l3.5,5.62ZM289.34,1.2h40.42V2.69H310.32v4H326a3.38,3.38,0,0,1,3.46,3.46V20.74h-1.54V10.13A1.87,1.87,0,0,0,326,8.21h-15.7V21h-1.54V8.21H293.14a1.91,1.91,0,0,0-2,1.92V20.74h-1.54V10.13a3.45,3.45,0,0,1,3.5-3.46h15.65v-4H289.34Zm4,30.58h15.41V26.5h1.54v5.28h14.5c-.14,3.22-7,6.58-14.26,8.35l10.61,2.45-.38,1.49-26.64-6.14.34-1.54L307,39.31c6.82-1.2,13.3-3.7,15-6H293.38Zm.91-19.92h11.14v1.54H294.29Zm0,5.14h11.14v1.49H294.29Zm19.39-5.14h11.14v1.54H313.68Zm0,5.14h11.14v1.49H313.68Z"/><path class="cls-1" d="M339.5,22.8V41.33L345,40V18.53H340.9a3.51,3.51,0,0,1-3.46-3.5V5.23a3.5,3.5,0,0,1,3.46-3.46h7.34a3.51,3.51,0,0,1,3.5,3.46V15a3.52,3.52,0,0,1-3.5,3.5h-1.68V26h6.67v1.54h-6.67v12.1l6-1.49.34,1.54-17.38,4.22-.34-1.54,2.78-.67V22.8ZM340.9,3.31A1.87,1.87,0,0,0,339,5.23V15a1.91,1.91,0,0,0,1.92,2h7.34a2,2,0,0,0,2-2V5.23a1.91,1.91,0,0,0-2-1.92Zm39,40.76H361.68a5.26,5.26,0,0,1-5.28-5.28V7.3A5.33,5.33,0,0,1,361.68,2h18.24V3.55H361.68a3.75,3.75,0,0,0-3.74,3.74v6.62H374a4.28,4.28,0,0,1,4.37,4.32v8.45A4.32,4.32,0,0,1,374,31.06H357.94v7.73a3.75,3.75,0,0,0,3.74,3.74h18.24Zm-22-28.61V29.52H374a2.81,2.81,0,0,0,2.83-2.83V18.24A2.77,2.77,0,0,0,374,15.46Z"/><path class="cls-1" d="M383.86,4.18h20.93V0h1.54V4.18h20.93V5.71h-43.4Zm39.27,4.66v9a4.33,4.33,0,0,1-4.42,4.37H403.59l-1.68,4.42h17.57a5.32,5.32,0,0,1,5.23,5.28v7.54a5.25,5.25,0,0,1-5.23,5.28h-3.26V43.2h3.26a3.72,3.72,0,0,0,3.75-3.74V31.92a3.75,3.75,0,0,0-3.75-3.74H401.33l-3.89,10.37h13.44a2.85,2.85,0,0,0,2.83-2.88V32.59h1.54v3.07a4.34,4.34,0,0,1-4.37,4.42H395.23l4.46-11.91h-8.06a3.75,3.75,0,0,0-3.74,3.74v13h-1.54v-13a5.33,5.33,0,0,1,5.28-5.28h8.64L402,22.23H392.4A4.42,4.42,0,0,1,388,17.86v-9h1.54v9a2.84,2.84,0,0,0,2.83,2.83h26.31a2.85,2.85,0,0,0,2.88-2.83v-9Zm-28.42-.58,11.91,4.13a76.66,76.66,0,0,0,10.27-4.32l.72,1.34a94.77,94.77,0,0,1-8.69,3.79l9.6,3.31L417.94,18,406.56,14a112,112,0,0,1-13,3.7l-.38-1.54c3.94-.91,7.58-1.87,11-3L394.18,9.7Z"/><path class="cls-1" d="M441.12,29l-7.87,15.55-1.34-.72,7.87-15.55ZM436.7,1.1v9.22h-1.54V1.1Zm0,13.63V24h-1.54V14.74ZM463,42.44h6.91a3.72,3.72,0,0,0,3.75-3.74V11.47a3.72,3.72,0,0,0-3.75-3.74H444.34L447.75.48l1.34.62-2.4,5.09h23.23a5.39,5.39,0,0,1,5.28,5.28V38.69A5.33,5.33,0,0,1,469.92,44H463ZM465.7,24v7.06a5.33,5.33,0,0,1-5.28,5.28H445.25l7.58-24.87,1.44.43-7,22.9h13.1a3.75,3.75,0,0,0,3.75-3.74V24Z"/><path class="cls-1" d="M483.22.86V9.31h-1.54V.86Zm38.16,43H487a5.27,5.27,0,0,1-5.28-5.28V12.43h1.54V38.6A3.72,3.72,0,0,0,487,42.34h34.42ZM495.27,6.19l3.12,6H511.2l3.55-8.69H490.9V2H517l-4.18,10.22h1.1a5.23,5.23,0,0,1,5.28,5.23V33.84a5.27,5.27,0,0,1-5.28,5.28h-2V37.59h2a3.72,3.72,0,0,0,3.75-3.74V31.25H505.3v8.16h-1.54V31.25H491.47v7.87h-1.54V17.47a5.23,5.23,0,0,1,5.28-5.23h1.44L493.92,7Zm-3.79,14.88h12.29V13.73h-8.54a3.72,3.72,0,0,0-3.75,3.74Zm0,8.64h12.29v-7.1H491.47Zm13.83-16v7.34h12.39v-3.6a3.69,3.69,0,0,0-3.75-3.74Zm0,16h12.39v-7.1H505.3Z"/><path class="cls-1" d="M554.54,42.87H539.71V41.33h14.83Zm-1.78-29.52-9.17,19.3h10v1.54H541.3l6.34-13.49H541L549.55.82l1.44.62-7.63,17.71h5l3.07-6.43ZM556.46,6h13.2V0h1.54V6h13.15V7.54H571.2v10.8h12.43v1.54H557.18V18.34h12.48V7.54h-13.2Zm6.19,38a4.42,4.42,0,0,1-4.37-4.37V28.23a4.42,4.42,0,0,1,4.37-4.37h15.55a4.51,4.51,0,0,1,4.37,4.37V39.65A4.51,4.51,0,0,1,578.21,44Zm15.55-1.54A2.84,2.84,0,0,0,581,39.65V28.23a2.84,2.84,0,0,0-2.83-2.83H562.66a2.81,2.81,0,0,0-2.83,2.83V39.65a2.81,2.81,0,0,0,2.83,2.83Z"/><path class="cls-1" d="M610.8.14V5h21.41V6.53H587.86V5h21.41V.14ZM622.51,9.6l8.26,13.63-1.34.82-4.75-7.82A128.8,128.8,0,0,1,613,28.47L631.2,42.63l-.91,1.15L611.81,29.47a76.64,76.64,0,0,1-23.14,14.45l-.53-1.49a74.14,74.14,0,0,0,22.42-13.92L595.49,16.8a50.72,50.72,0,0,1-5.86,7.1l-1.06-1.06a55,55,0,0,0,9.55-13.44l1.34.72c-1,1.92-2.06,3.7-3.17,5.38l15.41,12a126.94,126.94,0,0,0,12.1-12.72l-2.64-4.37Z"/><path class="cls-1" d="M636.72,2.26h42.15V3.79H659.19V8.74h11.67A5.39,5.39,0,0,1,676.13,14v9.84a5.33,5.33,0,0,1-5.28,5.28H658.66a14.91,14.91,0,0,1-3.41,7.1L680,42.39l-.38,1.44L654,37.49c-3.79,3.41-9.75,5.33-17.81,6.48L636,42.44c7.06-1,12.38-2.64,16-5.42l-15-3.74.34-1.49,16,4a14.2,14.2,0,0,0,3.65-6.62H646a5.26,5.26,0,0,1-5.23-5.28V14A5.32,5.32,0,0,1,646,8.74h11.67V3.79H636.72Zm5.57,16h15.36v-8H646a3.71,3.71,0,0,0-3.7,3.74Zm15.07,9.31a23,23,0,0,0,.29-3.79v-4H642.29v4A3.71,3.71,0,0,0,646,27.6Zm17.23-3.74v-4H659.19v4a30.76,30.76,0,0,1-.24,3.79h11.91A3.75,3.75,0,0,0,674.59,23.86ZM659.19,10.27v8h15.41V14a3.75,3.75,0,0,0-3.74-3.74Z"/><path class="cls-1" d="M685.73,19.49c2.69,0,5.18,0,7.54,0,21.75,0,28.9-2.35,31.2-13h-34.8L691.87.43l1.44.53L691.82,5h34.51c-2.5,13-9.6,16-33.07,16-2.35,0-4.85,0-7.54,0Zm0,22.71c2.54,0,4.85.1,7.1.1,22.42,0,29.43-2.35,31.63-14.55H689.71l2.16-6.62,1.44.48-1.54,4.61h34.51c-2.3,14.35-9.75,17.62-33.46,17.62-2.26,0-4.56,0-7.1-.1ZM689.09,12h28.32v1.54H689.09Zm0,21.94h28.32v1.54H689.09Z"/><path class="cls-1" d="M732.1,44.79l1.63-39.17A4.54,4.54,0,0,1,738.1,1.3h5.67a4.42,4.42,0,0,1,4.37,4.37V40.18a4.44,4.44,0,0,1-1.25,3.07,4.28,4.28,0,0,1-3.12,1.3l-2.21,0V43l2.21,0a2.61,2.61,0,0,0,2-.86,2.72,2.72,0,0,0,.82-2V30.39H734.21l-.58,14.5Zm2.21-15.94h12.29v-12H734.78Zm.58-13.58h11.71V5.66a2.81,2.81,0,0,0-2.83-2.83H738.1a2.85,2.85,0,0,0-2.83,2.88Zm18.48,9.65L764.31,34a36.67,36.67,0,0,0,7.49-11.33H752.5V21.17h21.55A42,42,0,0,1,765.46,35l10,8.3-1,1.15L764.4,36.1a52,52,0,0,1-12.1,8.45l-.72-1.34a53.39,53.39,0,0,0,11.62-8.11l-10.85-9ZM776,16.85h-.91a5.1,5.1,0,0,1-4.9-5.28V6.43a3.6,3.6,0,0,0-3.46-3.74h-7.39c-1.92,0-3.07,1.82-3.41,3.89l-1.92,11-1.54-.24,1.92-11c.38-2.74,2.3-5.14,4.94-5.14h7.39a5.21,5.21,0,0,1,5,5.28v5.14a3.56,3.56,0,0,0,3.36,3.74H776Z"/><path class="cls-1" d="M789.17,44.84V11.52H780V10h19v1.54H790.7V44.84Zm-7.39-.34a152.55,152.55,0,0,0,1.78-25.15c0-1.34,0-2.69,0-4.18H785c0,1.49,0,2.83,0,4.18a154.48,154.48,0,0,1-1.78,25.39ZM798.38,3.6H781.92V2.06h16.46Zm-2.59,41.28-.91-29.67,1.49-.1,1,29.67Zm16.18,0V37.35h-5.62a5.1,5.1,0,0,1-4.9-5.28V11.9a5.16,5.16,0,0,1,4.9-5.28H812V0h1.54V6.62h5.57A5.17,5.17,0,0,1,824,11.9V32.07a5.11,5.11,0,0,1-4.94,5.28h-5.57v7.58Zm-9-23.52h9V8.16h-5.62A3.56,3.56,0,0,0,803,11.9Zm3.36,14.4H812V22.9h-9v9.17A3.53,3.53,0,0,0,806.35,35.81Zm7.15-27.65V21.41h9V11.9a3.57,3.57,0,0,0-3.41-3.74Zm9,23.91V22.9h-9V35.81h5.57A3.54,3.54,0,0,0,822.48,32.07Z"/></g></g></svg>