<svg id="图层_1" data-name="图层 1" xmlns="http://www.w3.org/2000/svg" viewBox="0 0 375.75 87.38"><defs><style>.cls-1{fill:#fff;}</style></defs><path class="cls-1" d="M454,1097.25h16.13v-15.37H472v15.38h15v1.88H472v37.13h-1.87v-33a87,87,0,0,1-16.87,26.63l-1.12-1.5a81.18,81.18,0,0,0,17.63-29.25H454Zm-1.87,64.5a120.93,120.93,0,0,0,11.63-19.5l1.88.75a126.21,126.21,0,0,1-12,19.88Zm21.75-51,1.13-1.5,12,10.13-1.12,1.5Zm1.88,31.13h1.88v14.25q-.38,7.88,9,7.88h19.5q10.13.37,10.88-6a62.26,62.26,0,0,0,.75-8.25h1.88a63.66,63.66,0,0,1-.75,8.63q-1.5,7.5-12.75,7.5h-19.5q-10.88,0-10.87-9.75Zm15-2.25,1.5-1.12,11.25,12.38-1.12,1.13Zm1.5-51H533.5v45H492.25Zm39.38,1.5H493.75v12.75h37.88Zm-37.87,14.63v12.75h37.88v-12.75Zm0,27.38h37.88V1119H493.75ZM524.88,1143l1.5-1.12q1.13,1.88,4.5,6.38,6.37,8.63,9,12l-1.5.75Q529,1148.63,524.88,1143Z" transform="translate(-452.13 -1081.88)"/><path class="cls-1" d="M554.88,1129.13h17.25V1161q.37,6.75-6.75,6.38h-5.62v-1.87h5.63q5.25.37,4.88-4.5v-7.5H556.38a26.75,26.75,0,0,1-7.12,15.75l-1.5-1.5q8.24-6.38,7.13-22.5Zm33.75-46.5,1.5-.75,4.88,9.75h39.75v1.88H560.88v8.63h65.25V1104H559v-10.5H548.13v-1.87h45Zm-31.87,62.63a24,24,0,0,1-.37,3.75v3h13.88v-9.37h-13.5Zm0-14.25v9.75h13.5V1131Zm2.25-20.25h65.63v12.38H559Zm63.75,1.88H560.88v8.63h61.88Zm-33.37,22.88h1.88v9.75a27,27,0,0,1-.75,7.13l10.13,9.38-1.5,1.5-9-8.62q-2.25,7.13-12.75,13.88l-1.12-1.5q14.25-7.87,13.13-21.75Zm-9-6h19.88v24h-1.87V1131h-16.5v22.5h-1.5Zm27.75,16.5v-16.12h17.63v31.5c0,2.5,1,3.75,3,3.75h1.13q3.74.37,3.75-3.75L634,1155h1.88v3.38a31.33,31.33,0,0,0-.37,3.38q-.38,5.63-5.62,5.25h-1.12q-4.5,0-4.5-5.62v-29.62H610V1146a32,32,0,0,1-8.25,22.88l-1.5-1.12A30.48,30.48,0,0,0,608.13,1146Zm4.13-5.25,1.5-1.12,8.25,13.5-1.5.75Z" transform="translate(-452.13 -1081.88)"/><path class="cls-1" d="M646.38,1096.13h29.25q3.74-6.75,7.13-14.25l1.5.75a84.23,84.23,0,0,1-6.75,13.5h54.38V1098H676.75a121,121,0,0,1-10.12,15h52.5v44.63q.75,10.87-11.62,10.13H696.63l.38-1.87h10.5q10.87.75,9.75-8.25v-9.37H665.5v20.25h-1.87v-51.75a166.09,166.09,0,0,1-18.75,18.75l-1.12-1.5a131,131,0,0,0,30.75-36H646.38Zm19.13,18.38v15h51.75v-15Zm0,16.88v15h51.75v-15Z" transform="translate(-452.13 -1081.88)"/><path class="cls-1" d="M739.75,1111.13h22.13v-18q-9.76,1.13-18.37,1.88v-1.87a336.73,336.73,0,0,0,36-4.5l.38,1.5q-3,.76-10.87,2.25-3.37.38-5.25.75v18h28.5q-.38-6.37-.75-19.12-.38-7.12-.37-10.12H793q.37,4.5.38,14.63.37,9.76.38,14.63h34.13V1113H794.13q1.13,18,4.5,30.38,13.5-11.25,19.88-21l1.5,1.13a106.55,106.55,0,0,1-21,21.75q3.38,10.13,8.63,16.13,4.12,4.5,8.25,4.5,5.25.37,7.13-6.37,1.13-2.25,2.63-10.87a6.27,6.27,0,0,0,.38-1.87l1.5.38a112.79,112.79,0,0,1-2.62,12.38q-2.63,8.62-9,8.25-5.26,0-9.37-5.25-5.62-6-9-16.12-12.75,10.13-24.37,14.63l-.75-1.5q11.25-4.87,24.75-15-3.75-12.37-4.87-31.5h-28.5v20.63l19.5-4.12.38,1.88-19.87,4.13v21.38q.37,10.13-10.5,9.75l-9-.37.38-1.87,8.63.38q9,.37,8.63-7.87v-21L740.5,1140l-.75-1.87,22.13-4.12v-21H739.75Zm64.5-21,1.13-1.5q2.62,2.25,9,7.88,4.12,3.75,5.63,4.88l-1.12,1.13Q817,1101,811,1095.75,806.12,1091.63,804.25,1090.13Z" transform="translate(-452.13 -1081.88)"/></svg>