<svg xmlns="http://www.w3.org/2000/svg" xmlns:xlink="http://www.w3.org/1999/xlink" viewBox="0 0 113.07 113.07"><defs><style>.cls-1{fill:none;}.cls-2{fill:url(#未命名的渐变_24);}.cls-3{clip-path:url(#clip-path);}.cls-4{fill:#d90000;}.cls-5,.cls-6{fill:#fff;}.cls-6{opacity:0.25;}.cls-7{opacity:0.2;}</style><radialGradient id="未命名的渐变_24" cx="57.86" cy="18.38" r="74.68" gradientUnits="userSpaceOnUse"><stop offset="0" stop-color="red"/><stop offset="1" stop-color="#b20000"/></radialGradient><clipPath id="clip-path"><rect class="cls-1" x="6.54" y="6.54" width="100" height="100" rx="22.46" ry="22.46"/></clipPath></defs><title>资源 2</title><g id="图层_2" data-name="图层 2"><g id="图层_1-2" data-name="图层 1"><rect class="cls-2" x="6.54" y="6.54" width="100" height="100" rx="22.46" ry="22.46"/><g class="cls-3"><path class="cls-4" d="M112.61,24.51a80,80,0,0,0-112.14,0L0,24a80.63,80.63,0,0,1,113.07,0Z"/><path class="cls-4" d="M112.63,29.9C81.7,4.39,31.37,4.39.44,29.9L0,29.39c31.16-25.7,81.86-25.7,113,0Z"/><path class="cls-4" d="M112.66,35.3C81.71,14.88,31.36,14.88.41,35.3l-.36-.55c31.15-20.55,81.82-20.55,113,0Z"/><path class="cls-4" d="M112.69,40.7c-31-15.33-81.35-15.33-112.31,0l-.29-.59C31.21,24.7,81.86,24.7,113,40.11Z"/><path class="cls-4" d="M112.74,46.1c-31-10.22-81.41-10.22-112.4,0l-.21-.63c31.1-10.26,81.71-10.26,112.81,0Z"/><path class="cls-4" d="M112.78,51.48c-31-5.12-81.48-5.12-112.5,0l-.11-.65c31.08-5.13,81.64-5.13,112.71,0Z"/><rect class="cls-4" x="0.23" y="56.21" width="112.61" height="0.66"/><path class="cls-4" d="M56.54,66.08c-20.41,0-40.82-1.28-56.36-3.85l.11-.65c31,5.12,81.48,5.12,112.5,0l.11.65C97.35,64.8,76.95,66.08,56.54,66.08Z"/><path class="cls-4" d="M56.54,75.3c-20.43,0-40.86-2.57-56.41-7.7L.34,67c31,10.22,81.41,10.22,112.4,0l.21.63C97.39,72.74,77,75.3,56.54,75.3Z"/><path class="cls-4" d="M56.54,84.52C36.09,84.52,15.65,80.67.09,73l.29-.59c31,15.33,81.35,15.33,112.31,0L113,73C97.42,80.67,77,84.52,56.54,84.52Z"/><path class="cls-4" d="M56.54,93.74C36.08,93.74,15.62,88.6.05,78.32l.36-.55c30.95,20.42,81.3,20.42,112.24,0l.36.55C97.45,88.6,77,93.74,56.54,93.74Z"/><path class="cls-4" d="M56.54,103C36.07,103,15.6,96.53,0,83.68l.42-.51c30.93,25.51,81.26,25.51,112.19,0l.42.51C97.47,96.53,77,103,56.54,103Z"/><path class="cls-4" d="M56.54,112.18A80.12,80.12,0,0,1,0,89l.47-.47a80,80,0,0,0,112.14,0l.47.47A80.13,80.13,0,0,1,56.54,112.18Z"/><path class="cls-4" d="M89,113.07l-.47-.47A80,80,0,0,0,88.56.47L89,0A80.63,80.63,0,0,1,89,113.07Z"/><path class="cls-4" d="M83.68,113l-.51-.42c25.51-30.93,25.51-81.26,0-112.19L83.68,0C109.38,31.18,109.38,81.89,83.68,113Z"/><path class="cls-4" d="M78.32,113l-.55-.36c20.42-30.95,20.42-81.3,0-112.24l.55-.36C98.87,31.2,98.87,81.88,78.32,113Z"/><path class="cls-4" d="M73,113l-.59-.29c15.33-31,15.33-81.35,0-112.31L73,.09C88.37,31.21,88.37,81.86,73,113Z"/><path class="cls-4" d="M67.6,112.94l-.63-.21C77.2,81.75,77.2,31.32,67,.34L67.6.13C77.87,31.23,77.87,81.84,67.6,112.94Z"/><path class="cls-4" d="M62.24,112.89l-.65-.11c5.12-31,5.12-81.48,0-112.5l.65-.11C67.37,31.25,67.37,81.82,62.24,112.89Z"/><rect class="cls-4" x="56.2" y="0.23" width="0.66" height="112.61"/><path class="cls-4" d="M50.83,112.89c-5.13-31.08-5.13-81.64,0-112.71l.65.11c-5.12,31-5.12,81.48,0,112.5Z"/><path class="cls-4" d="M45.47,112.94C35.2,81.84,35.2,31.23,45.47.13l.63.21c-10.22,31-10.22,81.41,0,112.4Z"/><path class="cls-4" d="M40.11,113C24.7,81.86,24.7,31.21,40.11.09l.59.29c-15.33,31-15.33,81.35,0,112.31Z"/><path class="cls-4" d="M34.75,113C14.2,81.88,14.2,31.2,34.75.05l.55.36c-20.42,30.95-20.42,81.3,0,112.24Z"/><path class="cls-4" d="M29.39,113c-25.7-31.16-25.7-81.87,0-113l.51.42C4.39,31.37,4.39,81.7,29.9,112.63Z"/><path class="cls-4" d="M24,113.07A80.63,80.63,0,0,1,24,0l.47.47a80,80,0,0,0,0,112.14Z"/></g><path class="cls-5" d="M57.1,88h4.82A4.3,4.3,0,0,0,66,85L76.13,61.9c2-6.09-8-7.75-8.91-2L62,80.23a4.32,4.32,0,0,1-5,3.54,4.32,4.32,0,0,1-5-3.54L47,59.86c-.94-5.71-10.91-4.05-8.91,2L48.19,85a4.3,4.3,0,0,0,4.09,3Z"/><path class="cls-5" d="M87.37,30.08l3.18,2.38L79.16,42.79c-1.92,1.68-4.42,2.5-6.36.82l-6.39-5.54c-4.11-3.37-7.37-2-11.06-.31l-20.74,12c-3,1.4-4.88,1.55-7.48-.58l-10.92-9c-1.93-1.86-5.16,1.26-3.08,3l11.7,12a8.77,8.77,0,0,0,10.52,1.54L55.78,44.66c2.78-1.61,4.84-2.86,8.56.63l5.08,5.16c4.19,3.44,6.94,2.34,10.66-1.45L93.4,34.59l3.49,2.61,3.72-12.11Z"/><path class="cls-6" d="M84.07,9.66H29A22.46,22.46,0,0,0,6.54,32.12V29A22.46,22.46,0,0,1,29,6.54H84.07A22.46,22.46,0,0,1,106.54,29v3.12A22.46,22.46,0,0,0,84.07,9.66Z"/><path class="cls-7" d="M84.07,103.41H29A22.46,22.46,0,0,1,6.54,81v3.13A22.46,22.46,0,0,0,29,106.54H84.07a22.46,22.46,0,0,0,22.46-22.46V81A22.46,22.46,0,0,1,84.07,103.41Z"/></g></g></svg>