<svg id="图层_1" data-name="图层 1" xmlns="http://www.w3.org/2000/svg" viewBox="0 0 180 48"><defs><style>.cls-1,.cls-2{fill:#fff;}.cls-2{fill-rule:evenodd;}</style></defs><rect width="180" height="48" rx="15.9" ry="15.9"/><path class="cls-1" d="M560.48,1017.65,559.3,1014h-6.39l-1.27,3.62H549l7-17.4h.62l6.47,17.4Zm-4.29-12.9-2.66,7.56h5.1Z" transform="translate(-489.46 -986.77)"/><path class="cls-1" d="M566.94,1017v5.61h-2.23V1005.1h2.23v1a4.17,4.17,0,0,1,3.06-1.27,5.29,5.29,0,0,1,4.16,1.66,8.37,8.37,0,0,1,0,9.54,5.31,5.31,0,0,1-4.34,1.81,5.78,5.78,0,0,1-1.71-.28A2.26,2.26,0,0,1,566.94,1017Zm0-9.15v7.31a2,2,0,0,0,.89.6,3.39,3.39,0,0,0,1.32.29q4.15,0,4.15-4.69a5.13,5.13,0,0,0-1-3.48,4,4,0,0,0-3.15-1.1,2.76,2.76,0,0,0-1.15.33A3.78,3.78,0,0,0,566.94,1007.81Z" transform="translate(-489.46 -986.77)"/><path class="cls-1" d="M580.31,1017v5.61h-2.23V1005.1h2.23v1a4.17,4.17,0,0,1,3.06-1.27,5.29,5.29,0,0,1,4.16,1.66,8.37,8.37,0,0,1,0,9.54,5.31,5.31,0,0,1-4.34,1.81,5.78,5.78,0,0,1-1.71-.28A2.26,2.26,0,0,1,580.31,1017Zm0-9.15v7.31a2,2,0,0,0,.89.6,3.39,3.39,0,0,0,1.32.29q4.15,0,4.15-4.69a5.13,5.13,0,0,0-1-3.48,4,4,0,0,0-3.15-1.1,2.76,2.76,0,0,0-1.15.33A3.78,3.78,0,0,0,580.31,1007.81Z" transform="translate(-489.46 -986.77)"/><path class="cls-1" d="M598.08,1016.87l.86-2.16a5.85,5.85,0,0,0,1.63.8,5.67,5.67,0,0,0,1.75.32,3.17,3.17,0,0,0,2.2-.75,2.46,2.46,0,0,0,.83-1.91,3,3,0,0,0-.46-1.61,5.65,5.65,0,0,0-2.33-1.62l-1.38-.64a5.52,5.52,0,0,1-2.46-1.95,5,5,0,0,1-.7-2.71,4.17,4.17,0,0,1,1.36-3.19,4.92,4.92,0,0,1,3.49-1.27q2.85,0,4,.93l-.69,2a5.38,5.38,0,0,0-1.43-.66,5.72,5.72,0,0,0-1.78-.32,2.55,2.55,0,0,0-1.88.68,2.35,2.35,0,0,0-.69,1.75,2.84,2.84,0,0,0,.25,1.2,2.5,2.5,0,0,0,.69.9,10.22,10.22,0,0,0,1.8,1l1.41.67a4.8,4.8,0,0,1,3.18,4.92,4.19,4.19,0,0,1-1.55,3.28,6.12,6.12,0,0,1-4.15,1.35A6.87,6.87,0,0,1,598.08,1016.87Z" transform="translate(-489.46 -986.77)"/><path class="cls-1" d="M611,1006.86h-1.45v-1.76H611v-2.62l2.23-.86v3.48h3.45v1.76h-3.45v6.23a3.66,3.66,0,0,0,.53,2.25,2.07,2.07,0,0,0,1.72.67,4.12,4.12,0,0,0,1.77-.43l.33,2a12.31,12.31,0,0,1-3,.35,3.29,3.29,0,0,1-2.51-1.11,4,4,0,0,1-1-2.79Z" transform="translate(-489.46 -986.77)"/><path class="cls-1" d="M618.92,1011.35a6.87,6.87,0,0,1,1.56-4.69,5.79,5.79,0,0,1,8.3-.07,8.33,8.33,0,0,1,0,9.55,5.81,5.81,0,0,1-8.33,0A7.13,7.13,0,0,1,618.92,1011.35Zm2.34,0q0,4.72,3.34,4.72a2.82,2.82,0,0,0,2.44-1.27,5.94,5.94,0,0,0,.88-3.46q0-4.66-3.33-4.66a2.86,2.86,0,0,0-2.43,1.24A5.7,5.7,0,0,0,621.26,1011.35Z" transform="translate(-489.46 -986.77)"/><path class="cls-1" d="M643.19,1011.6h-9a4.53,4.53,0,0,0,1.21,3.39,3.78,3.78,0,0,0,2.74,1,4.68,4.68,0,0,0,3.19-1.11l.94,1.61a4.19,4.19,0,0,1-1.58.89,8.56,8.56,0,0,1-3,.49,5.55,5.55,0,0,1-4-1.61,6.29,6.29,0,0,1-1.84-4.76,6.71,6.71,0,0,1,1.89-5,5.48,5.48,0,0,1,4-1.68,5.71,5.71,0,0,1,4.21,1.51,5.17,5.17,0,0,1,1.48,3.86A5,5,0,0,1,643.19,1011.6Zm-5.4-4.85a3.52,3.52,0,0,0-3.59,3.23h6.95a3.17,3.17,0,0,0-.84-2.25A3.29,3.29,0,0,0,637.79,1006.74Z" transform="translate(-489.46 -986.77)"/><path class="cls-1" d="M652.53,1007.25a2.55,2.55,0,0,0-1.46-.5,2.61,2.61,0,0,0-2.07,1.09,4,4,0,0,0-.88,2.63v7.2h-2.23V1005.1h2.23v2a3.9,3.9,0,0,1,3.62-2.24,10.13,10.13,0,0,1,1.72.21Z" transform="translate(-489.46 -986.77)"/><path class="cls-2" d="M537.17,1004.85c-1.93-1.87-3.61-3.68-7.16-3.86-2.87-.12-4.17,1.62-6.85,1.68-2.49.06-2.3-1.93-7.47-1.37-4.49.5-8.41,5-8.1,11.27.31,6.79,5,16.2,9.47,16.2,3.11-.06,3.86-1.56,6.41-1.56,3.18,0,3.92,1.86,6.42,1.49,4.3-.62,8.35-7.41,8.35-9.59-2.37-1.25-4.73-3.36-5-6.91S535.11,1006.4,537.17,1004.85Z" transform="translate(-489.46 -986.77)"/><path class="cls-2" d="M522.28,1001.48a8.27,8.27,0,0,1,7.29-8.72C530.25,996.94,526.83,1001.73,522.28,1001.48Z" transform="translate(-489.46 -986.77)"/></svg>