<svg id="图层_1" data-name="图层 1" xmlns="http://www.w3.org/2000/svg" viewBox="0 0 180 48"><defs><style>.cls-1{fill:#ffc926;}.cls-2,.cls-3{fill:#fff;}.cls-3{fill-rule:evenodd;}</style></defs><rect class="cls-1" width="180" height="48" rx="15.9" ry="15.9"/><path class="cls-2" d="M780.55,1017.65l-1.18-3.62H773l-1.27,3.62h-2.62l7-17.4h.62l6.47,17.4Zm-4.29-12.9-2.66,7.56h5.1Z" transform="translate(-709.54 -986.77)"/><path class="cls-2" d="M792.5,1017.65v-7.3a4.84,4.84,0,0,0-.6-2.81,2.37,2.37,0,0,0-2-.8,3.31,3.31,0,0,0-1.59.46,3.55,3.55,0,0,0-1.28,1.13v9.33h-2.23V1005.1h1.52l.7,1.62a3.86,3.86,0,0,1,3.6-1.85q4.13,0,4.13,5v7.77Z" transform="translate(-709.54 -986.77)"/><path class="cls-2" d="M805.85,1017.64v-.93a4.57,4.57,0,0,1-3.37,1.16,4.82,4.82,0,0,1-3.82-1.69,6.62,6.62,0,0,1-1.46-4.5,7.23,7.23,0,0,1,1.69-4.82,5.11,5.11,0,0,1,4-2,4.26,4.26,0,0,1,3,.91V1000h2.23v17.68Zm0-9.63a2.64,2.64,0,0,0-2.31-1.27,3.59,3.59,0,0,0-2.9,1.34,5.15,5.15,0,0,0-1.11,3.4q0,4.54,4.13,4.54a3.18,3.18,0,0,0,1.27-.33,1.84,1.84,0,0,0,.93-.71Z" transform="translate(-709.54 -986.77)"/><path class="cls-2" d="M818.09,1007.25a2.55,2.55,0,0,0-1.46-.5,2.61,2.61,0,0,0-2.07,1.09,4,4,0,0,0-.88,2.63v7.2h-2.23V1005.1h2.23v2a3.9,3.9,0,0,1,3.62-2.24,10.13,10.13,0,0,1,1.72.21Z" transform="translate(-709.54 -986.77)"/><path class="cls-2" d="M819.77,1011.35a6.87,6.87,0,0,1,1.56-4.69,5.79,5.79,0,0,1,8.3-.07,8.33,8.33,0,0,1,0,9.55,5.81,5.81,0,0,1-8.33,0A7.13,7.13,0,0,1,819.77,1011.35Zm2.34,0q0,4.72,3.34,4.72a2.82,2.82,0,0,0,2.44-1.27,5.94,5.94,0,0,0,.88-3.46q0-4.66-3.33-4.66a2.86,2.86,0,0,0-2.43,1.24A5.7,5.7,0,0,0,822.12,1011.35Z" transform="translate(-709.54 -986.77)"/><path class="cls-2" d="M834.55,1017.65V1007h-1.72v-1.87h3.95v12.55Zm1.22-17.3a1.33,1.33,0,0,1,1,.4,1.32,1.32,0,0,1,.4,1,1.38,1.38,0,0,1-1.38,1.38,1.32,1.32,0,0,1-1-.4,1.37,1.37,0,0,1,1-2.35Z" transform="translate(-709.54 -986.77)"/><path class="cls-2" d="M848.27,1017.64v-.93a4.57,4.57,0,0,1-3.37,1.16,4.82,4.82,0,0,1-3.82-1.69,6.62,6.62,0,0,1-1.46-4.5,7.23,7.23,0,0,1,1.69-4.82,5.11,5.11,0,0,1,4-2,4.26,4.26,0,0,1,3,.91V1000h2.23v17.68Zm0-9.63a2.64,2.64,0,0,0-2.31-1.27,3.59,3.59,0,0,0-2.9,1.34,5.15,5.15,0,0,0-1.11,3.4q0,4.54,4.13,4.54a3.18,3.18,0,0,0,1.27-.33,1.84,1.84,0,0,0,.93-.71Z" transform="translate(-709.54 -986.77)"/><path class="cls-3" d="M737,993.11l1.85,2.68a10.58,10.58,0,0,1,8.13.08l1.94-2.81a.26.26,0,0,1,.36-.07l0,0a.26.26,0,0,1,.07.36l-1.88,2.73a9.12,9.12,0,0,1,5.06,6.84H733.08a9.15,9.15,0,0,1,5.25-6.93l-1.79-2.59a.26.26,0,0,1,.07-.36l0,0a.26.26,0,0,1,.36.07Zm10.1,5a1,1,0,1,1-1,1,1,1,0,0,1,1-1Zm-8.39,0a1,1,0,1,1-1,1,1,1,0,0,1,1-1Z" transform="translate(-709.54 -986.77)"/><path class="cls-3" d="M729.35,1004.37h.43a2.27,2.27,0,0,1,1.94,2.48v8a2.27,2.27,0,0,1-1.94,2.48h-.43a2.27,2.27,0,0,1-1.94-2.48v-8a2.27,2.27,0,0,1,1.94-2.48Z" transform="translate(-709.54 -986.77)"/><path class="cls-3" d="M756,1004.42h.43a2.27,2.27,0,0,1,1.94,2.48v8a2.27,2.27,0,0,1-1.94,2.48H756a2.27,2.27,0,0,1-1.94-2.48v-8a2.27,2.27,0,0,1,1.94-2.48Z" transform="translate(-709.54 -986.77)"/><path class="cls-3" d="M741.16,1021.94v4.49a2.27,2.27,0,0,1-1.94,2.48h-.43a2.27,2.27,0,0,1-1.94-2.48v-4.49h-1.78a2,2,0,0,1-2-2v-15.7h19.64V1020a2,2,0,0,1-2,2h-1.63v4.54a2.27,2.27,0,0,1-1.94,2.48h-.43a2.27,2.27,0,0,1-1.94-2.48v-4.54Z" transform="translate(-709.54 -986.77)"/></svg>