<!-- Generator: Adobe Illustrator 20.1.0, SVG Export Plug-In  -->

<svg version="1.1"

	 xmlns="http://www.w3.org/2000/svg" xmlns:xlink="http://www.w3.org/1999/xlink" xmlns:a="http://ns.adobe.com/AdobeSVGViewerExtensions/3.0/"

	 x="0px" y="0px" width="375.8px" height="87px" viewBox="0 0 375.8 87" style="enable-background:new 0 0 375.8 87;"

	 xml:space="preserve">

<style type="text/css">

	.st0{fill:#fff;}

</style>

<defs>

</defs>

<g>

	<path class="st0" d="M1.9,15.8H18V0.4h1.9v15.4h15v1.9h-15v37.1H18v-33c-3.8,9.5-9.4,18.4-16.9,26.6L0,46.9

		c8.3-9,14.1-18.8,17.6-29.3H1.9V15.8z M0,80.3c5-7,8.9-13.5,11.6-19.5l1.9,0.8c-4,8-8,14.6-12,19.9L0,80.3z M21.8,29.3l1.1-1.5

		l12,10.1l-1.1,1.5L21.8,29.3z M23.6,60.4h1.9v14.3c-0.3,5.3,2.7,7.9,9,7.9H54c6.8,0.2,10.4-1.8,10.9-6c0.5-3.5,0.8-6.2,0.8-8.3h1.9

		c0,2.3-0.3,5.1-0.8,8.6c-1,5-5.3,7.5-12.8,7.5H34.5c-7.3,0-10.9-3.3-10.9-9.8V60.4z M38.6,58.1l1.5-1.1l11.3,12.4l-1.1,1.1

		L38.6,58.1z M40.1,7.1h41.3v45H40.1V7.1z M79.5,8.6H41.6v12.8h37.9V8.6z M41.6,23.3V36h37.9V23.3H41.6z M41.6,50.6h37.9V37.5H41.6

		V50.6z M72.8,61.5l1.5-1.1c0.8,1.3,2.3,3.4,4.5,6.4c4.2,5.8,7.2,9.8,9,12l-1.5,0.8C80,71.3,75.5,65.3,72.8,61.5z"/>

	<path class="st0" d="M100.9,57c4-4.2,9.9-11.7,17.6-22.5c-5,0.3-11.5,0.5-19.5,0.8c-0.5,0-1.4,0.3-2.6,0.8L96,34.1

		c0.5-0.2,0.9-0.4,1.1-0.4l0.8-0.4C105.6,23.1,112.5,12,118.5,0l1.5,0.8c-5.5,11.8-12.1,22.6-19.9,32.6c5.5-0.2,12.1-0.5,19.9-0.8

		c0.2-0.5,0.6-1.1,1.1-1.9c3.8-5,5.9-8.4,6.4-10.1l1.9,1.1c-8.8,13.8-17.5,25.5-26.3,35.3l24.8-1.5l0.4,1.9L102,59.3

		c-0.3,0-1.1,0.1-2.6,0.4l-0.8-1.9c0.2,0,0.5-0.1,0.8-0.4C100.1,57.4,100.6,57.3,100.9,57z M96,78l36.8-3.8l0.4,1.9L96,79.9V78z

		 M131.3,36.4c8.3-10.7,14.6-22.7,19.1-36l1.9,0.8c-1.8,5.3-4,10.6-6.8,16.1h32.6L177,68.6c0,11-5.5,16.4-16.5,16.1

		c-7,0-11.9-0.1-14.6-0.4l0.4-1.9c5.5,0.5,10.2,0.8,14.3,0.8c9.8,0.2,14.6-4.6,14.6-14.6l1.1-49.5h-31.9

		c-3.5,6.8-7.4,12.9-11.6,18.4L131.3,36.4z M141.4,38.6l1.5-1.1L158.6,57l-1.1,1.1L141.4,38.6z"/>

	<path class="st0" d="M194.3,14.6h29.3c2.5-4.5,4.9-9.2,7.1-14.3l1.5,0.8c-2.3,5.5-4.5,10-6.8,13.5h54.4v1.9h-55.1

		c-3,5.3-6.4,10.3-10.1,15H267v44.6c0.5,7.2-3.4,10.6-11.6,10.1c-3,0-6.6,0-10.9,0l0.4-1.9c4,0,7.5,0,10.5,0

		c7.2,0.5,10.5-2.3,9.8-8.3v-9.4h-51.8V87h-1.9V35.3C206,41.8,199.7,48,192.8,54l-1.1-1.5c12.8-10.5,23-22.5,30.8-36h-28.1V14.6z

		 M213.4,33v15h51.8V33H213.4z M213.4,49.9v15h51.8v-15H213.4z"/>

	<path class="st0" d="M287.6,29.6h22.1v-18c-6.5,0.8-12.6,1.4-18.4,1.9v-1.9c11.3-0.8,23.3-2.3,36-4.5l0.4,1.5

		c-2,0.5-5.6,1.3-10.9,2.3c-2.3,0.3-4,0.5-5.3,0.8v18h28.5c-0.3-4.2-0.5-10.6-0.8-19.1c-0.3-4.7-0.4-8.1-0.4-10.1h1.9

		c0.2,3,0.4,7.9,0.4,14.6c0.2,6.5,0.4,11.4,0.4,14.6h34.1v1.9H342c0.8,12,2.3,22.1,4.5,30.4c9-7.5,15.6-14.5,19.9-21l1.5,1.1

		c-5.3,7.5-12.3,14.8-21,21.8c2.3,6.8,5.1,12.1,8.6,16.1c2.7,3,5.5,4.5,8.3,4.5c3.5,0.2,5.9-1.9,7.1-6.4c0.8-1.5,1.6-5.1,2.6-10.9

		c0.2-0.8,0.4-1.4,0.4-1.9l1.5,0.4c-0.5,3.5-1.4,7.6-2.6,12.4c-1.8,5.7-4.8,8.5-9,8.3c-3.5,0-6.6-1.8-9.4-5.3c-3.8-4-6.8-9.4-9-16.1

		c-8.5,6.8-16.6,11.6-24.4,14.6l-0.8-1.5c7.5-3.2,15.8-8.3,24.8-15c-2.5-8.3-4.1-18.8-4.9-31.5h-28.5v20.6l19.5-4.1l0.4,1.9

		L311.6,54v21.4c0.2,6.8-3.3,10-10.5,9.8l-9-0.4l0.4-1.9l8.6,0.4c6,0.2,8.9-2.4,8.6-7.9v-21l-21.4,4.1l-0.8-1.9l22.1-4.1v-21h-22.1

		V29.6z M352.1,8.6l1.1-1.5c1.7,1.5,4.7,4.1,9,7.9c2.7,2.5,4.6,4.1,5.6,4.9l-1.1,1.1c-1.3-1-3.9-3.2-7.9-6.8

		C355.6,11.5,353.4,9.6,352.1,8.6z"/>

</g>

</svg>

