<svg xmlns="http://www.w3.org/2000/svg" viewBox="0 0 188.71 44.31"><title>资源 1</title><g id="图层_2" data-name="图层 2"><g id="图层_1-2" data-name="图层 1"><path d="M.56,23.28v-6.2H18a40.53,40.53,0,0,0,.75-8.26H3v-6H41.5v6H25.35q-.19,3.94-.56,8.26h19v6.2H26.66q5.07,11.27,17.65,15a26.59,26.59,0,0,0-4.13,4.51q-.75.94-1.13,1.5Q27.41,39.43,21.78,27.23,17.84,37.37,5.07,43.94A37.84,37.84,0,0,0,0,38.68q14.27-6.38,16.71-15.4Z"/><path d="M48.44,29.48V23.66H67.6v-9H58.77q-2.25,4.51-4.69,8.83l-.56-.56q-1.69-1.13-4.69-3.19A66.48,66.48,0,0,0,56.14,2.63q1.5.19,4.88.94a13.59,13.59,0,0,1,1.5.38,5.73,5.73,0,0,0-.38,1.31A17.46,17.46,0,0,0,61,8.64H67.6V.38h6.95V8.64H88.25v6H74.54v9H92v5.82H74.54V43.94H67.6V29.48Z"/><path d="M105,24.6V9.2h4.69V24.79a21.19,21.19,0,0,1-.38,4.13,124.24,124.24,0,0,1,8.45,9.76l-4.32,3.57q-1.32-2.07-5.82-7.7a21.75,21.75,0,0,1-8.07,9.2q-1.32-1.88-3.38-4.51Q105,33.43,105,24.6Zm-2.07,5.63H97.83v-28h19V29.67h-5.07V7.32H102.9Zm15-16.15V8.64h12.21V.38h5.82V8.64h4.69v5.45h-4.69V37q0,6.76-7.14,6.76H123a55,55,0,0,0-1.13-5.63,43.34,43.34,0,0,0,5.07.19q3.19,0,3.19-3.38V21.22a61.32,61.32,0,0,1-11.08,15,30,30,0,0,0-4.51-4.32,53.59,53.59,0,0,0,13.71-17.84Z"/><path d="M150.59,14.08h1.69a15.78,15.78,0,0,1,2.07-.19q1.69-2.63,3.38-5.63L163,10.89q-6.76,9.77-10.7,14.65a48.85,48.85,0,0,0,7.32-.75,5.59,5.59,0,0,1-.19,1.31q-.19,3-.19,4.32a119.85,119.85,0,0,0-13.33,1.31l-1.5-5.26a56.93,56.93,0,0,0,6.38-7.32,11.53,11.53,0,0,0-1.69.19,10.32,10.32,0,0,0-3.38.38l-2.07-5.26Q148,9.58,151.91,0l5.82,2.07Q154,8.83,150.59,14.08ZM162,29.67V24.41h24.41v5.26h-9v8.07h10.89v4.88H159.79V39.43A129.18,129.18,0,0,0,145,41.31L144,35.49q4.13-.37,13.71-1.5a20,20,0,0,0,2.44-.38V35.3c-.13,1.13-.19,1.94-.19,2.44h11.08V29.67Zm0-27.41h22.72V7.32a76.21,76.21,0,0,1-5.26,5.82q4.69,2.25,9.2,4.69l-3.57,5.07q-1.88-1.31-5.63-3.38-3-1.69-4.32-2.63a55.41,55.41,0,0,1-13,6.95l-2.07-3.57a13,13,0,0,0-.94-1.88q11.45-3.94,18.21-10.7H162Z"/></g></g></svg>