<svg xmlns="http://www.w3.org/2000/svg" viewBox="0 0 595.5 43"><defs><style>.cls-1{fill:#fff;}</style></defs><title>v339</title><g id="图层_2" data-name="图层 2"><g id="图层_1-2" data-name="图层 1"><path class="cls-1" d="M14.3,3.3A39,39,0,0,1,9.2,9.6a42.54,42.54,0,0,1,3.1,15.2A30.39,30.39,0,0,1,6.7,42.5l-1.2-.9a29.23,29.23,0,0,0,5.3-16.8v-.5A36.13,36.13,0,0,1,.7,32.6L0,31.3a32.47,32.47,0,0,0,10.6-9A43.21,43.21,0,0,0,8,10.7,43.66,43.66,0,0,1,.8,16.1L.1,14.8A45,45,0,0,0,7.4,9.3,59.87,59.87,0,0,0,3.6,1.7L4.9.9A54.87,54.87,0,0,1,8.5,8.2,30.7,30.7,0,0,0,13,2.6ZM29.8.1V3.9H42.2V5.4H29.8v4.9H42.1v1.5H29.8V17H42.6v1.5H15.5V17H28.3V11.8H16V10.3H28.3V5.4H15.9V3.9H28.3V.1ZM17.3,42.7V25.8a4.16,4.16,0,0,1,4.2-4.2H36.6a4.16,4.16,0,0,1,4.2,4.2V38.4a4.16,4.16,0,0,1-4.2,4.2H34.3V41.1h2.3a2.69,2.69,0,0,0,2.7-2.7V36H18.8v6.7Zm1.5-14.6H39.4V25.8a2.69,2.69,0,0,0-2.7-2.7H21.5a2.69,2.69,0,0,0-2.7,2.7Zm0,6.5H39.4v-5H18.8Z"/><path class="cls-1" d="M54.5,27.8l-7,14.8L46.1,42l7.1-14.8Zm-4-26.7V10H49V1.1Zm0,13.1v8.9H49V14.2ZM56.4,1.8h7.3A4.29,4.29,0,0,1,67.9,6v5.6a4.1,4.1,0,0,1-4.2,4.2H60.5a2.69,2.69,0,0,0-2.7,2.7v5.3a2.78,2.78,0,0,0,2.7,2.8h2.8a4.1,4.1,0,0,1,4.2,4.2v6.8a4.1,4.1,0,0,1-4.2,4.2H56.9V40.3h6.5a2.8,2.8,0,0,0,2.8-2.8V30.7A2.71,2.71,0,0,0,63.4,28H60.6a4.16,4.16,0,0,1-4.2-4.2V18.5a4.16,4.16,0,0,1,4.2-4.2h3.2a2.71,2.71,0,0,0,2.7-2.8V6a2.69,2.69,0,0,0-2.7-2.7H56.5V1.8Zm31.4,1a48,48,0,0,1-14,9.5V19H88.4v1.5H79.5l8.4,21.2-1.4.5L77.9,20.6h-4V36.9a3.59,3.59,0,0,0,3.6,3.6h2.3V42H77.5a5,5,0,0,1-5-5V20.6H67.7V19.1h4.8V0H74V10.8a45.29,45.29,0,0,0,12.9-9Z"/><path class="cls-1" d="M96.2,21.9V39.6l5.2-1.2V17.8H97.5a3.42,3.42,0,0,1-3.4-3.3V5.1a3.35,3.35,0,0,1,3.4-3.3h7a3.33,3.33,0,0,1,3.3,3.3v9.4a3.4,3.4,0,0,1-3.3,3.3h-1.6v7.1h6.4v1.5h-6.4V38l5.7-1.4.4,1.5-16.6,4L92,40.7l2.7-.7V22h1.5ZM97.6,3.3a1.82,1.82,0,0,0-1.9,1.8v9.4a1.82,1.82,0,0,0,1.9,1.8h7a1.73,1.73,0,0,0,1.8-1.8V5.1a1.73,1.73,0,0,0-1.8-1.8ZM111.3,22h9.8a65.7,65.7,0,0,0,1.2-11.6h-9.9L115,2l1.4.4-2,6.5h7.9V.4h1.5V8.9h10.5v1.5H123.8A78.87,78.87,0,0,1,122.7,22h11.7v1.5H123.7l10.2,18.4-1.3.7L122.1,24c-1.7,6.7-4.9,12.3-11,18.6L110,41.5c5.9-6.1,9.1-11.6,10.7-18h-9.5V22Z"/><path class="cls-1" d="M167.9,3.3a39,39,0,0,1-5.1,6.3,42.54,42.54,0,0,1,3.1,15.2,30.39,30.39,0,0,1-5.6,17.7l-1.2-.9a29.23,29.23,0,0,0,5.3-16.8v-.5a36.13,36.13,0,0,1-10.1,8.3l-.7-1.3a32.47,32.47,0,0,0,10.6-9,43.21,43.21,0,0,0-2.6-11.6,43.66,43.66,0,0,1-7.2,5.4l-.7-1.3A45,45,0,0,0,161,9.3a59.87,59.87,0,0,0-3.8-7.6l1.3-.8a54.87,54.87,0,0,1,3.6,7.3,30.7,30.7,0,0,0,4.5-5.6ZM183.4.1V3.9h12.4V5.4H183.4v4.9h12.3v1.5H183.4V17h12.8v1.5H169V17h12.9V11.8H169.6V10.3h12.3V5.4H169.5V3.9h12.4V.1ZM170.9,42.7V25.8a4.16,4.16,0,0,1,4.2-4.2h15.1a4.16,4.16,0,0,1,4.2,4.2V38.4a4.16,4.16,0,0,1-4.2,4.2h-2.3V41.1h2.3a2.69,2.69,0,0,0,2.7-2.7V36H172.3v6.7Zm1.5-14.6h20.5V25.8a2.69,2.69,0,0,0-2.7-2.7H175.1a2.69,2.69,0,0,0-2.7,2.7v2.3Zm0,6.5h20.5v-5H172.3v5Z"/><path class="cls-1" d="M200.9,40.7h2.5a3.59,3.59,0,0,0,3.6-3.6V26.5l-6.5,3.6-.7-1.3,7.2-3.9V8.8h-6.9V7.3H207V.2h1.5V7.3h4.7V8.8h-4.7V24.1l5.3-2.9.7,1.3-6,3.3V37.1a5,5,0,0,1-5,5h-2.6ZM219.8.1V5.7A84.68,84.68,0,0,0,241,2.1l.4,1.4a89.56,89.56,0,0,1-21.6,3.7V12a3.59,3.59,0,0,0,3.6,3.6h18.5v1.5H223.4a5,5,0,0,1-5-5V.1Zm2.8,41.8a4.1,4.1,0,0,1-4.2-4.2V25.2a4.16,4.16,0,0,1,4.2-4.2h14.1a4.16,4.16,0,0,1,4.2,4.2V37.8a4.16,4.16,0,0,1-4.2,4.2H222.6Zm-2.8-11.6h19.6V25.2a2.69,2.69,0,0,0-2.7-2.7H222.6a2.78,2.78,0,0,0-2.8,2.7Zm16.9,10.2a2.69,2.69,0,0,0,2.7-2.7v-6H219.8v6a2.71,2.71,0,0,0,2.8,2.7Z"/><path class="cls-1" d="M257.3,0V10h10.1v1.5H257.3V22.4h-1.5v-11H245.7V10h10.1V0Zm-2.9,22.9-1.3,3.4h14.8v1.5h-3.3a14.27,14.27,0,0,1-6.3,9.6l8.1,3.3-.6,1.4-9-3.8a32.09,32.09,0,0,1-10.7,3.6l-.3-1.5a33.88,33.88,0,0,0,9.3-2.9l-2.5-1.1h0a4,4,0,0,1-2.8-4.1,5.19,5.19,0,0,1,.5-2.4l.8-2.3h-5.4V26.1h5.9l1.5-4Zm-6-22,2.8,6.7-1.3.5-2.8-6.7ZM247,21.2l2.8-8.4,1.4.4-2.8,8.4Zm6.1,14,3.6,1.5a13.26,13.26,0,0,0,6.4-8.9H252.5l-1,2.8h0a10,10,0,0,0-.4,2A3.26,3.26,0,0,0,253.1,35.2ZM266,1.4l-2.8,6.7-1.3-.5L264.7.9Zm-1.3,20.2-2.8-8.4,1.4-.4,2.8,8.4Zm7.1-8.6,6.9,12.6a86.8,86.8,0,0,0,5.1-18.5H270.5l1-6.9,1.5.3-.8,5.1h15.7V7.1h-2.5a86.9,86.9,0,0,1-5.7,20.2l7.9,14.3-1.3.7L278.9,29A48.92,48.92,0,0,1,270,42.3l-1-1.1a47.71,47.71,0,0,0,9-13.9l-7.5-13.6Z"/><path class="cls-1" d="M308,3.1h12.9V4.6h-5.7V19.8h5.5v1.5h-5.5V36.6l6.4-1.6.3,1.5L307.4,40l-.3-1.5,6.6-1.6V21.2h-5.5V19.7h5.5V4.5H308V3.1Zm41.9,38.8h-4.1a5,5,0,0,1-5-5V17.4h-9.9v1c0,13.5-2.5,18-7.8,23.9l-1.1-1c5-5.6,7.5-9.9,7.5-22.9v-1h-6.7V15.9h26.5v1.5h-7V36.9a3.59,3.59,0,0,0,3.6,3.6H350v1.4ZM324.5,2.1h23.1V3.6H324.5Z"/><path class="cls-1" d="M368.3,0V4.8h12.9V6.3H368.3v5.3h5.8a5,5,0,0,1,5,5v9.6h-1.5V16.6A3.59,3.59,0,0,0,374,13h-5.8V25l12.3,16.2-1.2.8L368.1,27.5V43h-1.2V18.6A98.86,98.86,0,0,1,355.7,42l-1.2-.8a94.29,94.29,0,0,0,12.3-28V13h-5.9a3.59,3.59,0,0,0-3.6,3.6v9.6h-1.5V16.6a5,5,0,0,1,5-5h5.9V6.2h-13V4.8h13V0Zm16.8,41h5a3.34,3.34,0,0,0,3.3-3.6V0h1.5V37.4a4.85,4.85,0,0,1-4.8,5h-5Zm1.7-38.2V35.7h-1.5V2.8Z"/><path class="cls-1" d="M406.4,27.7l-5.7,14.8-1.4-.6L405,27.2ZM404.1,1.1V10h-1.4V1.1Zm0,13V23h-1.4V14.1Zm3.7,9.4h7.3V20.1h1.5v3.4h8.2V25H413.2v1c0,1.1,0,2.1-.1,3.2H419a4.08,4.08,0,0,1,4.1,4.2v4.3a4.14,4.14,0,0,1-4.1,4.2h-2.6V40.4H419a2.69,2.69,0,0,0,2.7-2.7V33.4a2.63,2.63,0,0,0-2.7-2.7h-6.1a26.87,26.87,0,0,1-4.3,11.6l-1.2-.8A26.48,26.48,0,0,0,411.6,26V24.9h-3.9V23.5ZM416.5.2V4.1h3.2A3.4,3.4,0,0,1,423,7.4v9.3a3.33,3.33,0,0,1-3.3,3.3h-6.9a3.33,3.33,0,0,1-3.3-3.3V7.3A3.4,3.4,0,0,1,412.8,4H415V.2Zm-3.7,5.4A1.73,1.73,0,0,0,411,7.4v3.9h10.6v-4a1.79,1.79,0,0,0-1.8-1.8h-7Zm8.7,11.1V12.8H410.9v3.9a1.73,1.73,0,0,0,1.8,1.8h6.9A1.76,1.76,0,0,0,421.5,16.7Zm6.6-5.1,5.7,14a79.49,79.49,0,0,0,3.4-16.7H426.9L429.1.3l1.4.4-1.8,6.7h12.7V8.9h-2.7a76,76,0,0,1-4,18.7l5.8,14.2-1.4.6-5.2-12.7a49,49,0,0,1-7.7,12.8l-1.1-1a45.33,45.33,0,0,0,8-13.8l-6.4-15.6Z"/><path class="cls-1" d="M461.6,3.1h12.9V4.6h-5.7V19.8h5.5v1.5h-5.5V36.6l6.4-1.6.3,1.5L461,40l-.3-1.5,6.6-1.6V21.2h-5.5V19.7h5.5V4.5h-5.7Zm41.9,38.8h-4.1a5,5,0,0,1-5-5V17.4h-9.9v1c0,13.5-2.5,18-7.8,23.9l-1.1-1c5-5.6,7.5-9.9,7.5-22.9v-1h-6.7V15.9h26.5v1.5h-7V36.9a3.59,3.59,0,0,0,3.6,3.6h4.1v1.4ZM478,2.1h23.1V3.6H478Z"/><path class="cls-1" d="M514.2,5.9c-.6,15.9-2.2,26.7-4.2,35.5l-1.5-.4c2-8.8,3.6-19.5,4.2-35.2Zm27.3,35.3H524.6a5,5,0,0,1-5-5V.8h1.5V36.1a3.59,3.59,0,0,0,3.6,3.6h16.9v1.5ZM531.6,2.8l4,27.6-1.5.2L530.1,3Zm13.5,3,2.4,35.9-1.5.1L543.6,5.9Z"/><path class="cls-1" d="M556.4,21.8V39.6l5.3-1.3V17.8h-3.9a3.33,3.33,0,0,1-3.3-3.3V5a3.33,3.33,0,0,1,3.3-3.3h7.1A3.27,3.27,0,0,1,568.2,5v9.4a3.27,3.27,0,0,1-3.3,3.3h-1.7v7.1h6.4v1.5h-6.4V38l5.7-1.4.3,1.5-16.6,4-.4-1.5,2.6-.6V21.8Zm1.4-18.6A1.73,1.73,0,0,0,556,5v9.4a1.82,1.82,0,0,0,1.8,1.9h7.1a1.82,1.82,0,0,0,1.8-1.9V5a1.73,1.73,0,0,0-1.8-1.8ZM580.4,0V25.1c0,9.5-2.2,13.7-10,17.1l-.6-1.4c7.2-3.1,9.1-7,9.1-15.7V0Zm-6,2.9V16h-1.5V2.9Zm0,17.2V33.2h-1.5V20.1ZM595.5,42H592a5.27,5.27,0,0,1-5.5-5V0H588V37a3.81,3.81,0,0,0,4,3.6h3.5ZM594,2.9V16h-1.5V2.9Zm0,17.2V33.2h-1.5V20.1Z"/></g></g></svg>