<svg xmlns="http://www.w3.org/2000/svg" viewBox="0 0 387.01 44.3"><defs><style>.cls-1{fill:#fff;}</style></defs><title>v35</title><g id="图层_2" data-name="图层 2"><g id="图层_1-2" data-name="图层 1"><path class="cls-1" d="M22.1.1v4H42.6V5.6H0V4.1H20.5V.1ZM2.3,44.3v-16a5.23,5.23,0,0,1,5.2-5.2H35.9a5.29,5.29,0,0,1,5.2,5.2V39a5.23,5.23,0,0,1-5.2,5.2H33.7V42.7h2.2A3.63,3.63,0,0,0,39.6,39V28.3a3.63,3.63,0,0,0-3.7-3.7H7.5a3.69,3.69,0,0,0-3.7,3.7v16Zm35-28.5a3.52,3.52,0,0,1-3.5,3.4H8.9a3.52,3.52,0,0,1-3.5-3.4V12.9A3.46,3.46,0,0,1,8.9,9.5H33.8a3.46,3.46,0,0,1,3.5,3.4Zm-1.5-2.9a1.87,1.87,0,0,0-2-1.9H8.9a1.92,1.92,0,0,0-2,1.9v2.9a1.87,1.87,0,0,0,2,1.9H33.8a1.92,1.92,0,0,0,2-1.9Zm-1.9,23a3.46,3.46,0,0,1-3.5,3.4H12.9a3.52,3.52,0,0,1-3.5-3.4V32.2a3.46,3.46,0,0,1,3.5-3.4H30.4a3.52,3.52,0,0,1,3.5,3.4Zm-1.5-3.7a1.92,1.92,0,0,0-2-1.9H12.9a1.92,1.92,0,0,0-2,1.9v3.7a1.92,1.92,0,0,0,2,1.9H30.4a1.92,1.92,0,0,0,2-1.9Z"/><path class="cls-1" d="M57.7,41.6h7.8A3.59,3.59,0,0,0,69.1,38V29.9h-22V28.4h22V18.1H48.5V16.6H69.1V4.9l-18.6.7-.1-1.5,37-1.5.1,1.5-16.9.7V16.6H88.8v1.5H70.6V28.4H89.8v1.5H70.6V38a5.12,5.12,0,0,1-5.1,5.1H57.7Z"/><path class="cls-1" d="M115.2,43.7V34.4H99L98.6,44H97.1l1.1-25.9a5.28,5.28,0,0,1,5.2-5.1h22.4L129,6.7H99.9L102.8.5l1.3.6-1.9,4h29.1l-4,7.8h1.4a5.21,5.21,0,0,1,5.2,5.1V38.5a5.23,5.23,0,0,1-5.2,5.2h-3.6V42.2h3.6a3.69,3.69,0,0,0,3.7-3.7V34.3H116.5v9.3h-1.3ZM99.1,32.9h16.1V24H99.5Zm.4-10.3h15.7V14.5H103.4a3.82,3.82,0,0,0-3.7,3.7Zm17.1-8.2v8.1h15.9V18a3.55,3.55,0,0,0-3.7-3.6Zm0,18.5h15.9V24H116.6Z"/><path class="cls-1" d="M144.6,1V9.3h-1.5V1ZM182,43.1H148.2a5.14,5.14,0,0,1-5.1-5.2V12.3h1.5V38a3.61,3.61,0,0,0,3.6,3.7H182ZM149.4,2.5h32.8V4H167.1a19.74,19.74,0,0,1-3.8,4.6,24.5,24.5,0,0,1,4.3,6.5l1,1.6L180.4,10l.7,1.4L169.5,18l11.3,17.3-1.2.8L169.4,20.4a25.79,25.79,0,0,1,.4,3.9,18.18,18.18,0,0,1-7.3,14.6l-1-1.1a16.78,16.78,0,0,0,6.7-12.4A83.39,83.39,0,0,1,149.7,36l-.6-1.4c7.2-3.1,13.7-6.5,19.1-11.1a20.63,20.63,0,0,0-1.8-7.4,76.78,76.78,0,0,1-16.1,9.5l-.6-1.3c5.8-2.7,11.5-5.7,16.1-9.5a24.43,24.43,0,0,0-3.6-5.1c-3,2.4-7,4.4-12.1,6.5l-.5-1.4c7.8-3.1,13-6.6,15.7-10.6H149.4V2.5Z"/><path class="cls-1" d="M207.51,11.6v1.9a276.84,276.84,0,0,1-1.6,29.7l-1.5-.1A276.34,276.34,0,0,0,206,13.5V11.6ZM213.31,0V7h7.2V8.5h-7.2V44.1h-1.5V8.5h-7.2V7h7.2V0Zm5.4,11.6V43.5h-1.5V11.6Zm3-7.4h11.9V.1h1.5V4.2H247V5.7h-25.3Zm0,19.8h11.9V19.4h1.5V24H247v1.5h-18.3a34.81,34.81,0,0,1-.5,5.8h13.2a4.07,4.07,0,0,1,3.9,4.3v3.7a4.07,4.07,0,0,1-3.9,4.3h-2.8V42.1h2.8a2.6,2.6,0,0,0,2.4-2.8V35.6a2.54,2.54,0,0,0-2.4-2.8H228a32,32,0,0,1-4,10.8l-1.3-.8c3-5.1,4.2-9.8,4.5-17.3h-5.5V24Zm21.5-15.6v5.4a4.2,4.2,0,0,1,3.2,4.1v2.2h-1.5V17.9a2.59,2.59,0,0,0-2.5-2.7h-16a2.59,2.59,0,0,0-2.5,2.7v2.2h-1.5V17.9a4,4,0,0,1,3.2-4.1V8.4h1.5v5.4h14.6V8.5h1.5Z"/><path class="cls-1" d="M269.41,1.3V12.1h22.9v1.5h-22.9V40H294v1.5h-42.4V40h16.3V1.3Z"/><path class="cls-1" d="M316.51,1.4c-.7,1.6-1.3,3.1-2,4.5h26.6V7.4h-27.4a69.89,69.89,0,0,1-4.6,7.8,5.2,5.2,0,0,1,2.5-.7h20.7a5.21,5.21,0,0,1,5.2,5.1v19a5.23,5.23,0,0,1-5.2,5.2h-3.2V42.3h3.2a3.69,3.69,0,0,0,3.7-3.7V34.9H308v9.2h-1.5V19.6a3.4,3.4,0,0,1,.1-1,70.82,70.82,0,0,1-7,7.4l-1-1.1A62.69,62.69,0,0,0,312,7.3h-12.4V5.8h13.2c.8-1.6,1.6-3.3,2.3-5.1Zm-8.6,18.3v4.4h28V19.7a3.61,3.61,0,0,0-3.7-3.6h-20.7A3.65,3.65,0,0,0,307.91,19.7Zm0,13.8h28V25.6h-28Z"/><path class="cls-1" d="M354.51,1.2l-2.4,4.7h34.4c-1.5,10.4-3.6,18.1-35,18.1H347V22.5h4.5c29.1,0,31.8-6.5,33.3-15.1h-35l3.4-6.8ZM349.31,32a5.23,5.23,0,0,1,5.2-5.2h27.3A5.29,5.29,0,0,1,387,32v6.5a5.23,5.23,0,0,1-5.2,5.2h-27.3a5.16,5.16,0,0,1-5.2-5.2V32Zm27.5-16.2h-26.6V14.3h26.6Zm-26,22.6a3.69,3.69,0,0,0,3.7,3.7h27.3a3.69,3.69,0,0,0,3.7-3.7V31.9a3.69,3.69,0,0,0-3.7-3.7h-27.3a3.69,3.69,0,0,0-3.7,3.7v6.5Z"/></g></g></svg>