<svg xmlns="http://www.w3.org/2000/svg" viewBox="0 0 344.79 45.01"><defs><style>.cls-1{fill:#fff;}</style></defs><title>v36</title><g id="图层_2" data-name="图层 2"><g id="图层_1-2" data-name="图层 1"><path class="cls-1" d="M4.33,22.8V41.33L9.85,40V18.52H5.77A3.52,3.52,0,0,1,2.27,15V5.23a3.51,3.51,0,0,1,3.5-3.46h7.34a3.43,3.43,0,0,1,3.41,3.45h0V15a3.44,3.44,0,0,1-3.38,3.5H11.38V26h6.67v1.54H11.38v12.1l6-1.49.38,1.54L.38,43.92,0,42.38l2.78-.67V22.8ZM5.77,3.31a1.91,1.91,0,0,0-2,1.82s0,.07,0,.1V15a2,2,0,0,0,2,2h7.34A1.87,1.87,0,0,0,15,15.15s0-.09,0-.13V5.23a1.83,1.83,0,0,0-1.74-1.92H5.77ZM31.64,44.06H26.5a5.25,5.25,0,0,1-5.23-5.27h0V6.52A5.32,5.32,0,0,1,26.5,1.24H37.64A5.33,5.33,0,0,1,43,6.52V17.76A5.27,5.27,0,0,1,37.69,23H31.91l4.56,7.54,6.29-4.27.86,1.3-6.38,4.32L44.3,43.55l-1.39.82L30.06,23H22.81V38.79a3.71,3.71,0,0,0,3.68,3.74h5.16ZM22.81,11.32H41.39V6.52a3.69,3.69,0,0,0-3.64-3.74H26.5a3.68,3.68,0,0,0-3.7,3.66s0,.05,0,.08Zm18.58,6.43v-4.9H22.81v8.61H37.64a3.72,3.72,0,0,0,3.75-3.69h0Z"/><path class="cls-1" d="M50.84,10.08l9,15.07A72.63,72.63,0,0,0,64.5,6.28H48.58V4.74H66.15a80.33,80.33,0,0,1-5.42,21.89L67.64,38.2,66.3,39,60,28.46a51.06,51.06,0,0,1-10.7,14.83l-1.1-1.1A48.36,48.36,0,0,0,59,26.92l-9.6-16ZM69.18,7.25h17V.05h1.54v7.2H92V8.79H87.75v30a5.33,5.33,0,0,1-5.28,5.28h-7.2V42.53h7.2a3.75,3.75,0,0,0,3.74-3.74v-30h-17ZM71.39,17,78.1,28.46l-1.34.77L70,17.85Z"/><path class="cls-1" d="M119,0V4h20.93V5.54H96.48V4h20.93V0ZM98.69,45V28.75A5.33,5.33,0,0,1,104,23.46h29a5.39,5.39,0,0,1,5.28,5.28v10.9A5.33,5.33,0,0,1,133,44.93h-2.21V43.39H133a3.69,3.69,0,0,0,3.74-3.64s0-.07,0-.1V28.75A3.69,3.69,0,0,0,133.06,25H104a3.72,3.72,0,0,0-3.74,3.7s0,0,0,0V45Zm35.72-29a3.52,3.52,0,0,1-3.58,3.46H105.41A3.53,3.53,0,0,1,101.86,16V13a3.53,3.53,0,0,1,3.55-3.5H130.8a3.47,3.47,0,0,1,3.55,3.39s0,.07,0,.11Zm-1.54-3a2,2,0,0,0-2-2H105.41a2,2,0,0,0-2,2v3a1.92,1.92,0,0,0,1.92,1.92H130.8a1.92,1.92,0,0,0,2-1.84s0-.05,0-.08ZM131,36.46A3.57,3.57,0,0,1,127.4,40H109.49a3.57,3.57,0,0,1-3.54-3.5V32.67a3.57,3.57,0,0,1,3.55-3.5h17.85a3.57,3.57,0,0,1,3.55,3.5Zm-1.54-3.79a2,2,0,0,0-2-2H109.49a2,2,0,0,0-2,2v3.79a2,2,0,0,0,2,2h17.86a2,2,0,0,0,2-2Z"/><path class="cls-1" d="M155.19,42.33h7.92a3.67,3.67,0,0,0,3.7-3.64s0,0,0-.06V30.37H144.34V28.88h22.47V18.38h-21V16.84h21v-12l-19,.72L147.71,4l37.68-1.49.1,1.54-17.19.67v12h18.53v1.54H168.34V28.79h19.54v1.49H168.34v8.26a5.24,5.24,0,0,1-5.23,5.23h-7.92Z"/><path class="cls-1" d="M205.54,42.38h2.64a3.72,3.72,0,0,0,3.77-3.67s0,0,0-.07v-11l-6.82,3.74L204.41,30,212,25.92V9.07H204.7V7.53H212V.14h1.54V7.53h4.85V9.07h-4.85v16l5.52-3,.72,1.34-6.24,3.46V38.68A5.27,5.27,0,0,1,208.23,44h-2.66Zm16.27-20.64h11.33V13.63h-11V12.09h17.62l2.69-5.9H223.06L226,.57l1.34.72-1.78,3.36h19.25l-3.31,7.44h.1a4.37,4.37,0,0,1,4.4,4.34v5.31h2.93v1.49H246v6.1a4.28,4.28,0,0,1-4.19,4.37h-7v5.14a5.32,5.32,0,0,1-5.28,5.23H226V42.53h3.41a3.68,3.68,0,0,0,3.74-3.62s0-.05,0-.08V33.69h-11V32.16h11V23.23H221.81Zm12.87-8.11v8.11h9.7V16.46a2.8,2.8,0,0,0-2.77-2.83h-6.93Zm9.7,15.7v-6.1h-9.7v8.93h6.91a2.77,2.77,0,0,0,2.79-2.75s0-.05,0-.08Z"/><path class="cls-1" d="M260.12,23.76v7.39c2.88,7,8.06,10.51,13.63,11V17.85H263.67a5.25,5.25,0,0,1-5.23-5.27h0V6.28A5.32,5.32,0,0,1,263.67,1h22.61a5.33,5.33,0,0,1,5.28,5.28v6.29a5.27,5.27,0,0,1-5.26,5.28h-11v9.7H294v1.54H275.29V42.15h20.5v1.54h-21c-5.9,0-11.47-3.17-15-9.6a18.51,18.51,0,0,1-5.33,10.32l-1.1-1.06c3.55-3.84,5.23-7.44,5.23-14V23.78Zm26.16-7.44A3.69,3.69,0,0,0,290,12.69s0-.07,0-.11V6.29a3.72,3.72,0,0,0-3.7-3.74H263.67A3.75,3.75,0,0,0,260,6.28v6.29a3.72,3.72,0,0,0,3.7,3.74h22.63Z"/><path class="cls-1" d="M314.84,44.11h-4.08a5.24,5.24,0,0,1-5.23-5.23V28.13h-5.09V26.59h5.09V17.8h-5.09V16.26h14.4V17.8h-7.78v8.79h7.78v1.54h-7.78V38.88a3.67,3.67,0,0,0,3.64,3.7h4.14ZM305.67,1.46,303.56,8h11.28V9.46h-13.3L304.23,1ZM331,.46V2.33c0,2.64,0,5.09.19,7.44h13.2v1.54H331.25a72.63,72.63,0,0,0,1.2,9.15h12.34V22h-12A54.52,54.52,0,0,0,336,32.13a46.79,46.79,0,0,0,7.06-6.1l1.06,1.06a49.38,49.38,0,0,1-7.44,6.48,47,47,0,0,0,6.91,10.37l-1.15,1a48.26,48.26,0,0,1-7.07-10.48A67.44,67.44,0,0,1,319,42.14l-.43-1.44A65.83,65.83,0,0,0,334.79,33a53.16,53.16,0,0,1-3.55-11h-14V20.46h13.58a82.69,82.69,0,0,1-1.2-9.12h-11.9V9.8h11.81c-.14-2.35-.19-4.85-.19-7.44V.46ZM342,.7v6h-1.54V.7Z"/></g></g></svg>