<svg xmlns="http://www.w3.org/2000/svg" viewBox="0 0 341.31 44.3"><defs><style>.cls-1{fill:#fff;}</style></defs><title>v37</title><g id="图层_2" data-name="图层 2"><g id="图层_1-2" data-name="图层 1"><path class="cls-1" d="M19.1,3.6l-7.8,1v11h8.3v1.5H11.3V24a27.15,27.15,0,0,1-.1,2.9h8.7v1.5H11.1c-.7,7.2-3.4,11.2-10.4,15L0,42.1C6.4,38.6,8.9,35,9.6,28.4H.6V26.9H9.7c0-.9.1-1.9.1-2.9V17.1H.9V15.6H9.8V4.8l-8.2,1L1.4,4.3,18.8,2Zm23.7,20H33v8.1H43.5v1.5H33V44.3H31.5V33.1H21V31.6H31.6V23.5H21.7V22h9.9V13.7H21.7V12.2h9.9V3.9H21.7V2.4H42.9V3.9H33.1v8.3h9.8v1.5H33.1V22h9.8v1.6Z"/><path class="cls-1" d="M60.3.2V21.1c0,11.1-2.6,17-12.2,22.1l-.7-1.4c8.9-4.7,11.4-10.4,11.4-20.7V.2ZM51.5,4.8V31.4H50V4.8ZM64.9,1.6H90.4V3.1H78.3v7.1h6a5.16,5.16,0,0,1,5.2,5.2V35.1a5.23,5.23,0,0,1-5.2,5.2h-.9V38.8h.9A3.76,3.76,0,0,0,88,35.1V15.4a3.63,3.63,0,0,0-3.7-3.7h-6V44.1H76.8V11.7h-6a3.69,3.69,0,0,0-3.7,3.7V40.2H65.6V15.4a5.16,5.16,0,0,1,5.2-5.2h6V3.1h-12V1.6Z"/><path class="cls-1" d="M116.8.1v4h20.6V5.6H94.8V4.1h20.5V.1ZM96.9,44.3v-16a5.23,5.23,0,0,1,5.2-5.2h28.5a5.29,5.29,0,0,1,5.2,5.2V39a5.23,5.23,0,0,1-5.2,5.2h-2.2V42.7h2.2a3.63,3.63,0,0,0,3.7-3.7V28.3a3.63,3.63,0,0,0-3.7-3.7H102.1a3.69,3.69,0,0,0-3.7,3.7v16ZM132,15.8a3.52,3.52,0,0,1-3.5,3.4H103.6a3.52,3.52,0,0,1-3.5-3.4V12.9a3.46,3.46,0,0,1,3.5-3.4h24.9a3.46,3.46,0,0,1,3.5,3.4Zm-1.5-2.9a1.87,1.87,0,0,0-2-1.9H103.6a1.92,1.92,0,0,0-2,1.9v2.9a1.87,1.87,0,0,0,2,1.9h24.9a1.92,1.92,0,0,0,2-1.9Zm-1.9,23a3.46,3.46,0,0,1-3.5,3.4H107.6a3.52,3.52,0,0,1-3.5-3.4V32.2a3.46,3.46,0,0,1,3.5-3.4h17.5a3.52,3.52,0,0,1,3.5,3.4Zm-1.5-3.7a1.92,1.92,0,0,0-2-1.9H107.6a1.92,1.92,0,0,0-2,1.9v3.7a1.92,1.92,0,0,0,2,1.9h17.5a1.92,1.92,0,0,0,2-1.9Z"/><path class="cls-1" d="M152.5,41.7h7.8a3.59,3.59,0,0,0,3.6-3.6V30H141.8V28.5h22.1V18.1H143.3V16.6h20.6V4.9l-18.6.7-.1-1.5,37-1.5.1,1.5-16.9.7V16.6h18.2v1.5H165.4V28.4h19.2v1.5H165.4V38a5.12,5.12,0,0,1-5.1,5.1h-7.8Z"/><path class="cls-1" d="M244.81,14.2l-12.3,9.7,13.2,16.8-1.1.9-18.2-23.2V38.7a5.23,5.23,0,0,1-5.2,5.2h-3.7V42.4h3.7a3.69,3.69,0,0,0,3.7-3.7V7.9h-20.5V6.4h20.4V0h1.5V6.4H240a2.78,2.78,0,0,0,2.7-2.8V1.4h1.5V3.6A4.31,4.31,0,0,1,240,7.9h-13.7V16l5.3,6.8,12.3-9.7Zm-23.4,10.9-15.6,16.3-1.1-1,15.6-16.3Zm-15-12.2,9.9,9.1-1.1,1.1-9.9-9.1Z"/><path class="cls-1" d="M265.61,42.4h-15.4V40.9h15.4Zm-1.9-28.9-9.5,18.9h10.4v1.5h-12.8l6.6-13.2h-6.8l8.9-19.4,1.3.6-7.9,17.3h5.3l3.2-6.3Zm5.1-11.8h21.3a43.19,43.19,0,0,1-6.8,9.9l10.3,9.6-1.1,1-10.3-9.6a45.45,45.45,0,0,1-14.3,9.1l-.6-1.4c9.1-3.6,15.6-8.8,20.2-17.1h-18.7Zm-.4,23.4h24.7v1.5h-11.6V41.9H294v1.5h-26.4V41.9H280V26.6h-11.5V25.1Z"/><path class="cls-1" d="M297.11,31.7h12.6v1.5h-12.6Zm4.2-25.3-.9,14.8h8.7a4.27,4.27,0,0,1,4.3,4.3V39a4.27,4.27,0,0,1-4.3,4.3H303V41.8h6.1a2.73,2.73,0,0,0,2.8-2.8V25.5a2.73,2.73,0,0,0-2.8-2.8h-10.3l1-16.4Zm10,12.6V5.4a2.73,2.73,0,0,0-2.8-2.8h-9.7V1.1h9.7a4.27,4.27,0,0,1,4.3,4.3V19.1h-1.5Zm3.8-1,5-12.4c1-2.5,2.5-3.7,5.4-3.7h4.6c2.8,0,4.3,1.3,5.4,3.7l5,12.4-1.4.5-1.2-2.9h-20.3l-1.1,2.9Zm.2,23.8h26v1.5h-26Zm3.8-21.5L321,38.2l-1.5.2-1.9-18Zm-.8-6.2h19L334.11,6h0a4,4,0,0,0-4-2.8h-4.6a4,4,0,0,0-4,2.7Zm9.6,6.2,1.9,17.9-1.5.2-1.9-18Zm11.1.1a72.63,72.63,0,0,1-3.9,18.1l-1.4-.5a74,74,0,0,0,3.8-17.7Z"/></g></g></svg>