<svg xmlns="http://www.w3.org/2000/svg" viewBox="0 0 423.5 43"><defs><style>.cls-1{fill:#fff;}</style></defs><title>v98</title><g id="图层_2" data-name="图层 2"><g id="图层_1-2" data-name="图层 1"><path class="cls-1" d="M.1,25.9H19.9V10.4H4.6L6.9.7,8.4,1,6.5,8.9H19.8V.1h1.5V9H38.8v1.5H21.3V26H41.1v1.5H21.3V43H19.8V27.4H0V25.9Z"/><path class="cls-1" d="M67.6,1.8c-.6,3.2-1.2,6.3-2,9.3L87.4,41.2l-1.2.9L65.1,13A61.25,61.25,0,0,1,46.9,42.2L46,41.1C58,30.4,63.6,17,66.1,1.5Z"/><path class="cls-1" d="M108.2,1c-.5,1.8-1,3.4-1.6,5.1h27.2V7.6H106a35.3,35.3,0,0,1-6.6,10.1V43H97.9V19a39,39,0,0,1-5.1,4l-.7-1.2A32.3,32.3,0,0,0,104.4,7.5h-13V6h13.7c.6-1.7,1.2-3.5,1.7-5.4ZM133,22H119.6V40.2h14.2v1.5H103V40.2h15.1V22H103.8V20.5h14.3V12.4h1.5v8.1H133V22Z"/><path class="cls-1" d="M151,40.6H137.4V39.1H151Zm-1.6-28.1L141,30.8h9.1v1.5H138.8l5.8-12.8h-6.1L146.3.6l1.4.6L140.8,18h4.5l2.8-6.1ZM161.8.4c.8,3.1,1.6,6.2,2.6,9.2l13.7-1.1.1,1.5-13.3,1c.9,2.7,1.8,5.4,2.9,8l12.5-1,.1,1.5-12,1c1.3,3.2,2.7,6.3,4.1,9.3a44.49,44.49,0,0,0,6-5.3l1,1a42.66,42.66,0,0,1-6.3,5.6,113.32,113.32,0,0,0,6.1,10.7l-1.2.8c-2.2-3.4-4.2-7-6.1-10.7a64,64,0,0,1-16.8,8l-.4-1.4a64.16,64.16,0,0,0,16.6-8c-1.6-3.3-3.1-6.7-4.5-10.1l-14.2,1.1-.1-1.5,13.7-1.1c-1-2.7-1.9-5.3-2.8-8.1l-10.4.8-.1-1.5,10.1-.8c-.9-2.9-1.7-5.9-2.5-8.9Zm13,.1V6.1h-1.5V.5Z"/><path class="cls-1" d="M238.9,30.9l-3.4-5.4a4.72,4.72,0,0,0-4.3-2.4H210a4.77,4.77,0,0,0-4.4,2.4l-3.4,5.4-1.2-.8,3.4-5.4a6.48,6.48,0,0,1,5.6-3.1h21.2a6.6,6.6,0,0,1,5.6,3.1l3.4,5.4ZM201.2,1.1h38.7V2.5H221.3V6.3h15a3.21,3.21,0,0,1,3.3,3.3V19.8h-1.5V9.7a1.73,1.73,0,0,0-1.8-1.8h-15V20.1h-1.5V7.8h-15a1.82,1.82,0,0,0-1.9,1.8V19.8h-1.5V9.7a3.29,3.29,0,0,1,3.4-3.3h15V2.5H201.2Zm3.9,29.3h14.7V25.3h1.5v5.1h13.9c-.1,3.1-6.7,6.3-13.7,8l10.2,2.3-.4,1.4-25.5-5.8.3-1.5,12,2.8c6.5-1.1,12.7-3.5,14.3-5.7H205V30.4Zm.9-19.1h10.7v1.5H206Zm0,4.9h10.7v1.4H206Zm18.5-4.9h10.7v1.5H224.5Zm0,4.9h10.7v1.4H224.5Z"/><path class="cls-1" d="M249.3,21.8V39.6l5.3-1.3V17.7h-4a3.35,3.35,0,0,1-3.3-3.4V5a3.33,3.33,0,0,1,3.3-3.3h7A3.42,3.42,0,0,1,261,5v9.4a3.44,3.44,0,0,1-3.4,3.4H256V25h6.4v1.5H256V38l5.7-1.4.3,1.5-16.6,4-.3-1.5,2.7-.6V21.8Zm1.3-18.7a1.73,1.73,0,0,0-1.8,1.8v9.4a1.82,1.82,0,0,0,1.8,1.9h7a1.84,1.84,0,0,0,1.9-1.9V5a1.76,1.76,0,0,0-1.9-1.8h-7ZM288,42.2H270.5a5.12,5.12,0,0,1-5.1-5.1V7a5.19,5.19,0,0,1,5.1-5.1H288V3.4H270.5A3.59,3.59,0,0,0,266.9,7v6.3h15.4a4.14,4.14,0,0,1,4.2,4.1v8.1a4.16,4.16,0,0,1-4.2,4.2H266.9v7.4a3.59,3.59,0,0,0,3.6,3.6H288ZM266.9,14.8V28.3h15.4a2.69,2.69,0,0,0,2.7-2.7V17.5a2.69,2.69,0,0,0-2.7-2.7Z"/><path class="cls-1" d="M291.8,4h20V0h1.5V4h20.1V5.5H291.8Zm37.6,4.4V17a4.16,4.16,0,0,1-4.2,4.2H310.7l-1.6,4.2h16.8a5,5,0,0,1,5,5.1v7.2a5.1,5.1,0,0,1-5,5.1h-3.1V41.3h3.1a3.59,3.59,0,0,0,3.6-3.6V30.5a3.59,3.59,0,0,0-3.6-3.6H308.5l-3.7,9.9h12.9a2.71,2.71,0,0,0,2.7-2.8V31.1h1.5V34a4.1,4.1,0,0,1-4.2,4.2h-15L307,26.8h-7.7a3.59,3.59,0,0,0-3.6,3.6V43h-1.5V30.6a5.19,5.19,0,0,1,5.1-5.1h8.3l1.6-4.2H300a4.22,4.22,0,0,1-4.2-4.2V8.4h1.5V17a2.69,2.69,0,0,0,2.7,2.7h25.2A2.78,2.78,0,0,0,328,17V8.4Zm-27.2-.5,11.4,4a80.12,80.12,0,0,0,9.8-4.1l.7,1.3c-2.7,1.3-5.4,2.5-8.3,3.6l9.2,3.2-.6,1.4-10.9-3.8A106.31,106.31,0,0,1,301.1,17l-.4-1.5c3.8-.9,7.3-1.8,10.6-2.9l-9.7-3.4Z"/><path class="cls-1" d="M346.6,27.7l-7.5,14.9-1.3-.6,7.5-14.9ZM342.4,1V9.8h-1.5V1Zm0,13.1V23h-1.5V14.1Zm25.2,26.5h6.6a3.59,3.59,0,0,0,3.6-3.6V11a3.59,3.59,0,0,0-3.6-3.6H349.7L353,.5l1.3.6L352,6h22.3a5.19,5.19,0,0,1,5.1,5.1V37a5.12,5.12,0,0,1-5.1,5.1h-6.6V40.6ZM370.2,23v6.8a5.12,5.12,0,0,1-5.1,5.1H350.6L357.8,11l1.4.4-6.7,21.9h12.6a3.59,3.59,0,0,0,3.6-3.6V23Z"/><path class="cls-1" d="M387,.8V8.9h-1.5V.8ZM423.5,42h-33a5.12,5.12,0,0,1-5.1-5.1v-25h1.5V37a3.59,3.59,0,0,0,3.6,3.6h33Zm-25-36.1,3,5.8h12.3l3.4-8.3H394.3V1.9h25l-4,9.8h1.1a5,5,0,0,1,5.1,5V32.4a5.12,5.12,0,0,1-5.1,5.1h-1.9V36h1.9a3.59,3.59,0,0,0,3.6-3.6V29.9H408.1v7.8h-1.5V29.9H394.8v7.5h-1.5V16.7a5,5,0,0,1,5.1-5h1.4l-2.6-5.1Zm-3.6,14.3h11.8v-7h-8.2a3.59,3.59,0,0,0-3.6,3.6Zm0,8.2h11.8V21.6H394.9Zm13.2-15.3v7H420V16.7a3.59,3.59,0,0,0-3.6-3.6Zm0,15.3H420V21.6H408.1Z"/></g></g></svg>