<!-- Generator: Adobe Illustrator 20.1.0, SVG Export Plug-In  -->
<svg version="1.1"
	 xmlns="http://www.w3.org/2000/svg" xmlns:xlink="http://www.w3.org/1999/xlink" xmlns:a="http://ns.adobe.com/AdobeSVGViewerExtensions/3.0/"
	 x="0px" y="0px" width="320px" height="80px" viewBox="0 0 320 80" style="enable-background:new 0 0 320 80;"
	 xml:space="preserve">
<style type="text/css">
	.st0{fill:#FF6666;}
	.st1{opacity:0.1;}
	.st2{fill:#FFFFFF;}
</style>
<defs>
</defs>
<path class="st0" d="M310,80H10C4.5,80,0,75.5,0,70V10C0,4.5,4.5,0,10,0h300c5.5,0,10,4.5,10,10v60C320,75.5,315.5,80,310,80z"/>
<path class="st1" d="M310,74H10C4.5,74,0,69.5,0,64v6c0,5.5,4.5,10,10,10h300c5.5,0,10-4.5,10-10v-6C320,69.5,315.5,74,310,74z"/>
<g>
	<path class="st2" d="M93.2,52.6c3.3-6.1,5.5-12.9,6.7-20.3l2.1,0.5c-1.6,7.7-3.8,14.2-6.6,19.8h13.1v1.9h-33v-1.9H93.2z M93.1,23.2
		v5h13.8v1.9H77.1v-1.9H91v-5H93.1z M85.9,50c-0.4-5.3-1.6-10.8-3.8-16.4L84,33c2.3,5.9,3.6,11.5,4,16.7L85.9,50z"/>
	<path class="st2" d="M128.7,43.5c2.4,3.1,4.5,6.6,6.2,10.4l-1.8,0.9c-0.5-1.2-1.2-2.6-2.1-4.2c-3.4,1.1-7.8,2.3-13.3,3.5l-0.5-1.8
		c0.8-0.2,1.6-0.3,2.3-0.5V24.2h14.1v16.9h-12.1v10.2c4.1-1,6.9-1.8,8.7-2.3c-1-1.8-2-3.4-3.1-4.8L128.7,43.5z M131.7,26h-10.2v5.7
		h10.2V26z M131.7,33.4h-10.2v6h10.2V33.4z M149.2,48.6c0,0.9-0.1,1.6-0.4,2c-0.4,0.6-1.3,0.9-2.6,0.9h-4.9l-0.4-1.9l4.8,0.1
		c0.6,0,1.1-0.1,1.2-0.3c0.1-0.2,0.2-0.6,0.2-1.3v-22h-8.5v30.1h-2v-32h12.4V48.6z"/>
	<path class="st2" d="M193.8,24.7v1.9h-16.5v6.2c4.7,2.1,9.6,5.1,14.8,9l-1.4,2.1c-4-3.6-8.4-6.6-13.5-8.9v21.3h-2.2V26.6h-14.3
		v-1.9H193.8z"/>
	<path class="st2" d="M219.5,54.8c3-2.3,5.4-4.5,7.2-6.7c-1.1-3.2-1.9-7.6-2.4-13.2l-0.1-1.1h-20.5v-1.6h8.8v-4h-7.3v-1.6h7.3v-3.6
		h1.8v3.6h6.8v1.6h-6.8v4h9.8c-0.1-2.7-0.2-5.8-0.2-9.3h1.9c0,3,0.1,6.1,0.3,9.3h11.7v1.6H226c0,0.1,0,0.3,0.1,0.6l0,0.6
		c0.4,4.7,1,8.5,1.8,11.2c1.6-2.3,3.2-5.3,4.8-9.1l1.7,0.8c-1.9,4.3-3.9,7.8-5.8,10.4c1.6,4,3.2,6,4.8,6c0.7,0,1.3-0.6,1.5-1.7
		c0.2-0.9,0.5-2.5,0.9-4.6c0.4,0.2,1,0.4,1.7,0.6c-0.4,2.5-0.7,4.4-1.1,5.4c-0.5,1.5-1.5,2.2-2.9,2.2c-2.4,0-4.4-2.1-6.2-6.3
		c-1.8,2.1-4,4.2-6.5,6.1C220.5,55.7,220,55.2,219.5,54.8z M204.1,50.4c2.4-0.1,5.4-0.3,9.3-0.6V46h-7.8v-1.9
		c0.8-0.8,1.9-2.3,3.2-4.5h-4.4V38h5.3c0.6-1,1.2-2.1,1.8-3.3l1.9,0.5c-0.5,0.8-1,1.8-1.7,2.8h10.7v1.6h-11.7
		c-1.1,1.8-2.2,3.4-3.3,4.8h5.8v-3.2h1.8v3.2h6.7V46h-6.7v3.7c3.3-0.2,5.7-0.4,7.1-0.5c0,0.7-0.1,1.2,0,1.6c-0.8,0-3.2,0.2-7,0.5
		v5.3h-1.8v-5.2c-3.2,0.2-6.2,0.5-9,0.8L204.1,50.4z M229.7,24.6c2.3,1.8,4,3.3,5.1,4.2l-1.5,1.4c-1.2-1.3-2.9-2.8-4.9-4.4
		L229.7,24.6z"/>
</g>
</svg>
