<!-- Generator: Adobe Illustrator 20.1.0, SVG Export Plug-In  -->
<svg version="1.1"
	 xmlns="http://www.w3.org/2000/svg" xmlns:xlink="http://www.w3.org/1999/xlink" xmlns:a="http://ns.adobe.com/AdobeSVGViewerExtensions/3.0/"
	 x="0px" y="0px" width="132.8px" height="132.8px" viewBox="0 0 132.8 132.8" style="enable-background:new 0 0 132.8 132.8;"
	 xml:space="preserve">
<style type="text/css">
	.st0{fill:#FF7373;}
	.st1{fill:#E0E0D1;}
	.st2{fill:#F5CF87;}
	.st3{fill:#C75C5C;}
	.st4{opacity:0.2;}
	.st5{fill:#231F20;}
	.st6{fill:#FFFFFF;}
</style>
<defs>
</defs>
<g>
	<g>
		<circle class="st0" cx="66.4" cy="66.4" r="66.4"/>
	</g>
	<g>
		<path class="st1" d="M49.8,83c0-1.1,1.3-1,2.3-1.6l12.5-7.2c1-0.6,2.6-0.6,3.6,0l12.5,7.2c1,0.6,2.3,0.5,2.3,1.6v15.4
			c0,1.1-1.3,3.1-2.3,3.7l-12.5,7.2c-1,0.6-2.6,0.6-3.6,0L52.1,102c-1-0.6-2.3-2.5-2.3-3.7V83z"/>
	</g>
	<g>
		<g>
			<path class="st2" d="M66.4,93.3c-19.4,0-35.3-15.8-35.3-35.3s15.8-35.3,35.3-35.3s35.3,15.8,35.3,35.3S85.8,93.3,66.4,93.3z"/>
		</g>
		<g>
			<path class="st3" d="M66.4,24.9c18.3,0,33.2,14.9,33.2,33.2S84.7,91.3,66.4,91.3S33.2,76.4,33.2,58.1S48,24.9,66.4,24.9
				 M66.4,20.7C45.8,20.7,29,37.5,29,58.1s16.7,37.3,37.3,37.3s37.3-16.7,37.3-37.3S87,20.7,66.4,20.7L66.4,20.7z"/>
		</g>
	</g>
	<g class="st4">
		<g>
			<path class="st5" d="M49.8,95.6v6.9c0,1.1,1.3,3.1,2.3,3.7l12.5,7.2c1,0.6,2.6,0.6,3.6,0l12.5-7.2c1-0.6,2.3-2.5,2.3-3.7v-6.9
				c-5,2.5-10.6,3.9-16.6,3.9S54.8,98.1,49.8,95.6z"/>
		</g>
	</g>
	<g>
		<g>
			<path class="st1" d="M49.8,83.1v15.3c0,1.1,1.3,3.1,2.3,3.7l12.5,7.2c1,0.6,2.6,0.6,3.6,0l12.5-7.2c1-0.6,2.3-2.5,2.3-3.7V83.1
				C78,85.6,72.3,87,66.4,87S54.8,85.6,49.8,83.1z"/>
		</g>
	</g>
	<g class="st4">
		<g>
			<circle class="st5" cx="66.4" cy="62.2" r="33.2"/>
		</g>
	</g>
	<g>
		<g>
			<circle class="st2" cx="66.4" cy="58.1" r="33.2"/>
		</g>
	</g>
	<g>
		<path class="st6" d="M57.2,44.6l9.7,28.7l9.7-28.9c0.5-1.5,0.9-2.6,1.1-3.2c0.3-0.6,0.7-1.1,1.3-1.6c0.6-0.5,1.4-0.7,2.4-0.7
			c0.7,0,1.4,0.2,2.1,0.6c0.6,0.4,1.1,0.9,1.5,1.5c0.4,0.6,0.5,1.2,0.5,1.9c0,0.4-0.1,0.9-0.2,1.4c-0.1,0.5-0.3,1-0.4,1.5
			c-0.2,0.5-0.4,1-0.5,1.5L74,75.1c-0.4,1.1-0.7,2.1-1.1,3.1c-0.4,1-0.8,1.8-1.3,2.5c-0.5,0.7-1.1,1.3-1.9,1.8
			c-0.8,0.5-1.8,0.7-3,0.7c-1.2,0-2.2-0.2-3-0.7c-0.8-0.5-1.5-1.1-2-1.8c-0.5-0.7-0.9-1.6-1.3-2.6c-0.4-1-0.7-2-1.1-3L49.2,47.4
			c-0.2-0.5-0.4-1-0.5-1.5c-0.2-0.5-0.3-1-0.5-1.6c-0.1-0.6-0.2-1-0.2-1.4c0-1,0.4-1.9,1.2-2.7c0.8-0.8,1.8-1.2,3-1.2
			c1.5,0,2.5,0.5,3.1,1.4C56,41.2,56.6,42.6,57.2,44.6z"/>
	</g>
</g>
</svg>
