<svg id="图层_1" data-name="图层 1" xmlns="http://www.w3.org/2000/svg" viewBox="0 0 406.18 61.54"><defs><style>.cls-1{fill:#fff;}.cls-2{fill:#99e5ff;fill-rule:evenodd;}</style></defs><path class="cls-1" d="M381.38-71.66v18.53l5.52-1.34V-75.94h-4.08a3.52,3.52,0,0,1-3.5-3.5v-9.79a3.51,3.51,0,0,1,3.5-3.46h7.34a3.43,3.43,0,0,1,3.41,3.46v9.79a3.44,3.44,0,0,1-3.41,3.5h-1.73v7.49h6.67v1.54h-6.67v12.1l6-1.49.38,1.54-17.38,4.22-.38-1.54,2.78-.67V-71.66Zm1.44-19.49a1.91,1.91,0,0,0-2,1.92v9.79a2,2,0,0,0,2,2h7.34a1.87,1.87,0,0,0,1.87-2v-9.79a1.83,1.83,0,0,0-1.87-1.92ZM408.69-50.4h-5.14a5.25,5.25,0,0,1-5.23-5.28V-87.94a5.32,5.32,0,0,1,5.23-5.28h11.14A5.33,5.33,0,0,1,420-87.94V-76.7a5.27,5.27,0,0,1-5.28,5.28h-5.76l4.56,7.54,6.29-4.27.86,1.3-6.38,4.32,7.06,11.62-1.39.82L407.11-71.42h-7.25v15.75a3.71,3.71,0,0,0,3.7,3.74h5.14Zm-8.83-32.74h18.58v-4.8a3.69,3.69,0,0,0-3.74-3.74H403.55a3.68,3.68,0,0,0-3.7,3.74Zm18.58,6.43v-4.9H399.86V-73h14.83A3.72,3.72,0,0,0,418.44-76.7Z" transform="translate(-346.5 102.96)"/><path class="cls-1" d="M427.89-84.38l9,15.07a72.63,72.63,0,0,0,4.66-18.87H425.63v-1.54H443.2a80.33,80.33,0,0,1-5.42,21.89l6.91,11.57-1.34.77L437-66A51.06,51.06,0,0,1,426.3-51.17l-1.1-1.1a48.36,48.36,0,0,0,10.9-15.27l-9.6-16Zm18.34-2.83h17v-7.2h1.54v7.2h4.32v1.54H464.8v30a5.33,5.33,0,0,1-5.28,5.28h-7.2v-1.54h7.2a3.75,3.75,0,0,0,3.74-3.74v-30h-17Zm2.21,9.74L455.15-66l-1.34.77-6.72-11.38Z" transform="translate(-346.5 102.96)"/><path class="cls-1" d="M496-94.46v4h20.93v1.54h-43.4v-1.54h20.93v-4Zm-20.26,45V-65.71A5.33,5.33,0,0,1,481-71h29a5.39,5.39,0,0,1,5.28,5.28v10.9A5.33,5.33,0,0,1,510-49.53h-2.21v-1.54H510a3.69,3.69,0,0,0,3.74-3.74v-10.9A3.69,3.69,0,0,0,510-69.46H481a3.72,3.72,0,0,0-3.74,3.74v16.27Zm35.72-29A3.52,3.52,0,0,1,507.86-75H482.46a3.53,3.53,0,0,1-3.55-3.46v-3a3.53,3.53,0,0,1,3.55-3.5h25.39a3.47,3.47,0,0,1,3.55,3.5Zm-1.54-3a2,2,0,0,0-2-2H482.46a2,2,0,0,0-2,2v3a1.92,1.92,0,0,0,2,1.92h25.39a1.92,1.92,0,0,0,2-1.92ZM508-58a3.57,3.57,0,0,1-3.55,3.5H486.54A3.57,3.57,0,0,1,483-58v-3.79a3.57,3.57,0,0,1,3.55-3.5H504.4a3.57,3.57,0,0,1,3.55,3.5Zm-1.54-3.79a2,2,0,0,0-2-2H486.54a2,2,0,0,0-2,2V-58a2,2,0,0,0,2,2H504.4a2,2,0,0,0,2-2Z" transform="translate(-346.5 102.96)"/><path class="cls-1" d="M532.24-52.13h7.92a3.67,3.67,0,0,0,3.7-3.7v-8.26H521.39v-1.49h22.47V-76.08h-21v-1.54h21v-12l-19,.72-.1-1.54,37.68-1.49.1,1.54-17.19.67v12h18.53v1.54H545.39v10.51h19.54v1.49H545.39v8.26a5.24,5.24,0,0,1-5.23,5.23h-7.92Z" transform="translate(-346.5 102.96)"/><path class="cls-1" d="M582.59-52.08h2.64A3.72,3.72,0,0,0,589-55.82v-11l-6.82,3.74-.72-1.39L589-68.54V-85.39h-7.25v-1.54H589v-7.39h1.54v7.39h4.85v1.54h-4.85v16l5.52-3,.72,1.34-6.24,3.46v11.81a5.27,5.27,0,0,1-5.28,5.28h-2.64Zm16.27-20.64h11.33v-8.11h-11v-1.54h17.62l2.69-5.9H600.11L603-93.89l1.34.72-1.78,3.36h19.25l-3.31,7.44h.1A4.37,4.37,0,0,1,623-78v5.28h2.93v1.49H623v6.1a4.28,4.28,0,0,1-4.32,4.37h-6.91v5.14a5.32,5.32,0,0,1-5.28,5.23H603v-1.54h3.41a3.68,3.68,0,0,0,3.74-3.7v-5.14h-11V-62.3h11v-8.93H598.86Zm12.87-8.11v8.11h9.7V-78a2.8,2.8,0,0,0-2.78-2.83Zm9.7,15.7v-6.1h-9.7v8.93h6.91A2.77,2.77,0,0,0,621.43-65.13Z" transform="translate(-346.5 102.96)"/><path class="cls-1" d="M637.17-70.7l0,5.57c0,.62,0,1.25,0,1.82,2.88,7,8.06,10.51,13.63,10.95V-76.61H640.72a5.25,5.25,0,0,1-5.23-5.28v-6.29a5.32,5.32,0,0,1,5.23-5.28h22.61a5.33,5.33,0,0,1,5.28,5.28v6.29a5.27,5.27,0,0,1-5.28,5.28h-11v9.7H671v1.54H652.34v13.06l20.5,0v1.54l-21,0c-5.9,0-11.47-3.17-15-9.6a18.51,18.51,0,0,1-5.33,10.32l-1.1-1.06c3.55-3.84,5.23-7.44,5.23-14l0-5.57Zm26.16-7.44a3.69,3.69,0,0,0,3.75-3.74v-6.29a3.72,3.72,0,0,0-3.75-3.74H640.72A3.75,3.75,0,0,0,637-88.18v6.29a3.72,3.72,0,0,0,3.74,3.74Z" transform="translate(-346.5 102.96)"/><path class="cls-1" d="M691.89-50.35h-4.08a5.24,5.24,0,0,1-5.23-5.23V-66.33h-5.09v-1.54h5.09v-8.79h-5.09v-1.54h14.4v1.54h-7.78v8.79h7.78v1.54h-7.78v10.75a3.67,3.67,0,0,0,3.7,3.7h4.08ZM682.72-93l-2.11,6.53h11.28V-85h-13.3l2.69-8.45ZM708-94v1.87c0,2.64,0,5.09.19,7.44h13.2v1.54H708.3A72.62,72.62,0,0,0,709.5-74h12.34v1.54h-12a54.52,54.52,0,0,0,3.22,10.13,46.79,46.79,0,0,0,7.06-6.1l1.06,1.06a49.38,49.38,0,0,1-7.44,6.48,47,47,0,0,0,6.91,10.37l-1.15,1A48.26,48.26,0,0,1,712.43-60,67.44,67.44,0,0,1,696-52.32l-.43-1.44a65.83,65.83,0,0,0,16.27-7.68,53.16,53.16,0,0,1-3.55-11H694.34V-74h13.58a82.7,82.7,0,0,1-1.2-9.12h-11.9v-1.54h11.81c-.14-2.35-.19-4.85-.19-7.44V-94Zm11,.24v6h-1.54v-6Z" transform="translate(-346.5 102.96)"/><path class="cls-2" d="M346.5-85.2a1.74,1.74,0,0,0,1.74,1.74h5.66a1.74,1.74,0,0,0,1.74-1.74v-7a1.74,1.74,0,0,0-1.74-1.74h-2.8a.87.87,0,0,1-.87-.87.86.86,0,0,1,0-.27,7,7,0,0,1,4.31-4.55h0a1.74,1.74,0,0,0,1.06-1.6,1.74,1.74,0,0,0-1.74-1.74,1.76,1.76,0,0,0-.66.13l-.08,0A10.47,10.47,0,0,0,346.5-93Zm11.33,0a1.74,1.74,0,0,0,1.74,1.74h5.66A1.74,1.74,0,0,0,367-85.2v-7a1.74,1.74,0,0,0-1.74-1.74h-2.8a.87.87,0,0,1-.87-.87.83.83,0,0,1,0-.27,7,7,0,0,1,4.31-4.55h0a1.74,1.74,0,0,0,1.06-1.6,1.74,1.74,0,0,0-1.74-1.74,1.76,1.76,0,0,0-.66.13l-.08,0A10.47,10.47,0,0,0,357.83-93Z" transform="translate(-346.5 102.96)"/><path class="cls-2" d="M752.69-59.17a1.74,1.74,0,0,0-1.74-1.74h-5.66a1.74,1.74,0,0,0-1.74,1.74v7a1.74,1.74,0,0,0,1.74,1.74h2.8a.87.87,0,0,1,.87.87.86.86,0,0,1,0,.27,7,7,0,0,1-4.31,4.55h0a1.74,1.74,0,0,0-1.06,1.6,1.74,1.74,0,0,0,1.74,1.74,1.76,1.76,0,0,0,.66-.13l.08,0a10.47,10.47,0,0,0,6.67-9.75Zm-11.33,0a1.74,1.74,0,0,0-1.74-1.74h-5.66a1.74,1.74,0,0,0-1.74,1.74v7a1.74,1.74,0,0,0,1.74,1.74h2.8a.87.87,0,0,1,.87.87.83.83,0,0,1,0,.27,7,7,0,0,1-4.31,4.55h0a1.74,1.74,0,0,0-1.06,1.6,1.74,1.74,0,0,0,1.74,1.74,1.76,1.76,0,0,0,.66-.13l.08,0a10.47,10.47,0,0,0,6.67-9.75Z" transform="translate(-346.5 102.96)"/></svg>