<svg id="图层_1" data-name="图层 1" xmlns="http://www.w3.org/2000/svg" viewBox="0 0 215.22 70"><defs><style>.cls-1{fill:red;}.cls-2{fill:#fff;}</style></defs><title>logo</title><path class="cls-1" d="M423.44,315h5.37a4.79,4.79,0,0,0,4.55-3.3L444.63,286c2.22-6.78-8.87-8.63-9.92-2.27L429,306.37a5.82,5.82,0,0,1-11,0l-5.75-22.68c-1.05-6.36-12.14-4.51-9.92,2.27l11.27,25.74a4.79,4.79,0,0,0,4.55,3.3Z" transform="translate(-373.78 -245)"/><path class="cls-1" d="M457.13,250.56l3.54,2.65L448,264.7c-2.14,1.87-4.92,2.78-7.08.91l-7.11-6.17c-4.57-3.75-8.2-2.23-12.3-.34l-23.08,13.33c-3.39,1.56-5.44,1.72-8.32-.65l-12.15-10c-2.15-2.07-5.74,1.4-3.43,3.39l13,13.35a9.75,9.75,0,0,0,11.71,1.72L422,266.78c3.1-1.79,5.38-3.19,9.53.7l5.65,5.75c4.66,3.83,7.72,2.61,11.86-1.62l14.82-16,3.88,2.9L471.86,245Z" transform="translate(-373.78 -245)"/><path class="cls-2" d="M472,275.54V291h6V275.54c0-.49.29-.54.94-.54h1.12c1.9,0,3.46-2,3.46-4H466v4h4.79C471.45,275,472,275,472,275.54Z" transform="translate(-373.78 -245)"/><path class="cls-2" d="M507.47,291h6.68l-6-17.08a3.73,3.73,0,0,0-1.56-1.87,4.29,4.29,0,0,0-2.39-.73,4,4,0,0,0-2.39.76,3.87,3.87,0,0,0-1.49,1.94l-5.93,17h3.44l.86-2h7.91Zm-7.55-6,2.73-7.83L505.4,285Z" transform="translate(-373.78 -245)"/><path class="cls-2" d="M532,290.11a3.09,3.09,0,0,0,1-2.45V271.34a4.13,4.13,0,0,0-4,4v5.94l-6.86-8.8a3.14,3.14,0,0,0-2.64-1.1,3.56,3.56,0,0,0-2.48,1,3.05,3.05,0,0,0-1,2.45V291h4v-9.81l6.89,8.79a3,3,0,0,0,2.58,1.11A3.56,3.56,0,0,0,532,290.11Z" transform="translate(-373.78 -245)"/><path class="cls-2" d="M565,271h-2.69c-1.9,0-3.31,1.9-3.31,3.8V291h6Z" transform="translate(-373.78 -245)"/><path class="cls-2" d="M585.52,271a3.83,3.83,0,0,0-3.52,3.8v6.41a16.11,16.11,0,0,1-.35,4c-.45,1.61-1.3,2.42-2.57,2.42s-2.2-.81-2.65-2.42a15.37,15.37,0,0,1-.43-4V271h-7v10.21a10.07,10.07,0,0,0,10,9.89,10,10,0,0,0,10-9.89V271Z" transform="translate(-373.78 -245)"/><path class="cls-2" d="M516.53,304H526v-3H515.43c.12-1,.21-2,.28-4H525v-3H503v3h8.94a20.63,20.63,0,0,1-.41,4H501v3h9.73c-.92,3-4.13,5.3-9.63,7.33,1.27,1.1,2.25,2,2.91,2.74,5-2.19,8.19-4.87,9.72-8.08a16.91,16.91,0,0,0,9.9,8.21c1.29-1.35,2.29-2.42,3-3.07C521.79,310,518.43,308,516.53,304Z" transform="translate(-373.78 -245)"/><path class="cls-2" d="M544,300h8v-3h-8v-4h-4v4h-3.78c.31,0,.6-1.37.87-2.16l-3.66-.54a28.18,28.18,0,0,1-4.18,8.11c1.18.65,2.18,1.23,3,1.75a14.49,14.49,0,0,0,2.68-4.16H540v4H529v3h11v7h4v-7h10v-3H544Z" transform="translate(-373.78 -245)"/><rect class="cls-2" x="92.22" y="58" width="28" height="2"/><rect class="cls-2" x="187.22" y="58" width="28" height="2"/><path class="cls-2" d="M551,275.29v5.94l-7.11-8.8a3.41,3.41,0,0,0-2.77-1.1,4.34,4.34,0,0,0-2.79,1,3.36,3.36,0,0,0-1.33,2.45V291h4v-9.81l7.13,8.79a3.37,3.37,0,0,0,2.74,1.11,4.31,4.31,0,0,0,2.8-1,3.4,3.4,0,0,0,1.33-2.45V271.34C552,271.34,551,273.12,551,275.29Z" transform="translate(-373.78 -245)"/><path class="cls-2" d="M493,271h-3.06a4.21,4.21,0,0,0-3.94,3.8V291h7Z" transform="translate(-373.78 -245)"/></svg>