<svg xmlns="http://www.w3.org/2000/svg" viewBox="0 0 227.66 97.16"><defs><style>.cls-1{fill:#e50012;}.cls-2{fill:#231815;}</style></defs><title>资源 5</title><g id="图层_2" data-name="图层 2"><g id="图层_1-2" data-name="图层 1"><path class="cls-1" d="M68.94,97.16h7.45a6.64,6.64,0,0,0,6.31-4.57L98.34,56.86c3.08-9.41-12.31-12-13.77-3.15l-8,31.47c-.67,4.06-4.25,5.8-7.65,5.46-3.39.33-7-1.4-7.65-5.46l-8-31.47c-1.46-8.82-16.85-6.26-13.77,3.15L55.17,92.58a6.64,6.64,0,0,0,6.31,4.57Z"/><path class="cls-1" d="M115.69,7.72l4.91,3.68L103,27.34c-3,2.59-6.83,3.86-9.82,1.27l-9.86-8.56C77,14.85,71.94,17,66.24,19.58l-32,18.5c-4.71,2.17-7.54,2.39-11.55-.9L5.8,23.34c-3-2.87-8,1.94-4.76,4.71L19.11,46.58A13.54,13.54,0,0,0,35.36,49L66.9,30.24c4.3-2.48,7.47-4.42,13.23,1l7.85,8c6.47,5.31,10.72,3.62,16.46-2.25L125,14.68l5.39,4L136.13,0Z"/><path class="cls-2" d="M179.28,90.32q-11.73,5.54-17.92,3.17-5.83-2.31-19.65-21.31-2.38,11.73-8.78,15.19a33,33,0,0,1-12.38,3.53q5.33-2.38,9.72-9.93,4.1-7.92,5-11.16-4.39,3.24-5.83.29a39.29,39.29,0,0,1-3.53-8.49l8.78-3.53q-.29-5.9-1.44-6.77-1.23-1.15,2-3.24,4.39,1.73,6.48,2.38,1.73.29,1.15,4.1,5.33-1.8,7.05-4.1,2.66.86,4.75,1.73,2,.58,1.73,4.1-1.73,3.53-3.82,4.1a68.67,68.67,0,0,0-7.92,3.53q12.88,15.26,19.94,18.5A113.32,113.32,0,0,1,179.28,90.32Zm-22.89-54q-.29,2.31-6.48,5-6.48,2.66-15.26,6.19-4.68,2.3-6.48-10.58.93-.29,9.43-2.38,8.21-2,11.16-4.1a22.47,22.47,0,0,0,5,2.38A3.44,3.44,0,0,1,156.39,36.33Z"/><path class="cls-2" d="M194.76,52.6a14.93,14.93,0,0,1-7.63,4.68q-4.75,1.51-7.63-1.15a26.33,26.33,0,0,0,3.82-3q3.17-3,5.54-9.36a18.14,18.14,0,0,0,4.68,3.53Q196.78,48.78,194.76,52.6Zm32.9,8.78q-.94,1.51-4.1,2.38a76.87,76.87,0,0,0-9.43,2.38q-.29,12.6-.29,21.67t-4.39,9.36q-3.53,0-3.82-7.06-.29-6.69-.29-21.09-7.06,2.38-11.81,3.53T183,66.71l22.32-6.48V55.55l-4.17,2.3,3.53-4.1q-2.88,0-7.63-4.68a71.89,71.89,0,0,0,8.28-3q.58-11.16-1.22-12.88-2-1.51.58-4.1,12.09,4.1,10.87,6.69A42.27,42.27,0,0,0,214.13,42a19.45,19.45,0,0,0,3-.29q1.44-.29,3,2.66a3.19,3.19,0,0,1-1.22,3.53,44.22,44.22,0,0,1-4.68,2.88v7.06q2.38,0,4.68-2.88A18.59,18.59,0,0,0,225,57.56Q227.66,58.14,227.66,61.38Z"/></g></g></svg>