<!-- Generator: Adobe Illustrator 20.1.0, SVG Export Plug-In  -->
<svg version="1.1"
	 xmlns="http://www.w3.org/2000/svg" xmlns:xlink="http://www.w3.org/1999/xlink" xmlns:a="http://ns.adobe.com/AdobeSVGViewerExtensions/3.0/"
	 x="0px" y="0px" width="32px" height="36px" viewBox="0 0 32 36" style="enable-background:new 0 0 32 36;" xml:space="preserve">
<style type="text/css">
	.st0{opacity:0.2;}
	.st1{fill:#E0E0D1;}
</style>
<defs>
</defs>
<g class="st0">
	<circle cx="16" cy="8" r="4"/>
	<circle cx="16" cy="32" r="4"/>
	<path d="M28,16H4c-2.2,0-4,1.8-4,4c0,2.2,1.8,4,4,4h24c2.2,0,4-1.8,4-4C32,17.8,30.2,16,28,16z"/>
</g>
<g>
	<circle class="st1" cx="16" cy="4" r="4"/>
	<circle class="st1" cx="16" cy="28" r="4"/>
	<path class="st1" d="M28,12H4c-2.2,0-4,1.8-4,4c0,2.2,1.8,4,4,4h24c2.2,0,4-1.8,4-4C32,13.8,30.2,12,28,12z"/>
</g>
</svg>
