<svg id="图层_1" data-name="图层 1" xmlns="http://www.w3.org/2000/svg" viewBox="0 0 100 30"><defs><style>.cls-1{fill:#A8A8B7;}.cls-2{fill:#fff;}</style></defs><rect class="cls-1" width="100" height="30" rx="15" ry="15"/><path class="cls-2" d="M176.89,342a9.38,9.38,0,0,1,1.13,1.55h3.09q.42-.7.84-1.55l1.48.42-.77,1.13h5v1.27h-5.77v.91H186v7.17h-1.76V354h3.38v1.2h-3.37v1.41a1.45,1.45,0,0,1-1.83,1.76,4.14,4.14,0,0,1-1.55-.28l-.28-1.34a6.21,6.21,0,0,0,1.83.28c.33,0,.49-.21.49-.63v-1.2H171.83V354h11.11v-1.05h-9.49v-7.17h3.94s0-.35.07-.91H171.9v-1.27h4.57q-.35-.49-.77-1Zm-2.11,7.66h9.91v-.49a8.46,8.46,0,0,1-1.05.07,6.62,6.62,0,0,1-2.53-.28,1.11,1.11,0,0,1-.49-1.05v-1h-2.11a3.88,3.88,0,0,1-2.81,2.53l-.7-1.05A3.6,3.6,0,0,0,177.1,347h-2.32Zm0,2h9.91v-.91h-9.91Zm.91,3.8a14.21,14.21,0,0,1,2.18,1.27l-.84,1.05a11.28,11.28,0,0,0-2.25-1.41Zm4.92-9.77v-.91h-2v.91Zm1.27,1.2v.7a.38.38,0,0,0,.25.39,5.82,5.82,0,0,0,1.51.11,8.46,8.46,0,0,0,1.05-.07V347Z" transform="translate(-156.63 -335.29)"/><path class="cls-2" d="M198.05,342.1a4.6,4.6,0,0,1,.84,1.34h6.89v1.2h-16v-1.2h7.45a3.73,3.73,0,0,0-.56-.91Zm-6.54,8.09H204v1.55q-2.32.84-5.2,1.62v.49h6.82v1.34h-6.82v1.9a1.14,1.14,0,0,1-.49,1,2.4,2.4,0,0,1-1.41.35,8.1,8.1,0,0,1-1.83-.21l-.21-1.34a5.91,5.91,0,0,0,1.69.21c.56,0,.84-.09.84-.28v-1.62H189.9v-1.34h7.45v-1.2q2-.56,3.59-1.12h-9.42Zm.63-4.57H204v3.73H192.15Zm1.41,2.39h9v-1.12h-9Z" transform="translate(-156.63 -335.29)"/><path class="cls-2" d="M215.77,342l1.48.49a5.09,5.09,0,0,1-.63.77,27.92,27.92,0,0,0,7.31,4.85l-.84,1.41a25.87,25.87,0,0,1-7.31-5.34,26,26,0,0,1-7.38,5.34l-.7-1.27Q213.31,345.34,215.77,342Zm-2.39,10.41h-5V351.1h14.77v1.34h-8a13.06,13.06,0,0,1-3.09,3.94,57.66,57.66,0,0,0,7.24-.91q-.77-.77-1.55-1.62l1.2-.84a31.21,31.21,0,0,1,3.87,4.22l-1.12,1.13a16.51,16.51,0,0,0-1.41-1.76A70,70,0,0,1,210,357.85l-.42-1.27A13.08,13.08,0,0,0,213.38,352.44Zm-1.27-4.64h7.38v1.34h-7.38Z" transform="translate(-156.63 -335.29)"/><path class="cls-2" d="M232.79,350.33h1.41V353a4.19,4.19,0,0,1-1.62,3.23q-1.62,1.41-5.7,2.25l-1-1.27a13.61,13.61,0,0,0,5.38-1.9,3.44,3.44,0,0,0,1.44-2.81A13.84,13.84,0,0,0,232.79,350.33Zm7.1-2.18v6.68h-1.41v-5.34h-9.63v5.41h-1.41v-6.75Zm-11.53-5.55H239V347H228.36Zm1.41,3h7.8v-1.69h-7.8Zm6.26,8.51a44.28,44.28,0,0,1,5.41,3.3l-1.12,1.13a41.15,41.15,0,0,0-5.48-3.59Z" transform="translate(-156.63 -335.29)"/></svg>