<svg id="图层_1" data-name="图层 1" xmlns="http://www.w3.org/2000/svg" viewBox="0 0 80 80"><defs><style>.cls-1{fill:#fff;}</style></defs><path class="cls-1" d="M196.2,93.91a6.11,6.11,0,0,1,5.86,4.44l7.19,2.14,6.87-11.2a3.17,3.17,0,0,1,4.37-1.06l.09.09,11.76,8L241.7,79.9a6,6,0,0,1-.74-3,6.22,6.22,0,0,1,1.76-4.33,6.09,6.09,0,0,1,10.39,4.33,6,6,0,0,1-1.78,4.28,6.29,6.29,0,0,1-4.12,1.83l-11,19.34a1.57,1.57,0,0,0-.18.34,3.15,3.15,0,0,1-4.42.79l-11.85-8.07-4.19,6.83,4.14,1.19a4,4,0,0,1,1,.52l13.5,9.89,7.21-1.08a6.08,6.08,0,0,1,9.92-2,6,6,0,0,1,1.78,4.3,6.1,6.1,0,0,1-10.39,4.3l-.36-.41-8.47,1.33a3.07,3.07,0,0,1-2.37-.63L217.38,109.4l-5.23-1.47L201.61,125a5.91,5.91,0,0,1,.65,2.77,6,6,0,0,1-1.78,4.3,6.07,6.07,0,0,1-4.28,1.83,6.11,6.11,0,0,1,0-12.21h0l9.65-15.66-5.55-1.62a6.07,6.07,0,1,1-4.1-10.52ZM182,145h76.22a1.93,1.93,0,0,0,1.89-2,1.91,1.91,0,0,0-1.89-1.87h-74.3V66.87a1.9,1.9,0,1,0-3.81,0V143a1.93,1.93,0,0,0,1.89,2Z" transform="translate(-180.06 -64.96)"/></svg>