<svg id="图层_1" data-name="图层 1" xmlns="http://www.w3.org/2000/svg" viewBox="0 0 80 80"><defs><style>.cls-1{fill:#fff;}</style></defs><path class="cls-1" d="M346.63,126.24H319.52a5.65,5.65,0,0,1-5.65-5.65V93.48a5.65,5.65,0,0,1,5.65-5.65h27.11a5.65,5.65,0,0,1,5.65,5.65v27.11A5.65,5.65,0,0,1,346.63,126.24ZM319.52,90.1a3.39,3.39,0,0,0-3.39,3.39v27.11a3.39,3.39,0,0,0,3.39,3.39h27.11a3.39,3.39,0,0,0,3.39-3.39V93.48a3.39,3.39,0,0,0-3.39-3.39Z" transform="translate(-313.87 -46.24)"/><path class="cls-1" d="M338,99.16h0L333,104.09l-4.93-4.93a2.07,2.07,0,1,0-2.91,3l4.93,4.93L325.21,112a2.07,2.07,0,1,0,2.91,3L333,110l4.93,4.91a2.1,2.1,0,0,0,3,0,2,2,0,0,0,0-2.93L336,107.05l4.93-5a2,2,0,0,0,0-2.91,2.1,2.1,0,0,0-3,0Z" transform="translate(-313.87 -46.24)"/><path class="cls-1" d="M346.63,84.64H319.52A5.65,5.65,0,0,1,313.87,79V51.89a5.65,5.65,0,0,1,5.65-5.65h27.11a5.65,5.65,0,0,1,5.65,5.65V79A5.65,5.65,0,0,1,346.63,84.64ZM319.52,48.5a3.39,3.39,0,0,0-3.39,3.39V79a3.39,3.39,0,0,0,3.39,3.39h27.11A3.39,3.39,0,0,0,350,79V51.89a3.39,3.39,0,0,0-3.39-3.39Z" transform="translate(-313.87 -46.24)"/><path class="cls-1" d="M331,56.41h0v7h-7a2,2,0,0,0-2.07,2,2.06,2.06,0,0,0,2.07,2.1h7v7a2.08,2.08,0,0,0,4.17,0v-7h7a2.09,2.09,0,0,0,2.07-2.1,2,2,0,0,0-2.07-2h-7v-7a2.08,2.08,0,1,0-4.17,0Z" transform="translate(-313.87 -46.24)"/><path class="cls-1" d="M388.23,126.24H361.11a5.65,5.65,0,0,1-5.65-5.65V93.48a5.65,5.65,0,0,1,5.65-5.65h27.11a5.65,5.65,0,0,1,5.65,5.65v27.11A5.65,5.65,0,0,1,388.23,126.24ZM361.11,90.1a3.39,3.39,0,0,0-3.39,3.39v27.11a3.39,3.39,0,0,0,3.39,3.39h27.11a3.39,3.39,0,0,0,3.39-3.39V93.48a3.39,3.39,0,0,0-3.39-3.39Z" transform="translate(-313.87 -46.24)"/><path class="cls-1" d="M383.69,109.12H365.6a2.09,2.09,0,0,0-2.07,2.12,2.06,2.06,0,0,0,2.07,2h18.1a2.08,2.08,0,0,0,2.12-2,2.1,2.1,0,0,0-2.12-2.12Z" transform="translate(-313.87 -46.24)"/><path class="cls-1" d="M383.69,100.79H365.6a2.1,2.1,0,0,0-2.07,2.12,2.06,2.06,0,0,0,2.07,2h18.1a2.07,2.07,0,0,0,2.12-2,2.11,2.11,0,0,0-2.12-2.12Z" transform="translate(-313.87 -46.24)"/><path class="cls-1" d="M388.23,84.64H361.11A5.65,5.65,0,0,1,355.47,79V51.89a5.65,5.65,0,0,1,5.65-5.65h27.11a5.65,5.65,0,0,1,5.65,5.65V79A5.65,5.65,0,0,1,388.23,84.64ZM361.11,48.5a3.39,3.39,0,0,0-3.39,3.39V79a3.39,3.39,0,0,0,3.39,3.39h27.11A3.39,3.39,0,0,0,391.61,79V51.89a3.39,3.39,0,0,0-3.39-3.39Z" transform="translate(-313.87 -46.24)"/><path class="cls-1" d="M383.69,63.37H365.6a2,2,0,0,0-2.07,2,2.09,2.09,0,0,0,2.07,2.1h18.1a2.1,2.1,0,0,0,2.12-2.1,2.06,2.06,0,0,0-2.12-2Z" transform="translate(-313.87 -46.24)"/></svg>