<!-- Generator: Adobe Illustrator 20.1.0, SVG Export Plug-In  -->
<svg version="1.1"
	 xmlns="http://www.w3.org/2000/svg" xmlns:xlink="http://www.w3.org/1999/xlink" xmlns:a="http://ns.adobe.com/AdobeSVGViewerExtensions/3.0/"
	 x="0px" y="0px" width="96px" height="53.7px" viewBox="0 0 96 53.7" style="enable-background:new 0 0 96 53.7;"
	 xml:space="preserve">
<style type="text/css">
	.st0{opacity:0.2;}
	.st1{fill:#231F20;}
	.st2{fill:#FFFFFF;}
</style>
<defs>
</defs>
<g class="st0">
	<g>
		<path class="st1" d="M43.3,53.7c-1,0-1.9-0.5-2.5-1.3L20.2,23.4L4.7,33.7c-1.4,0.9-3.2,0.5-4.2-0.8c-0.9-1.4-0.5-3.2,0.8-4.2
			l18-12c1.4-0.9,3.2-0.6,4.1,0.8l19.5,27.6L64.4,5.6c0.5-0.9,1.4-1.5,2.4-1.6c1-0.1,2,0.4,2.6,1.2l26,33.8c1,1.3,0.8,3.2-0.5,4.2
			c-1.3,1-3.2,0.8-4.2-0.5L67.4,12.5L45.9,52.2c-0.5,0.9-1.4,1.5-2.5,1.6C43.4,53.7,43.3,53.7,43.3,53.7z"/>
	</g>
</g>
<g>
	<path class="st2" d="M43.3,49.7c-1,0-1.9-0.5-2.5-1.3L20.2,19.4L4.7,29.7c-1.4,0.9-3.2,0.5-4.2-0.8c-0.9-1.4-0.5-3.2,0.8-4.2l18-12
		c1.4-0.9,3.2-0.6,4.1,0.8l19.5,27.6L64.4,1.6c0.5-0.9,1.4-1.5,2.4-1.6c1-0.1,2,0.4,2.6,1.2l26,33.8c1,1.3,0.8,3.2-0.5,4.2
		c-1.3,1-3.2,0.8-4.2-0.5L67.4,8.5L45.9,48.2c-0.5,0.9-1.4,1.5-2.5,1.6C43.4,49.7,43.3,49.7,43.3,49.7z"/>
</g>
</svg>
