<svg id="图层_1" data-name="图层 1" xmlns="http://www.w3.org/2000/svg" viewBox="0 0 73.03 73.01"><defs><style>.cls-1{fill:#c9caca;fill-rule:evenodd;}</style></defs><path class="cls-1" d="M1067.42-177.19l-1.11-7.29-7.4,1.12a29.06,29.06,0,0,0-3.13-7.18l5.84-4.67L1057-201l-5.86,4.67a28.91,28.91,0,0,0-6.3-4.63l2.72-7-6.87-2.68-2.72,7a29.29,29.29,0,0,0-7.78-.87l-1.13-7.39-7.29,1.11,1.13,7.39a29,29,0,0,0-7.18,3.14l-4.67-5.84-5.76,4.61,4.68,5.84a29.33,29.33,0,0,0-4.64,6.31l-7-2.74-2.69,6.87,7,2.72a28.26,28.26,0,0,0-.87,7.79l-7.41,1.12,1.12,7.29,7.39-1.12a29,29,0,0,0,3.13,7.18l-5.84,4.67,4.61,5.75,5.85-4.67a29.55,29.55,0,0,0,6.3,4.64l-2.72,7,6.87,2.68,2.72-7a29.25,29.25,0,0,0,7.77.87l1.13,7.39L1040-140l-1.12-7.39a29.29,29.29,0,0,0,7.16-3.14l4.67,5.84,5.77-4.61-4.67-5.84a29.36,29.36,0,0,0,4.63-6.31l7,2.74,2.68-6.87-7-2.72a29.19,29.19,0,0,0,.86-7.79Zm-34.75,13.37a11.69,11.69,0,0,1-13.32-9.8,11.69,11.69,0,0,1,9.8-13.31,11.69,11.69,0,0,1,13.32,9.8A11.69,11.69,0,0,1,1032.67-163.81Z" transform="translate(-994.39 211.87)"/></svg>