<svg id="图层_1" data-name="图层 1" xmlns="http://www.w3.org/2000/svg" viewBox="0 0 73.03 73.03"><defs><style>.cls-1{fill:#c9caca;fill-rule:evenodd;}</style></defs><path class="cls-1" d="M1213.12-266l-5.86,4.67A29.29,29.29,0,0,0,1201-266l2.72-7-6.87-2.69-2.72,7a29.2,29.2,0,0,0-7.77-.86l-1.13-7.39-7.29,1.11,1.13,7.41a29,29,0,0,0-7.18,3.13l-4.67-5.84-5.76,4.61,4.68,5.85a29.39,29.39,0,0,0-4.64,6.3l-7-2.72-2.69,6.87,7,2.72a28.5,28.5,0,0,0-.87,7.77l-7.41,1.13,1.12,7.29,7.39-1.13a28.87,28.87,0,0,0,3.13,7.18l-5.84,4.67,4.61,5.77,5.85-4.68a29.48,29.48,0,0,0,6.3,4.64l-2.72,7,6.87,2.68,2.72-7a28.56,28.56,0,0,0,7.77.87l1.13,7.41,7.29-1.12-1.12-7.39a28.72,28.72,0,0,0,7.16-3.14l4.67,5.85,5.76-4.61-4.67-5.86a29.58,29.58,0,0,0,4.63-6.3l7,2.72,2.69-6.87-7-2.72a29.26,29.26,0,0,0,.86-7.78l7.4-1.12-1.11-7.29-7.41,1.12a29,29,0,0,0-3.13-7.16l5.84-4.67Zm-24.35,37.16a11.7,11.7,0,0,1-13.32-9.81,11.69,11.69,0,0,1,9.81-13.31,11.69,11.69,0,0,1,13.31,9.8A11.71,11.71,0,0,1,1188.78-228.86Z" transform="translate(-1150.5 276.94)"/></svg>