<svg id="图层_1" data-name="图层 1" xmlns="http://www.w3.org/2000/svg" viewBox="0 0 29.98 30.14"><defs><style>.cls-1{fill:#c9caca;fill-rule:evenodd;}</style></defs><path class="cls-1" d="M983.38-279.52a12,12,0,0,0,12-12,12,12,0,0,0-12-12,12,12,0,0,0-12,12A12,12,0,0,0,983.38-279.52Zm5-18.48a3.12,3.12,0,0,1,4.26,1.14,3.14,3.14,0,0,1-1.14,4.26,3.12,3.12,0,0,1-4.26-1.14A3.11,3.11,0,0,1,988.34-298Zm-1.15,8.65a3.13,3.13,0,0,1,4.26-1.14,3.13,3.13,0,0,1,1.14,4.26,3.12,3.12,0,0,1-4.26,1.15A3.11,3.11,0,0,1,987.19-289.35Zm-3.81-12.82a3.11,3.11,0,0,1,3.12,3.12,3.12,3.12,0,0,1-3.12,3.13,3.13,3.13,0,0,1-3.12-3.13A3.12,3.12,0,0,1,983.38-302.17Zm1.74,11.64a2,2,0,0,1-2.75.73,2,2,0,0,1-.74-2.76,2,2,0,0,1,2.75-.74A2,2,0,0,1,985.13-290.53Zm-1.74,3.37A3.12,3.12,0,0,1,986.5-284a3.12,3.12,0,0,1-3.12,3.12,3.13,3.13,0,0,1-3.12-3.12A3.13,3.13,0,0,1,983.38-287.16Zm-9.2-9.7a3.12,3.12,0,0,1,4.26-1.14,3.13,3.13,0,0,1,1.14,4.26,3.12,3.12,0,0,1-4.26,1.14A3.11,3.11,0,0,1,974.19-296.85Zm0,10.63a3.11,3.11,0,0,1,1.14-4.26,3.13,3.13,0,0,1,4.26,1.14,3.14,3.14,0,0,1-1.14,4.26A3.12,3.12,0,0,1,974.19-286.23Z" transform="translate(-968.4 306.61)"/><path class="cls-1" d="M970.19-288.73l-1.14,1.85,2,.84-.72,2c.71.13,1.42.25,2.14.4-.1.71-.19,1.43-.29,2.15l2.17-.06c.05.73.11,1.45.17,2.18l2.11-.52c.2.7.41,1.4.62,2.09l2-.93,1,1.91,1.72-1.32,1.41,1.66,1.41-1.66,1.72,1.32c.36-.64.7-1.27,1-1.91l2,.93c.2-.69.41-1.39.61-2.09l2.11.52c.06-.73.11-1.45.16-2.18l2.18.06c-.09-.72-.19-1.44-.28-2.15.71-.14,1.43-.27,2.14-.4-.24-.69-.48-1.37-.72-2l2-.84-1.13-1.85,1.8-1.23-1.5-1.57c.5-.53,1-1.06,1.5-1.58l-1.8-1.23c.38-.61.76-1.23,1.13-1.85l-2-.84c.24-.67.49-1.36.72-2l-2.14-.38c.09-.73.19-1.44.28-2.16l-2.18.06c-.05-.73-.1-1.45-.16-2.17l-2.11.52c-.2-.7-.41-1.4-.61-2.09-.66.3-1.31.62-2,.93-.34-.64-.69-1.27-1-1.91L984.8-305l-1.41-1.65L982-305l-1.72-1.32-1,1.91-2-.93c-.22.69-.42,1.39-.62,2.09l-2.11-.52c-.05.73-.11,1.45-.17,2.17l-2.17-.06c.1.72.19,1.44.29,2.16l-2.14.38.72,2-2,.84,1.14,1.85-1.8,1.23c.51.52,1,1,1.5,1.58L968.4-290Zm13.19-15.36a12.56,12.56,0,0,1,12.56,12.56A12.55,12.55,0,0,1,983.38-279a12.55,12.55,0,0,1-12.56-12.55A12.56,12.56,0,0,1,983.38-304.09Z" transform="translate(-968.4 306.61)"/></svg>