<svg id="图层_1" data-name="图层 1" xmlns="http://www.w3.org/2000/svg" viewBox="0 0 66.61 66.97"><defs><style>.cls-1{fill:#c9caca;fill-rule:evenodd;}</style></defs><path class="cls-1" d="M1053.91-110.49l2.52-4.12-4.47-1.84c.55-1.52,1.08-3,1.63-4.55l-4.76-.88c.22-1.59.43-3.2.64-4.79l-4.82.13q-.19-2.41-.38-4.81l-4.7,1.13c-.46-1.55-.9-3.09-1.36-4.63l-4.36,2.08-2.29-4.24-3.83,2.94-3.13-3.68c-1.06,1.22-2.1,2.45-3.14,3.68-1.27-1-2.54-2-3.83-2.94l-2.29,4.24-4.36-2.08c-.46,1.54-.91,3.08-1.36,4.63l-4.7-1.13q-.19,2.41-.38,4.81l-4.82-.13c.22,1.59.42,3.19.64,4.79l-4.75.88c.53,1.51,1.07,3,1.62,4.55l-4.47,1.84c.84,1.37,1.68,2.75,2.53,4.12-1.34.9-2.66,1.82-4,2.74q1.68,1.74,3.33,3.5l-3.33,3.5,4,2.72c-.85,1.37-1.69,2.75-2.53,4.12l4.47,1.85c-.55,1.51-1.08,3-1.62,4.54l4.75.88c-.22,1.6-.42,3.19-.64,4.79l4.82-.13c.13,1.6.25,3.21.38,4.82l4.7-1.15c.46,1.55.9,3.09,1.36,4.64l4.36-2.08c.76,1.41,1.53,2.82,2.29,4.25,1.29-1,2.56-2,3.83-3,1,1.24,2.09,2.46,3.14,3.68q1.57-1.83,3.13-3.68c1.27,1,2.54,2,3.83,3,.76-1.43,1.53-2.84,2.29-4.25,1.46.68,2.91,1.38,4.36,2.08.46-1.55.9-3.09,1.36-4.64l4.7,1.15c.13-1.62.25-3.22.38-4.82l4.82.13c-.2-1.59-.42-3.18-.64-4.79l4.76-.88c-.55-1.52-1.08-3-1.63-4.54l4.47-1.85L1053.91-98l4-2.72-3.33-3.5q1.66-1.76,3.33-3.5Zm-29.32,34.14a27.9,27.9,0,0,1-27.91-27.91,27.89,27.89,0,0,1,27.91-27.91,27.9,27.9,0,0,1,27.91,27.91A27.91,27.91,0,0,1,1024.59-76.35Z" transform="translate(-991.28 137.75)"/><path class="cls-1" d="M1024.59-131a26.72,26.72,0,0,0-26.72,26.72,26.73,26.73,0,0,0,26.72,26.72,26.72,26.72,0,0,0,26.71-26.72A26.72,26.72,0,0,0,1024.59-131Zm-11,41.06a6.93,6.93,0,0,1-9.47-2.53,7,7,0,0,1,2.53-9.48,7,7,0,0,1,9.48,2.55A6.93,6.93,0,0,1,1013.59-89.92Zm2.54-19.23a7,7,0,0,1-9.48,2.55,7,7,0,0,1-2.53-9.47,6.93,6.93,0,0,1,9.47-2.55A6.94,6.94,0,0,1,1016.14-109.15Zm8.45,28.5a6.93,6.93,0,0,1-6.94-6.93,6.93,6.93,0,0,1,6.94-6.94,6.93,6.93,0,0,1,6.92,6.94A6.93,6.93,0,0,1,1024.59-80.64Zm-3.88-25.86a4.47,4.47,0,0,1,6.12-1.64,4.48,4.48,0,0,1,1.63,6.12,4.46,4.46,0,0,1-6.11,1.63A4.46,4.46,0,0,1,1020.71-106.5Zm3.88-7.52a6.93,6.93,0,0,1-6.94-6.93,6.93,6.93,0,0,1,6.94-6.93,6.93,6.93,0,0,1,6.92,6.93A6.93,6.93,0,0,1,1024.59-114ZM1045-92.45a6.93,6.93,0,0,1-9.47,2.53,6.93,6.93,0,0,1-2.55-9.47,7,7,0,0,1,9.48-2.55A6.94,6.94,0,0,1,1045-92.45Zm0-23.62a6.93,6.93,0,0,1-2.53,9.47,7,7,0,0,1-9.48-2.55,6.94,6.94,0,0,1,2.55-9.47A6.93,6.93,0,0,1,1045-116.07Z" transform="translate(-991.28 137.75)"/></svg>