<svg id="图层_1" data-name="图层 1" xmlns="http://www.w3.org/2000/svg" viewBox="0 0 121.69 161.1"><defs><style>.cls-1{fill:#facb93;}.cls-1,.cls-10,.cls-11,.cls-12,.cls-13,.cls-14,.cls-15,.cls-2,.cls-3,.cls-4,.cls-5,.cls-6,.cls-7,.cls-8,.cls-9{fill-rule:evenodd;}.cls-2{fill:#edc08a;}.cls-3{fill:#f52e49;}.cls-4{fill:#d92039;}.cls-5{fill:#333;}.cls-6{fill:#1a1a1a;}.cls-7{fill:#ffe1ab;}.cls-8{fill:#f0d39e;}.cls-10{fill:#bf1c32;}.cls-11{fill:#42342e;}.cls-12{fill:#080002;}.cls-13{fill:#fff;}.cls-14{fill:#e6e6e6;}.cls-15{fill:#ccc;}</style></defs><path class="cls-1" d="M694.76-166.8c0-6.32,0-12.66,0-19-1.91.68-3.42,3.53-3.69,6.89s1.13,7.86,3.71,12.1Z" transform="translate(-664.06 230.66)"/><path class="cls-2" d="M755-166.8c0-6.32,0-12.66,0-19,1.92.68,3.43,3.53,3.69,6.89S757.62-171,755-166.8Z" transform="translate(-664.06 230.66)"/><path class="cls-3" d="M724.91-123.69h13.77c26.61,14.47,47,9.86,47,22.41,0,5.38.05,24.49.05,31.72H664.06c0-7.23,0-26.34,0-31.72,0-12.55,20.41-7.94,47-22.41Z" transform="translate(-664.06 230.66)"/><path class="cls-4" d="M724.91-123.69h13.77c26.61,14.47,47,9.86,47,22.41,0,5.38.05,24.49.05,31.72H724.91Z" transform="translate(-664.06 230.66)"/><polygon class="cls-5" points="51.84 161.1 41.63 109.72 47.07 106.97 60.85 114.54 74.62 106.97 80.05 109.72 69.83 161.1 51.84 161.1"/><polygon class="cls-6" points="60.85 114.54 74.62 106.97 80.05 109.72 69.83 161.1 60.85 161.1 60.85 114.54"/><path class="cls-4" d="M715.9-69.56H701c-1.39-7-1.73-9.58-3.16-16.58-.17-.8,3.95-6.64,3.83-7.23-1.6.14-5.41-.1-5.52-.67l-4.27-21.61h0a110.76,110.76,0,0,0,13.76-5.29h0q5.1,25.69,10.21,51.38Z" transform="translate(-664.06 230.66)"/><polygon class="cls-1" points="47.07 88.52 74.62 88.52 74.62 106.97 60.85 114.54 47.07 106.97 47.07 88.52"/><polygon class="cls-2" points="60.85 88.52 74.62 88.52 74.62 106.97 60.85 114.54 60.85 88.52"/><path class="cls-7" d="M722.75-222.82h4.31a28.08,28.08,0,0,1,28,28v26.94c0,14.57-18.22,31.92-30.16,31.92s-30.17-16.52-30.17-31.92v-26.94a28.09,28.09,0,0,1,28-28Z" transform="translate(-664.06 230.66)"/><path class="cls-8" d="M724.91-222.82h2.15a28.08,28.08,0,0,1,28,28v26.94c0,14.57-18.22,31.92-30.16,31.92Z" transform="translate(-664.06 230.66)"/><path class="cls-6" d="M711.13-123.69l13.78,7.57c-4,5-10.31,15-12,15s-4.81-13.21-7.21-19.81l5.43-2.75Z" transform="translate(-664.06 230.66)"/><path class="cls-9" d="M738.68-123.69l-13.77,7.57c4,5,10.31,15,12,15s4.81-13.21,7.21-19.81l-5.43-2.75Z" transform="translate(-664.06 230.66)"/><path class="cls-10" d="M733.89-69.56h14.86c1.4-7,1.74-9.58,3.17-16.58.17-.8-3.95-6.64-3.83-7.23,1.6.14,5.41-.1,5.52-.67l4.28-21.61h0a111.56,111.56,0,0,1-13.77-5.29h0Q739-95.25,733.89-69.56Z" transform="translate(-664.06 230.66)"/><path class="cls-11" d="M724.91-230.66c-22,0-41.06,6.38-30.17,44.87a55.71,55.71,0,0,0,9.28-22c5.6,1.52,13.56,2.19,20.89,2.19s15.3-.67,20.88-2.19a55.9,55.9,0,0,0,9.28,22c10.9-38.49-8.22-44.87-30.16-44.87Z" transform="translate(-664.06 230.66)"/><path class="cls-12" d="M724.91-205.58c7.32,0,15.3-.67,20.88-2.19a55.9,55.9,0,0,0,9.28,22c10.9-38.49-8.22-44.87-30.16-44.87Z" transform="translate(-664.06 230.66)"/><path class="cls-11" d="M705.81-191.68h0l-3.64,1.09c-2,.6-1.69,1.5.36,1.2l3.78-.57,9.81,1.43a1.51,1.51,0,0,0,1.57-1.57h0a1.58,1.58,0,0,0-1.57-1.58Z" transform="translate(-664.06 230.66)"/><path class="cls-11" d="M744-191.68h0l3.64,1.09c2,.6,1.69,1.5-.36,1.2L743.5-190l-9.8,1.43a1.51,1.51,0,0,1-1.58-1.57h0a1.59,1.59,0,0,1,1.58-1.58Z" transform="translate(-664.06 230.66)"/><path class="cls-11" d="M724.91-157.73h-8.28c-1.9,0-3.45,1.82-3.45,4v.92h23.45v-.92c0-2.21-1.55-4-3.44-4Z" transform="translate(-664.06 230.66)"/><path class="cls-12" d="M724.91-152.78h11.72v-.92c0-2.21-1.55-4-3.44-4h-8.28Z" transform="translate(-664.06 230.66)"/><path class="cls-13" d="M724.91-113.27l-9.84-6.82c-2.89,4.54-2.65,9.1,0,13.64q4.92-3.4,9.84-6.82l9.82-6.82c2.89,4.54,2.65,9.1,0,13.64l-9.82-6.82Z" transform="translate(-664.06 230.66)"/><path class="cls-14" d="M724.91-113.27l9.82-6.82c2.89,4.54,2.65,9.1,0,13.64l-9.82-6.82Z" transform="translate(-664.06 230.66)"/><path class="cls-14" d="M722.49-116.12h4.82a1.53,1.53,0,0,1,1.53,1.53v2.66a1.53,1.53,0,0,1-1.53,1.52h-4.82a1.52,1.52,0,0,1-1.51-1.52v-2.66a1.52,1.52,0,0,1,1.51-1.53Z" transform="translate(-664.06 230.66)"/><path class="cls-15" d="M724.91-116.12h2.41a1.53,1.53,0,0,1,1.53,1.53v2.66a1.53,1.53,0,0,1-1.53,1.52h-2.41Z" transform="translate(-664.06 230.66)"/><path class="cls-13" d="M736.81-152.78c-.83,5.09-5.84,9-11.9,9s-11.07-3.92-11.91-9Z" transform="translate(-664.06 230.66)"/><path class="cls-9" d="M728.25-150.57h5.31a3.43,3.43,0,0,1,3.12,2,19.18,19.18,0,0,0,12.84-6.2c2.9-3.3,4.75-7.84,5.39-13.44v-26.07a27.64,27.64,0,0,0-8.14-19.57c-6.38-6.37-13.16-8.15-21.86-8.15s-15.49,1.77-21.86,8.15a27.64,27.64,0,0,0-8.14,19.57v11.95h0v15.49H693a6.4,6.4,0,0,1-6.38-6.37v-6.23a6.4,6.4,0,0,1,4.17-6v-8.84a31.69,31.69,0,0,1,9.33-22.43c7.15-7.14,14.93-9.33,24.74-9.33s17.59,2.19,24.72,9.33A31.67,31.67,0,0,1,759-194.24v8.84a6.4,6.4,0,0,1,4.18,6v6.23a6.39,6.39,0,0,1-5.83,6.35A26,26,0,0,1,751.43-153,21.66,21.66,0,0,1,736.77-146a3.43,3.43,0,0,1-3.21,2.25h-5.31a3.43,3.43,0,0,1-3.42-3.42h0a3.43,3.43,0,0,1,3.42-3.42Z" transform="translate(-664.06 230.66)"/><path class="cls-9" d="M728.25-150.57h5.31a3.43,3.43,0,0,1,3.12,2,19.18,19.18,0,0,0,12.84-6.2c2.9-3.3,4.75-7.84,5.39-13.44v-26.07a27.64,27.64,0,0,0-8.14-19.57c-6.38-6.37-13.16-8.15-21.86-8.15v-4c9.8,0,17.59,2.19,24.72,9.33A31.67,31.67,0,0,1,759-194.24v8.84a6.4,6.4,0,0,1,4.18,6v6.23a6.39,6.39,0,0,1-5.83,6.35A26,26,0,0,1,751.43-153,21.66,21.66,0,0,1,736.77-146a3.43,3.43,0,0,1-3.21,2.25h-5.31a3.43,3.43,0,0,1-3.35-2.74v-1.37a3.43,3.43,0,0,1,3.35-2.74Z" transform="translate(-664.06 230.66)"/></svg>