<svg id="图层_1" data-name="图层 1" xmlns="http://www.w3.org/2000/svg" viewBox="0 0 23.18 23.41"><defs><style>.cls-1{fill:#f7dfb8;}.cls-2{fill:#c69b73;}.cls-3{fill:#ad8463;}.cls-4{fill:#fff;}.cls-5{fill:#d1d3d4;}.cls-6{fill:#58595b;}</style></defs><path class="cls-1" d="M458.25,382c2.57-.63,2.6-4.3,2.6-4.3a5,5,0,0,1-.83,5.15C457.91,385.08,458.25,382,458.25,382Z" transform="translate(-438.07 -372.85)"/><path class="cls-2" d="M441.67,395.53a.66.66,0,0,1,.56-.73h2a.66.66,0,0,1,.56.73h0a.66.66,0,0,1-.56.73h-2a.66.66,0,0,1-.56-.73Z" transform="translate(-438.07 -372.85)"/><rect class="cls-2" x="4.97" y="17.82" width="1.64" height="5"/><path class="cls-2" d="M445.38,395.53a.66.66,0,0,1,.56-.73h2a.66.66,0,0,1,.56.73h0a.66.66,0,0,1-.56.73h-2a.66.66,0,0,1-.56-.73Z" transform="translate(-438.07 -372.85)"/><rect class="cls-2" x="8.68" y="17.82" width="1.64" height="5"/><path class="cls-2" d="M452.41,395.53a.66.66,0,0,1,.56-.73h2a.66.66,0,0,1,.56.73h0a.66.66,0,0,1-.56.73h-2a.66.66,0,0,1-.56-.73Z" transform="translate(-438.07 -372.85)"/><rect class="cls-2" x="15.71" y="17.82" width="1.64" height="5"/><path class="cls-2" d="M456.12,395.53a.66.66,0,0,1,.56-.73h2a.66.66,0,0,1,.56.73h0a.66.66,0,0,1-.56.73h-2a.66.66,0,0,1-.56-.73Z" transform="translate(-438.07 -372.85)"/><rect class="cls-2" x="19.42" y="13.13" width="1.64" height="9.68"/><ellipse class="cls-3" cx="12.09" cy="12.65" rx="9.58" ry="8.55"/><rect class="cls-1" x="2.95" width="1.34" height="5.9"/><path class="cls-1" d="M438.07,373.6a.75.75,0,0,0,.75.75h2.64a.75.75,0,0,0,.75-.75h0a.75.75,0,0,0-.75-.75h-2.64a.75.75,0,0,0-.75.75Z" transform="translate(-438.07 -372.85)"/><rect class="cls-1" x="0.85" y="2.95" width="12.64" height="12.5" rx="4.1" ry="4.1"/><path class="cls-2" d="M447.46,375.8h-2.31v12.5h2.31a4.1,4.1,0,0,0,4.1-4.1v-4.3A4.1,4.1,0,0,0,447.46,375.8Z" transform="translate(-438.07 -372.85)"/><rect class="cls-2" x="10.06" width="1.34" height="5.9"/><path class="cls-2" d="M452.41,373.6a.75.75,0,0,1-.75.75H449a.75.75,0,0,1-.75-.75h0a.75.75,0,0,1,.75-.75h2.64a.75.75,0,0,1,.75.75Z" transform="translate(-438.07 -372.85)"/><path class="cls-4" d="M451.56,384.07a8.12,8.12,0,0,0-12.64,0v.13a4.1,4.1,0,0,0,4.1,4.1h4.44a4.1,4.1,0,0,0,4.1-4.1Z" transform="translate(-438.07 -372.85)"/><path class="cls-5" d="M445.24,381h-.09v7.25h2.31a4.1,4.1,0,0,0,4.1-4.1v-.13A7.5,7.5,0,0,0,445.24,381Z" transform="translate(-438.07 -372.85)"/><circle class="cls-6" cx="5.14" cy="6.23" r="0.86"/><circle class="cls-6" cx="9.2" cy="6.23" r="0.86"/><ellipse class="cls-6" cx="7.17" cy="9.88" rx="1.39" ry="0.96"/><path class="cls-6" d="M445.24,386.61c-.85,0-1.54-.5-1.54-1.11H444c0,.45.56.81,1.24.81s1.24-.37,1.24-.81h.29C446.77,386.11,446.08,386.61,445.24,386.61Z" transform="translate(-438.07 -372.85)"/></svg>