<svg id="图层_1" data-name="图层 1" xmlns="http://www.w3.org/2000/svg" viewBox="0 0 343.59 54.66"><defs><style>.cls-1{fill:#bce534;}.cls-2{fill:#99be2a;}.cls-3{fill:#78716c;}</style></defs><path class="cls-1" d="M430.47,342c67.33,0,62.93,54.66,171.79,54.66H258.68C367.54,396.7,363.14,342,430.47,342Z" transform="translate(-258.68 -342.04)"/><path class="cls-2" d="M258.68,396.7C367.54,396.7,363.14,342,430.47,342V396.7Z" transform="translate(-258.68 -342.04)"/><path class="cls-3" d="M387.5,388.54a7.72,7.72,0,0,0-7.72,7.72h15.44A7.72,7.72,0,0,0,387.5,388.54Z" transform="translate(-258.68 -342.04)"/><path class="cls-3" d="M404.67,390.43a5.83,5.83,0,0,0-5.83,5.83H410.5A5.83,5.83,0,0,0,404.67,390.43Z" transform="translate(-258.68 -342.04)"/></svg>