<svg id="图层_1" data-name="图层 1" xmlns="http://www.w3.org/2000/svg" viewBox="0 0 69.49 42.06"><defs><style>.cls-1{fill:#a7dae9;}.cls-2{fill:#8ec3d7;}</style></defs><path class="cls-1" d="M684.74,191.74c3.6,0,13.66-1.1,13.84-14.37.19-14.55-13.75-15.33-13.75-15.33s-4.94-12.21-16.19-12.36S654,157.89,654,157.89s-5.71-2.22-10.52,1.51c-6.31,4.9-5.08,9.68-5.08,9.68s-9.17,1.53-9.3,11.28,8.41,10.76,8.41,10.76Z" transform="translate(-629.09 -149.68)"/><path class="cls-2" d="M684.83,162s-4.94-12.21-16.19-12.36a19.11,19.11,0,0,0-4.81.53v41.25l20.91.27c3.6,0,13.66-1.1,13.84-14.37C698.77,162.83,684.83,162,684.83,162Z" transform="translate(-629.09 -149.68)"/></svg>