<svg id="图层_1" data-name="图层 1" xmlns="http://www.w3.org/2000/svg" viewBox="0 0 24.62 23.06"><defs><style>.cls-1{fill:#c69b73;}.cls-2{fill:#784f27;}.cls-3{fill:#fff;}.cls-4{fill:#ad8463;}.cls-5{fill:#f7dfb8;}.cls-6{fill:#58595b;}</style></defs><rect class="cls-1" x="13.26" y="19.66" width="1.08" height="3.4"/><rect class="cls-2" x="13.26" y="22.46" width="1.08" height="0.6"/><rect class="cls-1" x="16.3" y="18.95" width="1.08" height="4.11"/><rect class="cls-2" x="16.3" y="22.46" width="1.08" height="0.6"/><rect class="cls-1" x="3.58" y="15.82" width="1.08" height="7.24"/><rect class="cls-2" x="3.58" y="22.46" width="1.08" height="0.6"/><rect class="cls-1" x="6.19" y="15.82" width="1.08" height="7.24"/><rect class="cls-2" x="6.19" y="22.46" width="1.08" height="0.6"/><path class="cls-3" d="M588.69,383.82a2.27,2.27,0,0,0,1.18,2,3.25,3.25,0,0,0-.71,2,3.25,3.25,0,0,0,4.36,3.08,4.25,4.25,0,0,0,4,3,4.18,4.18,0,0,0,2.34-.72,6,6,0,0,0,2.77.7,6,6,0,0,0,1.7-11.83s0,0,0,0a3.18,3.18,0,1,0-2.9-5.39,2.53,2.53,0,0,0-4.72.87,4,4,0,0,0-6.2,4.15A2.26,2.26,0,0,0,588.69,383.82Z" transform="translate(-588.69 -373.17)"/><path class="cls-4" d="M609.14,380.15s.29-3.39-.72-4.86a5,5,0,0,0-3.78-2.12s2.41,1.17,2.94,2.94a10,10,0,0,1,.07,4Z" transform="translate(-588.69 -373.17)"/><path class="cls-4" d="M606,380.15s.29-3.39-.72-4.86a5,5,0,0,0-3.78-2.12s2.41,1.17,2.94,2.94a10,10,0,0,1,.07,4Z" transform="translate(-588.69 -373.17)"/><path class="cls-5" d="M608.46,381.94a5.64,5.64,0,0,0,2.23,2.75,2.4,2.4,0,0,0,2.62.18,5.64,5.64,0,0,0-2.23-2.75A2.4,2.4,0,0,0,608.46,381.94Z" transform="translate(-588.69 -373.17)"/><path class="cls-1" d="M610.69,384.68a5.64,5.64,0,0,1-2.23-2.75l4.85,2.93A2.4,2.4,0,0,1,610.69,384.68Z" transform="translate(-588.69 -373.17)"/><path class="cls-1" d="M605.08,381.94a5.64,5.64,0,0,1-2.23,2.75,2.4,2.4,0,0,1-2.62.18,5.64,5.64,0,0,1,2.23-2.75A2.4,2.4,0,0,1,605.08,381.94Z" transform="translate(-588.69 -373.17)"/><path class="cls-4" d="M602.85,384.68a5.64,5.64,0,0,0,2.23-2.75l-4.85,2.93A2.4,2.4,0,0,0,602.85,384.68Z" transform="translate(-588.69 -373.17)"/><path class="cls-5" d="M606.77,379.23h1.43a3.13,3.13,0,0,1,3.13,3.13l-1.13,5.53c-.33,2-1.4,3.13-3.13,3.13h-.3Z" transform="translate(-588.69 -373.17)"/><path class="cls-1" d="M606.77,379.23h-1.43a3.13,3.13,0,0,0-3.13,3.13l1.13,5.53c.33,2,1.4,3.13,3.13,3.13h.3Z" transform="translate(-588.69 -373.17)"/><circle class="cls-6" cx="19.63" cy="10.89" r="0.66"/><circle class="cls-6" cx="16.53" cy="10.89" r="0.66"/></svg>