<svg id="图层_1" data-name="图层 1" xmlns="http://www.w3.org/2000/svg" viewBox="0 0 384.64 77.31"><defs><style>.cls-1{fill:#898989;}</style></defs><path class="cls-1" d="M436.36,178.66l27.33-73.91h2.13L492.93,179l-1.38.43-10.31-28.18H448.06l-10.32,27.86Zm12.23-28.82H480.7l-15.84-43.6h-.11Z" transform="translate(-436.36 -103.27)"/><path class="cls-1" d="M507.5,103.27V126c1.91,0,4.15-.32,6.49-.53a90.1,90.1,0,0,1,9.36-.74c4.25,0,8.29.74,11.48,3,5.64,4.15,8.19,13.93,8.19,23.39,0,9.15-2.87,18.72-7,22.44-3.83,2.55-9.57,3.93-14.89,3.93a83.11,83.11,0,0,1-13.61-1.28v2h-1.38v-75Zm0,24.25v47.21a73,73,0,0,0,13.61,1.38c5.42,0,10.42-1,14.14-3.83,4-3.08,6.38-12,6.38-21.16,0-8.93-2.66-18.08-7.66-22.12a18.55,18.55,0,0,0-10.63-2.87,90.82,90.82,0,0,0-9.15.74A52.44,52.44,0,0,1,507.5,127.51Z" transform="translate(-436.36 -103.27)"/><path class="cls-1" d="M593.42,134.74a47.18,47.18,0,0,1,3.08,17.33,43.46,43.46,0,0,1-3.08,16.8c-3.19,7.44-11.27,9.78-18.93,9.57-7.87-.32-13.61-3.19-16.06-9.25-1.92-4.57-3-11-3-17.23a45.34,45.34,0,0,1,3-17c3.19-7.34,11.17-9.68,19-9.46S591,128.79,593.42,134.74Zm-33.82.85A48.44,48.44,0,0,0,556.84,152a49,49,0,0,0,2.76,16.69c2.45,5,7.76,8.08,14.89,8.4s14.57-2.13,17.76-8.83a47.12,47.12,0,0,0,2.87-16.16,53.33,53.33,0,0,0-2.87-16.8c-2.45-4.89-7.87-8.19-14.78-8.4C570.24,126.77,562.8,129,559.61,135.59Z" transform="translate(-436.36 -103.27)"/><path class="cls-1" d="M647.66,180.15v-8.4l-1.59.64.11-.11c-4.89,2-13.5,5.53-20.74,5.53-7.44,0-13.5-3.4-13.5-15.21V123.79h1.38V162.6c0,10.74,5.53,13.82,12.12,13.82,7.13,0,15.42-3.3,20.2-5.32l2-.85V123.79H649v56.36Z" transform="translate(-436.36 -103.27)"/><path class="cls-1" d="M660.85,125.6h15.53V111.35h1.38V125.6h16.7V127h-16.7v40.2c-.11,10,5.1,12,11.38,12a47.72,47.72,0,0,0,5.42-.32l.21,1.38a50,50,0,0,1-5.64.32c-7,0-12.87-2.23-12.76-13.4V127H660.85Z" transform="translate(-436.36 -103.27)"/><path class="cls-1" d="M770.48,180.15v-8.4l-1.59.64.11-.11c-4.89,2-13.5,5.53-20.74,5.53-7.44,0-13.5-3.4-13.5-15.21V123.79h1.38V162.6c0,10.74,5.53,13.82,12.12,13.82,7.13,0,15.42-3.3,20.2-5.32l2-.85V123.79h1.38v56.36Z" transform="translate(-436.36 -103.27)"/><path class="cls-1" d="M820.78,128.25l-3.3-.32A131.11,131.11,0,0,0,803,126.77c-8,0-13.4,2-13.82,9.68-.43,6.59,6.81,10.53,14,14.36,7.66,3.93,16.38,8.72,16,16.91-.32,6-4.47,10.85-17.44,10.85a98.23,98.23,0,0,1-17.23-1.91l.21-1.38a97.21,97.21,0,0,0,17,1.91c12,0,15.74-4.25,16.06-9.46.32-7.76-7.55-11.8-15.21-15.74s-15.21-8-14.89-15.53c.64-8.83,6.49-11.06,15.31-11.06,4,0,9.78.64,14.67,1.17l3.3.21Z" transform="translate(-436.36 -103.27)"/></svg>