<svg id="图层_1" data-name="图层 1" xmlns="http://www.w3.org/2000/svg" viewBox="0 0 69.66 42.16"><defs><style>.cls-1{fill:#a7dae9;}.cls-2{fill:#8ec3d7;}</style></defs><path class="cls-1" d="M428.23,137.35c3.61,0,13.7-1.1,13.87-14.4.19-14.58-13.78-15.37-13.78-15.37s-5-12.24-16.23-12.39-14.69,8.23-14.69,8.23-5.72-2.23-10.54,1.52c-6.33,4.91-5.09,9.71-5.09,9.71s-9.19,1.53-9.32,11.3,8.43,10.79,8.43,10.79Z" transform="translate(-372.45 -95.18)"/><path class="cls-2" d="M428.32,107.58s-5-12.24-16.23-12.39a19.15,19.15,0,0,0-4.82.53v41.35l21,.28c3.61,0,13.7-1.1,13.87-14.4C442.29,108.36,428.32,107.58,428.32,107.58Z" transform="translate(-372.45 -95.18)"/></svg>