<svg id="图层_1" data-name="图层 1" xmlns="http://www.w3.org/2000/svg" viewBox="0 0 57.98 35.1"><defs><style>.cls-1{fill:#a7dae9;}.cls-2{fill:#8ec3d7;}</style></defs><path class="cls-1" d="M133,224.53c3,0,11.4-.91,11.55-12,.16-12.14-11.47-12.79-11.47-12.79s-4.12-10.19-13.51-10.32-12.23,6.85-12.23,6.85-4.76-1.85-8.78,1.26c-5.27,4.09-4.24,8.08-4.24,8.08s-7.65,1.28-7.76,9.41,7,9,7,9Z" transform="translate(-86.56 -189.43)"/><path class="cls-2" d="M133.07,199.75s-4.12-10.19-13.51-10.32a15.94,15.94,0,0,0-4,.44V224.3l17.44.23c3,0,11.4-.91,11.55-12C144.71,200.4,133.07,199.75,133.07,199.75Z" transform="translate(-86.56 -189.43)"/></svg>