<svg xmlns="http://www.w3.org/2000/svg" viewBox="0 0 252.6 59.53"><defs><style>.cls-1{fill:#e50012;}</style></defs><title>资源 2</title><g id="图层_2" data-name="图层 2"><g id="图层_1-2" data-name="图层 1"><path class="cls-1" d="M42.25,59.53h4.56a4.07,4.07,0,0,0,3.87-2.8l9.58-21.89c1.89-5.77-7.54-7.35-8.44-1.93l-4.9,19.28a4.08,4.08,0,0,1-4.69,3.35,4.08,4.08,0,0,1-4.69-3.35l-4.9-19.28c-.89-5.4-10.32-3.84-8.44,1.93l9.6,21.89a4.07,4.07,0,0,0,3.87,2.8Z"/><path class="cls-1" d="M70.89,4.73,73.9,7,63.11,16.75c-1.84,1.59-4.18,2.36-6,.78l-6-5.24c-3.87-3.19-7-1.87-10.46-.29L21,23.33c-2.89,1.33-4.62,1.46-7.08-.55L3.56,14.3c-1.84-1.76-4.9,1.19-2.92,2.89L11.72,28.54a8.3,8.3,0,0,0,10,1.48L41,18.53c2.63-1.52,4.58-2.71,8.11.61L53.91,24c4,3.25,6.57,2.22,10.08-1.38L76.59,9l3.3,2.45L83.41,0Z"/><path d="M105.15,32.53a2.49,2.49,0,0,1-.56,1.56,2.12,2.12,0,0,1-1.56.64H94V56.53a3.36,3.36,0,0,1-.52,2.16,2.26,2.26,0,0,1-1.84.64q-2.6,0-2.6-2.84V34.73H80.67A2.07,2.07,0,0,1,79,34a2.4,2.4,0,0,1-.64-1.64q0-2.16,2.24-2.16H103a2,2,0,0,1,1.56.72A2.28,2.28,0,0,1,105.15,32.53Z"/><path d="M115.29,56.81q0,2.52-2.64,2.52-2.32,0-2.32-2.56V32.13q0-2.52,2.32-2.52,2.64,0,2.64,2.52Z"/><path d="M150.88,56.53a2.7,2.7,0,0,1-.92,2,3.28,3.28,0,0,1-2.16.8,2.41,2.41,0,0,1-2.24-1.6l-2.16-4.59h-15.7l-2.2,4.59a2.41,2.41,0,0,1-2.32,1.6,2.94,2.94,0,0,1-2-.8,2.57,2.57,0,0,1-.6-3.31l12.18-24.08a2.82,2.82,0,0,1,2.8-1.56,2.86,2.86,0,0,1,2.84,1.56l12.18,24.08A2.91,2.91,0,0,1,150.88,56.53Zm-9.59-7.91-5.75-12.18-5.71,12.18Z"/><path d="M179.16,56.85q0,2.68-2.16,2.68a3.23,3.23,0,0,1-2.64-1.4L158.95,38.32V56.85q0,2.52-2.64,2.52-2.36,0-2.36-2.56V32.17q0-2.52,2.36-2.52A3.23,3.23,0,0,1,159,31l15.14,19.41V32.17q0-2.52,2.36-2.52,2.64,0,2.64,2.52Z"/><path d="M209.27,56.85q0,2.68-2.16,2.68a3.23,3.23,0,0,1-2.64-1.4L189.06,38.32V56.85q0,2.52-2.64,2.52-2.36,0-2.36-2.56V32.17q0-2.52,2.36-2.52A3.23,3.23,0,0,1,189.14,31l15.14,19.41V32.17q0-2.52,2.36-2.52,2.64,0,2.64,2.52Z"/><path d="M221.05,56.81q0,2.52-2.64,2.52-2.32,0-2.32-2.56V32.13q0-2.52,2.32-2.52,2.64,0,2.64,2.52Z"/><path d="M252.6,48.67q0,5.47-3,8.07t-9.39,2.6q-5.87,0-9.11-2.76a9.83,9.83,0,0,1-3.28-7.91V32.13a2.52,2.52,0,0,1,5,0V47.67q0,3.91,1.52,5.51t5.83,1.72q4.15,0,5.79-1.64t1.68-5.59V31.77a1.92,1.92,0,0,1,2.2-2.16q2.76,0,2.76,2.28Z"/></g></g></svg>