<svg id="图层_1" data-name="图层 1" xmlns="http://www.w3.org/2000/svg" viewBox="0 0 489.26 61.54"><defs><style>.cls-1{fill:#fff;}.cls-2{fill:#fff;fill-rule:evenodd;}</style></defs><path class="cls-1" d="M323.24-307.4h9.17v-8.4h1.54v8.4h8v1.54h-8v16.27l7.34-3.26.62,1.44-8,3.55v10.37a5.24,5.24,0,0,1-5.23,5.23h-4.32v-1.54h4.32a3.67,3.67,0,0,0,3.7-3.7v-9.7l-8.93,4-.62-1.44,9.55-4.22v-17h-9.17Zm19.68,3.46h8.59a83.61,83.61,0,0,1-.43-11.09h1.54a83.45,83.45,0,0,0,.48,11.09h13.39v1.54h-13.2a65.45,65.45,0,0,0,3.94,15.84,43.08,43.08,0,0,0,7-9l1.34.72a45.1,45.1,0,0,1-7.68,9.75,45.62,45.62,0,0,0,7.82,12.67l-1.15,1a47.27,47.27,0,0,1-7.87-12.48,73,73,0,0,1-12,8.78l-.82-1.34A65,65,0,0,0,356-285.41a69.37,69.37,0,0,1-4.32-17h-8.78Zm19.73-10.56v7.68h-1.54v-7.68Z" transform="translate(-292.02 324.29)"/><path class="cls-1" d="M393.47-315.8v4H414.4v1.54H371v-1.54h20.93v-4Zm-20.26,45V-287a5.33,5.33,0,0,1,5.28-5.28h29a5.39,5.39,0,0,1,5.28,5.28v10.9a5.33,5.33,0,0,1-5.28,5.28h-2.21v-1.54h2.21a3.69,3.69,0,0,0,3.74-3.74V-287a3.69,3.69,0,0,0-3.74-3.74h-29a3.72,3.72,0,0,0-3.74,3.74v16.27Zm35.72-29a3.52,3.52,0,0,1-3.55,3.46H380a3.53,3.53,0,0,1-3.55-3.46v-3a3.53,3.53,0,0,1,3.55-3.5h25.39a3.47,3.47,0,0,1,3.55,3.5Zm-1.54-3a2,2,0,0,0-2-2H380a2,2,0,0,0-2,2v3a1.92,1.92,0,0,0,2,1.92h25.39a1.92,1.92,0,0,0,2-1.92Zm-1.92,23.47a3.57,3.57,0,0,1-3.55,3.5H384.06a3.57,3.57,0,0,1-3.55-3.5v-3.79a3.57,3.57,0,0,1,3.55-3.5h17.86a3.57,3.57,0,0,1,3.55,3.5Zm-1.54-3.79a2,2,0,0,0-2-2H384.06a2,2,0,0,0-2,2v3.79a2,2,0,0,0,2,2h17.86a2,2,0,0,0,2-2Z" transform="translate(-292.02 324.29)"/><path class="cls-1" d="M429.75-273.46h7.92a3.67,3.67,0,0,0,3.7-3.7v-8.26H418.9v-1.49h22.47v-10.51h-21v-1.54h21v-12l-19,.72-.1-1.54L460-313.21l.1,1.54-17.19.67v12h18.53v1.54H442.91v10.51h19.54v1.49H442.91v8.26a5.24,5.24,0,0,1-5.23,5.23h-7.92Z" transform="translate(-292.02 324.29)"/><path class="cls-1" d="M510.35-272H496.43a5.27,5.27,0,0,1-5.28-5.28v-8.83h-6.58c-3.26,6.14-8.4,10.37-16.85,14.5L467-273c7.68-3.84,12.53-7.68,15.7-13.15h-8.26a4.32,4.32,0,0,1-4.37-4.37v-6a4.32,4.32,0,0,1,4.37-4.37h24.15l3.07-7.3H471.85l2.83-7.1,1.44.53-2.06,5h30l-3.74,8.83h2.06a4.32,4.32,0,0,1,4.37,4.37v6a4.32,4.32,0,0,1-4.37,4.37h-9.65v8.83a3.72,3.72,0,0,0,3.74,3.74h13.92Zm-26.79-15.65a43.8,43.8,0,0,0,3.6-11.71H474.44a2.81,2.81,0,0,0-2.83,2.83v6a2.81,2.81,0,0,0,2.83,2.83Zm5.18-11.71a48.58,48.58,0,0,1-3.41,11.71h17a2.81,2.81,0,0,0,2.83-2.83v-6a2.81,2.81,0,0,0-2.83-2.83Z" transform="translate(-292.02 324.29)"/><path class="cls-1" d="M515.58-273.31c17.47-2.5,19.63-6.14,19.63-12.1h1.54a10.53,10.53,0,0,1-1.49,6.19l22.56,6-.38,1.44L534.25-278c-2.64,2.64-8,4.66-18.48,6.19Zm.43-16.85c5.33-2.06,8.69-4.18,10.7-6.82h-4.9a3.51,3.51,0,0,1-3.5-3.46v-1.82a3.51,3.51,0,0,1,3.5-3.46h7.68c0-.53,0-1.06,0-1.63V-311h-12v-1.54h12v-3.26h1.54v3.26h12.1v-3.26h1.54v3.26h6.48a3.5,3.5,0,0,1,3.46,3.46v1.39a3.51,3.51,0,0,1-3.46,3.5h-6.48v5.66h7.49a3.52,3.52,0,0,1,3.5,3.5v4.7h-1.54V-295a2,2,0,0,0-2-2h-7.49v5.81h-1.54V-297h-14.5c-2.06,3.26-5.81,5.86-12.1,8.26Zm5.81-8.35h5.9a14.78,14.78,0,0,0,1.68-5.66h-7.58a1.91,1.91,0,0,0-2,1.92v1.82A1.91,1.91,0,0,0,521.82-298.52Zm29.81,21v-7.58a2.8,2.8,0,0,0-2.78-2.83H524.7a2.84,2.84,0,0,0-2.83,2.83v7.58h-1.54v-7.58a4.42,4.42,0,0,1,4.37-4.37h24.15a4.37,4.37,0,0,1,4.32,4.37v7.58Zm-22.08-21h13.63v-5.66H530.94A17.22,17.22,0,0,1,529.55-298.52Zm1.49-7.2h12.15V-311h-12.1v3.65C531.08-306.77,531.08-306.25,531-305.72ZM544.71-311v5.28h6.48a1.91,1.91,0,0,0,1.92-2v-1.39A1.87,1.87,0,0,0,551.2-311Z" transform="translate(-292.02 324.29)"/><path class="cls-1" d="M562.62-292.08c5.09-1.63,9.31-3.89,12.53-7.34H562.9V-301h13.59a21.67,21.67,0,0,0,3-5.28h-11l3.55-9.12,1.44.53-2.74,7.06h24.58a3.75,3.75,0,0,0,3.74-3.74v-1.82h1.54v1.82a5.33,5.33,0,0,1-5.28,5.28H581.15a23.89,23.89,0,0,1-2.78,5.28h28.42v1.54H595.26L606.73-292l-.82,1.25-13.44-8.69H577.21c-3.5,4.22-8.26,6.91-14.11,8.78Zm42,13.25c-12.24,4.08-25.83,6-41,7l-.1-1.54c15.12-1,28.56-2.83,40.61-6.86Zm-4.08-6.91c-10.37,4-21.75,5.81-34.66,6.77l-.1-1.54c12.72-1,24.05-2.69,34.23-6.72Zm-1.87-7.1c-9.22,4-19.35,5.66-30.87,6.58l0-1.54c11.09-.91,21.31-2.5,30.29-6.48Z" transform="translate(-292.02 324.29)"/><path class="cls-1" d="M610.62-302.21h3.5a4.28,4.28,0,0,1,4.32,4.37v21.7a2.81,2.81,0,0,0,2.83,2.83h2.83v1.54h-2.83a4.32,4.32,0,0,1-4.37-4.37v-21.7a2.77,2.77,0,0,0-2.78-2.83h-3.5Zm7.06-13.39v8.88h-1.54v-8.88ZM625-311h4.27v-4.7h1.54v4.7h18.1v-4.7h1.54v4.7h4.32v1.54h-4.32v11.33a4.42,4.42,0,0,1-4.37,4.37h-5.42v4.8h14.11v1.54h-7.15l6,15.41-1.44.53L646-287.48h-5.33v16.61h-1.54v-16.61h-5.38a56.49,56.49,0,0,1-6.62,16.08l-1.34-.82a52.93,52.93,0,0,0,6.34-15.27H625V-289h14.11v-4.8h-5.42a4.49,4.49,0,0,1-4.42-4.37v-11.33H625Zm5.81,7.82h18.1v-6.29h-18.1Zm18.1,5v-3.5h-18.1v3.5a2.88,2.88,0,0,0,2.88,2.83h12.39A2.84,2.84,0,0,0,648.92-298.18Z" transform="translate(-292.02 324.29)"/><path class="cls-1" d="M661.59-309.08v-5.71h1.54v5.71Zm0,38.26v-34.9h1.54v34.9Zm27.12-1.49h5.81a3.68,3.68,0,0,0,3.7-3.74v-33.46a3.64,3.64,0,0,0-3.7-3.7H668.79v-1.54h25.73a5.21,5.21,0,0,1,5.23,5.23v33.46a5.26,5.26,0,0,1-5.23,5.28h-5.81Zm-13.58-7.82a4.49,4.49,0,0,1-4.37-4.42v-14.83a4.42,4.42,0,0,1,4.37-4.37h11.14a4.42,4.42,0,0,1,4.37,4.37v14.83a4.49,4.49,0,0,1-4.37,4.42Zm11.14-1.54a2.88,2.88,0,0,0,2.83-2.88v-14.83a2.84,2.84,0,0,0-2.83-2.83H675.13a2.81,2.81,0,0,0-2.83,2.83v14.83a2.85,2.85,0,0,0,2.83,2.88Z" transform="translate(-292.02 324.29)"/><path class="cls-1" d="M706.76-271l1.63-39.17a4.54,4.54,0,0,1,4.37-4.32h5.67a4.42,4.42,0,0,1,4.37,4.37v34.52a4.44,4.44,0,0,1-1.25,3.07,4.28,4.28,0,0,1-3.12,1.3l-2.21,0v-1.54l2.21,0a2.61,2.61,0,0,0,2-.86,2.72,2.72,0,0,0,.82-2v-9.79H708.87l-.58,14.5ZM709-286.95h12.29v-12H709.45Zm.58-13.58h11.71v-9.6a2.81,2.81,0,0,0-2.83-2.83h-5.67a2.85,2.85,0,0,0-2.83,2.88ZM728-290.88,739-281.76a36.67,36.67,0,0,0,7.49-11.33h-19.3v-1.54h21.55a42,42,0,0,1-8.59,13.83l10,8.3-1,1.15-10.08-8.35a51.94,51.94,0,0,1-12.1,8.45l-.72-1.34a53.39,53.39,0,0,0,11.62-8.11l-10.85-9Zm22.61-8.06h-.91a5.1,5.1,0,0,1-4.9-5.28v-5.14a3.6,3.6,0,0,0-3.46-3.74H734c-1.92,0-3.07,1.82-3.41,3.89l-1.92,11-1.54-.24,1.92-11c.38-2.74,2.3-5.14,4.94-5.14h7.39a5.21,5.21,0,0,1,5,5.28v5.14a3.56,3.56,0,0,0,3.36,3.74h.91Z" transform="translate(-292.02 324.29)"/><path class="cls-2" d="M292-306.53a1.74,1.74,0,0,0,1.74,1.74h5.66a1.74,1.74,0,0,0,1.74-1.74v-7a1.74,1.74,0,0,0-1.74-1.74h-2.8a.87.87,0,0,1-.87-.87.86.86,0,0,1,0-.27,7,7,0,0,1,4.31-4.55h0a1.74,1.74,0,0,0,1.06-1.6,1.74,1.74,0,0,0-1.74-1.74,1.76,1.76,0,0,0-.66.13l-.08,0a10.47,10.47,0,0,0-6.67,9.75Zm11.33,0a1.74,1.74,0,0,0,1.74,1.74h5.66a1.74,1.74,0,0,0,1.74-1.74v-7a1.74,1.74,0,0,0-1.74-1.74H308a.87.87,0,0,1-.87-.87.83.83,0,0,1,0-.27,7,7,0,0,1,4.31-4.55h0a1.74,1.74,0,0,0,1.06-1.6,1.74,1.74,0,0,0-1.74-1.74,1.76,1.76,0,0,0-.66.13l-.08,0a10.47,10.47,0,0,0-6.67,9.75Z" transform="translate(-292.02 324.29)"/><path class="cls-2" d="M781.27-280.5a1.74,1.74,0,0,0-1.74-1.74h-5.66a1.74,1.74,0,0,0-1.74,1.74v7a1.74,1.74,0,0,0,1.74,1.74h2.8a.87.87,0,0,1,.87.87.86.86,0,0,1,0,.27,7,7,0,0,1-4.31,4.55h0a1.74,1.74,0,0,0-1.06,1.6,1.74,1.74,0,0,0,1.74,1.74,1.76,1.76,0,0,0,.66-.13l.08,0a10.47,10.47,0,0,0,6.67-9.75Zm-11.33,0a1.74,1.74,0,0,0-1.74-1.74h-5.66a1.74,1.74,0,0,0-1.74,1.74v7a1.74,1.74,0,0,0,1.74,1.74h2.8a.87.87,0,0,1,.87.87.83.83,0,0,1,0,.27,7,7,0,0,1-4.31,4.55h0a1.74,1.74,0,0,0-1.06,1.6,1.74,1.74,0,0,0,1.74,1.74,1.76,1.76,0,0,0,.66-.13l.08,0a10.47,10.47,0,0,0,6.67-9.75Z" transform="translate(-292.02 324.29)"/></svg>