<svg xmlns="http://www.w3.org/2000/svg" xmlns:xlink="http://www.w3.org/1999/xlink" viewBox="0 0 148.19 169.89"><defs><style>.cls-1{fill:none;}.cls-2{clip-path:url(#clip-path);}.cls-3{fill:#448797;}.cls-4{fill:#336f7e;}.cls-5{fill:#fff;}</style><clipPath id="clip-path"><circle class="cls-1" cx="49.72" cy="84.51" r="101.92"/></clipPath></defs><title>资源 2</title><g id="图层_2" data-name="图层 2"><g id="图层_1-2" data-name="图层 1"><g class="cls-2"><ellipse class="cls-3" cx="25.23" cy="42.21" rx="4.56" ry="48.96" transform="matrix(0.86, -0.51, 0.51, 0.86, -17.97, 18.71)"/><path class="cls-4" d="M29.15,39.89C15.39,16.61,2.48-1.22.31.07l49.83,84.3C52.31,83.08,42.91,63.17,29.15,39.89Z"/><ellipse class="cls-3" cx="26.12" cy="127.18" rx="48.96" ry="4.56" transform="translate(-97.5 87.48) rotate(-60.59)"/><path class="cls-4" d="M22.15,124.94C8.87,148.5-.12,168.6,2.08,169.83l48.09-85.3C48,83.3,35.43,101.39,22.15,124.94Z"/><ellipse class="cls-3" cx="99.23" cy="83.97" rx="48.96" ry="4.56" transform="translate(-0.85 1.02) rotate(-0.59)"/><path class="cls-4" d="M99.19,79.41c27-.28,49,1.54,49,4.06l-97.92,1C50.25,81.95,72.15,79.68,99.19,79.41Z"/><circle class="cls-5" cx="49.72" cy="84.51" r="8.65"/><circle class="cls-4" cx="49.72" cy="84.51" r="4.82"/></g></g></g></svg>