<svg id="图层_1" data-name="图层 1" xmlns="http://www.w3.org/2000/svg" viewBox="0 0 94.56 95.08"><defs><style>.cls-1{fill:#448797;}.cls-2{fill:#336f7e;}.cls-3{fill:#fff;}</style></defs><ellipse class="cls-1" cx="500.68" cy="241.23" rx="28.29" ry="2.64" transform="translate(-304.21 444.92) rotate(-74.45)"/><path class="cls-2" d="M503.22,241.93c4.19-15,6.45-27.57,5-28l-15.17,54.5C494.5,268.87,499,257,503.22,241.93Z" transform="translate(-438.24 -213.97)"/><ellipse class="cls-1" cx="465.64" cy="275.61" rx="28.29" ry="2.64" transform="translate(-492.27 -89.1) rotate(-14.45)"/><path class="cls-2" d="M465,273.06c-15.13,3.9-27.1,8.2-26.73,9.61L493,268.55C492.67,267.14,480.11,269.16,465,273.06Z" transform="translate(-438.24 -213.97)"/><ellipse class="cls-1" cx="512.91" cy="288.77" rx="2.64" ry="28.29" transform="translate(-493.71 227.81) rotate(-44.45)"/><path class="cls-2" d="M514.79,286.92c10.94,11.15,19,21,17.92,22L493.1,268.57C494.14,267.55,503.85,275.77,514.79,286.92Z" transform="translate(-438.24 -213.97)"/><circle class="cls-3" cx="54.88" cy="54.59" r="5"/><circle class="cls-2" cx="54.88" cy="54.59" r="2.78"/></svg>