<svg id="图层_1" data-name="图层 1" xmlns="http://www.w3.org/2000/svg" viewBox="0 0 13.87 14.35"><defs><style>.cls-1{fill:#c69b73;}.cls-2{fill:#784f27;}.cls-3{fill:#fff;}.cls-4{fill:#ad8463;}.cls-5{fill:#f7dfb8;}.cls-6{fill:#58595b;}</style></defs><rect class="cls-1" x="763.45" y="361.79" width="0.62" height="1.94" transform="translate(-813.59 -183.47) rotate(-12.03)"/><rect class="cls-2" x="763.61" y="363.36" width="0.62" height="0.34" transform="translate(-813.71 -183.59) rotate(-12.01)"/><rect class="cls-1" x="765.1" y="361.03" width="0.62" height="2.34" transform="translate(-813.43 -183.14) rotate(-12.03)"/><rect class="cls-2" x="765.3" y="363" width="0.62" height="0.34" transform="translate(-813.67 -182.94) rotate(-12.04)"/><rect class="cls-1" x="757.83" y="360.78" width="0.62" height="4.12" transform="translate(-813.73 -184.61) rotate(-12.03)"/><rect class="cls-2" x="758.22" y="364.51" width="0.62" height="0.34" transform="translate(-814.07 -184.64) rotate(-12.02)"/><rect class="cls-1" x="759.28" y="360.47" width="0.62" height="4.12" transform="translate(-813.63 -184.35) rotate(-12.03)"/><rect class="cls-2" x="759.67" y="364.2" width="0.62" height="0.34" transform="translate(-813.98 -184.34) rotate(-12.02)"/><path class="cls-3" d="M754.79,358.43a1.29,1.29,0,0,0,.89,1,1.85,1.85,0,0,0,2.64,2.41,2.42,2.42,0,0,0,2.6,1.18,2.38,2.38,0,0,0,1.22-.68,3.41,3.41,0,0,0,1.63.06,3.44,3.44,0,0,0-.46-6.79v0a1.81,1.81,0,1,0-2.25-2.66,1.44,1.44,0,0,0-2.53,1,2.3,2.3,0,0,0-3,3A1.29,1.29,0,0,0,754.79,358.43Z" transform="translate(-754.77 -350.57)"/><path class="cls-4" d="M765.75,354a5.58,5.58,0,0,0-1-2.62,2.83,2.83,0,0,0-2.36-.73,3.53,3.53,0,0,1,2,1.29,5.68,5.68,0,0,1,.52,2.25Z" transform="translate(-754.77 -350.57)"/><path class="cls-4" d="M764,354.33a5.58,5.58,0,0,0-1-2.62,2.83,2.83,0,0,0-2.36-.73,3.53,3.53,0,0,1,2,1.29,5.68,5.68,0,0,1,.52,2.25Z" transform="translate(-754.77 -350.57)"/><path class="cls-5" d="M765.58,355a3.21,3.21,0,0,0,1.57,1.27,1.37,1.37,0,0,0,1.48-.21,3.21,3.21,0,0,0-1.57-1.27A1.37,1.37,0,0,0,765.58,355Z" transform="translate(-754.77 -350.57)"/><path class="cls-1" d="M767.15,356.3a3.21,3.21,0,0,1-1.57-1.27l3.05,1.05A1.37,1.37,0,0,1,767.15,356.3Z" transform="translate(-754.77 -350.57)"/><path class="cls-1" d="M763.7,355.43a3.21,3.21,0,0,1-.92,1.8,1.37,1.37,0,0,1-1.44.41,3.21,3.21,0,0,1,.92-1.8A1.37,1.37,0,0,1,763.7,355.43Z" transform="translate(-754.77 -350.57)"/><path class="cls-4" d="M762.78,357.23a3.21,3.21,0,0,0,.92-1.8l-2.36,2.21A1.37,1.37,0,0,0,762.78,357.23Z" transform="translate(-754.77 -350.57)"/><path class="cls-5" d="M764.32,353.73l.8-.17a1.78,1.78,0,0,1,2.12,1.37l0,3.21a1.8,1.8,0,0,1-1.37,2.12l-.17,0Z" transform="translate(-754.77 -350.57)"/><path class="cls-1" d="M764.32,353.73l-.8.17a1.78,1.78,0,0,0-1.37,2.12l1.29,2.95a1.8,1.8,0,0,0,2.12,1.37l.17,0Z" transform="translate(-754.77 -350.57)"/><circle class="cls-6" cx="765.76" cy="356.23" r="0.37" transform="translate(-812.17 -183.24) rotate(-12.02)"/><circle class="cls-6" cx="764.03" cy="356.6" r="0.37" transform="translate(-812.31 -183.48) rotate(-12.03)"/></svg>