<svg xmlns="http://www.w3.org/2000/svg" viewBox="0 0 233.33 104.68"><defs><style>.cls-1{fill:#fff;}.cls-2{fill:#e50012;}.cls-3{fill:#231815;}</style></defs><title>logo3</title><g id="图层_2" data-name="图层 2"><g id="图层_1-2" data-name="图层 1"><path class="cls-1" d="M64.32,104.68a9.46,9.46,0,0,1-9-6.39L39.72,62.56l0-.13a9,9,0,0,1,1-8.25,10.59,10.59,0,0,1,8.53-4c5,0,8.84,3.08,9.66,7.67l8,31.48,0,.12a3.81,3.81,0,0,0,4,3.13l.54,0,.28,0,.28,0,.54,0a3.81,3.81,0,0,0,4-3.13l0-.12,8-31.48c.82-4.6,4.68-7.67,9.66-7.67a10.59,10.59,0,0,1,8.53,4,9,9,0,0,1,1,8.25l0,.13L88.18,98.3a9.46,9.46,0,0,1-9,6.39Z"/><path class="cls-1" d="M31.64,58.19a16.47,16.47,0,0,1-11.72-4.94L1.91,34.8A5.53,5.53,0,0,1,.36,28.65a6.8,6.8,0,0,1,6.15-4.34,5.79,5.79,0,0,1,4,1.59L27.29,39.69c2,1.64,3.17,1.86,4.05,1.86a11.25,11.25,0,0,0,4.4-1.29l32-18.5.12-.06c3.68-1.69,6.78-3,10.32-3A15.07,15.07,0,0,1,88,22.55l9.92,8.61a2.73,2.73,0,0,0,1.88.73,7,7,0,0,0,4.22-2l15-13.6-6.3-4.71L143.37,0l-8.62,28.09-6.56-4.91L109.35,43.55c-3.1,3.17-6.83,6.35-11.39,6.35-2.88,0-5.8-1.26-9-3.84l-.12-.1-7.91-8c-1.91-1.78-3.48-2.65-4.81-2.65s-2.92.89-4.86,2L39.64,56.1A16.47,16.47,0,0,1,31.64,58.19Z"/><path class="cls-1" d="M168.4,101.72a14.55,14.55,0,0,1-5.23-.9c-2.59-1-7.12-4-17.44-17.58-1.94,5.47-4.83,9.26-8.64,11.31l-.12.06a35.91,35.91,0,0,1-13.46,3.8L122.22,93c3-1.32,5.79-4.25,8.39-8.71,1.12-2.16,2-3.92,2.65-5.36a5.06,5.06,0,0,1-3.51-2.77,42,42,0,0,1-3.75-9l-.78-2.5,9.3-3.74A12.06,12.06,0,0,0,134,58a3.72,3.72,0,0,1-1.12-3,3.94,3.94,0,0,1,.1-.61c-3-2.19-4.12-7.55-4.8-12.35l-.33-2.39,2.31-.71c.43-.13,1.9-.53,9.58-2.42,6.35-1.56,9.05-2.85,10.2-3.67l1.55-1.1,1.6,1a19.76,19.76,0,0,0,4.34,2.08,6.26,6.26,0,0,1,4.6,6.22v.18l0,.18c-.34,2.71-2.86,4.93-8.17,7.22-2.68,1.1-5.68,2.33-9,3.67l.38.12a4.07,4.07,0,0,1,3,2.72,6.58,6.58,0,0,0,2.22-1.67l1.22-1.62,1.93.63c1.79.58,3.42,1.17,4.84,1.75,1.59.52,4,2.11,3.59,7l0,.54-.24.48c-1.54,3.15-3.38,5-5.61,5.59A38.75,38.75,0,0,0,152,69.54c8.82,10.08,13.85,13.72,16.57,15a116.58,116.58,0,0,1,15,8.09L188,95.36l-4.68,2.21C177.41,100.37,172.53,101.72,168.4,101.72Z"/><path class="cls-1" d="M212.28,104.68c-2.85,0-6.32-1.7-6.65-9.78-.17-3.84-.26-9.65-.28-17.3-3.18,1-6,1.8-8.31,2.37a8.28,8.28,0,0,1-2.08.26c-3.68,0-7.37-2.3-11.29-7l-2.75-3.33,23-6.67-2-2.51.86-1A21.14,21.14,0,0,1,200.39,58q-.13.29-.29.58l-.13.25-.18.22a17.76,17.76,0,0,1-9,5.6,13.28,13.28,0,0,1-4,.66,9.08,9.08,0,0,1-6.36-2.45L175.1,58h6.41c.43-.33,1.25-1,2.76-2.24,1.76-1.66,3.36-4.43,4.77-8.22l1.66-4.46,3.14,3.58a15,15,0,0,0,3.84,2.87,6.74,6.74,0,0,1,2,1.39c1-.27,2.71-.84,5.76-2,.23-6.56-.34-8.49-.53-9a4.6,4.6,0,0,1-1.65-3.19c-.12-1.65.63-3.25,2.28-4.9l1.25-1.25,1.67.57c9.74,3.3,11.8,5.45,12.57,7.27a4,4,0,0,1,0,3.1q-.31,1-.58,2.06c2.85.21,4.39,3.21,4.9,4.22l.13.25.08.27a6,6,0,0,1-2.12,6.48l-.09.07-.09.06q-.88.63-1.88,1.26l1.73,1.08a15.88,15.88,0,0,0,5.23,2.22c3.17.69,5,3.09,5,6.6v.81l-.42.69c-1,1.66-2.91,2.84-5.77,3.62l-.14,0-.15,0a64.35,64.35,0,0,0-7.1,1.71c-.16,7.45-.24,14-.24,19.54,0,9.69-3.83,12-7,12.19h-.19Zm7.51-47.25.42-.53-.42.25Z"/><path class="cls-2" d="M71.77,101.85h7.45a6.64,6.64,0,0,0,6.31-4.57l15.64-35.72c3.08-9.41-12.31-12-13.77-3.15l-8,31.47c-.67,4.06-4.25,5.8-7.65,5.46-3.39.33-7-1.4-7.65-5.46l-8-31.47c-1.46-8.82-16.85-6.26-13.77,3.15L58,97.27a6.64,6.64,0,0,0,6.31,4.57Z"/><path class="cls-2" d="M118.53,12.41l4.91,3.68L105.84,32c-3,2.59-6.83,3.86-9.82,1.27l-9.86-8.56c-6.35-5.21-11.38-3.09-17.08-.47L37,42.78c-4.71,2.17-7.54,2.39-11.55-.9L8.63,28c-3-2.87-8,1.94-4.76,4.71L21.95,51.27a13.54,13.54,0,0,0,16.25,2.39L69.73,34.93c4.3-2.48,7.47-4.42,13.23,1l7.85,8c6.47,5.31,10.72,3.62,16.46-2.25l20.56-22.25,5.39,4L139,4.69Z"/><path class="cls-3" d="M182.11,95q-11.73,5.54-17.92,3.17-5.83-2.31-19.65-21.31-2.38,11.73-8.78,15.19a33,33,0,0,1-12.38,3.53q5.33-2.38,9.72-9.93,4.1-7.92,5-11.16-4.39,3.24-5.83.29a39.29,39.29,0,0,1-3.53-8.49l8.78-3.53Q137.2,56.86,136,56q-1.23-1.15,2-3.24,4.39,1.73,6.48,2.38,1.73.29,1.15,4.1,5.33-1.8,7.05-4.1,2.66.86,4.75,1.73,2,.58,1.73,4.1-1.73,3.53-3.82,4.1a68.67,68.67,0,0,0-7.92,3.53q12.88,15.26,19.94,18.5A113.32,113.32,0,0,1,182.11,95ZM159.22,41q-.29,2.31-6.48,5-6.48,2.66-15.26,6.19Q132.8,54.48,131,41.6q.93-.29,9.43-2.38,8.21-2,11.16-4.1a22.47,22.47,0,0,0,5,2.38A3.44,3.44,0,0,1,159.22,41Z"/><path class="cls-3" d="M197.6,57.29A14.93,14.93,0,0,1,190,62q-4.75,1.51-7.63-1.15a26.33,26.33,0,0,0,3.82-3q3.17-3,5.54-9.36A18.14,18.14,0,0,0,196.37,52Q199.61,53.48,197.6,57.29Zm32.9,8.78q-.94,1.51-4.1,2.38A76.87,76.87,0,0,0,217,70.82q-.29,12.6-.29,21.67t-4.39,9.36q-3.53,0-3.82-7.06-.29-6.69-.29-21.09-7.06,2.38-11.81,3.53T185.86,71.4l22.32-6.48V60.24L204,62.55l3.53-4.1q-2.88,0-7.63-4.68a71.89,71.89,0,0,0,8.28-3q.58-11.16-1.22-12.88-2-1.51.58-4.1,12.09,4.1,10.87,6.69A42.27,42.27,0,0,0,217,46.71a19.45,19.45,0,0,0,3-.29q1.44-.29,3,2.66a3.19,3.19,0,0,1-1.22,3.53A44.22,44.22,0,0,1,217,55.49v7.06q2.38,0,4.68-2.88a18.59,18.59,0,0,0,6.19,2.59Q230.49,62.83,230.49,66.07Z"/></g></g></svg>