<svg xmlns="http://www.w3.org/2000/svg" viewBox="0 0 220.54 60"><defs><style>.cls-1{fill:#e50012;}</style></defs><title>资源 1</title><g id="图层_2" data-name="图层 2"><g id="图层_1-2" data-name="图层 1"><path d="M88.74,33.33H76l-1.27,1.54v6.68L76,43.21H86.37L89.62,47v8.75l-3,4.22H72V56.49H84.79c.4-.57.83-1.1,1.32-1.8V48.27l-1.36-1.54H74.37l-3.16-4V33.59l3.21-3.78H88.74Z"/><path d="M91.65,60V29.81h3.52V42.86l12-12.92,2.55,2.46L98,45.06l13,12.48L108.43,60,95.16,47.26V60Z"/><path d="M121.93,60V45.45l-8.48-10.77V29.85H117v3.69l6.72,8.22,6.77-8.22V29.85H134v4.83l-8.53,10.77V60Z"/><path d="M156.95,46.25V56.88L152,60H136.6V29.85H152l4.92,3.08V43.52l-2.15,1.36Zm-3.52-4.66V34.86L151,33.37h-10.9v9.76H151ZM151,56.44c.92-.57,1.36-.79,2.42-1.45V48.18c-.79-.48-1.49-1-2.37-1.54H140.12v9.8Z"/><path d="M180.68,29.81V54.37l-4,5.63H164.29l-4-5.63V29.81h3.52V53.28l2.29,3.21h8.75l2.28-3.25V29.81Z"/><path d="M200.76,60H184.2V29.85h3.52V56.49h13.05Z"/><path d="M220.54,60H204V29.85h3.52V56.49h13.05Z"/><path class="cls-1" d="M42.58,60h4.6a4.1,4.1,0,0,0,3.9-2.82l9.66-22.06c1.9-5.81-7.6-7.41-8.5-1.95L47.29,52.6A4.12,4.12,0,0,1,42.57,56a4.12,4.12,0,0,1-4.72-3.37L32.9,33.17c-.9-5.45-10.41-3.87-8.5,1.95l9.68,22.06A4.1,4.1,0,0,0,38,60Z"/><path class="cls-1" d="M71.45,4.77l3,2.27L63.61,16.88c-1.85,1.6-4.22,2.38-6.06.78l-6.09-5.29c-3.9-3.21-7-1.88-10.55-.29L21.15,23.52C18.24,24.86,16.5,25,14,23L3.59,14.41c-1.85-1.77-4.94,1.2-2.94,2.91L11.81,28.76a8.36,8.36,0,0,0,10,1.49L41.32,18.67c2.66-1.53,4.61-2.73,8.17.62l4.85,4.94c4,3.28,6.62,2.24,10.16-1.39L77.2,9.07l3.33,2.47L84.07,0Z"/></g></g></svg>