<svg id="图层_1" data-name="图层 1" xmlns="http://www.w3.org/2000/svg" viewBox="0 0 450.25 74.54"><defs><style>.cls-1{fill:#898989;}</style></defs><path class="cls-1" d="M79.22-286.12c-4.57-.43-9.57-.85-14.25-.85-10.21,0-20.21,3-24,11.91-2.23,6.38-3.4,14.78-3.4,23,0,8.83,1.28,17.55,4,23.71,3.62,8,13.4,9.78,23.82,9.78,4.57,0,9.15-.43,13.5-.74v1.49c-4.36.32-8.93.64-13.5.64-10.63,0-20.95-2.45-25-10.53-2.45-6.17-4.25-16.06-4.25-24.35,0-8.51,1.06-17,3.4-23.39,3.93-10.63,14.25-12.87,25.42-12.87,4.89,0,9.89.32,14.46.74Z" transform="translate(-36.16 288.35)"/><path class="cls-1" d="M127.5-259.64a47.18,47.18,0,0,1,3.08,17.33,43.46,43.46,0,0,1-3.08,16.8c-3.19,7.44-11.27,9.78-18.93,9.57-7.87-.32-13.61-3.19-16.06-9.25-1.91-4.57-3-11-3-17.23a45.36,45.36,0,0,1,3-17c3.19-7.34,11.17-9.68,19-9.46S125.06-265.6,127.5-259.64Zm-33.82.85a48.44,48.44,0,0,0-2.76,16.38,49,49,0,0,0,2.76,16.69c2.45,5,7.76,8.08,14.89,8.4s14.57-2.13,17.76-8.83a47.12,47.12,0,0,0,2.87-16.16,53.33,53.33,0,0,0-2.87-16.8c-2.45-4.89-7.87-8.19-14.78-8.4C104.32-267.62,96.88-265.38,93.69-258.79Z" transform="translate(-36.16 288.35)"/><path class="cls-1" d="M147.39-271.12v8.51l1.7-.74-.11.11c4.89-2,13.4-5.53,20.63-5.53,7.44,0,13.5,3.4,13.5,15.21v38.81h-1.38v-38.81c0-10.74-5.53-13.82-12.12-13.82-6.91,0-15.31,3.4-20.2,5.42l-2,1v46.26H146v-56.36Z" transform="translate(-36.16 288.35)"/><path class="cls-1" d="M194.92-268.79h15.53V-283h1.38v14.25h16.7v1.38h-16.7v40.2c-.11,10,5.1,12,11.38,12a47.72,47.72,0,0,0,5.42-.32l.21,1.38a50,50,0,0,1-5.64.32c-7,0-12.87-2.23-12.76-13.4v-40.2H194.92Z" transform="translate(-36.16 288.35)"/><path class="cls-1" d="M236.93-267.62a99.65,99.65,0,0,1,16.38-1.7c10,0,17.86,3,17.76,13.61,0,13.72-.11,27.54-.11,41.26h-1.38v-7.12c-4.36,2.66-12.33,5.53-19.14,5.53-3.4,0-6.27-.53-8.51-2.34a14.33,14.33,0,0,1-5.74-11.8c0-6.59,4.57-13.5,10.42-15a74.61,74.61,0,0,1,14.67-1.49q4.63,0,8.29.32l.11-9.36c.11-9.57-7.12-12.23-16.38-12.23a111.43,111.43,0,0,0-16.16,1.7Zm32.65,44.45v-21.69c-2.45-.11-5.1-.32-8.29-.32a73.44,73.44,0,0,0-14.46,1.38c-5.32,1.06-9.25,7.34-9.25,13.61a13.32,13.32,0,0,0,5.1,10.63,14.12,14.12,0,0,0,7.76,2.13A39.53,39.53,0,0,0,269.58-223.17Z" transform="translate(-36.16 288.35)"/><path class="cls-1" d="M319.66-217.53a56.54,56.54,0,0,1-13.19,1.7c-5.42,0-11-1.38-14.67-4.25-3.72-3.93-6.59-13.51-6.59-22.44,0-9.46,2.23-19,7.66-23.29v.11c3.51-2.76,8.19-3.72,12.76-3.72a66.9,66.9,0,0,1,14.14,1.91l-.32,1.49a61.08,61.08,0,0,0-13.82-1.91c-4.25,0-8.72.85-12,3.4-4.89,3.83-7,12.87-7,22s2.23,18.29,6.06,21.37c3.3,2.87,8.51,3.83,13.82,3.83a50.15,50.15,0,0,0,12.87-1.7Z" transform="translate(-36.16 288.35)"/><path class="cls-1" d="M326.25-268.79h15.53V-283h1.38v14.25h16.7v1.38h-16.7v40.2c-.11,10,5.1,12,11.38,12a47.72,47.72,0,0,0,5.42-.32l.21,1.38a50,50,0,0,1-5.64.32c-7,0-12.87-2.23-12.76-13.4v-40.2H326.25Z" transform="translate(-36.16 288.35)"/><path class="cls-1" d="M435.89-214.23v-8.4l-1.59.64.11-.11c-4.89,2-13.5,5.53-20.74,5.53-7.44,0-13.5-3.4-13.5-15.21v-38.81h1.38v38.81c0,10.74,5.53,13.82,12.12,13.82,7.13,0,15.42-3.3,20.2-5.32l2-.85v-46.47h1.38v56.36Z" transform="translate(-36.16 288.35)"/><path class="cls-1" d="M486.19-266.13l-3.3-.32a131.11,131.11,0,0,0-14.46-1.17c-8,0-13.4,2-13.82,9.68-.43,6.59,6.81,10.53,14,14.36,7.66,3.93,16.38,8.72,16,16.91-.32,6-4.47,10.85-17.44,10.85a98.23,98.23,0,0,1-17.23-1.91l.21-1.38a97.2,97.2,0,0,0,17,1.91c12,0,15.74-4.25,16.06-9.46.32-7.76-7.55-11.8-15.21-15.74s-15.21-8-14.89-15.53c.64-8.83,6.49-11.06,15.31-11.06,4,0,9.78.64,14.67,1.17l3.3.21Z" transform="translate(-36.16 288.35)"/></svg>