<svg id="图层_1" data-name="图层 1" xmlns="http://www.w3.org/2000/svg" viewBox="0 0 50.9 50.9"><defs><style>.cls-1{fill:#6cf;fill-rule:evenodd;}.cls-2{fill:#fff;}</style></defs><path class="cls-1" d="M927.84,114.27a25.45,25.45,0,1,0-25.45-25.45,25.5,25.5,0,0,0,25.45,25.45Z" transform="translate(-902.39 -63.37)"/><path class="cls-2" d="M939.06,84.78a.34.34,0,0,0-.11-.27l-2.32-2.09,1-3a.39.39,0,0,0,0-.29.3.3,0,0,0-.24-.18l-3-.65-.65-3a.37.37,0,0,0-.18-.24.34.34,0,0,0-.29,0l-3,1-2.09-2.31a.36.36,0,0,0-.27-.13.41.41,0,0,0-.28.13L925.47,76l-3-1a.37.37,0,0,0-.31,0,.33.33,0,0,0-.17.24l-.65,3-3.05.65a.35.35,0,0,0-.24.18.35.35,0,0,0,0,.29l1,3-2.3,2.09a.36.36,0,0,0-.13.27.37.37,0,0,0,.13.27l2.3,2.09-1,3a.38.38,0,0,0,0,.31.33.33,0,0,0,.24.17l2.73.58-3.69,10.35a.36.36,0,0,0,.08.37.34.34,0,0,0,.36.1l4-1,2.81,3a.35.35,0,0,0,.27.11H925a.37.37,0,0,0,.27-.27l1.92-8.35.39.43a.42.42,0,0,0,.28.13.36.36,0,0,0,.27-.13l.4-.43,1.93,8.35a.34.34,0,0,0,.25.27h.1a.36.36,0,0,0,.27-.11l2.81-3,4,1h.1a.36.36,0,0,0,.36-.36.34.34,0,0,0,0-.17L934.6,91.16l2.72-.58a.32.32,0,0,0,.24-.17.43.43,0,0,0,0-.31l-1-3,2.32-2.09A.35.35,0,0,0,939.06,84.78ZM924.68,103l-2.5-2.66a.33.33,0,0,0-.27-.11h-.09l-3.54.89L921.56,92l.49,2.29a.39.39,0,0,0,.17.24.41.41,0,0,0,.31,0l3-1,1.09,1.22Zm12.69-1.87-3.52-.89a.4.4,0,0,0-.37.1L931,103l-1.9-8.17,1.1-1.22,3,1a.37.37,0,0,0,.29,0,.46.46,0,0,0,.18-.24l.48-2.29ZM936,86.76a.38.38,0,0,0-.11.38l.92,2.8-2.89.61a.41.41,0,0,0-.28.29L933,93.72l-2.8-.9a.34.34,0,0,0-.38.1l-2,2.19-2-2.19a.4.4,0,0,0-.28-.13l-.11,0-2.8.9-.61-2.88a.39.39,0,0,0-.28-.29l-2.88-.61.9-2.8a.37.37,0,0,0-.1-.38l-2.19-2,2.19-2a.36.36,0,0,0,.1-.38l-.9-2.8,2.88-.61a.37.37,0,0,0,.28-.29l.61-2.88,2.8.9a.36.36,0,0,0,.39-.1l2-2.19,2,2.19a.34.34,0,0,0,.38.1l2.8-.9.61,2.88a.38.38,0,0,0,.28.29l2.89.61-.92,2.8a.36.36,0,0,0,.11.38l2.18,2Z" transform="translate(-902.39 -63.37)"/><path class="cls-2" d="M927.84,79.16a5.63,5.63,0,1,0,5.62,5.62A5.64,5.64,0,0,0,927.84,79.16Zm0,10.52a4.9,4.9,0,1,1,4.89-4.9A4.91,4.91,0,0,1,927.84,89.68Z" transform="translate(-902.39 -63.37)"/></svg>