<svg id="图层_1" data-name="图层 1" xmlns="http://www.w3.org/2000/svg" viewBox="0 0 50.9 50.9"><defs><style>.cls-1{fill:#fc9;fill-rule:evenodd;}.cls-2{fill:#fff;}</style></defs><path class="cls-1" d="M1093.49,126.07A25.45,25.45,0,1,0,1068,100.63a25.5,25.5,0,0,0,25.45,25.45Z" transform="translate(-1068.05 -75.18)"/><path class="cls-2" d="M1089.33,109.93a.37.37,0,0,0,.47-.22l1-2.57h5.76l1,2.57a.36.36,0,0,0,.34.23h.13a.39.39,0,0,0,.22-.49L1094,98.3a.36.36,0,0,0-.69,0l-4.19,11.14A.38.38,0,0,0,1089.33,109.93Zm4.32-10.46,2.61,7H1091Z" transform="translate(-1068.05 -75.18)"/><path class="cls-2" d="M1104.15,87h-18.36a3.51,3.51,0,0,0-3.3,3.68,2.36,2.36,0,0,0,0,.28.22.22,0,0,0,0,.09v19.81a3.3,3.3,0,0,0,3.3,3.31h18.36a.37.37,0,0,0,.37-.37V87.4A.37.37,0,0,0,1104.15,87Zm-.37,26.43h-18a2.56,2.56,0,0,1-2.56-2.57V93a3.17,3.17,0,0,0,2.56,1.36h.37v1.11a.34.34,0,0,0,.18.3.35.35,0,0,0,.36,0l2.78-1.39,2.77,1.39a.34.34,0,0,0,.17,0,.4.4,0,0,0,.37-.37V94.38h11Zm-16.89-18.58V90H1092v4.91l-2.41-1.2a.41.41,0,0,0-.16,0,.41.41,0,0,0-.17,0Zm16.89-1.24h-11V92.18h11Zm0-2.2h-11V90h11Zm0-2.2h-17.26a.36.36,0,0,0-.37.36v4h-.37a3,3,0,0,1,0-5.88h18Z" transform="translate(-1068.05 -75.18)"/></svg>