<svg id="图层_1" data-name="图层 1" xmlns="http://www.w3.org/2000/svg" viewBox="0 0 76.35 76.35"><defs><style>.cls-1{fill:#c69;fill-rule:evenodd;}.cls-2{fill:#fff;}</style></defs><path class="cls-1" d="M1012.88,106.39a38.17,38.17,0,1,0-38.17-38.17,38.25,38.25,0,0,0,38.17,38.17Z" transform="translate(-974.71 -30.04)"/><path class="cls-2" d="M1010.4,46.06a.53.53,0,0,0-.55,0,.55.55,0,0,0-.28.47v9l-5,4-5-4v-9a.55.55,0,0,0-.28-.47.53.53,0,0,0-.55,0,11.46,11.46,0,0,0,.83,20.31v19a5,5,0,1,0,9.9,0v-19a11.46,11.46,0,0,0,.83-20.31Zm-1.6,19.47a.55.55,0,0,0-.32.5v19.3a3.86,3.86,0,1,1-7.71,0V66a.55.55,0,0,0-.32-.5,10.38,10.38,0,0,1-1.88-18v8.23a.57.57,0,0,0,.21.44l5.51,4.4a.54.54,0,0,0,.69,0l5.51-4.4a.56.56,0,0,0,.21-.44V47.54a10.38,10.38,0,0,1-1.88,18Z" transform="translate(-974.71 -30.04)"/><path class="cls-2" d="M1004.62,82.95a2.38,2.38,0,1,0,2.38,2.38A2.38,2.38,0,0,0,1004.62,82.95Zm0,3.67a1.29,1.29,0,0,1,0-2.57,1.29,1.29,0,0,1,0,2.57Z" transform="translate(-974.71 -30.04)"/><path class="cls-2" d="M1032.12,69.54h-3.86V58.17l3.19-4.27a.52.52,0,0,0,.05-.57l-3.3-6.62a.59.59,0,0,0-.49-.3h-4.4a.56.56,0,0,0-.5.3l-3.31,6.62a.55.55,0,0,0,.06.57l3.19,4.27V69.54h-3.86a.55.55,0,0,0-.56.55v3.31a.55.55,0,0,0,.56.55h1.64V85.51a5,5,0,0,0,9.91,0V73.94h1.66a.54.54,0,0,0,.54-.55V70.09A.54.54,0,0,0,1032.12,69.54Zm-8.46-22h3.72l3,6-2.94,3.92h-3.85l-2.93-3.92Zm.2,11h3.31v11h-3.31Zm7.71,14.32h-1.66a.55.55,0,0,0-.54.56V85.51a3.86,3.86,0,0,1-7.71,0V73.39a.55.55,0,0,0-.55-.56h-1.65v-2.2h12.11Z" transform="translate(-974.71 -30.04)"/></svg>