<svg id="图层_1" data-name="图层 1" xmlns="http://www.w3.org/2000/svg" viewBox="0 0 680.55 62.7"><defs><style>.cls-1{fill:#fff;}.cls-2{fill:#fff;fill-rule:evenodd;}</style></defs><path class="cls-1" d="M335.16,174.7v-7h-6.72a5.26,5.26,0,0,1-5.28-5.28v-28.9h1.54v28.9a3.72,3.72,0,0,0,3.74,3.74h6.72V129.92h1.54V174.7Zm8.21-33.31,10.9,15.12a76.42,76.42,0,0,0,7.06-18.67H342.84l1.39-7.49,1.54.29-1.06,5.66h22.08v1.54H363A76.91,76.91,0,0,1,355.27,158l10.94,15.17-1.3.91-10.51-14.59a55.1,55.1,0,0,1-13,14.55l-1-1.15a53.58,53.58,0,0,0,13-14.83l-11.28-15.7Z" transform="translate(-292.68 -120.79)"/><path class="cls-1" d="M407.69,131l-3.6,7.63h10.85v1.54H402.31l12.87,16.37-1.15.91-13.63-17.28H385.08a33.17,33.17,0,0,1-13.87,16.9l-.82-1.25a31.64,31.64,0,0,0,13.06-15.65h-12.1v-1.54H382.2L378.5,131l1.34-.62,4,8.26h18.58l3.94-8.26Zm7.92,42.68H370.68v-1.54h4.75V160.35a5.47,5.47,0,0,1,5.28-5.62h24.82a5.53,5.53,0,0,1,5.28,5.62v11.81h4.8ZM377,172.16h9.55V156.27h-5.81a3.92,3.92,0,0,0-3.74,4.08Zm11.09,0h9.89V156.27h-9.89Zm11.42-15.89v15.89h9.79V160.35a3.89,3.89,0,0,0-3.74-4.08Z" transform="translate(-292.68 -120.79)"/><path class="cls-1" d="M426,155.89V139h-7V137.5h7v-7.39h1.54v7.39h4.7V139h-4.7v16l5.28-3,.72,1.34-6,3.46v12a2.81,2.81,0,0,1-.1.62,2.41,2.41,0,0,1-.1.62l-.1.19-.14.38-.14.34-.19.38a3.07,3.07,0,0,1-.48.62l-.24.29a5,5,0,0,1-2.21,1.34l-.19,0a5.14,5.14,0,0,1-1.2.14h-2.59v-1.49h2.74c.1,0,.19,0,.29,0a5.63,5.63,0,0,0,1-.24l.1,0a3.72,3.72,0,0,0,1.39-1.2,5.3,5.3,0,0,0,.58-1.3.61.61,0,0,1,0-.29c0-.19,0-.38,0-.62V157.66l-6.53,3.7-.72-1.34Zm18.53,19H443v-9.17h-9v-1.54h9V151.85h-8.4v-1.54H443V139h-8.4V137.5H443v-7.58h1.54Zm9.79-9.17v9.17h-1.54v-45h1.54v7.58h8.35V139H454.3v11.28h8.35v1.54H454.3v12.34h8.93v1.54Z" transform="translate(-292.68 -120.79)"/><path class="cls-1" d="M482.33,131.84,467.69,142.4l-.86-1.3,14.59-10.56Zm-5.62,42.82-.1-26.21-8.93,6.43-.86-1.25,11.33-8.16.1,29.19Zm6.62-29.33h27.84v1.54h-5.62v22.32a5.33,5.33,0,0,1-5.28,5.28h-6.43v-1.54h6.43a3.75,3.75,0,0,0,3.74-3.74V146.86H483.34Zm2.35-12.53h24.72v1.54H485.69Z" transform="translate(-292.68 -120.79)"/><path class="cls-1" d="M518.47,141.53v2a270.51,270.51,0,0,1-1.68,30.29l-1.54-.14a270.51,270.51,0,0,0,1.68-30.15v-2Zm5.86-11.76v7.15h7.34v1.54h-7.34v36.29h-1.54V138.46h-7.3v-1.54h7.3v-7.15Zm5.52,11.76v32.55h-1.49V141.53ZM533,134h12.15v-4.18h1.54V134h12.1v1.54H533Zm0,20.21h12.15v-4.66h1.54v4.66h12.1v1.54H540.12a52.52,52.52,0,0,1-.48,5.9h13.44a4.13,4.13,0,0,1,4,4.37v3.74a4.18,4.18,0,0,1-4,4.42h-2.83v-1.54h2.83a2.67,2.67,0,0,0,2.45-2.88V166a2.62,2.62,0,0,0-2.45-2.83H539.45a30.46,30.46,0,0,1-4.13,11l-1.34-.82c3.07-5.18,4.32-10,4.61-17.62H533Zm21.89-15.84v5.52a4.25,4.25,0,0,1,3.26,4.22v2.26h-1.54v-2.26a2.68,2.68,0,0,0-2.54-2.78H537.67a2.68,2.68,0,0,0-2.54,2.78v2.26h-1.54v-2.26a4.21,4.21,0,0,1,3.26-4.22v-5.52h1.54v5.42h14.93v-5.42Z" transform="translate(-292.68 -120.79)"/><path class="cls-1" d="M584.62,174.32v-9.5H568.1l-.38,9.75-1.54,0,1.1-26.4a5.34,5.34,0,0,1,5.28-5.18h22.8l3.31-6.43H569.06l3-6.29,1.34.62-2,4.13h29.71l-4,8h1.44a5.29,5.29,0,0,1,5.28,5.23v20.93a5.33,5.33,0,0,1-5.28,5.28h-3.65v-1.54h3.65a3.72,3.72,0,0,0,3.74-3.74v-4.27H586.1v9.5Zm-16.42-11h16.42v-9h-16Zm.43-10.51h16v-8.3h-12a3.81,3.81,0,0,0-3.74,3.74Zm17.47-8.3v8.3h16.18v-4.61a3.68,3.68,0,0,0-3.74-3.7Zm0,18.82h16.18v-9H586.1Z" transform="translate(-292.68 -120.79)"/><path class="cls-1" d="M614.61,130.73v8.45h-1.54v-8.45Zm38.12,43H618.31a5.25,5.25,0,0,1-5.23-5.28V142.3h1.54v26.16a3.68,3.68,0,0,0,3.7,3.74h34.42Zm-33.27-41.43h33.46v1.49H637.51a18,18,0,0,1-3.84,4.66,26,26,0,0,1,4.42,6.67l1.06,1.63,12-6.86.72,1.39L640,148.06l11.47,17.67-1.25.82-10.37-16a21.9,21.9,0,0,1,.38,3.94,18.62,18.62,0,0,1-7.44,14.93l-1-1.15a17.1,17.1,0,0,0,6.82-12.67,83.93,83.93,0,0,1-18.82,10.8l-.62-1.44c7.34-3.17,13.92-6.67,19.44-11.33a20.22,20.22,0,0,0-1.82-7.54,76.2,76.2,0,0,1-16.42,9.65l-.62-1.34c6-2.78,11.76-5.86,16.37-9.7a23.27,23.27,0,0,0-3.7-5.23A50.82,50.82,0,0,1,620.18,146l-.53-1.44c8-3.12,13.3-6.72,16-10.8H619.46Z" transform="translate(-292.68 -120.79)"/><path class="cls-1" d="M702.51,165.73h-10.8l10.42,7.06-.91,1.3L689,165.73H672.89a45.63,45.63,0,0,1-12.58,8.21l-.62-1.44a44.24,44.24,0,0,0,10.94-6.77H659.45v-1.54h5.14v-20.4a4.32,4.32,0,0,1,4.37-4.37h11.23v-4.85H660.55V133h19.63v-3.17h1.54V133H701.4v1.54H681.72v4.85H693a4.32,4.32,0,0,1,4.37,4.37v20.4h5.14Zm-36.39-20.31h29.71v-1.63A2.81,2.81,0,0,0,693,141H669a2.81,2.81,0,0,0-2.83,2.83Zm0,6.24h29.71V147H666.12Zm0,6.24h29.71v-4.7H666.12Zm0,6.29h29.71v-4.75H666.12Z" transform="translate(-292.68 -120.79)"/><path class="cls-1" d="M708.84,133.56H750.6v1.54H730.06V151h18.87v1.54H730.06V172.4H750.6v1.54H707.35V172.4h6.91V143h1.54V172.4h12.72V135.1H708.84Z" transform="translate(-292.68 -120.79)"/><path class="cls-1" d="M770.42,171.2l-6.77-15.75a46.71,46.71,0,0,1-7.1,18.82l-1.25-.77c5.28-8.5,7.58-16.47,7.58-29V130.59h1.54v13.87c0,2.88-.14,5.52-.38,8h0l7.78,18.1Zm-12.58-36.34V154h-1.54V134.86Zm12.34-.62v18.24h-1.54V134.24Zm28.37,25.2c-6.82,8-13.68,12.1-25,14.26l-.24-1.54c10.8-2.06,17.52-6.14,24.05-13.68Zm-18.87-26.69c-.38,9.36-1.73,17-4.22,23.76L774,156c2.45-6.58,3.75-14.11,4.13-23.33Zm6,30.15v-33h1.54v33Zm8.79-30.34,4.27,23.52-1.54.24-4.27-23.47Z" transform="translate(-292.68 -120.79)"/><path class="cls-1" d="M803.06,174.66l1.63-39.17a4.54,4.54,0,0,1,4.37-4.32h5.67a4.42,4.42,0,0,1,4.37,4.37V170a4.44,4.44,0,0,1-1.25,3.07,4.28,4.28,0,0,1-3.12,1.3l-2.21,0v-1.54l2.21,0a2.61,2.61,0,0,0,2-.86,2.72,2.72,0,0,0,.82-2v-9.79H805.17l-.58,14.5Zm2.21-15.94h12.29v-12H805.75Zm.58-13.58h11.71v-9.6a2.81,2.81,0,0,0-2.83-2.83h-5.67a2.85,2.85,0,0,0-2.83,2.88Zm18.48,9.65,10.95,9.12a36.67,36.67,0,0,0,7.49-11.33h-19.3V151H845a42,42,0,0,1-8.59,13.83l10,8.3-1,1.15L835.37,166a51.94,51.94,0,0,1-12.1,8.45l-.72-1.34A53.39,53.39,0,0,0,834.17,165l-10.85-9Zm22.61-8.06H846a5.1,5.1,0,0,1-4.9-5.28V136.3a3.6,3.6,0,0,0-3.46-3.74h-7.39c-1.92,0-3.07,1.82-3.41,3.89l-1.92,11-1.54-.24,1.92-11c.38-2.74,2.3-5.14,4.94-5.14h7.39a5.21,5.21,0,0,1,5,5.28v5.14a3.56,3.56,0,0,0,3.36,3.74h.91Z" transform="translate(-292.68 -120.79)"/><path class="cls-1" d="M873.77,129.87v4H894.7v1.54H851.3V133.9h20.93v-4Zm-20.26,45V158.62a5.33,5.33,0,0,1,5.28-5.28h29a5.39,5.39,0,0,1,5.28,5.28v10.9a5.33,5.33,0,0,1-5.28,5.28h-2.21v-1.54h2.21a3.69,3.69,0,0,0,3.74-3.74v-10.9a3.69,3.69,0,0,0-3.74-3.74h-29a3.72,3.72,0,0,0-3.74,3.74V174.9Zm35.71-29a3.52,3.52,0,0,1-3.55,3.46H860.28a3.52,3.52,0,0,1-3.55-3.46v-3a3.53,3.53,0,0,1,3.55-3.5h25.39a3.47,3.47,0,0,1,3.55,3.5Zm-1.54-3a2,2,0,0,0-2-2H860.28a2,2,0,0,0-2,2v3a1.92,1.92,0,0,0,2,1.92h25.39a1.92,1.92,0,0,0,2-1.92Zm-1.92,23.47a3.57,3.57,0,0,1-3.55,3.5H864.36a3.57,3.57,0,0,1-3.55-3.5v-3.79a3.57,3.57,0,0,1,3.55-3.5h17.86a3.57,3.57,0,0,1,3.55,3.5Zm-1.54-3.79a2,2,0,0,0-2-2H864.36a2,2,0,0,0-2,2v3.79a2,2,0,0,0,2,2h17.86a2,2,0,0,0,2-2Z" transform="translate(-292.68 -120.79)"/><path class="cls-1" d="M910.05,172.21H918a3.67,3.67,0,0,0,3.7-3.7v-8.26H899.21v-1.49h22.47V148.25h-21v-1.54h21v-12l-19,.72-.1-1.54,37.68-1.49.1,1.54-17.19.67v12h18.53v1.54H923.21v10.51h19.54v1.49H923.21v8.26a5.24,5.24,0,0,1-5.23,5.23h-7.92Z" transform="translate(-292.68 -120.79)"/><path class="cls-2" d="M292.68,138.55a1.74,1.74,0,0,0,1.74,1.74h5.66a1.74,1.74,0,0,0,1.74-1.74v-7a1.74,1.74,0,0,0-1.74-1.74h-2.8a.87.87,0,0,1-.87-.87.86.86,0,0,1,0-.27,7,7,0,0,1,4.31-4.55h0a1.74,1.74,0,0,0-1.35-3.22l-.08,0a10.47,10.47,0,0,0-6.67,9.75Zm11.33,0a1.74,1.74,0,0,0,1.74,1.74h5.66a1.74,1.74,0,0,0,1.74-1.74v-7a1.74,1.74,0,0,0-1.74-1.74h-2.8a.87.87,0,0,1-.87-.87.83.83,0,0,1,0-.27,7,7,0,0,1,4.31-4.55h0a1.74,1.74,0,0,0-1.35-3.22l-.08,0A10.47,10.47,0,0,0,304,130.7Z" transform="translate(-292.68 -120.79)"/><path class="cls-2" d="M973.23,165.74a1.74,1.74,0,0,0-1.74-1.74h-5.66a1.74,1.74,0,0,0-1.74,1.74v7a1.74,1.74,0,0,0,1.74,1.74h2.8a.87.87,0,0,1,.87.87.86.86,0,0,1,0,.27,7,7,0,0,1-4.31,4.55h0a1.74,1.74,0,0,0,1.35,3.22l.08,0a10.47,10.47,0,0,0,6.67-9.75Zm-11.33,0a1.74,1.74,0,0,0-1.74-1.74h-5.66a1.74,1.74,0,0,0-1.74,1.74v7a1.74,1.74,0,0,0,1.74,1.74h2.8a.87.87,0,0,1,.87.87.83.83,0,0,1,0,.27,7,7,0,0,1-4.31,4.55h0a1.74,1.74,0,0,0,1.35,3.22l.08,0a10.47,10.47,0,0,0,6.67-9.75Z" transform="translate(-292.68 -120.79)"/></svg>