<svg id="Objects" xmlns="http://www.w3.org/2000/svg" viewBox="0 0 281.06 281.06"><defs><style>.cls-1{fill:#fff;}</style></defs><path class="cls-1" d="M398.57-192a124,124,0,0,1-51,10.92A124.47,124.47,0,0,1,223.06-305.53,124.47,124.47,0,0,1,347.53-430,124.47,124.47,0,0,1,472-305.53a124.32,124.32,0,0,1-6.53,39.89l15.22,5.15a140.36,140.36,0,0,0,7.37-45A140.53,140.53,0,0,0,347.53-446.06,140.53,140.53,0,0,0,207-305.53,140.53,140.53,0,0,0,347.53-165a140,140,0,0,0,57.63-12.32Z" transform="translate(-207 446.06)"/></svg>