<svg id="图层_1" data-name="图层 1" xmlns="http://www.w3.org/2000/svg" viewBox="0 0 100 30"><defs><style>.cls-1{fill:#A8A8B7;}.cls-2{fill:#fff;}</style></defs><rect class="cls-1" width="100" height="30" rx="15" ry="15"/><path class="cls-2" d="M326.92,96a13,13,0,0,1,2.39,1.9l-1,1.2A12.46,12.46,0,0,0,325.93,97Zm1.27,4.43,1.2.84a33.93,33.93,0,0,1-2,6.4l-1.41-1A34.16,34.16,0,0,0,328.18,100.44Zm-.77-8.65a24.47,24.47,0,0,1,2.25,2l-1.12,1.13a12.7,12.7,0,0,0-2.18-2.32Zm2.32.42h4.5v5.06h-2.81v2.6h3q0,5.48-.42,6.54a1.64,1.64,0,0,1-1.69,1.05,7.29,7.29,0,0,1-1.62-.21l-.28-1.34a9.27,9.27,0,0,0,1.76.21c.33,0,.55-.25.67-.74a30.76,30.76,0,0,0,.25-4.25h-3V96h2.81V93.47h-3.16Zm6-.56h1.2V98h5.2v1.34h-3q.84,4.5,3.3,6.4l-.7,1.34q-2.81-2.25-3.8-7.73h-1v6.61a10.54,10.54,0,0,0,1.76-1.2l.49,1a15.62,15.62,0,0,1-2.67,1.76l-.77-.77V99.31h-1.27V98h1.27Zm4.08.35,1.2.42a16,16,0,0,1-2.46,5l-1.12-.7A16.54,16.54,0,0,0,339.78,92Z" transform="translate(-301.88 -84.63)"/><path class="cls-2" d="M344.92,92.35h5.77V98h-1.9v2.18h1.9v1.27h-1.9v3.45l2.25-.56.21,1.2a65.46,65.46,0,0,1-6.89,1.9l-.49-1.41,1.05-.21V99.59h1.34v5.91l1.27-.28V98h-2.6Zm1.34,4.36h3V93.62h-3ZM353,92.28l1.34.28q-.21,1-.49,1.9h1.34v-3h1.34v3h3v1.34h-3v3.59h3.59v1.34h-3.37a12.68,12.68,0,0,0,3.73,5.55l-.77,1.48a14.65,14.65,0,0,1-3.66-5.55,11.44,11.44,0,0,1-3.8,5.41l-1.12-.91a9.62,9.62,0,0,0,3.87-6h-3.52V99.38h3.73V95.79h-1.83a10.65,10.65,0,0,1-1.27,2.53l-1.12-1A13.81,13.81,0,0,0,353,92.28Z" transform="translate(-301.88 -84.63)"/><path class="cls-2" d="M366,101l1.34.7a24.31,24.31,0,0,1-3.73,4.92l-1.12-1.05A27.78,27.78,0,0,0,366,101Zm3.8-6.19h1.41v3.66h5.7v1.27h-5.7v6a1.49,1.49,0,0,1-1.83,1.83,8.4,8.4,0,0,1-1.9-.21l-.28-1.34a9.37,9.37,0,0,0,2,.21c.42,0,.63-.26.63-.77V99.73h-5.48l-.7-.91a58.28,58.28,0,0,0,.63-6,61.26,61.26,0,0,0,11.18-1.34l.56,1.27A83,83,0,0,1,365.59,94q-.21,2.39-.49,4.43h4.71Zm4.5,6.26a37.81,37.81,0,0,1,3.52,4.5l-1.34,1a37.56,37.56,0,0,0-3.3-4.71Z" transform="translate(-301.88 -84.63)"/></svg>